{
  "header": {
    "PPQ": 120,
    "timeSignature": [
      4,
      4
    ],
    "bpm": 200,
    "name": "untitled"
  },
  "startTime": 0,
  "duration": 97.79249999999975,
  "tracks": [
    {
      "startTime": 0,
      "duration": 0,
      "length": 0,
      "notes": [],
      "controlChanges": {},
      "id": 0,
      "name": "untitled"
    },
    {
      "startTime": 1.2,
      "duration": 97.79249999999975,
      "length": 1337,
      "notes": [
        {
          "name": "C2",
          "midi": 36,
          "time": 1.2,
          "velocity": 0.7322834645669292,
          "duration": 2.3349999999999937
        },
        {
          "name": "C3",
          "midi": 48,
          "time": 1.2,
          "velocity": 0.7401574803149606,
          "duration": 0.06499999999999995
        },
        {
          "name": "C3",
          "midi": 48,
          "time": 1.275,
          "velocity": 0.6299212598425197,
          "duration": 2.2149999999999945
        },
        {
          "name": "G3",
          "midi": 55,
          "time": 1.3499999999999999,
          "velocity": 0.6456692913385826,
          "duration": 0.06499999999999995
        },
        {
          "name": "C4",
          "midi": 60,
          "time": 1.4249999999999998,
          "velocity": 0.5669291338582677,
          "duration": 0.06499999999999995
        },
        {
          "name": "E4",
          "midi": 64,
          "time": 1.4999999999999998,
          "velocity": 0.6456692913385826,
          "duration": 0.06499999999999995
        },
        {
          "name": "C4",
          "midi": 60,
          "time": 1.5749999999999997,
          "velocity": 0.48031496062992124,
          "duration": 0.06499999999999995
        },
        {
          "name": "G4",
          "midi": 67,
          "time": 1.6499999999999997,
          "velocity": 0.5748031496062992,
          "duration": 0.06499999999999995
        },
        {
          "name": "C5",
          "midi": 72,
          "time": 1.7249999999999996,
          "velocity": 0.5669291338582677,
          "duration": 0.06499999999999995
        },
        {
          "name": "E5",
          "midi": 76,
          "time": 1.7999999999999996,
          "velocity": 0.6299212598425197,
          "duration": 0.06499999999999995
        },
        {
          "name": "C5",
          "midi": 72,
          "time": 1.8749999999999996,
          "velocity": 0.5196850393700787,
          "duration": 0.06499999999999995
        },
        {
          "name": "G5",
          "midi": 79,
          "time": 1.9499999999999995,
          "velocity": 0.5511811023622047,
          "duration": 0.06500000000000017
        },
        {
          "name": "C6",
          "midi": 84,
          "time": 2.0249999999999995,
          "velocity": 0.5275590551181102,
          "duration": 0.06499999999999995
        },
        {
          "name": "E6",
          "midi": 88,
          "time": 2.099999999999999,
          "velocity": 0.6141732283464567,
          "duration": 0.06499999999999995
        },
        {
          "name": "C6",
          "midi": 84,
          "time": 2.174999999999999,
          "velocity": 0.4645669291338583,
          "duration": 0.06499999999999995
        },
        {
          "name": "G6",
          "midi": 91,
          "time": 2.2499999999999987,
          "velocity": 0.5984251968503937,
          "duration": 0.06499999999999995
        },
        {
          "name": "C7",
          "midi": 96,
          "time": 2.3249999999999984,
          "velocity": 0.5748031496062992,
          "duration": 0.06499999999999995
        },
        {
          "name": "E7",
          "midi": 100,
          "time": 2.399999999999998,
          "velocity": 0.6141732283464567,
          "duration": 0.06499999999999995
        },
        {
          "name": "C7",
          "midi": 96,
          "time": 2.474999999999998,
          "velocity": 0.5118110236220472,
          "duration": 0.06499999999999995
        },
        {
          "name": "G6",
          "midi": 91,
          "time": 2.5499999999999976,
          "velocity": 0.44881889763779526,
          "duration": 0.06499999999999995
        },
        {
          "name": "C6",
          "midi": 84,
          "time": 2.6249999999999973,
          "velocity": 0.4094488188976378,
          "duration": 0.06499999999999995
        },
        {
          "name": "E6",
          "midi": 88,
          "time": 2.699999999999997,
          "velocity": 0.6062992125984252,
          "duration": 0.06499999999999995
        },
        {
          "name": "C6",
          "midi": 84,
          "time": 2.774999999999997,
          "velocity": 0.5590551181102362,
          "duration": 0.06499999999999995
        },
        {
          "name": "G5",
          "midi": 79,
          "time": 2.8499999999999965,
          "velocity": 0.5433070866141733,
          "duration": 0.06499999999999995
        },
        {
          "name": "C5",
          "midi": 72,
          "time": 2.9249999999999963,
          "velocity": 0.5196850393700787,
          "duration": 0.06499999999999995
        },
        {
          "name": "E5",
          "midi": 76,
          "time": 2.999999999999996,
          "velocity": 0.6220472440944882,
          "duration": 0.06499999999999995
        },
        {
          "name": "C5",
          "midi": 72,
          "time": 3.0749999999999957,
          "velocity": 0.4330708661417323,
          "duration": 0.06499999999999995
        },
        {
          "name": "G4",
          "midi": 67,
          "time": 3.1499999999999955,
          "velocity": 0.5511811023622047,
          "duration": 0.06499999999999995
        },
        {
          "name": "C4",
          "midi": 60,
          "time": 3.224999999999995,
          "velocity": 0.4566929133858268,
          "duration": 0.06499999999999995
        },
        {
          "name": "E4",
          "midi": 64,
          "time": 3.299999999999995,
          "velocity": 0.6062992125984252,
          "duration": 0.06499999999999995
        },
        {
          "name": "C4",
          "midi": 60,
          "time": 3.3749999999999947,
          "velocity": 0.48031496062992124,
          "duration": 0.06499999999999995
        },
        {
          "name": "G3",
          "midi": 55,
          "time": 3.4499999999999944,
          "velocity": 0.5984251968503937,
          "duration": 0.06499999999999995
        },
        {
          "name": "C3",
          "midi": 48,
          "time": 3.524999999999994,
          "velocity": 0.5196850393700787,
          "duration": 0.0649999999999995
        },
        {
          "name": "F2",
          "midi": 41,
          "time": 3.6224999999999934,
          "velocity": 0.7322834645669292,
          "duration": 1.0599999999999996
        },
        {
          "name": "F1",
          "midi": 29,
          "time": 3.6249999999999933,
          "velocity": 0.7401574803149606,
          "duration": 1.1249999999999996
        },
        {
          "name": "C3",
          "midi": 48,
          "time": 3.674999999999993,
          "velocity": 0.4409448818897638,
          "duration": 0.06499999999999995
        },
        {
          "name": "A3",
          "midi": 57,
          "time": 3.749999999999993,
          "velocity": 0.5669291338582677,
          "duration": 0.06499999999999995
        },
        {
          "name": "C4",
          "midi": 60,
          "time": 3.8249999999999926,
          "velocity": 0.49606299212598426,
          "duration": 0.06499999999999995
        },
        {
          "name": "F4",
          "midi": 65,
          "time": 3.8999999999999924,
          "velocity": 0.6141732283464567,
          "duration": 0.06499999999999995
        },
        {
          "name": "C4",
          "midi": 60,
          "time": 3.974999999999992,
          "velocity": 0.4251968503937008,
          "duration": 0.06499999999999995
        },
        {
          "name": "A4",
          "midi": 69,
          "time": 4.049999999999992,
          "velocity": 0.49606299212598426,
          "duration": 0.06500000000000039
        },
        {
          "name": "C5",
          "midi": 72,
          "time": 4.124999999999992,
          "velocity": 0.49606299212598426,
          "duration": 0.06500000000000039
        },
        {
          "name": "F5",
          "midi": 77,
          "time": 4.199999999999992,
          "velocity": 0.6220472440944882,
          "duration": 0.06500000000000039
        },
        {
          "name": "C5",
          "midi": 72,
          "time": 4.274999999999992,
          "velocity": 0.47244094488188976,
          "duration": 0.06500000000000039
        },
        {
          "name": "A5",
          "midi": 81,
          "time": 4.3499999999999925,
          "velocity": 0.5118110236220472,
          "duration": 0.06500000000000039
        },
        {
          "name": "C6",
          "midi": 84,
          "time": 4.424999999999993,
          "velocity": 0.5118110236220472,
          "duration": 0.06500000000000039
        },
        {
          "name": "F6",
          "midi": 89,
          "time": 4.499999999999993,
          "velocity": 0.6062992125984252,
          "duration": 0.06500000000000039
        },
        {
          "name": "C6",
          "midi": 84,
          "time": 4.574999999999993,
          "velocity": 0.36220472440944884,
          "duration": 0.06500000000000039
        },
        {
          "name": "A6",
          "midi": 93,
          "time": 4.649999999999993,
          "velocity": 0.4409448818897638,
          "duration": 0.0649999999999995
        },
        {
          "name": "C7",
          "midi": 96,
          "time": 4.7249999999999925,
          "velocity": 0.48031496062992124,
          "duration": 0.06500000000000039
        },
        {
          "name": "F#1",
          "midi": 30,
          "time": 4.794999999999993,
          "velocity": 0.7322834645669292,
          "duration": 1.167500000000004
        },
        {
          "name": "F#2",
          "midi": 42,
          "time": 4.797499999999993,
          "velocity": 0.7480314960629921,
          "duration": 1.1625000000000032
        },
        {
          "name": "E7",
          "midi": 100,
          "time": 4.799999999999994,
          "velocity": 0.6062992125984252,
          "duration": 0.06500000000000039
        },
        {
          "name": "C7",
          "midi": 96,
          "time": 4.874999999999994,
          "velocity": 0.4881889763779528,
          "duration": 0.06500000000000039
        },
        {
          "name": "A6",
          "midi": 93,
          "time": 4.949999999999994,
          "velocity": 0.4094488188976378,
          "duration": 0.06500000000000039
        },
        {
          "name": "C6",
          "midi": 84,
          "time": 5.024999999999994,
          "velocity": 0.4015748031496063,
          "duration": 0.06500000000000039
        },
        {
          "name": "E6",
          "midi": 88,
          "time": 5.099999999999994,
          "velocity": 0.6220472440944882,
          "duration": 0.06500000000000039
        },
        {
          "name": "C6",
          "midi": 84,
          "time": 5.1749999999999945,
          "velocity": 0.5118110236220472,
          "duration": 0.06500000000000039
        },
        {
          "name": "A5",
          "midi": 81,
          "time": 5.249999999999995,
          "velocity": 0.5118110236220472,
          "duration": 0.06500000000000039
        },
        {
          "name": "C5",
          "midi": 72,
          "time": 5.324999999999995,
          "velocity": 0.5275590551181102,
          "duration": 0.06500000000000039
        },
        {
          "name": "E5",
          "midi": 76,
          "time": 5.399999999999995,
          "velocity": 0.5984251968503937,
          "duration": 0.06500000000000039
        },
        {
          "name": "C5",
          "midi": 72,
          "time": 5.474999999999995,
          "velocity": 0.5748031496062992,
          "duration": 0.06500000000000039
        },
        {
          "name": "A4",
          "midi": 69,
          "time": 5.549999999999995,
          "velocity": 0.4881889763779528,
          "duration": 0.06500000000000039
        },
        {
          "name": "C4",
          "midi": 60,
          "time": 5.624999999999996,
          "velocity": 0.44881889763779526,
          "duration": 0.06500000000000039
        },
        {
          "name": "D4",
          "midi": 62,
          "time": 5.699999999999996,
          "velocity": 0.6220472440944882,
          "duration": 0.06500000000000039
        },
        {
          "name": "C4",
          "midi": 60,
          "time": 5.774999999999996,
          "velocity": 0.36220472440944884,
          "duration": 0.06500000000000039
        },
        {
          "name": "A3",
          "midi": 57,
          "time": 5.849999999999996,
          "velocity": 0.5196850393700787,
          "duration": 0.06500000000000039
        },
        {
          "name": "C3",
          "midi": 48,
          "time": 5.924999999999996,
          "velocity": 0.4409448818897638,
          "duration": 0.06500000000000039
        },
        {
          "name": "G2",
          "midi": 43,
          "time": 6.002499999999997,
          "velocity": 0.7795275590551181,
          "duration": 0.4200000000000008
        },
        {
          "name": "G1",
          "midi": 31,
          "time": 6.004999999999997,
          "velocity": 0.7086614173228346,
          "duration": 0.6050000000000004
        },
        {
          "name": "B2",
          "midi": 47,
          "time": 6.074999999999997,
          "velocity": 0.4566929133858268,
          "duration": 0.06500000000000039
        },
        {
          "name": "G3",
          "midi": 55,
          "time": 6.149999999999997,
          "velocity": 0.5354330708661418,
          "duration": 0.06500000000000039
        },
        {
          "name": "B3",
          "midi": 59,
          "time": 6.224999999999997,
          "velocity": 0.5196850393700787,
          "duration": 0.06500000000000039
        },
        {
          "name": "D4",
          "midi": 62,
          "time": 6.299999999999997,
          "velocity": 0.6062992125984252,
          "duration": 0.06500000000000039
        },
        {
          "name": "B3",
          "midi": 59,
          "time": 6.374999999999997,
          "velocity": 0.41732283464566927,
          "duration": 0.06500000000000039
        },
        {
          "name": "G4",
          "midi": 67,
          "time": 6.4499999999999975,
          "velocity": 0.47244094488188976,
          "duration": 0.06500000000000039
        },
        {
          "name": "B4",
          "midi": 71,
          "time": 6.524999999999998,
          "velocity": 0.5354330708661418,
          "duration": 0.06500000000000039
        },
        {
          "name": "F#1",
          "midi": 30,
          "time": 6.582499999999998,
          "velocity": 0.6771653543307087,
          "duration": 0.35749999999999993
        },
        {
          "name": "F#2",
          "midi": 42,
          "time": 6.582499999999998,
          "velocity": 0.7637795275590551,
          "duration": 0.22250000000000014
        },
        {
          "name": "D5",
          "midi": 74,
          "time": 6.599999999999998,
          "velocity": 0.6141732283464567,
          "duration": 0.06500000000000039
        },
        {
          "name": "B4",
          "midi": 71,
          "time": 6.674999999999998,
          "velocity": 0.4566929133858268,
          "duration": 0.06500000000000039
        },
        {
          "name": "G5",
          "midi": 79,
          "time": 6.749999999999998,
          "velocity": 0.5275590551181102,
          "duration": 0.0649999999999995
        },
        {
          "name": "B5",
          "midi": 83,
          "time": 6.8249999999999975,
          "velocity": 0.5196850393700787,
          "duration": 0.06500000000000039
        },
        {
          "name": "D6",
          "midi": 86,
          "time": 6.899999999999998,
          "velocity": 0.6062992125984252,
          "duration": 0.06500000000000039
        },
        {
          "name": "E1",
          "midi": 28,
          "time": 6.902499999999998,
          "velocity": 0.7559055118110236,
          "duration": 0.22750000000000004
        },
        {
          "name": "E2",
          "midi": 40,
          "time": 6.902499999999998,
          "velocity": 0.7007874015748031,
          "duration": 0.21750000000000025
        },
        {
          "name": "B5",
          "midi": 83,
          "time": 6.974999999999998,
          "velocity": 0.4645669291338583,
          "duration": 0.06500000000000039
        },
        {
          "name": "G6",
          "midi": 91,
          "time": 7.049999999999998,
          "velocity": 0.5118110236220472,
          "duration": 0.06500000000000039
        },
        {
          "name": "A6",
          "midi": 93,
          "time": 7.124999999999998,
          "velocity": 0.5196850393700787,
          "duration": 0.06500000000000039
        },
        {
          "name": "D2",
          "midi": 38,
          "time": 7.189999999999999,
          "velocity": 0.7322834645669292,
          "duration": 1.0324999999999998
        },
        {
          "name": "D1",
          "midi": 26,
          "time": 7.197499999999999,
          "velocity": 0.7952755905511811,
          "duration": 1.0249999999999995
        },
        {
          "name": "D7",
          "midi": 98,
          "time": 7.199999999999999,
          "velocity": 0.6141732283464567,
          "duration": 0.06500000000000039
        },
        {
          "name": "A6",
          "midi": 93,
          "time": 7.2749999999999995,
          "velocity": 0.49606299212598426,
          "duration": 0.06500000000000039
        },
        {
          "name": "F#6",
          "midi": 90,
          "time": 7.35,
          "velocity": 0.5039370078740157,
          "duration": 0.06500000000000039
        },
        {
          "name": "C6",
          "midi": 84,
          "time": 7.425,
          "velocity": 0.48031496062992124,
          "duration": 0.06500000000000039
        },
        {
          "name": "D6",
          "midi": 86,
          "time": 7.5,
          "velocity": 0.5984251968503937,
          "duration": 0.06500000000000039
        },
        {
          "name": "A5",
          "midi": 81,
          "time": 7.575,
          "velocity": 0.4645669291338583,
          "duration": 0.06500000000000039
        },
        {
          "name": "F#5",
          "midi": 78,
          "time": 7.65,
          "velocity": 0.4566929133858268,
          "duration": 0.06500000000000039
        },
        {
          "name": "C5",
          "midi": 72,
          "time": 7.7250000000000005,
          "velocity": 0.5118110236220472,
          "duration": 0.06500000000000039
        },
        {
          "name": "D5",
          "midi": 74,
          "time": 7.800000000000001,
          "velocity": 0.6062992125984252,
          "duration": 0.06500000000000039
        },
        {
          "name": "A4",
          "midi": 69,
          "time": 7.875000000000001,
          "velocity": 0.5118110236220472,
          "duration": 0.06500000000000039
        },
        {
          "name": "F#4",
          "midi": 66,
          "time": 7.950000000000001,
          "velocity": 0.4881889763779528,
          "duration": 0.0649999999999995
        },
        {
          "name": "C4",
          "midi": 60,
          "time": 8.025,
          "velocity": 0.48031496062992124,
          "duration": 0.0649999999999995
        },
        {
          "name": "D4",
          "midi": 62,
          "time": 8.1,
          "velocity": 0.5984251968503937,
          "duration": 0.0649999999999995
        },
        {
          "name": "A3",
          "midi": 57,
          "time": 8.174999999999999,
          "velocity": 0.5118110236220472,
          "duration": 0.0649999999999995
        },
        {
          "name": "F#3",
          "midi": 54,
          "time": 8.249999999999998,
          "velocity": 0.5275590551181102,
          "duration": 0.0649999999999995
        },
        {
          "name": "C3",
          "midi": 48,
          "time": 8.324999999999998,
          "velocity": 0.4881889763779528,
          "duration": 0.06500000000000128
        },
        {
          "name": "G2",
          "midi": 43,
          "time": 8.419999999999998,
          "velocity": 0.8188976377952756,
          "duration": 2.289999999999978
        },
        {
          "name": "G1",
          "midi": 31,
          "time": 8.422499999999998,
          "velocity": 0.8031496062992126,
          "duration": 2.2674999999999788
        },
        {
          "name": "C3",
          "midi": 48,
          "time": 8.474999999999998,
          "velocity": 0.4094488188976378,
          "duration": 0.0649999999999995
        },
        {
          "name": "F3",
          "midi": 53,
          "time": 8.549999999999997,
          "velocity": 0.5275590551181102,
          "duration": 0.0649999999999995
        },
        {
          "name": "G#3",
          "midi": 56,
          "time": 8.624999999999996,
          "velocity": 0.5275590551181102,
          "duration": 0.0649999999999995
        },
        {
          "name": "D4",
          "midi": 62,
          "time": 8.699999999999996,
          "velocity": 0.5905511811023622,
          "duration": 0.0649999999999995
        },
        {
          "name": "C4",
          "midi": 60,
          "time": 8.774999999999995,
          "velocity": 0.4094488188976378,
          "duration": 0.0649999999999995
        },
        {
          "name": "F4",
          "midi": 65,
          "time": 8.849999999999994,
          "velocity": 0.4881889763779528,
          "duration": 0.0649999999999995
        },
        {
          "name": "G#4",
          "midi": 68,
          "time": 8.924999999999994,
          "velocity": 0.5748031496062992,
          "duration": 0.0649999999999995
        },
        {
          "name": "D5",
          "midi": 74,
          "time": 8.999999999999993,
          "velocity": 0.6141732283464567,
          "duration": 0.0649999999999995
        },
        {
          "name": "C5",
          "midi": 72,
          "time": 9.074999999999992,
          "velocity": 0.47244094488188976,
          "duration": 0.0649999999999995
        },
        {
          "name": "F5",
          "midi": 77,
          "time": 9.149999999999991,
          "velocity": 0.5511811023622047,
          "duration": 0.0649999999999995
        },
        {
          "name": "G#5",
          "midi": 80,
          "time": 9.22499999999999,
          "velocity": 0.49606299212598426,
          "duration": 0.0649999999999995
        },
        {
          "name": "D6",
          "midi": 86,
          "time": 9.29999999999999,
          "velocity": 0.6062992125984252,
          "duration": 0.0649999999999995
        },
        {
          "name": "C6",
          "midi": 84,
          "time": 9.37499999999999,
          "velocity": 0.44881889763779526,
          "duration": 0.0649999999999995
        },
        {
          "name": "F6",
          "midi": 89,
          "time": 9.449999999999989,
          "velocity": 0.49606299212598426,
          "duration": 0.0649999999999995
        },
        {
          "name": "G#6",
          "midi": 92,
          "time": 9.524999999999988,
          "velocity": 0.41732283464566927,
          "duration": 0.0649999999999995
        },
        {
          "name": "D7",
          "midi": 98,
          "time": 9.599999999999987,
          "velocity": 0.6220472440944882,
          "duration": 0.0649999999999995
        },
        {
          "name": "G6",
          "midi": 91,
          "time": 9.674999999999986,
          "velocity": 0.3858267716535433,
          "duration": 0.0649999999999995
        },
        {
          "name": "F6",
          "midi": 89,
          "time": 9.749999999999986,
          "velocity": 0.5196850393700787,
          "duration": 0.0649999999999995
        },
        {
          "name": "B5",
          "midi": 83,
          "time": 9.824999999999985,
          "velocity": 0.49606299212598426,
          "duration": 0.0649999999999995
        },
        {
          "name": "D6",
          "midi": 86,
          "time": 9.899999999999984,
          "velocity": 0.6141732283464567,
          "duration": 0.0649999999999995
        },
        {
          "name": "G5",
          "midi": 79,
          "time": 9.974999999999984,
          "velocity": 0.4645669291338583,
          "duration": 0.0649999999999995
        },
        {
          "name": "F5",
          "midi": 77,
          "time": 10.049999999999983,
          "velocity": 0.4094488188976378,
          "duration": 0.0649999999999995
        },
        {
          "name": "B4",
          "midi": 71,
          "time": 10.124999999999982,
          "velocity": 0.3937007874015748,
          "duration": 0.0649999999999995
        },
        {
          "name": "D5",
          "midi": 74,
          "time": 10.199999999999982,
          "velocity": 0.6062992125984252,
          "duration": 0.0649999999999995
        },
        {
          "name": "G4",
          "midi": 67,
          "time": 10.27499999999998,
          "velocity": 0.41732283464566927,
          "duration": 0.0649999999999995
        },
        {
          "name": "F4",
          "midi": 65,
          "time": 10.34999999999998,
          "velocity": 0.5511811023622047,
          "duration": 0.0649999999999995
        },
        {
          "name": "B3",
          "midi": 59,
          "time": 10.42499999999998,
          "velocity": 0.4566929133858268,
          "duration": 0.0649999999999995
        },
        {
          "name": "D#4",
          "midi": 63,
          "time": 10.499999999999979,
          "velocity": 0.6141732283464567,
          "duration": 0.0649999999999995
        },
        {
          "name": "G3",
          "midi": 55,
          "time": 10.574999999999978,
          "velocity": 0.36220472440944884,
          "duration": 0.0649999999999995
        },
        {
          "name": "F3",
          "midi": 53,
          "time": 10.649999999999977,
          "velocity": 0.5118110236220472,
          "duration": 0.0649999999999995
        },
        {
          "name": "B2",
          "midi": 47,
          "time": 10.724999999999977,
          "velocity": 0.47244094488188976,
          "duration": 0.0649999999999995
        },
        {
          "name": "C2",
          "midi": 36,
          "time": 10.819999999999977,
          "velocity": 0.7637795275590551,
          "duration": 2.3249999999999797
        },
        {
          "name": "C3",
          "midi": 48,
          "time": 10.822499999999977,
          "velocity": 0.7637795275590551,
          "duration": 0.037499999999999645
        },
        {
          "name": "C3",
          "midi": 48,
          "time": 10.874999999999977,
          "velocity": 0.6771653543307087,
          "duration": 2.0849999999999813
        },
        {
          "name": "G3",
          "midi": 55,
          "time": 10.949999999999976,
          "velocity": 0.5196850393700787,
          "duration": 0.0649999999999995
        },
        {
          "name": "C4",
          "midi": 60,
          "time": 11.024999999999975,
          "velocity": 0.5354330708661418,
          "duration": 0.0649999999999995
        },
        {
          "name": "E4",
          "midi": 64,
          "time": 11.099999999999975,
          "velocity": 0.6141732283464567,
          "duration": 0.0649999999999995
        },
        {
          "name": "C4",
          "midi": 60,
          "time": 11.174999999999974,
          "velocity": 0.4881889763779528,
          "duration": 0.0649999999999995
        },
        {
          "name": "G4",
          "midi": 67,
          "time": 11.249999999999973,
          "velocity": 0.4881889763779528,
          "duration": 0.0649999999999995
        },
        {
          "name": "C5",
          "midi": 72,
          "time": 11.324999999999973,
          "velocity": 0.49606299212598426,
          "duration": 0.0649999999999995
        },
        {
          "name": "E5",
          "midi": 76,
          "time": 11.399999999999972,
          "velocity": 0.6220472440944882,
          "duration": 0.0649999999999995
        },
        {
          "name": "C5",
          "midi": 72,
          "time": 11.474999999999971,
          "velocity": 0.4251968503937008,
          "duration": 0.0649999999999995
        },
        {
          "name": "G5",
          "midi": 79,
          "time": 11.54999999999997,
          "velocity": 0.5669291338582677,
          "duration": 0.0649999999999995
        },
        {
          "name": "C6",
          "midi": 84,
          "time": 11.62499999999997,
          "velocity": 0.5669291338582677,
          "duration": 0.0649999999999995
        },
        {
          "name": "E6",
          "midi": 88,
          "time": 11.699999999999969,
          "velocity": 0.6456692913385826,
          "duration": 0.0649999999999995
        },
        {
          "name": "C6",
          "midi": 84,
          "time": 11.774999999999968,
          "velocity": 0.4251968503937008,
          "duration": 0.0649999999999995
        },
        {
          "name": "G6",
          "midi": 91,
          "time": 11.849999999999968,
          "velocity": 0.5511811023622047,
          "duration": 0.0649999999999995
        },
        {
          "name": "C7",
          "midi": 96,
          "time": 11.924999999999967,
          "velocity": 0.5354330708661418,
          "duration": 0.0649999999999995
        },
        {
          "name": "E7",
          "midi": 100,
          "time": 11.999999999999966,
          "velocity": 0.6141732283464567,
          "duration": 0.0649999999999995
        },
        {
          "name": "C7",
          "midi": 96,
          "time": 12.074999999999966,
          "velocity": 0.5984251968503937,
          "duration": 0.0649999999999995
        },
        {
          "name": "G6",
          "midi": 91,
          "time": 12.149999999999965,
          "velocity": 0.5275590551181102,
          "duration": 0.0649999999999995
        },
        {
          "name": "C6",
          "midi": 84,
          "time": 12.224999999999964,
          "velocity": 0.5039370078740157,
          "duration": 0.0649999999999995
        },
        {
          "name": "E6",
          "midi": 88,
          "time": 12.299999999999963,
          "velocity": 0.6220472440944882,
          "duration": 0.0649999999999995
        },
        {
          "name": "C6",
          "midi": 84,
          "time": 12.374999999999963,
          "velocity": 0.5748031496062992,
          "duration": 0.0649999999999995
        },
        {
          "name": "G5",
          "midi": 79,
          "time": 12.449999999999962,
          "velocity": 0.5354330708661418,
          "duration": 0.0649999999999995
        },
        {
          "name": "C5",
          "midi": 72,
          "time": 12.524999999999961,
          "velocity": 0.5196850393700787,
          "duration": 0.0649999999999995
        },
        {
          "name": "E5",
          "midi": 76,
          "time": 12.59999999999996,
          "velocity": 0.6062992125984252,
          "duration": 0.0649999999999995
        },
        {
          "name": "C5",
          "midi": 72,
          "time": 12.67499999999996,
          "velocity": 0.5511811023622047,
          "duration": 0.0649999999999995
        },
        {
          "name": "G4",
          "midi": 67,
          "time": 12.74999999999996,
          "velocity": 0.5590551181102362,
          "duration": 0.0649999999999995
        },
        {
          "name": "C4",
          "midi": 60,
          "time": 12.824999999999958,
          "velocity": 0.49606299212598426,
          "duration": 0.0649999999999995
        },
        {
          "name": "E4",
          "midi": 64,
          "time": 12.899999999999958,
          "velocity": 0.6220472440944882,
          "duration": 0.06500000000000128
        },
        {
          "name": "C4",
          "midi": 60,
          "time": 12.974999999999959,
          "velocity": 0.5039370078740157,
          "duration": 0.0649999999999995
        },
        {
          "name": "G3",
          "midi": 55,
          "time": 13.049999999999958,
          "velocity": 0.4566929133858268,
          "duration": 0.0649999999999995
        },
        {
          "name": "C3",
          "midi": 48,
          "time": 13.124999999999957,
          "velocity": 0.4566929133858268,
          "duration": 0.0649999999999995
        },
        {
          "name": "A1",
          "midi": 33,
          "time": 13.217499999999957,
          "velocity": 0.7952755905511811,
          "duration": 2.3124999999999787
        },
        {
          "name": "A2",
          "midi": 45,
          "time": 13.217499999999957,
          "velocity": 0.7322834645669292,
          "duration": 2.284999999999979
        },
        {
          "name": "C3",
          "midi": 48,
          "time": 13.274999999999956,
          "velocity": 0.36220472440944884,
          "duration": 0.0649999999999995
        },
        {
          "name": "F3",
          "midi": 53,
          "time": 13.349999999999955,
          "velocity": 0.5590551181102362,
          "duration": 0.0649999999999995
        },
        {
          "name": "C4",
          "midi": 60,
          "time": 13.424999999999955,
          "velocity": 0.47244094488188976,
          "duration": 0.0649999999999995
        },
        {
          "name": "F4",
          "midi": 65,
          "time": 13.499999999999954,
          "velocity": 0.6220472440944882,
          "duration": 0.0649999999999995
        },
        {
          "name": "C4",
          "midi": 60,
          "time": 13.574999999999953,
          "velocity": 0.4645669291338583,
          "duration": 0.0649999999999995
        },
        {
          "name": "F4",
          "midi": 65,
          "time": 13.649999999999952,
          "velocity": 0.47244094488188976,
          "duration": 0.0649999999999995
        },
        {
          "name": "C5",
          "midi": 72,
          "time": 13.724999999999952,
          "velocity": 0.5354330708661418,
          "duration": 0.0649999999999995
        },
        {
          "name": "F5",
          "midi": 77,
          "time": 13.799999999999951,
          "velocity": 0.6220472440944882,
          "duration": 0.0649999999999995
        },
        {
          "name": "C5",
          "midi": 72,
          "time": 13.87499999999995,
          "velocity": 0.4251968503937008,
          "duration": 0.0649999999999995
        },
        {
          "name": "F5",
          "midi": 77,
          "time": 13.94999999999995,
          "velocity": 0.5118110236220472,
          "duration": 0.0649999999999995
        },
        {
          "name": "C6",
          "midi": 84,
          "time": 14.024999999999949,
          "velocity": 0.4881889763779528,
          "duration": 0.0649999999999995
        },
        {
          "name": "F6",
          "midi": 89,
          "time": 14.099999999999948,
          "velocity": 0.6299212598425197,
          "duration": 0.0649999999999995
        },
        {
          "name": "C6",
          "midi": 84,
          "time": 14.174999999999947,
          "velocity": 0.44881889763779526,
          "duration": 0.0649999999999995
        },
        {
          "name": "F6",
          "midi": 89,
          "time": 14.249999999999947,
          "velocity": 0.4645669291338583,
          "duration": 0.0649999999999995
        },
        {
          "name": "C7",
          "midi": 96,
          "time": 14.324999999999946,
          "velocity": 0.47244094488188976,
          "duration": 0.0649999999999995
        },
        {
          "name": "E7",
          "midi": 100,
          "time": 14.399999999999945,
          "velocity": 0.6299212598425197,
          "duration": 0.0649999999999995
        },
        {
          "name": "C7",
          "midi": 96,
          "time": 14.474999999999945,
          "velocity": 0.5669291338582677,
          "duration": 0.0649999999999995
        },
        {
          "name": "F#6",
          "midi": 90,
          "time": 14.549999999999944,
          "velocity": 0.5275590551181102,
          "duration": 0.0649999999999995
        },
        {
          "name": "C6",
          "midi": 84,
          "time": 14.624999999999943,
          "velocity": 0.4094488188976378,
          "duration": 0.0649999999999995
        },
        {
          "name": "E6",
          "midi": 88,
          "time": 14.699999999999942,
          "velocity": 0.6299212598425197,
          "duration": 0.0649999999999995
        },
        {
          "name": "C6",
          "midi": 84,
          "time": 14.774999999999942,
          "velocity": 0.5118110236220472,
          "duration": 0.0649999999999995
        },
        {
          "name": "F#5",
          "midi": 78,
          "time": 14.849999999999941,
          "velocity": 0.47244094488188976,
          "duration": 0.0649999999999995
        },
        {
          "name": "C5",
          "midi": 72,
          "time": 14.92499999999994,
          "velocity": 0.47244094488188976,
          "duration": 0.0649999999999995
        },
        {
          "name": "E5",
          "midi": 76,
          "time": 14.99999999999994,
          "velocity": 0.5984251968503937,
          "duration": 0.0649999999999995
        },
        {
          "name": "C5",
          "midi": 72,
          "time": 15.074999999999939,
          "velocity": 0.4566929133858268,
          "duration": 0.0649999999999995
        },
        {
          "name": "F#4",
          "midi": 66,
          "time": 15.149999999999938,
          "velocity": 0.4094488188976378,
          "duration": 0.0649999999999995
        },
        {
          "name": "C4",
          "midi": 60,
          "time": 15.224999999999937,
          "velocity": 0.33070866141732286,
          "duration": 0.0649999999999995
        },
        {
          "name": "E4",
          "midi": 64,
          "time": 15.299999999999937,
          "velocity": 0.6062992125984252,
          "duration": 0.0649999999999995
        },
        {
          "name": "C4",
          "midi": 60,
          "time": 15.374999999999936,
          "velocity": 0.4645669291338583,
          "duration": 0.0649999999999995
        },
        {
          "name": "F#3",
          "midi": 54,
          "time": 15.449999999999935,
          "velocity": 0.44881889763779526,
          "duration": 0.0649999999999995
        },
        {
          "name": "C3",
          "midi": 48,
          "time": 15.524999999999935,
          "velocity": 0.4409448818897638,
          "duration": 0.06500000000000128
        },
        {
          "name": "G2",
          "midi": 43,
          "time": 15.607499999999936,
          "velocity": 0.7401574803149606,
          "duration": 2.2875000000000636
        },
        {
          "name": "G1",
          "midi": 31,
          "time": 15.609999999999935,
          "velocity": 0.8031496062992126,
          "duration": 2.2600000000000655
        },
        {
          "name": "C3",
          "midi": 48,
          "time": 15.674999999999937,
          "velocity": 0.36220472440944884,
          "duration": 0.0649999999999995
        },
        {
          "name": "G3",
          "midi": 55,
          "time": 15.749999999999936,
          "velocity": 0.4881889763779528,
          "duration": 0.0649999999999995
        },
        {
          "name": "C4",
          "midi": 60,
          "time": 15.824999999999935,
          "velocity": 0.5039370078740157,
          "duration": 0.0649999999999995
        },
        {
          "name": "D4",
          "midi": 62,
          "time": 15.899999999999935,
          "velocity": 0.5905511811023622,
          "duration": 0.0649999999999995
        },
        {
          "name": "C4",
          "midi": 60,
          "time": 15.974999999999934,
          "velocity": 0.3543307086614173,
          "duration": 0.06500000000000128
        },
        {
          "name": "G4",
          "midi": 67,
          "time": 16.049999999999937,
          "velocity": 0.48031496062992124,
          "duration": 0.06500000000000128
        },
        {
          "name": "C5",
          "midi": 72,
          "time": 16.12499999999994,
          "velocity": 0.49606299212598426,
          "duration": 0.06500000000000128
        },
        {
          "name": "D5",
          "midi": 74,
          "time": 16.199999999999942,
          "velocity": 0.5826771653543307,
          "duration": 0.06500000000000128
        },
        {
          "name": "C5",
          "midi": 72,
          "time": 16.274999999999945,
          "velocity": 0.4409448818897638,
          "duration": 0.06500000000000128
        },
        {
          "name": "G5",
          "midi": 79,
          "time": 16.349999999999948,
          "velocity": 0.47244094488188976,
          "duration": 0.06500000000000128
        },
        {
          "name": "C6",
          "midi": 84,
          "time": 16.42499999999995,
          "velocity": 0.4094488188976378,
          "duration": 0.06500000000000128
        },
        {
          "name": "D6",
          "midi": 86,
          "time": 16.499999999999954,
          "velocity": 0.5748031496062992,
          "duration": 0.06500000000000128
        },
        {
          "name": "C6",
          "midi": 84,
          "time": 16.574999999999957,
          "velocity": 0.4015748031496063,
          "duration": 0.06500000000000128
        },
        {
          "name": "G6",
          "midi": 91,
          "time": 16.64999999999996,
          "velocity": 0.3779527559055118,
          "duration": 0.06500000000000128
        },
        {
          "name": "C7",
          "midi": 96,
          "time": 16.724999999999962,
          "velocity": 0.4330708661417323,
          "duration": 0.06499999999999773
        },
        {
          "name": "D7",
          "midi": 98,
          "time": 16.79999999999996,
          "velocity": 0.5984251968503937,
          "duration": 0.06500000000000128
        },
        {
          "name": "B6",
          "midi": 95,
          "time": 16.874999999999964,
          "velocity": 0.48031496062992124,
          "duration": 0.06500000000000128
        },
        {
          "name": "G6",
          "midi": 91,
          "time": 16.949999999999967,
          "velocity": 0.3779527559055118,
          "duration": 0.06500000000000128
        },
        {
          "name": "B5",
          "midi": 83,
          "time": 17.02499999999997,
          "velocity": 0.48031496062992124,
          "duration": 0.06500000000000128
        },
        {
          "name": "D6",
          "midi": 86,
          "time": 17.099999999999973,
          "velocity": 0.5590551181102362,
          "duration": 0.06500000000000128
        },
        {
          "name": "B5",
          "midi": 83,
          "time": 17.174999999999976,
          "velocity": 0.3779527559055118,
          "duration": 0.06500000000000128
        },
        {
          "name": "G5",
          "midi": 79,
          "time": 17.24999999999998,
          "velocity": 0.4015748031496063,
          "duration": 0.06500000000000128
        },
        {
          "name": "B4",
          "midi": 71,
          "time": 17.32499999999998,
          "velocity": 0.4094488188976378,
          "duration": 0.06500000000000128
        },
        {
          "name": "D5",
          "midi": 74,
          "time": 17.399999999999984,
          "velocity": 0.5590551181102362,
          "duration": 0.06500000000000128
        },
        {
          "name": "B4",
          "midi": 71,
          "time": 17.474999999999987,
          "velocity": 0.4881889763779528,
          "duration": 0.06500000000000128
        },
        {
          "name": "G4",
          "midi": 67,
          "time": 17.54999999999999,
          "velocity": 0.4645669291338583,
          "duration": 0.06500000000000128
        },
        {
          "name": "B3",
          "midi": 59,
          "time": 17.624999999999993,
          "velocity": 0.3700787401574803,
          "duration": 0.06500000000000128
        },
        {
          "name": "D4",
          "midi": 62,
          "time": 17.699999999999996,
          "velocity": 0.5590551181102362,
          "duration": 0.06500000000000128
        },
        {
          "name": "B3",
          "midi": 59,
          "time": 17.775,
          "velocity": 0.4094488188976378,
          "duration": 0.06500000000000128
        },
        {
          "name": "G3",
          "midi": 55,
          "time": 17.85,
          "velocity": 0.3937007874015748,
          "duration": 0.06499999999999773
        },
        {
          "name": "B2",
          "midi": 47,
          "time": 17.925,
          "velocity": 0.3858267716535433,
          "duration": 0.06499999999999773
        },
        {
          "name": "C3",
          "midi": 48,
          "time": 17.99,
          "velocity": 0.6771653543307087,
          "duration": 2.202500000000068
        },
        {
          "name": "C2",
          "midi": 36,
          "time": 17.994999999999997,
          "velocity": 0.7086614173228346,
          "duration": 2.390000000000075
        },
        {
          "name": "D3",
          "midi": 50,
          "time": 18.074999999999996,
          "velocity": 0.3937007874015748,
          "duration": 0.06500000000000128
        },
        {
          "name": "G3",
          "midi": 55,
          "time": 18.15,
          "velocity": 0.44881889763779526,
          "duration": 0.06500000000000128
        },
        {
          "name": "D4",
          "midi": 62,
          "time": 18.225,
          "velocity": 0.44881889763779526,
          "duration": 0.06500000000000128
        },
        {
          "name": "E4",
          "midi": 64,
          "time": 18.300000000000004,
          "velocity": 0.5511811023622047,
          "duration": 0.06500000000000128
        },
        {
          "name": "D4",
          "midi": 62,
          "time": 18.375000000000007,
          "velocity": 0.41732283464566927,
          "duration": 0.06500000000000128
        },
        {
          "name": "G4",
          "midi": 67,
          "time": 18.45000000000001,
          "velocity": 0.44881889763779526,
          "duration": 0.06500000000000128
        },
        {
          "name": "D5",
          "midi": 74,
          "time": 18.525000000000013,
          "velocity": 0.44881889763779526,
          "duration": 0.06500000000000128
        },
        {
          "name": "E5",
          "midi": 76,
          "time": 18.600000000000016,
          "velocity": 0.5118110236220472,
          "duration": 0.06500000000000128
        },
        {
          "name": "D5",
          "midi": 74,
          "time": 18.67500000000002,
          "velocity": 0.3543307086614173,
          "duration": 0.06500000000000128
        },
        {
          "name": "G5",
          "midi": 79,
          "time": 18.75000000000002,
          "velocity": 0.4330708661417323,
          "duration": 0.06500000000000128
        },
        {
          "name": "D6",
          "midi": 86,
          "time": 18.825000000000024,
          "velocity": 0.4566929133858268,
          "duration": 0.06500000000000128
        },
        {
          "name": "E6",
          "midi": 88,
          "time": 18.900000000000027,
          "velocity": 0.5433070866141733,
          "duration": 0.06500000000000128
        },
        {
          "name": "D6",
          "midi": 86,
          "time": 18.97500000000003,
          "velocity": 0.33858267716535434,
          "duration": 0.06500000000000128
        },
        {
          "name": "G6",
          "midi": 91,
          "time": 19.050000000000033,
          "velocity": 0.47244094488188976,
          "duration": 0.06500000000000128
        },
        {
          "name": "D7",
          "midi": 98,
          "time": 19.125000000000036,
          "velocity": 0.48031496062992124,
          "duration": 0.06499999999999773
        },
        {
          "name": "E7",
          "midi": 100,
          "time": 19.20000000000003,
          "velocity": 0.5354330708661418,
          "duration": 0.06500000000000128
        },
        {
          "name": "C7",
          "midi": 96,
          "time": 19.275000000000034,
          "velocity": 0.3779527559055118,
          "duration": 0.06500000000000128
        },
        {
          "name": "G6",
          "midi": 91,
          "time": 19.350000000000037,
          "velocity": 0.4251968503937008,
          "duration": 0.06500000000000128
        },
        {
          "name": "C6",
          "midi": 84,
          "time": 19.42500000000004,
          "velocity": 0.33858267716535434,
          "duration": 0.06500000000000128
        },
        {
          "name": "E6",
          "midi": 88,
          "time": 19.500000000000043,
          "velocity": 0.5275590551181102,
          "duration": 0.06500000000000128
        },
        {
          "name": "C6",
          "midi": 84,
          "time": 19.575000000000045,
          "velocity": 0.36220472440944884,
          "duration": 0.06500000000000128
        },
        {
          "name": "G5",
          "midi": 79,
          "time": 19.65000000000005,
          "velocity": 0.3700787401574803,
          "duration": 0.06500000000000128
        },
        {
          "name": "C5",
          "midi": 72,
          "time": 19.72500000000005,
          "velocity": 0.3937007874015748,
          "duration": 0.06500000000000128
        },
        {
          "name": "E5",
          "midi": 76,
          "time": 19.800000000000054,
          "velocity": 0.5196850393700787,
          "duration": 0.06500000000000128
        },
        {
          "name": "C5",
          "midi": 72,
          "time": 19.875000000000057,
          "velocity": 0.47244094488188976,
          "duration": 0.06500000000000128
        },
        {
          "name": "G4",
          "midi": 67,
          "time": 19.95000000000006,
          "velocity": 0.41732283464566927,
          "duration": 0.06500000000000128
        },
        {
          "name": "C4",
          "midi": 60,
          "time": 20.025000000000063,
          "velocity": 0.33858267716535434,
          "duration": 0.06500000000000128
        },
        {
          "name": "E4",
          "midi": 64,
          "time": 20.100000000000065,
          "velocity": 0.5275590551181102,
          "duration": 0.06500000000000128
        },
        {
          "name": "C4",
          "midi": 60,
          "time": 20.175000000000068,
          "velocity": 0.4015748031496063,
          "duration": 0.06499999999999773
        },
        {
          "name": "G3",
          "midi": 55,
          "time": 20.250000000000068,
          "velocity": 0.47244094488188976,
          "duration": 0.06500000000000128
        },
        {
          "name": "C3",
          "midi": 48,
          "time": 20.32500000000007,
          "velocity": 0.3700787401574803,
          "duration": 0.06500000000000128
        },
        {
          "name": "A1",
          "midi": 33,
          "time": 20.420000000000073,
          "velocity": 0.6850393700787402,
          "duration": 1.072500000000037
        },
        {
          "name": "A2",
          "midi": 45,
          "time": 20.420000000000073,
          "velocity": 0.6062992125984252,
          "duration": 1.1125000000000398
        },
        {
          "name": "E3",
          "midi": 52,
          "time": 20.475000000000072,
          "velocity": 0.3464566929133858,
          "duration": 0.06500000000000128
        },
        {
          "name": "C4",
          "midi": 60,
          "time": 20.550000000000075,
          "velocity": 0.4015748031496063,
          "duration": 0.06500000000000128
        },
        {
          "name": "E4",
          "midi": 64,
          "time": 20.625000000000078,
          "velocity": 0.36220472440944884,
          "duration": 0.06500000000000128
        },
        {
          "name": "F4",
          "midi": 65,
          "time": 20.70000000000008,
          "velocity": 0.5275590551181102,
          "duration": 0.06500000000000128
        },
        {
          "name": "E4",
          "midi": 64,
          "time": 20.775000000000084,
          "velocity": 0.3543307086614173,
          "duration": 0.06500000000000128
        },
        {
          "name": "C5",
          "midi": 72,
          "time": 20.850000000000087,
          "velocity": 0.4409448818897638,
          "duration": 0.06500000000000128
        },
        {
          "name": "E5",
          "midi": 76,
          "time": 20.92500000000009,
          "velocity": 0.4094488188976378,
          "duration": 0.06500000000000128
        },
        {
          "name": "F5",
          "midi": 77,
          "time": 21.000000000000092,
          "velocity": 0.5275590551181102,
          "duration": 0.06500000000000128
        },
        {
          "name": "E5",
          "midi": 76,
          "time": 21.075000000000095,
          "velocity": 0.33070866141732286,
          "duration": 0.06500000000000128
        },
        {
          "name": "C6",
          "midi": 84,
          "time": 21.150000000000098,
          "velocity": 0.4330708661417323,
          "duration": 0.06500000000000128
        },
        {
          "name": "E6",
          "midi": 88,
          "time": 21.2250000000001,
          "velocity": 0.4566929133858268,
          "duration": 0.06500000000000128
        },
        {
          "name": "F6",
          "midi": 89,
          "time": 21.300000000000104,
          "velocity": 0.5196850393700787,
          "duration": 0.06500000000000128
        },
        {
          "name": "E6",
          "midi": 88,
          "time": 21.375000000000107,
          "velocity": 0.3464566929133858,
          "duration": 0.06500000000000128
        },
        {
          "name": "C7",
          "midi": 96,
          "time": 21.45000000000011,
          "velocity": 0.3858267716535433,
          "duration": 0.06500000000000128
        },
        {
          "name": "E7",
          "midi": 100,
          "time": 21.525000000000112,
          "velocity": 0.4330708661417323,
          "duration": 0.06500000000000128
        },
        {
          "name": "F7",
          "midi": 101,
          "time": 21.600000000000115,
          "velocity": 0.5118110236220472,
          "duration": 0.06499999999999773
        },
        {
          "name": "B1",
          "midi": 35,
          "time": 21.612500000000114,
          "velocity": 0.6692913385826772,
          "duration": 0.6300000000000203
        },
        {
          "name": "B2",
          "midi": 47,
          "time": 21.612500000000114,
          "velocity": 0.5826771653543307,
          "duration": 0.5000000000000142
        },
        {
          "name": "D7",
          "midi": 98,
          "time": 21.675000000000114,
          "velocity": 0.44881889763779526,
          "duration": 0.06500000000000128
        },
        {
          "name": "B6",
          "midi": 95,
          "time": 21.750000000000117,
          "velocity": 0.31496062992125984,
          "duration": 0.06500000000000128
        },
        {
          "name": "D6",
          "midi": 86,
          "time": 21.82500000000012,
          "velocity": 0.31496062992125984,
          "duration": 0.06500000000000128
        },
        {
          "name": "F6",
          "midi": 89,
          "time": 21.900000000000123,
          "velocity": 0.5275590551181102,
          "duration": 0.06500000000000128
        },
        {
          "name": "D6",
          "midi": 86,
          "time": 21.975000000000126,
          "velocity": 0.5039370078740157,
          "duration": 0.06500000000000128
        },
        {
          "name": "B5",
          "midi": 83,
          "time": 22.05000000000013,
          "velocity": 0.4330708661417323,
          "duration": 0.06500000000000128
        },
        {
          "name": "D5",
          "midi": 74,
          "time": 22.12500000000013,
          "velocity": 0.4409448818897638,
          "duration": 0.06500000000000128
        },
        {
          "name": "F5",
          "midi": 77,
          "time": 22.200000000000134,
          "velocity": 0.5196850393700787,
          "duration": 0.06500000000000128
        },
        {
          "name": "A1",
          "midi": 33,
          "time": 22.222500000000135,
          "velocity": 0.6614173228346457,
          "duration": 0.5725000000000193
        },
        {
          "name": "A2",
          "midi": 45,
          "time": 22.222500000000135,
          "velocity": 0.5354330708661418,
          "duration": 0.4700000000000166
        },
        {
          "name": "D5",
          "midi": 74,
          "time": 22.275000000000137,
          "velocity": 0.47244094488188976,
          "duration": 0.06500000000000128
        },
        {
          "name": "B4",
          "midi": 71,
          "time": 22.35000000000014,
          "velocity": 0.44881889763779526,
          "duration": 0.06500000000000128
        },
        {
          "name": "D4",
          "midi": 62,
          "time": 22.425000000000143,
          "velocity": 0.4015748031496063,
          "duration": 0.06500000000000128
        },
        {
          "name": "F4",
          "midi": 65,
          "time": 22.500000000000146,
          "velocity": 0.5196850393700787,
          "duration": 0.06500000000000128
        },
        {
          "name": "D4",
          "midi": 62,
          "time": 22.57500000000015,
          "velocity": 0.4566929133858268,
          "duration": 0.06500000000000128
        },
        {
          "name": "B3",
          "midi": 59,
          "time": 22.65000000000015,
          "velocity": 0.3779527559055118,
          "duration": 0.06500000000000128
        },
        {
          "name": "D3",
          "midi": 50,
          "time": 22.725000000000154,
          "velocity": 0.4015748031496063,
          "duration": 0.06500000000000128
        },
        {
          "name": "G#1",
          "midi": 32,
          "time": 22.817500000000155,
          "velocity": 0.6299212598425197,
          "duration": 1.1000000000000405
        },
        {
          "name": "G#2",
          "midi": 44,
          "time": 22.820000000000157,
          "velocity": 0.6062992125984252,
          "duration": 1.1075000000000408
        },
        {
          "name": "D3",
          "midi": 50,
          "time": 22.875000000000156,
          "velocity": 0.33858267716535434,
          "duration": 0.06500000000000128
        },
        {
          "name": "B3",
          "midi": 59,
          "time": 22.95000000000016,
          "velocity": 0.3700787401574803,
          "duration": 0.06500000000000128
        },
        {
          "name": "D4",
          "midi": 62,
          "time": 23.025000000000162,
          "velocity": 0.33858267716535434,
          "duration": 0.06500000000000128
        },
        {
          "name": "E4",
          "midi": 64,
          "time": 23.100000000000165,
          "velocity": 0.5039370078740157,
          "duration": 0.06500000000000128
        },
        {
          "name": "D4",
          "midi": 62,
          "time": 23.175000000000168,
          "velocity": 0.33070866141732286,
          "duration": 0.06500000000000128
        },
        {
          "name": "B4",
          "midi": 71,
          "time": 23.25000000000017,
          "velocity": 0.4015748031496063,
          "duration": 0.06500000000000128
        },
        {
          "name": "D5",
          "midi": 74,
          "time": 23.325000000000173,
          "velocity": 0.44881889763779526,
          "duration": 0.06500000000000128
        },
        {
          "name": "E5",
          "midi": 76,
          "time": 23.400000000000176,
          "velocity": 0.5118110236220472,
          "duration": 0.06500000000000128
        },
        {
          "name": "D5",
          "midi": 74,
          "time": 23.47500000000018,
          "velocity": 0.3464566929133858,
          "duration": 0.06500000000000128
        },
        {
          "name": "B5",
          "midi": 83,
          "time": 23.550000000000182,
          "velocity": 0.4015748031496063,
          "duration": 0.06500000000000128
        },
        {
          "name": "D6",
          "midi": 86,
          "time": 23.625000000000185,
          "velocity": 0.4409448818897638,
          "duration": 0.06500000000000128
        },
        {
          "name": "E6",
          "midi": 88,
          "time": 23.700000000000188,
          "velocity": 0.5196850393700787,
          "duration": 0.06500000000000128
        },
        {
          "name": "D6",
          "midi": 86,
          "time": 23.77500000000019,
          "velocity": 0.31496062992125984,
          "duration": 0.06500000000000128
        },
        {
          "name": "B6",
          "midi": 95,
          "time": 23.850000000000193,
          "velocity": 0.3858267716535433,
          "duration": 0.06500000000000128
        },
        {
          "name": "D7",
          "midi": 98,
          "time": 23.925000000000196,
          "velocity": 0.33858267716535434,
          "duration": 0.06500000000000128
        },
        {
          "name": "A2",
          "midi": 45,
          "time": 23.997500000000198,
          "velocity": 0.6062992125984252,
          "duration": 0.5000000000000178
        },
        {
          "name": "E7",
          "midi": 100,
          "time": 24.0000000000002,
          "velocity": 0.5039370078740157,
          "duration": 0.06500000000000128
        },
        {
          "name": "A1",
          "midi": 33,
          "time": 24.0025000000002,
          "velocity": 0.6220472440944882,
          "duration": 0.6050000000000182
        },
        {
          "name": "C7",
          "midi": 96,
          "time": 24.075000000000202,
          "velocity": 0.33858267716535434,
          "duration": 0.06500000000000128
        },
        {
          "name": "A6",
          "midi": 93,
          "time": 24.150000000000205,
          "velocity": 0.4015748031496063,
          "duration": 0.06500000000000128
        },
        {
          "name": "C6",
          "midi": 84,
          "time": 24.225000000000207,
          "velocity": 0.4330708661417323,
          "duration": 0.06500000000000128
        },
        {
          "name": "E6",
          "midi": 88,
          "time": 24.30000000000021,
          "velocity": 0.49606299212598426,
          "duration": 0.06500000000000128
        },
        {
          "name": "C6",
          "midi": 84,
          "time": 24.375000000000213,
          "velocity": 0.3937007874015748,
          "duration": 0.06500000000000128
        },
        {
          "name": "A5",
          "midi": 81,
          "time": 24.450000000000216,
          "velocity": 0.33858267716535434,
          "duration": 0.06499999999999773
        },
        {
          "name": "C5",
          "midi": 72,
          "time": 24.525000000000215,
          "velocity": 0.33858267716535434,
          "duration": 0.06500000000000128
        },
        {
          "name": "E5",
          "midi": 76,
          "time": 24.600000000000218,
          "velocity": 0.49606299212598426,
          "duration": 0.06500000000000128
        },
        {
          "name": "G2",
          "midi": 43,
          "time": 24.605000000000217,
          "velocity": 0.5511811023622047,
          "duration": 0.5400000000000205
        },
        {
          "name": "G1",
          "midi": 31,
          "time": 24.61000000000022,
          "velocity": 0.6220472440944882,
          "duration": 0.5950000000000166
        },
        {
          "name": "C5",
          "midi": 72,
          "time": 24.67500000000022,
          "velocity": 0.31496062992125984,
          "duration": 0.06500000000000128
        },
        {
          "name": "A4",
          "midi": 69,
          "time": 24.750000000000224,
          "velocity": 0.4015748031496063,
          "duration": 0.06500000000000128
        },
        {
          "name": "C4",
          "midi": 60,
          "time": 24.825000000000227,
          "velocity": 0.2992125984251969,
          "duration": 0.06500000000000128
        },
        {
          "name": "E4",
          "midi": 64,
          "time": 24.90000000000023,
          "velocity": 0.5118110236220472,
          "duration": 0.06500000000000128
        },
        {
          "name": "C4",
          "midi": 60,
          "time": 24.975000000000232,
          "velocity": 0.4015748031496063,
          "duration": 0.06500000000000128
        },
        {
          "name": "A3",
          "midi": 57,
          "time": 25.050000000000235,
          "velocity": 0.3937007874015748,
          "duration": 0.06500000000000128
        },
        {
          "name": "C3",
          "midi": 48,
          "time": 25.125000000000238,
          "velocity": 0.36220472440944884,
          "duration": 0.06499999999999773
        },
        {
          "name": "F2",
          "midi": 41,
          "time": 25.220000000000237,
          "velocity": 0.6456692913385826,
          "duration": 2.282500000000077
        },
        {
          "name": "F1",
          "midi": 29,
          "time": 25.222500000000238,
          "velocity": 0.6535433070866141,
          "duration": 2.3425000000000757
        },
        {
          "name": "C3",
          "midi": 48,
          "time": 25.275000000000237,
          "velocity": 0.3779527559055118,
          "duration": 0.06500000000000128
        },
        {
          "name": "A3",
          "midi": 57,
          "time": 25.35000000000024,
          "velocity": 0.4566929133858268,
          "duration": 0.06500000000000128
        },
        {
          "name": "C4",
          "midi": 60,
          "time": 25.425000000000242,
          "velocity": 0.44881889763779526,
          "duration": 0.06500000000000128
        },
        {
          "name": "E4",
          "midi": 64,
          "time": 25.500000000000245,
          "velocity": 0.5039370078740157,
          "duration": 0.06500000000000128
        },
        {
          "name": "C4",
          "midi": 60,
          "time": 25.575000000000248,
          "velocity": 0.4015748031496063,
          "duration": 0.06500000000000128
        },
        {
          "name": "A4",
          "midi": 69,
          "time": 25.65000000000025,
          "velocity": 0.3937007874015748,
          "duration": 0.06500000000000128
        },
        {
          "name": "C5",
          "midi": 72,
          "time": 25.725000000000254,
          "velocity": 0.33858267716535434,
          "duration": 0.06500000000000128
        },
        {
          "name": "E5",
          "midi": 76,
          "time": 25.800000000000257,
          "velocity": 0.5275590551181102,
          "duration": 0.06500000000000128
        },
        {
          "name": "C5",
          "midi": 72,
          "time": 25.87500000000026,
          "velocity": 0.36220472440944884,
          "duration": 0.06500000000000128
        },
        {
          "name": "A5",
          "midi": 81,
          "time": 25.950000000000262,
          "velocity": 0.4251968503937008,
          "duration": 0.06500000000000128
        },
        {
          "name": "C6",
          "midi": 84,
          "time": 26.025000000000265,
          "velocity": 0.3543307086614173,
          "duration": 0.06500000000000128
        },
        {
          "name": "E6",
          "midi": 88,
          "time": 26.100000000000268,
          "velocity": 0.5433070866141733,
          "duration": 0.06500000000000128
        },
        {
          "name": "C6",
          "midi": 84,
          "time": 26.17500000000027,
          "velocity": 0.4251968503937008,
          "duration": 0.06500000000000128
        },
        {
          "name": "A6",
          "midi": 93,
          "time": 26.250000000000274,
          "velocity": 0.4409448818897638,
          "duration": 0.06500000000000128
        },
        {
          "name": "C7",
          "midi": 96,
          "time": 26.325000000000276,
          "velocity": 0.47244094488188976,
          "duration": 0.06500000000000128
        },
        {
          "name": "D#7",
          "midi": 99,
          "time": 26.40000000000028,
          "velocity": 0.5354330708661418,
          "duration": 0.06499999999999773
        },
        {
          "name": "B6",
          "midi": 95,
          "time": 26.47500000000028,
          "velocity": 0.3543307086614173,
          "duration": 0.06500000000000128
        },
        {
          "name": "A6",
          "midi": 93,
          "time": 26.55000000000028,
          "velocity": 0.36220472440944884,
          "duration": 0.06500000000000128
        },
        {
          "name": "B5",
          "midi": 83,
          "time": 26.625000000000284,
          "velocity": 0.3858267716535433,
          "duration": 0.06500000000000128
        },
        {
          "name": "D#6",
          "midi": 87,
          "time": 26.700000000000287,
          "velocity": 0.5826771653543307,
          "duration": 0.06500000000000128
        },
        {
          "name": "B5",
          "midi": 83,
          "time": 26.77500000000029,
          "velocity": 0.4015748031496063,
          "duration": 0.06500000000000128
        },
        {
          "name": "A5",
          "midi": 81,
          "time": 26.850000000000293,
          "velocity": 0.31496062992125984,
          "duration": 0.06500000000000128
        },
        {
          "name": "B4",
          "midi": 71,
          "time": 26.925000000000296,
          "velocity": 0.3700787401574803,
          "duration": 0.06500000000000128
        },
        {
          "name": "D#5",
          "midi": 75,
          "time": 27.0000000000003,
          "velocity": 0.5669291338582677,
          "duration": 0.06500000000000128
        },
        {
          "name": "B4",
          "midi": 71,
          "time": 27.0750000000003,
          "velocity": 0.47244094488188976,
          "duration": 0.06500000000000128
        },
        {
          "name": "A4",
          "midi": 69,
          "time": 27.150000000000304,
          "velocity": 0.48031496062992124,
          "duration": 0.06500000000000128
        },
        {
          "name": "B3",
          "midi": 59,
          "time": 27.225000000000307,
          "velocity": 0.4251968503937008,
          "duration": 0.06500000000000128
        },
        {
          "name": "D#4",
          "midi": 63,
          "time": 27.30000000000031,
          "velocity": 0.5984251968503937,
          "duration": 0.06500000000000128
        },
        {
          "name": "B3",
          "midi": 59,
          "time": 27.375000000000313,
          "velocity": 0.47244094488188976,
          "duration": 0.06500000000000128
        },
        {
          "name": "A3",
          "midi": 57,
          "time": 27.450000000000315,
          "velocity": 0.4330708661417323,
          "duration": 0.06499999999999773
        },
        {
          "name": "B2",
          "midi": 47,
          "time": 27.525000000000315,
          "velocity": 0.3700787401574803,
          "duration": 0.06500000000000128
        },
        {
          "name": "E2",
          "midi": 40,
          "time": 27.602500000000315,
          "velocity": 0.7637795275590551,
          "duration": 2.225000000000076
        },
        {
          "name": "E1",
          "midi": 28,
          "time": 27.610000000000316,
          "velocity": 0.7401574803149606,
          "duration": 2.192500000000077
        },
        {
          "name": "B2",
          "midi": 47,
          "time": 27.675000000000317,
          "velocity": 0.4251968503937008,
          "duration": 0.06500000000000128
        },
        {
          "name": "A3",
          "midi": 57,
          "time": 27.75000000000032,
          "velocity": 0.4881889763779528,
          "duration": 0.06500000000000128
        },
        {
          "name": "B3",
          "midi": 59,
          "time": 27.825000000000323,
          "velocity": 0.4015748031496063,
          "duration": 0.06500000000000128
        },
        {
          "name": "E4",
          "midi": 64,
          "time": 27.900000000000325,
          "velocity": 0.5984251968503937,
          "duration": 0.06500000000000128
        },
        {
          "name": "B3",
          "midi": 59,
          "time": 27.97500000000033,
          "velocity": 0.4015748031496063,
          "duration": 0.06500000000000128
        },
        {
          "name": "A4",
          "midi": 69,
          "time": 28.05000000000033,
          "velocity": 0.3858267716535433,
          "duration": 0.06500000000000128
        },
        {
          "name": "B4",
          "midi": 71,
          "time": 28.125000000000334,
          "velocity": 0.4015748031496063,
          "duration": 0.06500000000000128
        },
        {
          "name": "E5",
          "midi": 76,
          "time": 28.200000000000337,
          "velocity": 0.5905511811023622,
          "duration": 0.06500000000000128
        },
        {
          "name": "B4",
          "midi": 71,
          "time": 28.27500000000034,
          "velocity": 0.4094488188976378,
          "duration": 0.06500000000000128
        },
        {
          "name": "A5",
          "midi": 81,
          "time": 28.350000000000342,
          "velocity": 0.41732283464566927,
          "duration": 0.06500000000000128
        },
        {
          "name": "B5",
          "midi": 83,
          "time": 28.425000000000345,
          "velocity": 0.5118110236220472,
          "duration": 0.06500000000000128
        },
        {
          "name": "E6",
          "midi": 88,
          "time": 28.500000000000348,
          "velocity": 0.6141732283464567,
          "duration": 0.06500000000000128
        },
        {
          "name": "B5",
          "midi": 83,
          "time": 28.57500000000035,
          "velocity": 0.4409448818897638,
          "duration": 0.06500000000000128
        },
        {
          "name": "A6",
          "midi": 93,
          "time": 28.650000000000354,
          "velocity": 0.4330708661417323,
          "duration": 0.06500000000000128
        },
        {
          "name": "B6",
          "midi": 95,
          "time": 28.725000000000357,
          "velocity": 0.4094488188976378,
          "duration": 0.06499999999999773
        },
        {
          "name": "E7",
          "midi": 100,
          "time": 28.800000000000356,
          "velocity": 0.5905511811023622,
          "duration": 0.06500000000000128
        },
        {
          "name": "B6",
          "midi": 95,
          "time": 28.87500000000036,
          "velocity": 0.4881889763779528,
          "duration": 0.06500000000000128
        },
        {
          "name": "G#6",
          "midi": 92,
          "time": 28.95000000000036,
          "velocity": 0.5433070866141733,
          "duration": 0.06500000000000128
        },
        {
          "name": "B5",
          "midi": 83,
          "time": 29.025000000000365,
          "velocity": 0.49606299212598426,
          "duration": 0.06500000000000128
        },
        {
          "name": "E6",
          "midi": 88,
          "time": 29.100000000000367,
          "velocity": 0.5984251968503937,
          "duration": 0.06500000000000128
        },
        {
          "name": "B5",
          "midi": 83,
          "time": 29.17500000000037,
          "velocity": 0.48031496062992124,
          "duration": 0.06500000000000128
        },
        {
          "name": "G#5",
          "midi": 80,
          "time": 29.250000000000373,
          "velocity": 0.5275590551181102,
          "duration": 0.06500000000000128
        },
        {
          "name": "B4",
          "midi": 71,
          "time": 29.325000000000376,
          "velocity": 0.5118110236220472,
          "duration": 0.06500000000000128
        },
        {
          "name": "E5",
          "midi": 76,
          "time": 29.40000000000038,
          "velocity": 0.5984251968503937,
          "duration": 0.06500000000000128
        },
        {
          "name": "B4",
          "midi": 71,
          "time": 29.47500000000038,
          "velocity": 0.4409448818897638,
          "duration": 0.06500000000000128
        },
        {
          "name": "G#4",
          "midi": 68,
          "time": 29.550000000000384,
          "velocity": 0.44881889763779526,
          "duration": 0.06500000000000128
        },
        {
          "name": "B3",
          "midi": 59,
          "time": 29.625000000000387,
          "velocity": 0.3464566929133858,
          "duration": 0.06500000000000128
        },
        {
          "name": "E4",
          "midi": 64,
          "time": 29.70000000000039,
          "velocity": 0.5905511811023622,
          "duration": 0.06500000000000128
        },
        {
          "name": "B3",
          "midi": 59,
          "time": 29.775000000000393,
          "velocity": 0.4645669291338583,
          "duration": 0.06499999999999773
        },
        {
          "name": "G#3",
          "midi": 56,
          "time": 29.850000000000392,
          "velocity": 0.48031496062992124,
          "duration": 0.06500000000000128
        },
        {
          "name": "B2",
          "midi": 47,
          "time": 29.925000000000395,
          "velocity": 0.4645669291338583,
          "duration": 0.06499999999999773
        },
        {
          "name": "A2",
          "midi": 45,
          "time": 30.00750000000039,
          "velocity": 0.6535433070866141,
          "duration": 0.9900000000000375
        },
        {
          "name": "A1",
          "midi": 33,
          "time": 30.017500000000393,
          "velocity": 0.7007874015748031,
          "duration": 0.9600000000000364
        },
        {
          "name": "E3",
          "midi": 52,
          "time": 30.075000000000394,
          "velocity": 0.3779527559055118,
          "duration": 0.06500000000000128
        },
        {
          "name": "A3",
          "midi": 57,
          "time": 30.150000000000396,
          "velocity": 0.4409448818897638,
          "duration": 0.06500000000000128
        },
        {
          "name": "C#4",
          "midi": 61,
          "time": 30.2250000000004,
          "velocity": 0.4251968503937008,
          "duration": 0.06500000000000128
        },
        {
          "name": "G4",
          "midi": 67,
          "time": 30.300000000000402,
          "velocity": 0.5275590551181102,
          "duration": 0.06500000000000128
        },
        {
          "name": "E4",
          "midi": 64,
          "time": 30.375000000000405,
          "velocity": 0.4094488188976378,
          "duration": 0.06500000000000128
        },
        {
          "name": "A4",
          "midi": 69,
          "time": 30.450000000000408,
          "velocity": 0.3700787401574803,
          "duration": 0.06500000000000128
        },
        {
          "name": "C#5",
          "midi": 73,
          "time": 30.52500000000041,
          "velocity": 0.41732283464566927,
          "duration": 0.06500000000000128
        },
        {
          "name": "G5",
          "midi": 79,
          "time": 30.600000000000414,
          "velocity": 0.5354330708661418,
          "duration": 0.06500000000000128
        },
        {
          "name": "E5",
          "midi": 76,
          "time": 30.675000000000416,
          "velocity": 0.3858267716535433,
          "duration": 0.06500000000000128
        },
        {
          "name": "A5",
          "midi": 81,
          "time": 30.75000000000042,
          "velocity": 0.4251968503937008,
          "duration": 0.06500000000000128
        },
        {
          "name": "C#6",
          "midi": 85,
          "time": 30.825000000000422,
          "velocity": 0.4015748031496063,
          "duration": 0.06500000000000128
        },
        {
          "name": "G6",
          "midi": 91,
          "time": 30.900000000000425,
          "velocity": 0.5196850393700787,
          "duration": 0.06500000000000128
        },
        {
          "name": "C#6",
          "midi": 85,
          "time": 30.975000000000428,
          "velocity": 0.4330708661417323,
          "duration": 0.06500000000000128
        },
        {
          "name": "A5",
          "midi": 81,
          "time": 31.05000000000043,
          "velocity": 0.3543307086614173,
          "duration": 0.06500000000000128
        },
        {
          "name": "E5",
          "midi": 76,
          "time": 31.125000000000433,
          "velocity": 0.36220472440944884,
          "duration": 0.06500000000000128
        },
        {
          "name": "G6",
          "midi": 91,
          "time": 31.200000000000436,
          "velocity": 0.5354330708661418,
          "duration": 0.06500000000000128
        },
        {
          "name": "D3",
          "midi": 50,
          "time": 31.202500000000438,
          "velocity": 0.6377952755905512,
          "duration": 0.9750000000000263
        },
        {
          "name": "D2",
          "midi": 38,
          "time": 31.207500000000437,
          "velocity": 0.6614173228346457,
          "duration": 1.0025000000000261
        },
        {
          "name": "C6",
          "midi": 84,
          "time": 31.27500000000044,
          "velocity": 0.4094488188976378,
          "duration": 0.06500000000000128
        },
        {
          "name": "A5",
          "midi": 81,
          "time": 31.350000000000442,
          "velocity": 0.4645669291338583,
          "duration": 0.06500000000000128
        },
        {
          "name": "E5",
          "midi": 76,
          "time": 31.425000000000445,
          "velocity": 0.4251968503937008,
          "duration": 0.06500000000000128
        },
        {
          "name": "G5",
          "midi": 79,
          "time": 31.500000000000448,
          "velocity": 0.5354330708661418,
          "duration": 0.06500000000000128
        },
        {
          "name": "C5",
          "midi": 72,
          "time": 31.57500000000045,
          "velocity": 0.30708661417322836,
          "duration": 0.06500000000000128
        },
        {
          "name": "A4",
          "midi": 69,
          "time": 31.650000000000453,
          "velocity": 0.41732283464566927,
          "duration": 0.06500000000000128
        },
        {
          "name": "E4",
          "midi": 64,
          "time": 31.725000000000456,
          "velocity": 0.3464566929133858,
          "duration": 0.06500000000000128
        },
        {
          "name": "G4",
          "midi": 67,
          "time": 31.80000000000046,
          "velocity": 0.5354330708661418,
          "duration": 0.06500000000000128
        },
        {
          "name": "C4",
          "midi": 60,
          "time": 31.875000000000462,
          "velocity": 0.41732283464566927,
          "duration": 0.06500000000000128
        },
        {
          "name": "A3",
          "midi": 57,
          "time": 31.950000000000465,
          "velocity": 0.4251968503937008,
          "duration": 0.06499999999999773
        },
        {
          "name": "E3",
          "midi": 52,
          "time": 32.02500000000046,
          "velocity": 0.3228346456692913,
          "duration": 0.06500000000000483
        },
        {
          "name": "F#4",
          "midi": 66,
          "time": 32.10000000000047,
          "velocity": 0.5275590551181102,
          "duration": 0.06499999999999773
        },
        {
          "name": "C4",
          "midi": 60,
          "time": 32.175000000000466,
          "velocity": 0.41732283464566927,
          "duration": 0.06499999999999773
        },
        {
          "name": "A3",
          "midi": 57,
          "time": 32.25000000000046,
          "velocity": 0.3779527559055118,
          "duration": 0.06499999999999773
        },
        {
          "name": "D3",
          "midi": 50,
          "time": 32.32500000000046,
          "velocity": 0.2992125984251969,
          "duration": 0.06499999999999773
        },
        {
          "name": "G2",
          "midi": 43,
          "time": 32.397500000000456,
          "velocity": 0.6220472440944882,
          "duration": 2.1349999999998914
        },
        {
          "name": "G1",
          "midi": 31,
          "time": 32.405000000000456,
          "velocity": 0.6850393700787402,
          "duration": 2.109999999999893
        },
        {
          "name": "D3",
          "midi": 50,
          "time": 32.475000000000456,
          "velocity": 0.3937007874015748,
          "duration": 0.06499999999999773
        },
        {
          "name": "G3",
          "midi": 55,
          "time": 32.55000000000045,
          "velocity": 0.36220472440944884,
          "duration": 0.06499999999999773
        },
        {
          "name": "C4",
          "midi": 60,
          "time": 32.62500000000045,
          "velocity": 0.33858267716535434,
          "duration": 0.06499999999999773
        },
        {
          "name": "F4",
          "midi": 65,
          "time": 32.70000000000044,
          "velocity": 0.5433070866141733,
          "duration": 0.06499999999999773
        },
        {
          "name": "D4",
          "midi": 62,
          "time": 32.77500000000044,
          "velocity": 0.3779527559055118,
          "duration": 0.06499999999999773
        },
        {
          "name": "G4",
          "midi": 67,
          "time": 32.850000000000435,
          "velocity": 0.4251968503937008,
          "duration": 0.06499999999999773
        },
        {
          "name": "C5",
          "midi": 72,
          "time": 32.92500000000043,
          "velocity": 0.4094488188976378,
          "duration": 0.06499999999999773
        },
        {
          "name": "F5",
          "midi": 77,
          "time": 33.000000000000426,
          "velocity": 0.5275590551181102,
          "duration": 0.06499999999999773
        },
        {
          "name": "D5",
          "midi": 74,
          "time": 33.07500000000042,
          "velocity": 0.3779527559055118,
          "duration": 0.06499999999999773
        },
        {
          "name": "G5",
          "midi": 79,
          "time": 33.15000000000042,
          "velocity": 0.4251968503937008,
          "duration": 0.06499999999999773
        },
        {
          "name": "C6",
          "midi": 84,
          "time": 33.22500000000041,
          "velocity": 0.4409448818897638,
          "duration": 0.06499999999999773
        },
        {
          "name": "F6",
          "midi": 89,
          "time": 33.30000000000041,
          "velocity": 0.5354330708661418,
          "duration": 0.06499999999999773
        },
        {
          "name": "D6",
          "midi": 86,
          "time": 33.375000000000405,
          "velocity": 0.4251968503937008,
          "duration": 0.06499999999999773
        },
        {
          "name": "G6",
          "midi": 91,
          "time": 33.4500000000004,
          "velocity": 0.4094488188976378,
          "duration": 0.06499999999999773
        },
        {
          "name": "C7",
          "midi": 96,
          "time": 33.5250000000004,
          "velocity": 0.4881889763779528,
          "duration": 0.06499999999999773
        },
        {
          "name": "F7",
          "midi": 101,
          "time": 33.6000000000004,
          "velocity": 0.5590551181102362,
          "duration": 0.06499999999999773
        },
        {
          "name": "B6",
          "midi": 95,
          "time": 33.675000000000395,
          "velocity": 0.44881889763779526,
          "duration": 0.06499999999999773
        },
        {
          "name": "G6",
          "midi": 91,
          "time": 33.75000000000039,
          "velocity": 0.4330708661417323,
          "duration": 0.06499999999999773
        },
        {
          "name": "D6",
          "midi": 86,
          "time": 33.82500000000039,
          "velocity": 0.3464566929133858,
          "duration": 0.06499999999999773
        },
        {
          "name": "F6",
          "midi": 89,
          "time": 33.90000000000038,
          "velocity": 0.5433070866141733,
          "duration": 0.06499999999999773
        },
        {
          "name": "B5",
          "midi": 83,
          "time": 33.97500000000038,
          "velocity": 0.3700787401574803,
          "duration": 0.06499999999999773
        },
        {
          "name": "G5",
          "midi": 79,
          "time": 34.050000000000374,
          "velocity": 0.4251968503937008,
          "duration": 0.06499999999999773
        },
        {
          "name": "D5",
          "midi": 74,
          "time": 34.12500000000037,
          "velocity": 0.33070866141732286,
          "duration": 0.06499999999999773
        },
        {
          "name": "F5",
          "midi": 77,
          "time": 34.200000000000365,
          "velocity": 0.5433070866141733,
          "duration": 0.06499999999999773
        },
        {
          "name": "B4",
          "midi": 71,
          "time": 34.27500000000036,
          "velocity": 0.29133858267716534,
          "duration": 0.06499999999999773
        },
        {
          "name": "G4",
          "midi": 67,
          "time": 34.35000000000036,
          "velocity": 0.3543307086614173,
          "duration": 0.06499999999999773
        },
        {
          "name": "D4",
          "midi": 62,
          "time": 34.42500000000035,
          "velocity": 0.4094488188976378,
          "duration": 0.06499999999999773
        },
        {
          "name": "F4",
          "midi": 65,
          "time": 34.50000000000035,
          "velocity": 0.5354330708661418,
          "duration": 0.06499999999999773
        },
        {
          "name": "B3",
          "midi": 59,
          "time": 34.575000000000344,
          "velocity": 0.41732283464566927,
          "duration": 0.06499999999999773
        },
        {
          "name": "G3",
          "midi": 55,
          "time": 34.65000000000034,
          "velocity": 0.28346456692913385,
          "duration": 0.06499999999999773
        },
        {
          "name": "D3",
          "midi": 50,
          "time": 34.725000000000335,
          "velocity": 0.3779527559055118,
          "duration": 0.06499999999999773
        },
        {
          "name": "C2",
          "midi": 36,
          "time": 34.802500000000336,
          "velocity": 0.6535433070866141,
          "duration": 1.0074999999999505
        },
        {
          "name": "C3",
          "midi": 48,
          "time": 34.805000000000334,
          "velocity": 0.6535433070866141,
          "duration": 0.05250000000000199
        },
        {
          "name": "C3",
          "midi": 48,
          "time": 34.875000000000334,
          "velocity": 0.6062992125984252,
          "duration": 0.9549999999999557
        },
        {
          "name": "G3",
          "midi": 55,
          "time": 34.95000000000034,
          "velocity": 0.3543307086614173,
          "duration": 0.06499999999999773
        },
        {
          "name": "A#3",
          "midi": 58,
          "time": 35.02500000000033,
          "velocity": 0.33070866141732286,
          "duration": 0.06499999999999773
        },
        {
          "name": "E4",
          "midi": 64,
          "time": 35.10000000000033,
          "velocity": 0.5433070866141733,
          "duration": 0.06499999999999773
        },
        {
          "name": "C4",
          "midi": 60,
          "time": 35.175000000000324,
          "velocity": 0.3937007874015748,
          "duration": 0.06499999999999773
        },
        {
          "name": "G4",
          "midi": 67,
          "time": 35.25000000000032,
          "velocity": 0.4251968503937008,
          "duration": 0.06499999999999773
        },
        {
          "name": "A#4",
          "midi": 70,
          "time": 35.325000000000315,
          "velocity": 0.3858267716535433,
          "duration": 0.06499999999999773
        },
        {
          "name": "E5",
          "midi": 76,
          "time": 35.40000000000031,
          "velocity": 0.5433070866141733,
          "duration": 0.06499999999999773
        },
        {
          "name": "C5",
          "midi": 72,
          "time": 35.47500000000031,
          "velocity": 0.4330708661417323,
          "duration": 0.06499999999999773
        },
        {
          "name": "G5",
          "midi": 79,
          "time": 35.5500000000003,
          "velocity": 0.4330708661417323,
          "duration": 0.06499999999999773
        },
        {
          "name": "A#5",
          "midi": 82,
          "time": 35.6250000000003,
          "velocity": 0.3937007874015748,
          "duration": 0.06499999999999773
        },
        {
          "name": "E6",
          "midi": 88,
          "time": 35.700000000000294,
          "velocity": 0.5590551181102362,
          "duration": 0.06499999999999773
        },
        {
          "name": "C6",
          "midi": 84,
          "time": 35.77500000000029,
          "velocity": 0.33858267716535434,
          "duration": 0.06499999999999773
        },
        {
          "name": "G6",
          "midi": 91,
          "time": 35.850000000000286,
          "velocity": 0.41732283464566927,
          "duration": 0.06499999999999773
        },
        {
          "name": "A#6",
          "midi": 94,
          "time": 35.92500000000028,
          "velocity": 0.3858267716535433,
          "duration": 0.06499999999999773
        },
        {
          "name": "F#2",
          "midi": 42,
          "time": 35.98750000000028,
          "velocity": 0.6141732283464567,
          "duration": 1.1424999999999415
        },
        {
          "name": "F#1",
          "midi": 30,
          "time": 35.99500000000028,
          "velocity": 0.6535433070866141,
          "duration": 1.137499999999939
        },
        {
          "name": "D#7",
          "midi": 99,
          "time": 36.000000000000284,
          "velocity": 0.5275590551181102,
          "duration": 0.06499999999999773
        },
        {
          "name": "A#6",
          "midi": 94,
          "time": 36.07500000000028,
          "velocity": 0.3464566929133858,
          "duration": 0.06499999999999773
        },
        {
          "name": "D#6",
          "midi": 87,
          "time": 36.150000000000276,
          "velocity": 0.36220472440944884,
          "duration": 0.06499999999999773
        },
        {
          "name": "C6",
          "midi": 84,
          "time": 36.22500000000027,
          "velocity": 0.3779527559055118,
          "duration": 0.06499999999999773
        },
        {
          "name": "D#6",
          "midi": 87,
          "time": 36.30000000000027,
          "velocity": 0.5354330708661418,
          "duration": 0.06499999999999773
        },
        {
          "name": "A#5",
          "midi": 82,
          "time": 36.37500000000026,
          "velocity": 0.3937007874015748,
          "duration": 0.06499999999999773
        },
        {
          "name": "D#5",
          "midi": 75,
          "time": 36.45000000000026,
          "velocity": 0.33070866141732286,
          "duration": 0.06499999999999773
        },
        {
          "name": "C5",
          "midi": 72,
          "time": 36.525000000000254,
          "velocity": 0.3543307086614173,
          "duration": 0.06499999999999773
        },
        {
          "name": "D#5",
          "midi": 75,
          "time": 36.60000000000025,
          "velocity": 0.5354330708661418,
          "duration": 0.06499999999999773
        },
        {
          "name": "A#4",
          "midi": 70,
          "time": 36.675000000000246,
          "velocity": 0.36220472440944884,
          "duration": 0.06499999999999773
        },
        {
          "name": "D#4",
          "midi": 63,
          "time": 36.75000000000024,
          "velocity": 0.4015748031496063,
          "duration": 0.06499999999999773
        },
        {
          "name": "C4",
          "midi": 60,
          "time": 36.82500000000024,
          "velocity": 0.36220472440944884,
          "duration": 0.06499999999999773
        },
        {
          "name": "D#4",
          "midi": 63,
          "time": 36.90000000000023,
          "velocity": 0.5275590551181102,
          "duration": 0.06499999999999773
        },
        {
          "name": "A#3",
          "midi": 58,
          "time": 36.97500000000023,
          "velocity": 0.3779527559055118,
          "duration": 0.06499999999999773
        },
        {
          "name": "D#3",
          "midi": 51,
          "time": 37.050000000000225,
          "velocity": 0.4251968503937008,
          "duration": 0.06499999999999773
        },
        {
          "name": "C3",
          "midi": 48,
          "time": 37.12500000000022,
          "velocity": 0.4094488188976378,
          "duration": 0.06499999999999773
        },
        {
          "name": "F2",
          "midi": 41,
          "time": 37.207500000000216,
          "velocity": 0.6771653543307087,
          "duration": 1.0399999999999423
        },
        {
          "name": "F1",
          "midi": 29,
          "time": 37.210000000000214,
          "velocity": 0.5984251968503937,
          "duration": 1.012499999999946
        },
        {
          "name": "C3",
          "midi": 48,
          "time": 37.27500000000021,
          "velocity": 0.3779527559055118,
          "duration": 0.06499999999999773
        },
        {
          "name": "D#3",
          "midi": 51,
          "time": 37.35000000000021,
          "velocity": 0.3700787401574803,
          "duration": 0.06499999999999773
        },
        {
          "name": "A3",
          "midi": 57,
          "time": 37.4250000000002,
          "velocity": 0.3779527559055118,
          "duration": 0.06499999999999773
        },
        {
          "name": "D#4",
          "midi": 63,
          "time": 37.5000000000002,
          "velocity": 0.5433070866141733,
          "duration": 0.06499999999999773
        },
        {
          "name": "C4",
          "midi": 60,
          "time": 37.575000000000195,
          "velocity": 0.36220472440944884,
          "duration": 0.06499999999999773
        },
        {
          "name": "D#4",
          "midi": 63,
          "time": 37.65000000000019,
          "velocity": 0.3937007874015748,
          "duration": 0.06499999999999773
        },
        {
          "name": "A4",
          "midi": 69,
          "time": 37.725000000000186,
          "velocity": 0.36220472440944884,
          "duration": 0.06499999999999773
        },
        {
          "name": "D#5",
          "midi": 75,
          "time": 37.80000000000018,
          "velocity": 0.5433070866141733,
          "duration": 0.06499999999999773
        },
        {
          "name": "C5",
          "midi": 72,
          "time": 37.87500000000018,
          "velocity": 0.4094488188976378,
          "duration": 0.06499999999999773
        },
        {
          "name": "D#5",
          "midi": 75,
          "time": 37.95000000000017,
          "velocity": 0.4094488188976378,
          "duration": 0.06499999999999773
        },
        {
          "name": "A5",
          "midi": 81,
          "time": 38.02500000000017,
          "velocity": 0.3779527559055118,
          "duration": 0.06499999999999773
        },
        {
          "name": "D#6",
          "midi": 87,
          "time": 38.100000000000165,
          "velocity": 0.5433070866141733,
          "duration": 0.06499999999999773
        },
        {
          "name": "C6",
          "midi": 84,
          "time": 38.17500000000016,
          "velocity": 0.3779527559055118,
          "duration": 0.06499999999999773
        },
        {
          "name": "D#6",
          "midi": 87,
          "time": 38.250000000000156,
          "velocity": 0.4015748031496063,
          "duration": 0.06499999999999773
        },
        {
          "name": "A6",
          "midi": 93,
          "time": 38.32500000000015,
          "velocity": 0.41732283464566927,
          "duration": 0.06499999999999773
        },
        {
          "name": "D#7",
          "midi": 99,
          "time": 38.40000000000015,
          "velocity": 0.5275590551181102,
          "duration": 0.06499999999999773
        },
        {
          "name": "B1",
          "midi": 35,
          "time": 38.41500000000015,
          "velocity": 0.6220472440944882,
          "duration": 1.0999999999999375
        },
        {
          "name": "B2",
          "midi": 47,
          "time": 38.41500000000015,
          "velocity": 0.6614173228346457,
          "duration": 1.0649999999999409
        },
        {
          "name": "G#6",
          "midi": 92,
          "time": 38.47500000000014,
          "velocity": 0.3937007874015748,
          "duration": 0.06499999999999773
        },
        {
          "name": "D#6",
          "midi": 87,
          "time": 38.55000000000014,
          "velocity": 0.3937007874015748,
          "duration": 0.06499999999999773
        },
        {
          "name": "B5",
          "midi": 83,
          "time": 38.625000000000135,
          "velocity": 0.4566929133858268,
          "duration": 0.06499999999999773
        },
        {
          "name": "D#6",
          "midi": 87,
          "time": 38.70000000000013,
          "velocity": 0.5354330708661418,
          "duration": 0.06499999999999773
        },
        {
          "name": "G#5",
          "midi": 80,
          "time": 38.77500000000013,
          "velocity": 0.4881889763779528,
          "duration": 0.06499999999999773
        },
        {
          "name": "D#5",
          "midi": 75,
          "time": 38.85000000000012,
          "velocity": 0.44881889763779526,
          "duration": 0.06499999999999773
        },
        {
          "name": "B4",
          "midi": 71,
          "time": 38.92500000000012,
          "velocity": 0.41732283464566927,
          "duration": 0.06499999999999773
        },
        {
          "name": "D#5",
          "midi": 75,
          "time": 39.000000000000114,
          "velocity": 0.5118110236220472,
          "duration": 0.06499999999999773
        },
        {
          "name": "G#4",
          "midi": 68,
          "time": 39.07500000000011,
          "velocity": 0.3937007874015748,
          "duration": 0.06499999999999773
        },
        {
          "name": "D#4",
          "midi": 63,
          "time": 39.150000000000105,
          "velocity": 0.3543307086614173,
          "duration": 0.06499999999999773
        },
        {
          "name": "B3",
          "midi": 59,
          "time": 39.2250000000001,
          "velocity": 0.4094488188976378,
          "duration": 0.06499999999999773
        },
        {
          "name": "D#4",
          "midi": 63,
          "time": 39.3000000000001,
          "velocity": 0.5433070866141733,
          "duration": 0.06499999999999773
        },
        {
          "name": "G#3",
          "midi": 56,
          "time": 39.37500000000009,
          "velocity": 0.4645669291338583,
          "duration": 0.06499999999999773
        },
        {
          "name": "D#3",
          "midi": 51,
          "time": 39.45000000000009,
          "velocity": 0.5118110236220472,
          "duration": 0.06499999999999773
        },
        {
          "name": "B2",
          "midi": 47,
          "time": 39.525000000000084,
          "velocity": 0.4251968503937008,
          "duration": 0.06499999999999773
        },
        {
          "name": "A#1",
          "midi": 34,
          "time": 39.610000000000085,
          "velocity": 0.7086614173228346,
          "duration": 2.292499999999876
        },
        {
          "name": "A#2",
          "midi": 46,
          "time": 39.67500000000008,
          "velocity": 0.4881889763779528,
          "duration": 0.06499999999999773
        },
        {
          "name": "F3",
          "midi": 53,
          "time": 39.75000000000008,
          "velocity": 0.4409448818897638,
          "duration": 0.06499999999999773
        },
        {
          "name": "G#3",
          "midi": 56,
          "time": 39.825000000000074,
          "velocity": 0.41732283464566927,
          "duration": 0.06499999999999773
        },
        {
          "name": "D4",
          "midi": 62,
          "time": 39.90000000000007,
          "velocity": 0.5196850393700787,
          "duration": 0.06499999999999773
        },
        {
          "name": "A#3",
          "midi": 58,
          "time": 39.975000000000065,
          "velocity": 0.4015748031496063,
          "duration": 0.06499999999999773
        },
        {
          "name": "F4",
          "midi": 65,
          "time": 40.05000000000006,
          "velocity": 0.4566929133858268,
          "duration": 0.06499999999999773
        },
        {
          "name": "G#4",
          "midi": 68,
          "time": 40.12500000000006,
          "velocity": 0.5118110236220472,
          "duration": 0.06499999999999773
        },
        {
          "name": "D5",
          "midi": 74,
          "time": 40.20000000000005,
          "velocity": 0.5511811023622047,
          "duration": 0.06499999999999773
        },
        {
          "name": "A#4",
          "midi": 70,
          "time": 40.27500000000005,
          "velocity": 0.49606299212598426,
          "duration": 0.06499999999999773
        },
        {
          "name": "F5",
          "midi": 77,
          "time": 40.350000000000044,
          "velocity": 0.49606299212598426,
          "duration": 0.06499999999999773
        },
        {
          "name": "G#5",
          "midi": 80,
          "time": 40.42500000000004,
          "velocity": 0.49606299212598426,
          "duration": 0.06499999999999773
        },
        {
          "name": "D6",
          "midi": 86,
          "time": 40.500000000000036,
          "velocity": 0.5433070866141733,
          "duration": 0.06499999999999773
        },
        {
          "name": "A#5",
          "midi": 82,
          "time": 40.57500000000003,
          "velocity": 0.4015748031496063,
          "duration": 0.06499999999999773
        },
        {
          "name": "F6",
          "midi": 89,
          "time": 40.65000000000003,
          "velocity": 0.49606299212598426,
          "duration": 0.06499999999999773
        },
        {
          "name": "G#6",
          "midi": 92,
          "time": 40.72500000000002,
          "velocity": 0.4645669291338583,
          "duration": 0.06500000000000483
        },
        {
          "name": "D7",
          "midi": 98,
          "time": 40.800000000000026,
          "velocity": 0.5433070866141733,
          "duration": 0.06499999999999773
        },
        {
          "name": "A#2",
          "midi": 46,
          "time": 40.815000000000026,
          "velocity": 0.7165354330708661,
          "duration": 1.084999999999937
        },
        {
          "name": "G#6",
          "midi": 92,
          "time": 40.87500000000002,
          "velocity": 0.4251968503937008,
          "duration": 0.06499999999999773
        },
        {
          "name": "E6",
          "midi": 88,
          "time": 40.95000000000002,
          "velocity": 0.4881889763779528,
          "duration": 0.06499999999999773
        },
        {
          "name": "A#5",
          "midi": 82,
          "time": 41.02500000000001,
          "velocity": 0.4094488188976378,
          "duration": 0.06499999999999773
        },
        {
          "name": "D6",
          "midi": 86,
          "time": 41.10000000000001,
          "velocity": 0.5669291338582677,
          "duration": 0.06499999999999773
        },
        {
          "name": "G#5",
          "midi": 80,
          "time": 41.175000000000004,
          "velocity": 0.36220472440944884,
          "duration": 0.06499999999999773
        },
        {
          "name": "E5",
          "midi": 76,
          "time": 41.25,
          "velocity": 0.4566929133858268,
          "duration": 0.06499999999999773
        },
        {
          "name": "A#4",
          "midi": 70,
          "time": 41.324999999999996,
          "velocity": 0.4094488188976378,
          "duration": 0.06499999999999773
        },
        {
          "name": "D5",
          "midi": 74,
          "time": 41.39999999999999,
          "velocity": 0.5748031496062992,
          "duration": 0.06499999999999773
        },
        {
          "name": "G#4",
          "midi": 68,
          "time": 41.47499999999999,
          "velocity": 0.5433070866141733,
          "duration": 0.06499999999999773
        },
        {
          "name": "E4",
          "midi": 64,
          "time": 41.54999999999998,
          "velocity": 0.49606299212598426,
          "duration": 0.06499999999999773
        },
        {
          "name": "A#3",
          "midi": 58,
          "time": 41.62499999999998,
          "velocity": 0.4015748031496063,
          "duration": 0.06499999999999773
        },
        {
          "name": "D4",
          "midi": 62,
          "time": 41.699999999999974,
          "velocity": 0.5590551181102362,
          "duration": 0.06499999999999773
        },
        {
          "name": "G#3",
          "midi": 56,
          "time": 41.77499999999997,
          "velocity": 0.47244094488188976,
          "duration": 0.06499999999999773
        },
        {
          "name": "E3",
          "midi": 52,
          "time": 41.849999999999966,
          "velocity": 0.5196850393700787,
          "duration": 0.06499999999999773
        },
        {
          "name": "A#2",
          "midi": 46,
          "time": 41.92499999999996,
          "velocity": 0.5196850393700787,
          "duration": 0.06499999999999773
        },
        {
          "name": "A2",
          "midi": 45,
          "time": 41.994999999999955,
          "velocity": 0.7401574803149606,
          "duration": 0.05749999999999744
        },
        {
          "name": "A1",
          "midi": 33,
          "time": 41.99749999999995,
          "velocity": 0.7007874015748031,
          "duration": 2.3124999999998863
        },
        {
          "name": "A2",
          "midi": 45,
          "time": 42.07499999999995,
          "velocity": 0.6535433070866141,
          "duration": 2.064999999999891
        },
        {
          "name": "E3",
          "midi": 52,
          "time": 42.149999999999956,
          "velocity": 0.5039370078740157,
          "duration": 0.06499999999999773
        },
        {
          "name": "A3",
          "midi": 57,
          "time": 42.22499999999995,
          "velocity": 0.41732283464566927,
          "duration": 0.06499999999999773
        },
        {
          "name": "C#4",
          "midi": 61,
          "time": 42.29999999999995,
          "velocity": 0.6141732283464567,
          "duration": 0.06499999999999773
        },
        {
          "name": "A3",
          "midi": 57,
          "time": 42.37499999999994,
          "velocity": 0.3937007874015748,
          "duration": 0.06499999999999773
        },
        {
          "name": "E4",
          "midi": 64,
          "time": 42.44999999999994,
          "velocity": 0.47244094488188976,
          "duration": 0.06499999999999773
        },
        {
          "name": "A4",
          "midi": 69,
          "time": 42.524999999999935,
          "velocity": 0.5354330708661418,
          "duration": 0.06499999999999773
        },
        {
          "name": "C#5",
          "midi": 73,
          "time": 42.59999999999993,
          "velocity": 0.5984251968503937,
          "duration": 0.06499999999999773
        },
        {
          "name": "A4",
          "midi": 69,
          "time": 42.674999999999926,
          "velocity": 0.4566929133858268,
          "duration": 0.06499999999999773
        },
        {
          "name": "E5",
          "midi": 76,
          "time": 42.74999999999992,
          "velocity": 0.4409448818897638,
          "duration": 0.06499999999999773
        },
        {
          "name": "A5",
          "midi": 81,
          "time": 42.82499999999992,
          "velocity": 0.4330708661417323,
          "duration": 0.06499999999999773
        },
        {
          "name": "C#6",
          "midi": 85,
          "time": 42.89999999999991,
          "velocity": 0.5984251968503937,
          "duration": 0.06499999999999773
        },
        {
          "name": "A5",
          "midi": 81,
          "time": 42.97499999999991,
          "velocity": 0.4881889763779528,
          "duration": 0.06499999999999773
        },
        {
          "name": "E6",
          "midi": 88,
          "time": 43.049999999999905,
          "velocity": 0.5511811023622047,
          "duration": 0.06499999999999773
        },
        {
          "name": "A6",
          "midi": 93,
          "time": 43.1249999999999,
          "velocity": 0.5354330708661418,
          "duration": 0.06499999999999773
        },
        {
          "name": "C#7",
          "midi": 97,
          "time": 43.199999999999896,
          "velocity": 0.6220472440944882,
          "duration": 0.06499999999999773
        },
        {
          "name": "A6",
          "midi": 93,
          "time": 43.27499999999989,
          "velocity": 0.47244094488188976,
          "duration": 0.06499999999999773
        },
        {
          "name": "E6",
          "midi": 88,
          "time": 43.34999999999989,
          "velocity": 0.5275590551181102,
          "duration": 0.06499999999999773
        },
        {
          "name": "A5",
          "midi": 81,
          "time": 43.42499999999988,
          "velocity": 0.4881889763779528,
          "duration": 0.06499999999999773
        },
        {
          "name": "C#6",
          "midi": 85,
          "time": 43.49999999999988,
          "velocity": 0.6062992125984252,
          "duration": 0.06499999999999773
        },
        {
          "name": "A5",
          "midi": 81,
          "time": 43.574999999999875,
          "velocity": 0.49606299212598426,
          "duration": 0.06499999999999773
        },
        {
          "name": "E5",
          "midi": 76,
          "time": 43.64999999999987,
          "velocity": 0.5118110236220472,
          "duration": 0.06499999999999773
        },
        {
          "name": "A4",
          "midi": 69,
          "time": 43.724999999999866,
          "velocity": 0.4881889763779528,
          "duration": 0.06499999999999773
        },
        {
          "name": "C#5",
          "midi": 73,
          "time": 43.79999999999986,
          "velocity": 0.5905511811023622,
          "duration": 0.06499999999999773
        },
        {
          "name": "A4",
          "midi": 69,
          "time": 43.87499999999986,
          "velocity": 0.49606299212598426,
          "duration": 0.06499999999999773
        },
        {
          "name": "E4",
          "midi": 64,
          "time": 43.949999999999854,
          "velocity": 0.47244094488188976,
          "duration": 0.06499999999999773
        },
        {
          "name": "A3",
          "midi": 57,
          "time": 44.02499999999985,
          "velocity": 0.3858267716535433,
          "duration": 0.06499999999999773
        },
        {
          "name": "C#4",
          "midi": 61,
          "time": 44.099999999999845,
          "velocity": 0.6062992125984252,
          "duration": 0.06499999999999773
        },
        {
          "name": "A3",
          "midi": 57,
          "time": 44.17499999999984,
          "velocity": 0.4881889763779528,
          "duration": 0.06499999999999773
        },
        {
          "name": "E3",
          "midi": 52,
          "time": 44.24999999999984,
          "velocity": 0.49606299212598426,
          "duration": 0.06500000000000483
        },
        {
          "name": "A2",
          "midi": 45,
          "time": 44.32499999999984,
          "velocity": 0.4409448818897638,
          "duration": 0.06499999999999773
        },
        {
          "name": "D2",
          "midi": 38,
          "time": 44.407499999999835,
          "velocity": 0.7480314960629921,
          "duration": 1.1074999999999449
        },
        {
          "name": "A2",
          "midi": 45,
          "time": 44.47499999999984,
          "velocity": 0.3858267716535433,
          "duration": 0.06499999999999773
        },
        {
          "name": "D3",
          "midi": 50,
          "time": 44.549999999999834,
          "velocity": 0.5118110236220472,
          "duration": 0.06499999999999773
        },
        {
          "name": "F#3",
          "midi": 54,
          "time": 44.62499999999983,
          "velocity": 0.4566929133858268,
          "duration": 0.06499999999999773
        },
        {
          "name": "C4",
          "midi": 60,
          "time": 44.699999999999825,
          "velocity": 0.5984251968503937,
          "duration": 0.06499999999999773
        },
        {
          "name": "A3",
          "midi": 57,
          "time": 44.77499999999982,
          "velocity": 0.41732283464566927,
          "duration": 0.06499999999999773
        },
        {
          "name": "D4",
          "midi": 62,
          "time": 44.84999999999982,
          "velocity": 0.5354330708661418,
          "duration": 0.06499999999999773
        },
        {
          "name": "F#4",
          "midi": 66,
          "time": 44.92499999999981,
          "velocity": 0.4645669291338583,
          "duration": 0.06499999999999773
        },
        {
          "name": "C5",
          "midi": 72,
          "time": 44.99999999999981,
          "velocity": 0.5984251968503937,
          "duration": 0.06499999999999773
        },
        {
          "name": "A4",
          "midi": 69,
          "time": 45.074999999999804,
          "velocity": 0.44881889763779526,
          "duration": 0.06499999999999773
        },
        {
          "name": "D5",
          "midi": 74,
          "time": 45.1499999999998,
          "velocity": 0.5118110236220472,
          "duration": 0.06499999999999773
        },
        {
          "name": "F#5",
          "midi": 78,
          "time": 45.224999999999795,
          "velocity": 0.47244094488188976,
          "duration": 0.06499999999999773
        },
        {
          "name": "C6",
          "midi": 84,
          "time": 45.29999999999979,
          "velocity": 0.5905511811023622,
          "duration": 0.06499999999999773
        },
        {
          "name": "A5",
          "midi": 81,
          "time": 45.37499999999979,
          "velocity": 0.4330708661417323,
          "duration": 0.06499999999999773
        },
        {
          "name": "D6",
          "midi": 86,
          "time": 45.44999999999978,
          "velocity": 0.4566929133858268,
          "duration": 0.06499999999999773
        },
        {
          "name": "F#6",
          "midi": 90,
          "time": 45.52499999999978,
          "velocity": 0.5039370078740157,
          "duration": 0.06500000000000483
        },
        {
          "name": "G1",
          "midi": 31,
          "time": 45.58999999999978,
          "velocity": 0.6535433070866141,
          "duration": 1.1624999999999588
        },
        {
          "name": "G2",
          "midi": 43,
          "time": 45.594999999999786,
          "velocity": 0.6614173228346457,
          "duration": 1.0824999999999534
        },
        {
          "name": "C7",
          "midi": 96,
          "time": 45.59999999999979,
          "velocity": 0.5984251968503937,
          "duration": 0.06500000000000483
        },
        {
          "name": "F6",
          "midi": 89,
          "time": 45.67499999999979,
          "velocity": 0.49606299212598426,
          "duration": 0.06499999999999773
        },
        {
          "name": "D6",
          "midi": 86,
          "time": 45.74999999999979,
          "velocity": 0.49606299212598426,
          "duration": 0.06499999999999773
        },
        {
          "name": "G5",
          "midi": 79,
          "time": 45.82499999999978,
          "velocity": 0.41732283464566927,
          "duration": 0.06499999999999773
        },
        {
          "name": "C6",
          "midi": 84,
          "time": 45.89999999999978,
          "velocity": 0.6062992125984252,
          "duration": 0.06499999999999773
        },
        {
          "name": "F5",
          "midi": 77,
          "time": 45.974999999999774,
          "velocity": 0.44881889763779526,
          "duration": 0.06499999999999773
        },
        {
          "name": "D5",
          "midi": 74,
          "time": 46.04999999999977,
          "velocity": 0.4645669291338583,
          "duration": 0.06499999999999773
        },
        {
          "name": "G4",
          "midi": 67,
          "time": 46.124999999999766,
          "velocity": 0.4566929133858268,
          "duration": 0.06499999999999773
        },
        {
          "name": "C5",
          "midi": 72,
          "time": 46.19999999999976,
          "velocity": 0.6377952755905512,
          "duration": 0.06499999999999773
        },
        {
          "name": "F4",
          "midi": 65,
          "time": 46.27499999999976,
          "velocity": 0.4015748031496063,
          "duration": 0.06499999999999773
        },
        {
          "name": "D4",
          "midi": 62,
          "time": 46.34999999999975,
          "velocity": 0.4566929133858268,
          "duration": 0.06499999999999773
        },
        {
          "name": "G3",
          "midi": 55,
          "time": 46.42499999999975,
          "velocity": 0.4881889763779528,
          "duration": 0.06499999999999773
        },
        {
          "name": "B3",
          "midi": 59,
          "time": 46.499999999999744,
          "velocity": 0.6299212598425197,
          "duration": 0.06499999999999773
        },
        {
          "name": "F3",
          "midi": 53,
          "time": 46.57499999999974,
          "velocity": 0.5196850393700787,
          "duration": 0.06499999999999773
        },
        {
          "name": "D3",
          "midi": 50,
          "time": 46.649999999999736,
          "velocity": 0.4251968503937008,
          "duration": 0.06500000000000483
        },
        {
          "name": "G2",
          "midi": 43,
          "time": 46.72499999999974,
          "velocity": 0.4251968503937008,
          "duration": 0.06500000000000483
        },
        {
          "name": "C2",
          "midi": 36,
          "time": 46.81499999999974,
          "velocity": 0.6771653543307087,
          "duration": 1.147499999999944
        },
        {
          "name": "G2",
          "midi": 43,
          "time": 46.874999999999744,
          "velocity": 0.3543307086614173,
          "duration": 0.06499999999999773
        },
        {
          "name": "C3",
          "midi": 48,
          "time": 46.94999999999974,
          "velocity": 0.4566929133858268,
          "duration": 0.06499999999999773
        },
        {
          "name": "E3",
          "midi": 52,
          "time": 47.024999999999736,
          "velocity": 0.3700787401574803,
          "duration": 0.06499999999999773
        },
        {
          "name": "B3",
          "midi": 59,
          "time": 47.09999999999973,
          "velocity": 0.5748031496062992,
          "duration": 0.06499999999999773
        },
        {
          "name": "G3",
          "midi": 55,
          "time": 47.17499999999973,
          "velocity": 0.3464566929133858,
          "duration": 0.06499999999999773
        },
        {
          "name": "C4",
          "midi": 60,
          "time": 47.24999999999972,
          "velocity": 0.4251968503937008,
          "duration": 0.06499999999999773
        },
        {
          "name": "E4",
          "midi": 64,
          "time": 47.32499999999972,
          "velocity": 0.44881889763779526,
          "duration": 0.06499999999999773
        },
        {
          "name": "B4",
          "midi": 71,
          "time": 47.399999999999714,
          "velocity": 0.5905511811023622,
          "duration": 0.06499999999999773
        },
        {
          "name": "G4",
          "midi": 67,
          "time": 47.47499999999971,
          "velocity": 0.3937007874015748,
          "duration": 0.06499999999999773
        },
        {
          "name": "C5",
          "midi": 72,
          "time": 47.549999999999706,
          "velocity": 0.48031496062992124,
          "duration": 0.06499999999999773
        },
        {
          "name": "E5",
          "midi": 76,
          "time": 47.6249999999997,
          "velocity": 0.44881889763779526,
          "duration": 0.06499999999999773
        },
        {
          "name": "B5",
          "midi": 83,
          "time": 47.6999999999997,
          "velocity": 0.5984251968503937,
          "duration": 0.06499999999999773
        },
        {
          "name": "G5",
          "midi": 79,
          "time": 47.77499999999969,
          "velocity": 0.4094488188976378,
          "duration": 0.06499999999999773
        },
        {
          "name": "C6",
          "midi": 84,
          "time": 47.84999999999969,
          "velocity": 0.3779527559055118,
          "duration": 0.06499999999999773
        },
        {
          "name": "E6",
          "midi": 88,
          "time": 47.924999999999685,
          "velocity": 0.3858267716535433,
          "duration": 0.06499999999999773
        },
        {
          "name": "B6",
          "midi": 95,
          "time": 47.99999999999968,
          "velocity": 0.5826771653543307,
          "duration": 0.06499999999999773
        },
        {
          "name": "F1",
          "midi": 29,
          "time": 48.00999999999968,
          "velocity": 0.6141732283464567,
          "duration": 1.16749999999994
        },
        {
          "name": "F2",
          "midi": 41,
          "time": 48.01499999999968,
          "velocity": 0.6299212598425197,
          "duration": 1.0674999999999386
        },
        {
          "name": "E6",
          "midi": 88,
          "time": 48.074999999999676,
          "velocity": 0.41732283464566927,
          "duration": 0.06499999999999773
        },
        {
          "name": "C6",
          "midi": 84,
          "time": 48.14999999999967,
          "velocity": 0.4566929133858268,
          "duration": 0.06499999999999773
        },
        {
          "name": "F5",
          "midi": 77,
          "time": 48.22499999999967,
          "velocity": 0.36220472440944884,
          "duration": 0.06499999999999773
        },
        {
          "name": "B5",
          "midi": 83,
          "time": 48.29999999999966,
          "velocity": 0.5905511811023622,
          "duration": 0.06499999999999773
        },
        {
          "name": "E5",
          "midi": 76,
          "time": 48.37499999999966,
          "velocity": 0.47244094488188976,
          "duration": 0.06499999999999773
        },
        {
          "name": "C5",
          "midi": 72,
          "time": 48.449999999999655,
          "velocity": 0.4645669291338583,
          "duration": 0.06499999999999773
        },
        {
          "name": "F4",
          "midi": 65,
          "time": 48.52499999999965,
          "velocity": 0.4094488188976378,
          "duration": 0.06499999999999773
        },
        {
          "name": "B4",
          "midi": 71,
          "time": 48.599999999999646,
          "velocity": 0.5748031496062992,
          "duration": 0.06499999999999773
        },
        {
          "name": "E4",
          "midi": 64,
          "time": 48.67499999999964,
          "velocity": 0.47244094488188976,
          "duration": 0.06499999999999773
        },
        {
          "name": "C4",
          "midi": 60,
          "time": 48.74999999999964,
          "velocity": 0.3464566929133858,
          "duration": 0.06499999999999773
        },
        {
          "name": "F3",
          "midi": 53,
          "time": 48.82499999999963,
          "velocity": 0.4645669291338583,
          "duration": 0.06499999999999773
        },
        {
          "name": "A3",
          "midi": 57,
          "time": 48.89999999999963,
          "velocity": 0.5433070866141733,
          "duration": 0.06499999999999773
        },
        {
          "name": "E3",
          "midi": 52,
          "time": 48.974999999999625,
          "velocity": 0.4330708661417323,
          "duration": 0.06499999999999773
        },
        {
          "name": "C3",
          "midi": 48,
          "time": 49.04999999999962,
          "velocity": 0.4881889763779528,
          "duration": 0.06499999999999773
        },
        {
          "name": "F2",
          "midi": 41,
          "time": 49.124999999999616,
          "velocity": 0.4330708661417323,
          "duration": 0.06500000000000483
        },
        {
          "name": "B1",
          "midi": 35,
          "time": 49.20499999999962,
          "velocity": 0.6456692913385826,
          "duration": 1.1349999999999412
        },
        {
          "name": "F2",
          "midi": 41,
          "time": 49.27499999999962,
          "velocity": 0.3779527559055118,
          "duration": 0.06499999999999773
        },
        {
          "name": "B2",
          "midi": 47,
          "time": 49.34999999999962,
          "velocity": 0.4645669291338583,
          "duration": 0.06499999999999773
        },
        {
          "name": "D3",
          "midi": 50,
          "time": 49.42499999999961,
          "velocity": 0.4251968503937008,
          "duration": 0.06499999999999773
        },
        {
          "name": "A3",
          "midi": 57,
          "time": 49.49999999999961,
          "velocity": 0.5669291338582677,
          "duration": 0.06499999999999773
        },
        {
          "name": "F3",
          "midi": 53,
          "time": 49.574999999999605,
          "velocity": 0.4330708661417323,
          "duration": 0.06499999999999773
        },
        {
          "name": "B3",
          "midi": 59,
          "time": 49.6499999999996,
          "velocity": 0.47244094488188976,
          "duration": 0.06499999999999773
        },
        {
          "name": "D4",
          "midi": 62,
          "time": 49.724999999999596,
          "velocity": 0.44881889763779526,
          "duration": 0.06499999999999773
        },
        {
          "name": "A4",
          "midi": 69,
          "time": 49.79999999999959,
          "velocity": 0.5275590551181102,
          "duration": 0.06499999999999773
        },
        {
          "name": "F4",
          "midi": 65,
          "time": 49.87499999999959,
          "velocity": 0.3937007874015748,
          "duration": 0.06499999999999773
        },
        {
          "name": "B4",
          "midi": 71,
          "time": 49.949999999999584,
          "velocity": 0.4409448818897638,
          "duration": 0.06499999999999773
        },
        {
          "name": "D5",
          "midi": 74,
          "time": 50.02499999999958,
          "velocity": 0.4409448818897638,
          "duration": 0.06499999999999773
        },
        {
          "name": "A5",
          "midi": 81,
          "time": 50.099999999999575,
          "velocity": 0.5275590551181102,
          "duration": 0.06499999999999773
        },
        {
          "name": "F5",
          "midi": 77,
          "time": 50.17499999999957,
          "velocity": 0.4094488188976378,
          "duration": 0.06499999999999773
        },
        {
          "name": "B5",
          "midi": 83,
          "time": 50.24999999999957,
          "velocity": 0.41732283464566927,
          "duration": 0.06499999999999773
        },
        {
          "name": "D6",
          "midi": 86,
          "time": 50.32499999999956,
          "velocity": 0.4645669291338583,
          "duration": 0.06499999999999773
        },
        {
          "name": "E1",
          "midi": 28,
          "time": 50.38749999999956,
          "velocity": 0.6692913385826772,
          "duration": 0.4299999999999713
        },
        {
          "name": "E2",
          "midi": 40,
          "time": 50.38749999999956,
          "velocity": 0.7401574803149606,
          "duration": 0.4574999999999747
        },
        {
          "name": "G6",
          "midi": 91,
          "time": 50.39999999999956,
          "velocity": 0.5196850393700787,
          "duration": 0.06499999999999773
        },
        {
          "name": "D6",
          "midi": 86,
          "time": 50.474999999999554,
          "velocity": 0.4251968503937008,
          "duration": 0.06499999999999773
        },
        {
          "name": "B5",
          "midi": 83,
          "time": 50.54999999999955,
          "velocity": 0.4330708661417323,
          "duration": 0.06499999999999773
        },
        {
          "name": "E5",
          "midi": 76,
          "time": 50.624999999999545,
          "velocity": 0.4015748031496063,
          "duration": 0.06499999999999773
        },
        {
          "name": "G5",
          "midi": 79,
          "time": 50.69999999999954,
          "velocity": 0.5275590551181102,
          "duration": 0.06499999999999773
        },
        {
          "name": "D5",
          "midi": 74,
          "time": 50.77499999999954,
          "velocity": 0.4251968503937008,
          "duration": 0.06499999999999773
        },
        {
          "name": "B4",
          "midi": 71,
          "time": 50.84999999999954,
          "velocity": 0.4409448818897638,
          "duration": 0.06499999999999773
        },
        {
          "name": "E4",
          "midi": 64,
          "time": 50.924999999999535,
          "velocity": 0.41732283464566927,
          "duration": 0.06499999999999773
        },
        {
          "name": "A4",
          "midi": 69,
          "time": 50.99999999999953,
          "velocity": 0.4330708661417323,
          "duration": 0.06499999999999773
        },
        {
          "name": "A2",
          "midi": 45,
          "time": 51.004999999999534,
          "velocity": 0.6929133858267716,
          "duration": 0.39999999999997726
        },
        {
          "name": "A1",
          "midi": 33,
          "time": 51.00749999999953,
          "velocity": 0.7086614173228346,
          "duration": 0.4374999999999787
        },
        {
          "name": "C5",
          "midi": 72,
          "time": 51.07499999999953,
          "velocity": 0.4094488188976378,
          "duration": 0.06499999999999773
        },
        {
          "name": "G5",
          "midi": 79,
          "time": 51.14999999999952,
          "velocity": 0.4645669291338583,
          "duration": 0.06499999999999773
        },
        {
          "name": "E5",
          "midi": 76,
          "time": 51.22499999999952,
          "velocity": 0.3937007874015748,
          "duration": 0.06499999999999773
        },
        {
          "name": "A5",
          "midi": 81,
          "time": 51.299999999999514,
          "velocity": 0.4330708661417323,
          "duration": 0.06499999999999773
        },
        {
          "name": "C6",
          "midi": 84,
          "time": 51.37499999999951,
          "velocity": 0.36220472440944884,
          "duration": 0.06499999999999773
        },
        {
          "name": "G6",
          "midi": 91,
          "time": 51.44999999999951,
          "velocity": 0.5039370078740157,
          "duration": 0.06499999999999773
        },
        {
          "name": "E6",
          "midi": 88,
          "time": 51.52499999999951,
          "velocity": 0.4330708661417323,
          "duration": 0.06499999999999773
        },
        {
          "name": "F6",
          "midi": 89,
          "time": 51.599999999999504,
          "velocity": 0.5590551181102362,
          "duration": 0.06499999999999773
        },
        {
          "name": "D2",
          "midi": 38,
          "time": 51.614999999999505,
          "velocity": 0.6771653543307087,
          "duration": 0.43249999999998323
        },
        {
          "name": "D1",
          "midi": 26,
          "time": 51.6249999999995,
          "velocity": 0.6929133858267716,
          "duration": 0.4099999999999824
        },
        {
          "name": "C6",
          "midi": 84,
          "time": 51.6749999999995,
          "velocity": 0.4015748031496063,
          "duration": 0.06499999999999773
        },
        {
          "name": "A5",
          "midi": 81,
          "time": 51.749999999999496,
          "velocity": 0.47244094488188976,
          "duration": 0.06499999999999773
        },
        {
          "name": "D5",
          "midi": 74,
          "time": 51.82499999999949,
          "velocity": 0.4330708661417323,
          "duration": 0.06499999999999773
        },
        {
          "name": "F5",
          "midi": 77,
          "time": 51.89999999999949,
          "velocity": 0.5905511811023622,
          "duration": 0.06499999999999773
        },
        {
          "name": "C5",
          "midi": 72,
          "time": 51.97499999999948,
          "velocity": 0.48031496062992124,
          "duration": 0.06500000000000483
        },
        {
          "name": "A4",
          "midi": 69,
          "time": 52.049999999999486,
          "velocity": 0.3858267716535433,
          "duration": 0.06499999999999773
        },
        {
          "name": "D4",
          "midi": 62,
          "time": 52.12499999999948,
          "velocity": 0.4015748031496063,
          "duration": 0.06499999999999773
        },
        {
          "name": "G4",
          "midi": 67,
          "time": 52.19999999999948,
          "velocity": 0.3858267716535433,
          "duration": 0.06499999999999773
        },
        {
          "name": "G2",
          "midi": 43,
          "time": 52.22749999999947,
          "velocity": 0.6929133858267716,
          "duration": 0.3649999999999807
        },
        {
          "name": "G1",
          "midi": 31,
          "time": 52.232499999999476,
          "velocity": 0.7401574803149606,
          "duration": 0.38999999999997925
        },
        {
          "name": "B4",
          "midi": 71,
          "time": 52.27499999999947,
          "velocity": 0.3779527559055118,
          "duration": 0.06499999999999773
        },
        {
          "name": "F5",
          "midi": 77,
          "time": 52.34999999999947,
          "velocity": 0.4881889763779528,
          "duration": 0.06499999999999773
        },
        {
          "name": "D5",
          "midi": 74,
          "time": 52.424999999999464,
          "velocity": 0.4409448818897638,
          "duration": 0.06499999999999773
        },
        {
          "name": "G5",
          "midi": 79,
          "time": 52.49999999999946,
          "velocity": 0.44881889763779526,
          "duration": 0.06499999999999773
        },
        {
          "name": "B5",
          "midi": 83,
          "time": 52.574999999999456,
          "velocity": 0.44881889763779526,
          "duration": 0.06499999999999773
        },
        {
          "name": "F6",
          "midi": 89,
          "time": 52.64999999999945,
          "velocity": 0.5590551181102362,
          "duration": 0.06499999999999773
        },
        {
          "name": "D6",
          "midi": 86,
          "time": 52.72499999999945,
          "velocity": 0.4645669291338583,
          "duration": 0.06499999999999773
        },
        {
          "name": "E6",
          "midi": 88,
          "time": 52.79999999999944,
          "velocity": 0.5826771653543307,
          "duration": 0.06499999999999062
        },
        {
          "name": "C2",
          "midi": 36,
          "time": 52.81249999999944,
          "velocity": 0.7086614173228346,
          "duration": 0.3399999999999821
        },
        {
          "name": "C1",
          "midi": 24,
          "time": 52.814999999999436,
          "velocity": 0.6929133858267716,
          "duration": 0.3224999999999838
        },
        {
          "name": "B5",
          "midi": 83,
          "time": 52.87499999999943,
          "velocity": 0.3700787401574803,
          "duration": 0.06499999999999773
        },
        {
          "name": "G5",
          "midi": 79,
          "time": 52.94999999999943,
          "velocity": 0.44881889763779526,
          "duration": 0.06499999999999773
        },
        {
          "name": "C5",
          "midi": 72,
          "time": 53.02499999999942,
          "velocity": 0.4015748031496063,
          "duration": 0.06499999999999773
        },
        {
          "name": "E5",
          "midi": 76,
          "time": 53.09999999999942,
          "velocity": 0.5826771653543307,
          "duration": 0.06500000000000483
        },
        {
          "name": "B4",
          "midi": 71,
          "time": 53.17499999999942,
          "velocity": 0.48031496062992124,
          "duration": 0.06499999999999773
        },
        {
          "name": "G4",
          "midi": 67,
          "time": 53.24999999999942,
          "velocity": 0.4881889763779528,
          "duration": 0.06499999999999773
        },
        {
          "name": "C4",
          "midi": 60,
          "time": 53.32499999999941,
          "velocity": 0.3937007874015748,
          "duration": 0.06499999999999773
        },
        {
          "name": "F4",
          "midi": 65,
          "time": 53.39999999999941,
          "velocity": 0.4409448818897638,
          "duration": 0.06500000000000483
        },
        {
          "name": "F2",
          "midi": 41,
          "time": 53.39999999999941,
          "velocity": 0.7322834645669292,
          "duration": 0.4999999999999858
        },
        {
          "name": "F1",
          "midi": 29,
          "time": 53.40499999999941,
          "velocity": 0.6614173228346457,
          "duration": 0.4724999999999824
        },
        {
          "name": "A4",
          "midi": 69,
          "time": 53.47499999999941,
          "velocity": 0.41732283464566927,
          "duration": 0.06499999999999773
        },
        {
          "name": "E5",
          "midi": 76,
          "time": 53.54999999999941,
          "velocity": 0.4409448818897638,
          "duration": 0.06499999999999773
        },
        {
          "name": "C5",
          "midi": 72,
          "time": 53.6249999999994,
          "velocity": 0.44881889763779526,
          "duration": 0.06499999999999773
        },
        {
          "name": "F5",
          "midi": 77,
          "time": 53.6999999999994,
          "velocity": 0.4881889763779528,
          "duration": 0.06499999999999773
        },
        {
          "name": "A5",
          "midi": 81,
          "time": 53.774999999999395,
          "velocity": 0.4330708661417323,
          "duration": 0.06499999999999773
        },
        {
          "name": "E6",
          "midi": 88,
          "time": 53.84999999999939,
          "velocity": 0.5905511811023622,
          "duration": 0.06500000000000483
        },
        {
          "name": "C6",
          "midi": 84,
          "time": 53.92499999999939,
          "velocity": 0.48031496062992124,
          "duration": 0.06499999999999773
        },
        {
          "name": "D6",
          "midi": 86,
          "time": 53.99999999999939,
          "velocity": 0.6299212598425197,
          "duration": 0.06499999999999773
        },
        {
          "name": "B2",
          "midi": 47,
          "time": 54.01499999999939,
          "velocity": 0.7086614173228346,
          "duration": 0.7674999999999557
        },
        {
          "name": "B1",
          "midi": 35,
          "time": 54.01499999999939,
          "velocity": 0.7637795275590551,
          "duration": 0.8349999999999582
        },
        {
          "name": "A5",
          "midi": 81,
          "time": 54.074999999999385,
          "velocity": 0.5196850393700787,
          "duration": 0.06499999999999773
        },
        {
          "name": "F5",
          "midi": 77,
          "time": 54.14999999999938,
          "velocity": 0.47244094488188976,
          "duration": 0.06499999999999773
        },
        {
          "name": "B4",
          "midi": 71,
          "time": 54.224999999999376,
          "velocity": 0.48031496062992124,
          "duration": 0.06499999999999773
        },
        {
          "name": "D5",
          "midi": 74,
          "time": 54.29999999999937,
          "velocity": 0.6062992125984252,
          "duration": 0.06499999999999773
        },
        {
          "name": "A4",
          "midi": 69,
          "time": 54.37499999999937,
          "velocity": 0.49606299212598426,
          "duration": 0.06499999999999773
        },
        {
          "name": "F4",
          "midi": 65,
          "time": 54.44999999999936,
          "velocity": 0.4094488188976378,
          "duration": 0.06499999999999773
        },
        {
          "name": "B3",
          "midi": 59,
          "time": 54.52499999999936,
          "velocity": 0.3937007874015748,
          "duration": 0.06499999999999773
        },
        {
          "name": "D4",
          "midi": 62,
          "time": 54.599999999999355,
          "velocity": 0.6062992125984252,
          "duration": 0.06499999999999773
        },
        {
          "name": "A3",
          "midi": 57,
          "time": 54.67499999999935,
          "velocity": 0.4881889763779528,
          "duration": 0.06499999999999773
        },
        {
          "name": "F3",
          "midi": 53,
          "time": 54.749999999999346,
          "velocity": 0.47244094488188976,
          "duration": 0.06499999999999773
        },
        {
          "name": "B2",
          "midi": 47,
          "time": 54.82499999999935,
          "velocity": 0.4645669291338583,
          "duration": 0.06500000000000483
        },
        {
          "name": "B1",
          "midi": 35,
          "time": 54.90999999999936,
          "velocity": 0.7795275590551181,
          "duration": 1.1149999999999594
        },
        {
          "name": "D#6",
          "midi": 87,
          "time": 55.199999999999356,
          "velocity": 0.6220472440944882,
          "duration": 0.06499999999999773
        },
        {
          "name": "B2",
          "midi": 47,
          "time": 55.20749999999936,
          "velocity": 0.7322834645669292,
          "duration": 0.7699999999999605
        },
        {
          "name": "A5",
          "midi": 81,
          "time": 55.27499999999935,
          "velocity": 0.5826771653543307,
          "duration": 0.06499999999999773
        },
        {
          "name": "F#5",
          "midi": 78,
          "time": 55.34999999999935,
          "velocity": 0.5433070866141733,
          "duration": 0.06499999999999773
        },
        {
          "name": "B4",
          "midi": 71,
          "time": 55.42499999999934,
          "velocity": 0.5511811023622047,
          "duration": 0.06499999999999773
        },
        {
          "name": "D#5",
          "midi": 75,
          "time": 55.49999999999934,
          "velocity": 0.6299212598425197,
          "duration": 0.06499999999999773
        },
        {
          "name": "A4",
          "midi": 69,
          "time": 55.574999999999335,
          "velocity": 0.5196850393700787,
          "duration": 0.06499999999999773
        },
        {
          "name": "F#4",
          "midi": 66,
          "time": 55.64999999999933,
          "velocity": 0.5118110236220472,
          "duration": 0.06499999999999773
        },
        {
          "name": "B3",
          "midi": 59,
          "time": 55.724999999999326,
          "velocity": 0.4881889763779528,
          "duration": 0.06499999999999773
        },
        {
          "name": "D#4",
          "midi": 63,
          "time": 55.79999999999932,
          "velocity": 0.6141732283464567,
          "duration": 0.06499999999999773
        },
        {
          "name": "A3",
          "midi": 57,
          "time": 55.87499999999932,
          "velocity": 0.5118110236220472,
          "duration": 0.06499999999999773
        },
        {
          "name": "F#3",
          "midi": 54,
          "time": 55.949999999999314,
          "velocity": 0.5118110236220472,
          "duration": 0.06500000000000483
        },
        {
          "name": "B2",
          "midi": 47,
          "time": 56.02499999999932,
          "velocity": 0.44881889763779526,
          "duration": 0.06500000000000483
        },
        {
          "name": "B1",
          "midi": 35,
          "time": 56.102499999999324,
          "velocity": 0.7637795275590551,
          "duration": 0.3125
        },
        {
          "name": "E1",
          "midi": 28,
          "time": 56.404999999999326,
          "velocity": 0.6692913385826772,
          "duration": 1.9974999999998957
        },
        {
          "name": "E2",
          "midi": 40,
          "time": 56.404999999999326,
          "velocity": 0.7401574803149606,
          "duration": 1.9899999999998954
        },
        {
          "name": "B2",
          "midi": 47,
          "time": 56.474999999999326,
          "velocity": 0.44881889763779526,
          "duration": 0.06499999999999773
        },
        {
          "name": "E3",
          "midi": 52,
          "time": 56.54999999999932,
          "velocity": 0.5354330708661418,
          "duration": 0.06499999999999773
        },
        {
          "name": "G#3",
          "midi": 56,
          "time": 56.62499999999932,
          "velocity": 0.4881889763779528,
          "duration": 0.06499999999999773
        },
        {
          "name": "E4",
          "midi": 64,
          "time": 56.699999999999314,
          "velocity": 0.6062992125984252,
          "duration": 0.06499999999999773
        },
        {
          "name": "B3",
          "midi": 59,
          "time": 56.77499999999931,
          "velocity": 0.4409448818897638,
          "duration": 0.06499999999999773
        },
        {
          "name": "E4",
          "midi": 64,
          "time": 56.849999999999305,
          "velocity": 0.4566929133858268,
          "duration": 0.06499999999999773
        },
        {
          "name": "G#4",
          "midi": 68,
          "time": 56.9249999999993,
          "velocity": 0.5196850393700787,
          "duration": 0.06499999999999773
        },
        {
          "name": "E5",
          "midi": 76,
          "time": 56.9999999999993,
          "velocity": 0.6220472440944882,
          "duration": 0.06499999999999773
        },
        {
          "name": "B4",
          "midi": 71,
          "time": 57.07499999999929,
          "velocity": 0.4409448818897638,
          "duration": 0.06499999999999773
        },
        {
          "name": "E5",
          "midi": 76,
          "time": 57.14999999999929,
          "velocity": 0.5511811023622047,
          "duration": 0.06499999999999773
        },
        {
          "name": "G#5",
          "midi": 80,
          "time": 57.224999999999284,
          "velocity": 0.5039370078740157,
          "duration": 0.06499999999999773
        },
        {
          "name": "E6",
          "midi": 88,
          "time": 57.29999999999928,
          "velocity": 0.6141732283464567,
          "duration": 0.06499999999999773
        },
        {
          "name": "B5",
          "midi": 83,
          "time": 57.374999999999275,
          "velocity": 0.4409448818897638,
          "duration": 0.06499999999999773
        },
        {
          "name": "E6",
          "midi": 88,
          "time": 57.44999999999927,
          "velocity": 0.4881889763779528,
          "duration": 0.06499999999999773
        },
        {
          "name": "G#6",
          "midi": 92,
          "time": 57.52499999999927,
          "velocity": 0.4566929133858268,
          "duration": 0.06499999999999773
        },
        {
          "name": "E7",
          "midi": 100,
          "time": 57.59999999999926,
          "velocity": 0.5905511811023622,
          "duration": 0.06499999999999773
        },
        {
          "name": "G#6",
          "midi": 92,
          "time": 57.67499999999926,
          "velocity": 0.4094488188976378,
          "duration": 0.06499999999999773
        },
        {
          "name": "E6",
          "midi": 88,
          "time": 57.749999999999254,
          "velocity": 0.4409448818897638,
          "duration": 0.06499999999999773
        },
        {
          "name": "B5",
          "midi": 83,
          "time": 57.82499999999925,
          "velocity": 0.48031496062992124,
          "duration": 0.06499999999999773
        },
        {
          "name": "E6",
          "midi": 88,
          "time": 57.899999999999245,
          "velocity": 0.6220472440944882,
          "duration": 0.06499999999999773
        },
        {
          "name": "G#5",
          "midi": 80,
          "time": 57.97499999999924,
          "velocity": 0.4645669291338583,
          "duration": 0.06499999999999773
        },
        {
          "name": "E5",
          "midi": 76,
          "time": 58.04999999999924,
          "velocity": 0.4330708661417323,
          "duration": 0.06499999999999773
        },
        {
          "name": "B4",
          "midi": 71,
          "time": 58.12499999999923,
          "velocity": 0.47244094488188976,
          "duration": 0.06499999999999773
        },
        {
          "name": "E5",
          "midi": 76,
          "time": 58.19999999999923,
          "velocity": 0.6299212598425197,
          "duration": 0.06499999999999773
        },
        {
          "name": "G#4",
          "midi": 68,
          "time": 58.274999999999224,
          "velocity": 0.47244094488188976,
          "duration": 0.06499999999999773
        },
        {
          "name": "E4",
          "midi": 64,
          "time": 58.34999999999922,
          "velocity": 0.48031496062992124,
          "duration": 0.06500000000000483
        },
        {
          "name": "B3",
          "midi": 59,
          "time": 58.42499999999922,
          "velocity": 0.4881889763779528,
          "duration": 0.06500000000000483
        },
        {
          "name": "D2",
          "midi": 38,
          "time": 58.49499999999923,
          "velocity": 0.6929133858267716,
          "duration": 0.26249999999998863
        },
        {
          "name": "F4",
          "midi": 65,
          "time": 58.49999999999923,
          "velocity": 0.6062992125984252,
          "duration": 0.06499999999999773
        },
        {
          "name": "D1",
          "midi": 26,
          "time": 58.49999999999923,
          "velocity": 0.6929133858267716,
          "duration": 0.2974999999999852
        },
        {
          "name": "B3",
          "midi": 59,
          "time": 58.57499999999923,
          "velocity": 0.5433070866141733,
          "duration": 0.06499999999999773
        },
        {
          "name": "G3",
          "midi": 55,
          "time": 58.649999999999224,
          "velocity": 0.5511811023622047,
          "duration": 0.06499999999999773
        },
        {
          "name": "D3",
          "midi": 50,
          "time": 58.72499999999922,
          "velocity": 0.4881889763779528,
          "duration": 0.06499999999999773
        },
        {
          "name": "C2",
          "midi": 36,
          "time": 58.83499999999922,
          "velocity": 0.7322834645669292,
          "duration": 2.1724999999998857
        },
        {
          "name": "C1",
          "midi": 24,
          "time": 58.83999999999922,
          "velocity": 0.7086614173228346,
          "duration": 0.8349999999999511
        },
        {
          "name": "C3",
          "midi": 48,
          "time": 58.87499999999922,
          "velocity": 0.5354330708661418,
          "duration": 0.06499999999999773
        },
        {
          "name": "G3",
          "midi": 55,
          "time": 58.949999999999214,
          "velocity": 0.5433070866141733,
          "duration": 0.06499999999999773
        },
        {
          "name": "C4",
          "midi": 60,
          "time": 59.02499999999921,
          "velocity": 0.4645669291338583,
          "duration": 0.06499999999999773
        },
        {
          "name": "E4",
          "midi": 64,
          "time": 59.099999999999206,
          "velocity": 0.6062992125984252,
          "duration": 0.06499999999999773
        },
        {
          "name": "C4",
          "midi": 60,
          "time": 59.1749999999992,
          "velocity": 0.4881889763779528,
          "duration": 0.06499999999999773
        },
        {
          "name": "G4",
          "midi": 67,
          "time": 59.2499999999992,
          "velocity": 0.4881889763779528,
          "duration": 0.06499999999999773
        },
        {
          "name": "C5",
          "midi": 72,
          "time": 59.32499999999919,
          "velocity": 0.5275590551181102,
          "duration": 0.06499999999999773
        },
        {
          "name": "E5",
          "midi": 76,
          "time": 59.39999999999919,
          "velocity": 0.6220472440944882,
          "duration": 0.06499999999999773
        },
        {
          "name": "C5",
          "midi": 72,
          "time": 59.474999999999184,
          "velocity": 0.4409448818897638,
          "duration": 0.06499999999999773
        },
        {
          "name": "G5",
          "midi": 79,
          "time": 59.54999999999918,
          "velocity": 0.4566929133858268,
          "duration": 0.06499999999999773
        },
        {
          "name": "C6",
          "midi": 84,
          "time": 59.624999999999176,
          "velocity": 0.49606299212598426,
          "duration": 0.06499999999999773
        },
        {
          "name": "E6",
          "midi": 88,
          "time": 59.69999999999917,
          "velocity": 0.6062992125984252,
          "duration": 0.06499999999999773
        },
        {
          "name": "C6",
          "midi": 84,
          "time": 59.77499999999917,
          "velocity": 0.4645669291338583,
          "duration": 0.06499999999999773
        },
        {
          "name": "G6",
          "midi": 91,
          "time": 59.84999999999916,
          "velocity": 0.49606299212598426,
          "duration": 0.06499999999999773
        },
        {
          "name": "C7",
          "midi": 96,
          "time": 59.92499999999916,
          "velocity": 0.49606299212598426,
          "duration": 0.06499999999999773
        },
        {
          "name": "E7",
          "midi": 100,
          "time": 59.999999999999154,
          "velocity": 0.6141732283464567,
          "duration": 0.06500000000000483
        },
        {
          "name": "C3",
          "midi": 48,
          "time": 60.01249999999916,
          "velocity": 0.7795275590551181,
          "duration": 0.909999999999954
        },
        {
          "name": "C7",
          "midi": 96,
          "time": 60.07499999999916,
          "velocity": 0.5118110236220472,
          "duration": 0.06499999999999773
        },
        {
          "name": "G6",
          "midi": 91,
          "time": 60.14999999999915,
          "velocity": 0.5196850393700787,
          "duration": 0.06499999999999773
        },
        {
          "name": "C6",
          "midi": 84,
          "time": 60.22499999999915,
          "velocity": 0.4566929133858268,
          "duration": 0.06499999999999773
        },
        {
          "name": "E6",
          "midi": 88,
          "time": 60.299999999999145,
          "velocity": 0.6377952755905512,
          "duration": 0.06499999999999773
        },
        {
          "name": "C6",
          "midi": 84,
          "time": 60.37499999999914,
          "velocity": 0.4251968503937008,
          "duration": 0.06499999999999773
        },
        {
          "name": "G5",
          "midi": 79,
          "time": 60.449999999999136,
          "velocity": 0.4330708661417323,
          "duration": 0.06499999999999773
        },
        {
          "name": "C5",
          "midi": 72,
          "time": 60.52499999999913,
          "velocity": 0.4409448818897638,
          "duration": 0.06499999999999773
        },
        {
          "name": "E5",
          "midi": 76,
          "time": 60.59999999999913,
          "velocity": 0.6299212598425197,
          "duration": 0.06499999999999773
        },
        {
          "name": "C5",
          "midi": 72,
          "time": 60.67499999999912,
          "velocity": 0.4330708661417323,
          "duration": 0.06499999999999773
        },
        {
          "name": "G4",
          "midi": 67,
          "time": 60.74999999999912,
          "velocity": 0.48031496062992124,
          "duration": 0.06499999999999773
        },
        {
          "name": "C4",
          "midi": 60,
          "time": 60.824999999999115,
          "velocity": 0.4645669291338583,
          "duration": 0.06499999999999773
        },
        {
          "name": "E4",
          "midi": 64,
          "time": 60.89999999999911,
          "velocity": 0.6062992125984252,
          "duration": 0.06499999999999773
        },
        {
          "name": "C4",
          "midi": 60,
          "time": 60.974999999999106,
          "velocity": 0.4330708661417323,
          "duration": 0.06499999999999773
        },
        {
          "name": "G3",
          "midi": 55,
          "time": 61.0499999999991,
          "velocity": 0.44881889763779526,
          "duration": 0.06499999999999773
        },
        {
          "name": "C3",
          "midi": 48,
          "time": 61.1249999999991,
          "velocity": 0.4015748031496063,
          "duration": 0.06500000000000483
        },
        {
          "name": "F2",
          "midi": 41,
          "time": 61.2049999999991,
          "velocity": 0.7559055118110236,
          "duration": 0.9899999999999523
        },
        {
          "name": "F1",
          "midi": 29,
          "time": 61.2124999999991,
          "velocity": 0.7559055118110236,
          "duration": 1.24249999999995
        },
        {
          "name": "C3",
          "midi": 48,
          "time": 61.2749999999991,
          "velocity": 0.47244094488188976,
          "duration": 0.06499999999999773
        },
        {
          "name": "A3",
          "midi": 57,
          "time": 61.3499999999991,
          "velocity": 0.3937007874015748,
          "duration": 0.06499999999999773
        },
        {
          "name": "C4",
          "midi": 60,
          "time": 61.424999999999095,
          "velocity": 0.4094488188976378,
          "duration": 0.06499999999999773
        },
        {
          "name": "F4",
          "midi": 65,
          "time": 61.49999999999909,
          "velocity": 0.6377952755905512,
          "duration": 0.06499999999999773
        },
        {
          "name": "C4",
          "midi": 60,
          "time": 61.574999999999086,
          "velocity": 0.3858267716535433,
          "duration": 0.06499999999999773
        },
        {
          "name": "A4",
          "midi": 69,
          "time": 61.64999999999908,
          "velocity": 0.4251968503937008,
          "duration": 0.06499999999999773
        },
        {
          "name": "C5",
          "midi": 72,
          "time": 61.72499999999908,
          "velocity": 0.4330708661417323,
          "duration": 0.06499999999999773
        },
        {
          "name": "F5",
          "midi": 77,
          "time": 61.79999999999907,
          "velocity": 0.6062992125984252,
          "duration": 0.06499999999999773
        },
        {
          "name": "C5",
          "midi": 72,
          "time": 61.87499999999907,
          "velocity": 0.4094488188976378,
          "duration": 0.06499999999999773
        },
        {
          "name": "A5",
          "midi": 81,
          "time": 61.949999999999065,
          "velocity": 0.49606299212598426,
          "duration": 0.06499999999999773
        },
        {
          "name": "C6",
          "midi": 84,
          "time": 62.02499999999906,
          "velocity": 0.4566929133858268,
          "duration": 0.06499999999999773
        },
        {
          "name": "F6",
          "midi": 89,
          "time": 62.099999999999056,
          "velocity": 0.6141732283464567,
          "duration": 0.06499999999999773
        },
        {
          "name": "C6",
          "midi": 84,
          "time": 62.17499999999905,
          "velocity": 0.4409448818897638,
          "duration": 0.06500000000000483
        },
        {
          "name": "A6",
          "midi": 93,
          "time": 62.249999999999055,
          "velocity": 0.41732283464566927,
          "duration": 0.06499999999999773
        },
        {
          "name": "C7",
          "midi": 96,
          "time": 62.32499999999905,
          "velocity": 0.3779527559055118,
          "duration": 0.06500000000000483
        },
        {
          "name": "E7",
          "midi": 100,
          "time": 62.399999999999054,
          "velocity": 0.6220472440944882,
          "duration": 0.06499999999999773
        },
        {
          "name": "F#1",
          "midi": 30,
          "time": 62.41999999999906,
          "velocity": 0.6850393700787402,
          "duration": 1.1324999999999363
        },
        {
          "name": "F#2",
          "midi": 42,
          "time": 62.422499999999054,
          "velocity": 0.7244094488188977,
          "duration": 1.157499999999935
        },
        {
          "name": "C7",
          "midi": 96,
          "time": 62.47499999999905,
          "velocity": 0.3937007874015748,
          "duration": 0.06499999999999773
        },
        {
          "name": "A6",
          "midi": 93,
          "time": 62.549999999999045,
          "velocity": 0.5196850393700787,
          "duration": 0.06499999999999773
        },
        {
          "name": "C6",
          "midi": 84,
          "time": 62.62499999999904,
          "velocity": 0.4645669291338583,
          "duration": 0.06499999999999773
        },
        {
          "name": "E6",
          "midi": 88,
          "time": 62.69999999999904,
          "velocity": 0.6220472440944882,
          "duration": 0.06499999999999773
        },
        {
          "name": "C6",
          "midi": 84,
          "time": 62.77499999999903,
          "velocity": 0.5669291338582677,
          "duration": 0.06499999999999773
        },
        {
          "name": "A5",
          "midi": 81,
          "time": 62.84999999999903,
          "velocity": 0.5118110236220472,
          "duration": 0.06499999999999773
        },
        {
          "name": "C5",
          "midi": 72,
          "time": 62.924999999999024,
          "velocity": 0.44881889763779526,
          "duration": 0.06499999999999773
        },
        {
          "name": "E5",
          "midi": 76,
          "time": 62.99999999999902,
          "velocity": 0.6141732283464567,
          "duration": 0.06499999999999773
        },
        {
          "name": "C5",
          "midi": 72,
          "time": 63.074999999999015,
          "velocity": 0.48031496062992124,
          "duration": 0.06499999999999773
        },
        {
          "name": "A4",
          "midi": 69,
          "time": 63.14999999999901,
          "velocity": 0.48031496062992124,
          "duration": 0.06499999999999773
        },
        {
          "name": "C4",
          "midi": 60,
          "time": 63.22499999999901,
          "velocity": 0.4251968503937008,
          "duration": 0.06499999999999773
        },
        {
          "name": "D4",
          "midi": 62,
          "time": 63.299999999999,
          "velocity": 0.6141732283464567,
          "duration": 0.06499999999999773
        },
        {
          "name": "C4",
          "midi": 60,
          "time": 63.374999999999,
          "velocity": 0.4566929133858268,
          "duration": 0.06499999999999773
        },
        {
          "name": "A3",
          "midi": 57,
          "time": 63.449999999998994,
          "velocity": 0.47244094488188976,
          "duration": 0.06499999999999773
        },
        {
          "name": "C3",
          "midi": 48,
          "time": 63.52499999999899,
          "velocity": 0.5196850393700787,
          "duration": 0.06499999999999773
        },
        {
          "name": "G1",
          "midi": 31,
          "time": 63.62749999999899,
          "velocity": 0.6692913385826772,
          "duration": 0.5749999999999744
        },
        {
          "name": "G2",
          "midi": 43,
          "time": 63.62749999999899,
          "velocity": 0.7637795275590551,
          "duration": 0.4124999999999801
        },
        {
          "name": "B2",
          "midi": 47,
          "time": 63.67499999999899,
          "velocity": 0.4015748031496063,
          "duration": 0.06499999999999773
        },
        {
          "name": "G3",
          "midi": 55,
          "time": 63.749999999998984,
          "velocity": 0.4645669291338583,
          "duration": 0.06499999999999773
        },
        {
          "name": "B3",
          "midi": 59,
          "time": 63.82499999999898,
          "velocity": 0.47244094488188976,
          "duration": 0.06499999999999773
        },
        {
          "name": "D4",
          "midi": 62,
          "time": 63.899999999998975,
          "velocity": 0.6220472440944882,
          "duration": 0.06499999999999773
        },
        {
          "name": "B3",
          "midi": 59,
          "time": 63.97499999999897,
          "velocity": 0.5196850393700787,
          "duration": 0.06499999999999773
        },
        {
          "name": "G4",
          "midi": 67,
          "time": 64.04999999999897,
          "velocity": 0.4881889763779528,
          "duration": 0.06499999999999773
        },
        {
          "name": "B4",
          "midi": 71,
          "time": 64.12499999999898,
          "velocity": 0.5196850393700787,
          "duration": 0.06499999999999773
        },
        {
          "name": "D5",
          "midi": 74,
          "time": 64.19999999999897,
          "velocity": 0.6299212598425197,
          "duration": 0.06499999999998352
        },
        {
          "name": "F#2",
          "midi": 42,
          "time": 64.20999999999896,
          "velocity": 0.6929133858267716,
          "duration": 0.2325000000000017
        },
        {
          "name": "F#1",
          "midi": 30,
          "time": 64.21249999999895,
          "velocity": 0.6771653543307087,
          "duration": 0.34250000000000114
        },
        {
          "name": "B4",
          "midi": 71,
          "time": 64.27499999999895,
          "velocity": 0.44881889763779526,
          "duration": 0.06499999999999773
        },
        {
          "name": "G5",
          "midi": 79,
          "time": 64.34999999999896,
          "velocity": 0.5118110236220472,
          "duration": 0.06499999999999773
        },
        {
          "name": "B5",
          "midi": 83,
          "time": 64.42499999999896,
          "velocity": 0.49606299212598426,
          "duration": 0.06499999999999773
        },
        {
          "name": "D6",
          "midi": 86,
          "time": 64.49999999999896,
          "velocity": 0.6062992125984252,
          "duration": 0.06499999999999773
        },
        {
          "name": "E2",
          "midi": 40,
          "time": 64.52249999999896,
          "velocity": 0.7007874015748031,
          "duration": 0.2750000000000057
        },
        {
          "name": "E1",
          "midi": 28,
          "time": 64.52499999999895,
          "velocity": 0.7086614173228346,
          "duration": 0.292500000000004
        },
        {
          "name": "B5",
          "midi": 83,
          "time": 64.57499999999897,
          "velocity": 0.4330708661417323,
          "duration": 0.06499999999999773
        },
        {
          "name": "G6",
          "midi": 91,
          "time": 64.64999999999897,
          "velocity": 0.5275590551181102,
          "duration": 0.06499999999999773
        },
        {
          "name": "A6",
          "midi": 93,
          "time": 64.72499999999897,
          "velocity": 0.49606299212598426,
          "duration": 0.06499999999999773
        },
        {
          "name": "D7",
          "midi": 98,
          "time": 64.79999999999896,
          "velocity": 0.6141732283464567,
          "duration": 0.06499999999999773
        },
        {
          "name": "D1",
          "midi": 26,
          "time": 64.81749999999896,
          "velocity": 0.7952755905511811,
          "duration": 1.0025000000000404
        },
        {
          "name": "D2",
          "midi": 38,
          "time": 64.81749999999896,
          "velocity": 0.6614173228346457,
          "duration": 1.0425000000000466
        },
        {
          "name": "A6",
          "midi": 93,
          "time": 64.87499999999896,
          "velocity": 0.3937007874015748,
          "duration": 0.06499999999999773
        },
        {
          "name": "F#6",
          "midi": 90,
          "time": 64.94999999999897,
          "velocity": 0.4881889763779528,
          "duration": 0.06499999999999773
        },
        {
          "name": "C6",
          "midi": 84,
          "time": 65.02499999999897,
          "velocity": 0.4094488188976378,
          "duration": 0.06499999999999773
        },
        {
          "name": "D6",
          "midi": 86,
          "time": 65.09999999999897,
          "velocity": 0.6220472440944882,
          "duration": 0.06499999999999773
        },
        {
          "name": "A5",
          "midi": 81,
          "time": 65.17499999999897,
          "velocity": 0.5196850393700787,
          "duration": 0.06499999999999773
        },
        {
          "name": "F#5",
          "midi": 78,
          "time": 65.24999999999898,
          "velocity": 0.4015748031496063,
          "duration": 0.06499999999999773
        },
        {
          "name": "C5",
          "midi": 72,
          "time": 65.32499999999898,
          "velocity": 0.41732283464566927,
          "duration": 0.06499999999999773
        },
        {
          "name": "D5",
          "midi": 74,
          "time": 65.39999999999898,
          "velocity": 0.5984251968503937,
          "duration": 0.06499999999999773
        },
        {
          "name": "A4",
          "midi": 69,
          "time": 65.47499999999899,
          "velocity": 0.3700787401574803,
          "duration": 0.06499999999999773
        },
        {
          "name": "F#4",
          "midi": 66,
          "time": 65.54999999999899,
          "velocity": 0.4330708661417323,
          "duration": 0.06499999999999773
        },
        {
          "name": "C4",
          "midi": 60,
          "time": 65.62499999999899,
          "velocity": 0.4094488188976378,
          "duration": 0.06499999999999773
        },
        {
          "name": "D4",
          "midi": 62,
          "time": 65.699999999999,
          "velocity": 0.6062992125984252,
          "duration": 0.06499999999999773
        },
        {
          "name": "A3",
          "midi": 57,
          "time": 65.774999999999,
          "velocity": 0.33070866141732286,
          "duration": 0.06499999999999773
        },
        {
          "name": "F#3",
          "midi": 54,
          "time": 65.849999999999,
          "velocity": 0.48031496062992124,
          "duration": 0.06500000000001194
        },
        {
          "name": "C3",
          "midi": 48,
          "time": 65.92499999999902,
          "velocity": 0.47244094488188976,
          "duration": 0.06499999999999773
        },
        {
          "name": "G2",
          "midi": 43,
          "time": 66.01249999999902,
          "velocity": 0.7401574803149606,
          "duration": 2.3950000000000813
        },
        {
          "name": "G1",
          "midi": 31,
          "time": 66.01999999999902,
          "velocity": 0.7165354330708661,
          "duration": 2.05250000000008
        },
        {
          "name": "C3",
          "midi": 48,
          "time": 66.07499999999902,
          "velocity": 0.3858267716535433,
          "duration": 0.06499999999999773
        },
        {
          "name": "F3",
          "midi": 53,
          "time": 66.14999999999903,
          "velocity": 0.4645669291338583,
          "duration": 0.06499999999999773
        },
        {
          "name": "G#3",
          "midi": 56,
          "time": 66.22499999999903,
          "velocity": 0.5039370078740157,
          "duration": 0.06499999999999773
        },
        {
          "name": "D4",
          "midi": 62,
          "time": 66.29999999999903,
          "velocity": 0.6141732283464567,
          "duration": 0.06499999999999773
        },
        {
          "name": "C4",
          "midi": 60,
          "time": 66.37499999999903,
          "velocity": 0.5118110236220472,
          "duration": 0.06499999999999773
        },
        {
          "name": "F4",
          "midi": 65,
          "time": 66.44999999999904,
          "velocity": 0.48031496062992124,
          "duration": 0.06499999999999773
        },
        {
          "name": "G#4",
          "midi": 68,
          "time": 66.52499999999904,
          "velocity": 0.4094488188976378,
          "duration": 0.06499999999999773
        },
        {
          "name": "D5",
          "midi": 74,
          "time": 66.59999999999904,
          "velocity": 0.6062992125984252,
          "duration": 0.06499999999999773
        },
        {
          "name": "C5",
          "midi": 72,
          "time": 66.67499999999905,
          "velocity": 0.47244094488188976,
          "duration": 0.06499999999999773
        },
        {
          "name": "F5",
          "midi": 77,
          "time": 66.74999999999905,
          "velocity": 0.5354330708661418,
          "duration": 0.06499999999999773
        },
        {
          "name": "G#5",
          "midi": 80,
          "time": 66.82499999999905,
          "velocity": 0.44881889763779526,
          "duration": 0.06499999999999773
        },
        {
          "name": "D6",
          "midi": 86,
          "time": 66.89999999999905,
          "velocity": 0.6062992125984252,
          "duration": 0.06499999999999773
        },
        {
          "name": "C6",
          "midi": 84,
          "time": 66.97499999999906,
          "velocity": 0.41732283464566927,
          "duration": 0.06499999999999773
        },
        {
          "name": "F6",
          "midi": 89,
          "time": 67.04999999999906,
          "velocity": 0.5275590551181102,
          "duration": 0.06499999999999773
        },
        {
          "name": "G#6",
          "midi": 92,
          "time": 67.12499999999906,
          "velocity": 0.4566929133858268,
          "duration": 0.06499999999999773
        },
        {
          "name": "D7",
          "midi": 98,
          "time": 67.19999999999906,
          "velocity": 0.5984251968503937,
          "duration": 0.06499999999999773
        },
        {
          "name": "G6",
          "midi": 91,
          "time": 67.27499999999907,
          "velocity": 0.5511811023622047,
          "duration": 0.06499999999999773
        },
        {
          "name": "F6",
          "midi": 89,
          "time": 67.34999999999907,
          "velocity": 0.49606299212598426,
          "duration": 0.06499999999999773
        },
        {
          "name": "B5",
          "midi": 83,
          "time": 67.42499999999907,
          "velocity": 0.4566929133858268,
          "duration": 0.06499999999999773
        },
        {
          "name": "D6",
          "midi": 86,
          "time": 67.49999999999908,
          "velocity": 0.6062992125984252,
          "duration": 0.06499999999999773
        },
        {
          "name": "G5",
          "midi": 79,
          "time": 67.57499999999908,
          "velocity": 0.4566929133858268,
          "duration": 0.06499999999999773
        },
        {
          "name": "F5",
          "midi": 77,
          "time": 67.64999999999908,
          "velocity": 0.5118110236220472,
          "duration": 0.06499999999999773
        },
        {
          "name": "B4",
          "midi": 71,
          "time": 67.72499999999908,
          "velocity": 0.4094488188976378,
          "duration": 0.06499999999999773
        },
        {
          "name": "D5",
          "midi": 74,
          "time": 67.79999999999909,
          "velocity": 0.6062992125984252,
          "duration": 0.06499999999999773
        },
        {
          "name": "G4",
          "midi": 67,
          "time": 67.87499999999909,
          "velocity": 0.44881889763779526,
          "duration": 0.06499999999999773
        },
        {
          "name": "F4",
          "midi": 65,
          "time": 67.9499999999991,
          "velocity": 0.41732283464566927,
          "duration": 0.06499999999999773
        },
        {
          "name": "B3",
          "midi": 59,
          "time": 68.0249999999991,
          "velocity": 0.47244094488188976,
          "duration": 0.06499999999999773
        },
        {
          "name": "D#4",
          "midi": 63,
          "time": 68.0999999999991,
          "velocity": 0.5984251968503937,
          "duration": 0.06499999999999773
        },
        {
          "name": "G3",
          "midi": 55,
          "time": 68.1749999999991,
          "velocity": 0.3779527559055118,
          "duration": 0.06499999999999773
        },
        {
          "name": "F3",
          "midi": 53,
          "time": 68.2499999999991,
          "velocity": 0.4409448818897638,
          "duration": 0.06499999999999773
        },
        {
          "name": "B2",
          "midi": 47,
          "time": 68.32499999999911,
          "velocity": 0.4251968503937008,
          "duration": 0.06499999999999773
        },
        {
          "name": "C2",
          "midi": 36,
          "time": 68.4299999999991,
          "velocity": 0.7559055118110236,
          "duration": 2.3600000000000705
        },
        {
          "name": "C3",
          "midi": 48,
          "time": 68.4299999999991,
          "velocity": 0.7559055118110236,
          "duration": 0.037499999999994316
        },
        {
          "name": "C3",
          "midi": 48,
          "time": 68.47499999999908,
          "velocity": 0.6850393700787402,
          "duration": 2.1525000000000745
        },
        {
          "name": "G3",
          "midi": 55,
          "time": 68.54999999999909,
          "velocity": 0.48031496062992124,
          "duration": 0.06499999999999773
        },
        {
          "name": "C4",
          "midi": 60,
          "time": 68.62499999999909,
          "velocity": 0.41732283464566927,
          "duration": 0.06499999999999773
        },
        {
          "name": "E4",
          "midi": 64,
          "time": 68.6999999999991,
          "velocity": 0.5984251968503937,
          "duration": 0.06499999999999773
        },
        {
          "name": "C4",
          "midi": 60,
          "time": 68.7749999999991,
          "velocity": 0.4015748031496063,
          "duration": 0.06499999999999773
        },
        {
          "name": "G4",
          "midi": 67,
          "time": 68.8499999999991,
          "velocity": 0.5511811023622047,
          "duration": 0.06499999999999773
        },
        {
          "name": "C5",
          "midi": 72,
          "time": 68.9249999999991,
          "velocity": 0.4881889763779528,
          "duration": 0.06499999999999773
        },
        {
          "name": "E5",
          "midi": 76,
          "time": 68.9999999999991,
          "velocity": 0.6299212598425197,
          "duration": 0.06499999999999773
        },
        {
          "name": "C5",
          "midi": 72,
          "time": 69.07499999999911,
          "velocity": 0.3700787401574803,
          "duration": 0.06499999999999773
        },
        {
          "name": "G5",
          "midi": 79,
          "time": 69.14999999999911,
          "velocity": 0.48031496062992124,
          "duration": 0.06499999999999773
        },
        {
          "name": "C6",
          "midi": 84,
          "time": 69.22499999999911,
          "velocity": 0.49606299212598426,
          "duration": 0.06499999999999773
        },
        {
          "name": "E6",
          "midi": 88,
          "time": 69.29999999999912,
          "velocity": 0.6062992125984252,
          "duration": 0.06499999999999773
        },
        {
          "name": "C6",
          "midi": 84,
          "time": 69.37499999999912,
          "velocity": 0.49606299212598426,
          "duration": 0.06499999999999773
        },
        {
          "name": "G6",
          "midi": 91,
          "time": 69.44999999999912,
          "velocity": 0.4330708661417323,
          "duration": 0.06499999999999773
        },
        {
          "name": "C7",
          "midi": 96,
          "time": 69.52499999999912,
          "velocity": 0.49606299212598426,
          "duration": 0.06499999999999773
        },
        {
          "name": "E7",
          "midi": 100,
          "time": 69.59999999999913,
          "velocity": 0.6141732283464567,
          "duration": 0.06499999999999773
        },
        {
          "name": "C7",
          "midi": 96,
          "time": 69.67499999999913,
          "velocity": 0.5118110236220472,
          "duration": 0.06499999999999773
        },
        {
          "name": "G6",
          "midi": 91,
          "time": 69.74999999999913,
          "velocity": 0.3779527559055118,
          "duration": 0.06499999999999773
        },
        {
          "name": "C6",
          "midi": 84,
          "time": 69.82499999999914,
          "velocity": 0.4094488188976378,
          "duration": 0.06499999999999773
        },
        {
          "name": "E6",
          "midi": 88,
          "time": 69.89999999999914,
          "velocity": 0.5984251968503937,
          "duration": 0.06499999999999773
        },
        {
          "name": "C6",
          "midi": 84,
          "time": 69.97499999999914,
          "velocity": 0.4330708661417323,
          "duration": 0.06499999999999773
        },
        {
          "name": "G5",
          "midi": 79,
          "time": 70.04999999999914,
          "velocity": 0.4409448818897638,
          "duration": 0.06499999999999773
        },
        {
          "name": "C5",
          "midi": 72,
          "time": 70.12499999999915,
          "velocity": 0.4330708661417323,
          "duration": 0.06499999999999773
        },
        {
          "name": "E5",
          "midi": 76,
          "time": 70.19999999999915,
          "velocity": 0.5984251968503937,
          "duration": 0.06499999999999773
        },
        {
          "name": "C5",
          "midi": 72,
          "time": 70.27499999999915,
          "velocity": 0.3937007874015748,
          "duration": 0.06499999999999773
        },
        {
          "name": "G4",
          "midi": 67,
          "time": 70.34999999999916,
          "velocity": 0.47244094488188976,
          "duration": 0.06499999999999773
        },
        {
          "name": "C4",
          "midi": 60,
          "time": 70.42499999999916,
          "velocity": 0.4251968503937008,
          "duration": 0.06499999999999773
        },
        {
          "name": "E4",
          "midi": 64,
          "time": 70.49999999999916,
          "velocity": 0.6062992125984252,
          "duration": 0.06499999999999773
        },
        {
          "name": "C4",
          "midi": 60,
          "time": 70.57499999999916,
          "velocity": 0.4409448818897638,
          "duration": 0.06499999999999773
        },
        {
          "name": "G3",
          "midi": 55,
          "time": 70.64999999999917,
          "velocity": 0.5433070866141733,
          "duration": 0.06499999999999773
        },
        {
          "name": "C3",
          "midi": 48,
          "time": 70.72499999999917,
          "velocity": 0.4881889763779528,
          "duration": 0.06499999999999773
        },
        {
          "name": "A2",
          "midi": 45,
          "time": 70.82499999999916,
          "velocity": 0.7086614173228346,
          "duration": 1.97000000000007
        },
        {
          "name": "A1",
          "midi": 33,
          "time": 70.82499999999916,
          "velocity": 0.7007874015748031,
          "duration": 2.1075000000000585
        },
        {
          "name": "C3",
          "midi": 48,
          "time": 70.87499999999916,
          "velocity": 0.5118110236220472,
          "duration": 0.06499999999999773
        },
        {
          "name": "F3",
          "midi": 53,
          "time": 70.94999999999916,
          "velocity": 0.5196850393700787,
          "duration": 0.06499999999999773
        },
        {
          "name": "C4",
          "midi": 60,
          "time": 71.02499999999917,
          "velocity": 0.4251968503937008,
          "duration": 0.06499999999999773
        },
        {
          "name": "F4",
          "midi": 65,
          "time": 71.09999999999917,
          "velocity": 0.6062992125984252,
          "duration": 0.06499999999999773
        },
        {
          "name": "C4",
          "midi": 60,
          "time": 71.17499999999917,
          "velocity": 0.4015748031496063,
          "duration": 0.06499999999999773
        },
        {
          "name": "F4",
          "midi": 65,
          "time": 71.24999999999918,
          "velocity": 0.49606299212598426,
          "duration": 0.06499999999999773
        },
        {
          "name": "C5",
          "midi": 72,
          "time": 71.32499999999918,
          "velocity": 0.5118110236220472,
          "duration": 0.06499999999999773
        },
        {
          "name": "F5",
          "midi": 77,
          "time": 71.39999999999918,
          "velocity": 0.6062992125984252,
          "duration": 0.06499999999999773
        },
        {
          "name": "C5",
          "midi": 72,
          "time": 71.47499999999918,
          "velocity": 0.4566929133858268,
          "duration": 0.06499999999999773
        },
        {
          "name": "F5",
          "midi": 77,
          "time": 71.54999999999919,
          "velocity": 0.47244094488188976,
          "duration": 0.06499999999999773
        },
        {
          "name": "C6",
          "midi": 84,
          "time": 71.62499999999919,
          "velocity": 0.5118110236220472,
          "duration": 0.06499999999999773
        },
        {
          "name": "F6",
          "midi": 89,
          "time": 71.69999999999919,
          "velocity": 0.5905511811023622,
          "duration": 0.06499999999999773
        },
        {
          "name": "C6",
          "midi": 84,
          "time": 71.7749999999992,
          "velocity": 0.4015748031496063,
          "duration": 0.06499999999999773
        },
        {
          "name": "F6",
          "midi": 89,
          "time": 71.8499999999992,
          "velocity": 0.4566929133858268,
          "duration": 0.06499999999999773
        },
        {
          "name": "C7",
          "midi": 96,
          "time": 71.9249999999992,
          "velocity": 0.5354330708661418,
          "duration": 0.06499999999999773
        },
        {
          "name": "E7",
          "midi": 100,
          "time": 71.9999999999992,
          "velocity": 0.6062992125984252,
          "duration": 0.06499999999999773
        },
        {
          "name": "C7",
          "midi": 96,
          "time": 72.0749999999992,
          "velocity": 0.5354330708661418,
          "duration": 0.06499999999999773
        },
        {
          "name": "F#6",
          "midi": 90,
          "time": 72.14999999999921,
          "velocity": 0.49606299212598426,
          "duration": 0.06499999999999773
        },
        {
          "name": "C6",
          "midi": 84,
          "time": 72.22499999999921,
          "velocity": 0.4645669291338583,
          "duration": 0.06499999999999773
        },
        {
          "name": "E6",
          "midi": 88,
          "time": 72.29999999999922,
          "velocity": 0.6062992125984252,
          "duration": 0.06499999999999773
        },
        {
          "name": "C6",
          "midi": 84,
          "time": 72.37499999999922,
          "velocity": 0.4645669291338583,
          "duration": 0.06499999999999773
        },
        {
          "name": "F#5",
          "midi": 78,
          "time": 72.44999999999922,
          "velocity": 0.4015748031496063,
          "duration": 0.06499999999999773
        },
        {
          "name": "C5",
          "midi": 72,
          "time": 72.52499999999922,
          "velocity": 0.3858267716535433,
          "duration": 0.06499999999999773
        },
        {
          "name": "D#5",
          "midi": 75,
          "time": 72.59999999999923,
          "velocity": 0.6141732283464567,
          "duration": 0.06499999999999773
        },
        {
          "name": "C5",
          "midi": 72,
          "time": 72.67499999999923,
          "velocity": 0.4881889763779528,
          "duration": 0.06499999999999773
        },
        {
          "name": "F#4",
          "midi": 66,
          "time": 72.74999999999923,
          "velocity": 0.4330708661417323,
          "duration": 0.06499999999999773
        },
        {
          "name": "C4",
          "midi": 60,
          "time": 72.82499999999924,
          "velocity": 0.5118110236220472,
          "duration": 0.06499999999999773
        },
        {
          "name": "D#4",
          "midi": 63,
          "time": 72.89999999999924,
          "velocity": 0.6062992125984252,
          "duration": 0.06499999999998352
        },
        {
          "name": "G#2",
          "midi": 44,
          "time": 72.90749999999923,
          "velocity": 0.7244094488188977,
          "duration": 0.2575000000000074
        },
        {
          "name": "G#1",
          "midi": 32,
          "time": 72.91249999999923,
          "velocity": 0.6771653543307087,
          "duration": 0.2775000000000034
        },
        {
          "name": "C4",
          "midi": 60,
          "time": 72.97499999999923,
          "velocity": 0.4566929133858268,
          "duration": 0.06499999999999773
        },
        {
          "name": "F#3",
          "midi": 54,
          "time": 73.04999999999923,
          "velocity": 0.44881889763779526,
          "duration": 0.06499999999999773
        },
        {
          "name": "C3",
          "midi": 48,
          "time": 73.12499999999923,
          "velocity": 0.4566929133858268,
          "duration": 0.06499999999999773
        },
        {
          "name": "G2",
          "midi": 43,
          "time": 73.22499999999923,
          "velocity": 0.7795275590551181,
          "duration": 2.2450000000000756
        },
        {
          "name": "G1",
          "midi": 31,
          "time": 73.22999999999922,
          "velocity": 0.6692913385826772,
          "duration": 2.4075000000000983
        },
        {
          "name": "C3",
          "midi": 48,
          "time": 73.27499999999922,
          "velocity": 0.5354330708661418,
          "duration": 0.06499999999999773
        },
        {
          "name": "G3",
          "midi": 55,
          "time": 73.34999999999923,
          "velocity": 0.5511811023622047,
          "duration": 0.06499999999999773
        },
        {
          "name": "C4",
          "midi": 60,
          "time": 73.42499999999923,
          "velocity": 0.4566929133858268,
          "duration": 0.06499999999999773
        },
        {
          "name": "D4",
          "midi": 62,
          "time": 73.49999999999923,
          "velocity": 0.5984251968503937,
          "duration": 0.06499999999999773
        },
        {
          "name": "C4",
          "midi": 60,
          "time": 73.57499999999924,
          "velocity": 0.4015748031496063,
          "duration": 0.06499999999999773
        },
        {
          "name": "G4",
          "midi": 67,
          "time": 73.64999999999924,
          "velocity": 0.4409448818897638,
          "duration": 0.06499999999999773
        },
        {
          "name": "C5",
          "midi": 72,
          "time": 73.72499999999924,
          "velocity": 0.5039370078740157,
          "duration": 0.06499999999999773
        },
        {
          "name": "D5",
          "midi": 74,
          "time": 73.79999999999924,
          "velocity": 0.5905511811023622,
          "duration": 0.06499999999999773
        },
        {
          "name": "C5",
          "midi": 72,
          "time": 73.87499999999925,
          "velocity": 0.4566929133858268,
          "duration": 0.06499999999999773
        },
        {
          "name": "G5",
          "midi": 79,
          "time": 73.94999999999925,
          "velocity": 0.41732283464566927,
          "duration": 0.06499999999999773
        },
        {
          "name": "C6",
          "midi": 84,
          "time": 74.02499999999925,
          "velocity": 0.3858267716535433,
          "duration": 0.06499999999999773
        },
        {
          "name": "D6",
          "midi": 86,
          "time": 74.09999999999926,
          "velocity": 0.5669291338582677,
          "duration": 0.06499999999999773
        },
        {
          "name": "C6",
          "midi": 84,
          "time": 74.17499999999926,
          "velocity": 0.4330708661417323,
          "duration": 0.06499999999999773
        },
        {
          "name": "G6",
          "midi": 91,
          "time": 74.24999999999926,
          "velocity": 0.4015748031496063,
          "duration": 0.06499999999999773
        },
        {
          "name": "C7",
          "midi": 96,
          "time": 74.32499999999926,
          "velocity": 0.49606299212598426,
          "duration": 0.06499999999999773
        },
        {
          "name": "D7",
          "midi": 98,
          "time": 74.39999999999927,
          "velocity": 0.5669291338582677,
          "duration": 0.06499999999999773
        },
        {
          "name": "B6",
          "midi": 95,
          "time": 74.47499999999927,
          "velocity": 0.3858267716535433,
          "duration": 0.06499999999999773
        },
        {
          "name": "G6",
          "midi": 91,
          "time": 74.54999999999927,
          "velocity": 0.3464566929133858,
          "duration": 0.06499999999999773
        },
        {
          "name": "B5",
          "midi": 83,
          "time": 74.62499999999928,
          "velocity": 0.3937007874015748,
          "duration": 0.06499999999999773
        },
        {
          "name": "D6",
          "midi": 86,
          "time": 74.69999999999928,
          "velocity": 0.5354330708661418,
          "duration": 0.06499999999999773
        },
        {
          "name": "B5",
          "midi": 83,
          "time": 74.77499999999928,
          "velocity": 0.4251968503937008,
          "duration": 0.06499999999999773
        },
        {
          "name": "G5",
          "midi": 79,
          "time": 74.84999999999928,
          "velocity": 0.33858267716535434,
          "duration": 0.06499999999999773
        },
        {
          "name": "B4",
          "midi": 71,
          "time": 74.92499999999929,
          "velocity": 0.4330708661417323,
          "duration": 0.06499999999999773
        },
        {
          "name": "D5",
          "midi": 74,
          "time": 74.99999999999929,
          "velocity": 0.5354330708661418,
          "duration": 0.06499999999999773
        },
        {
          "name": "B4",
          "midi": 71,
          "time": 75.07499999999929,
          "velocity": 0.3464566929133858,
          "duration": 0.06499999999999773
        },
        {
          "name": "G4",
          "midi": 67,
          "time": 75.1499999999993,
          "velocity": 0.31496062992125984,
          "duration": 0.06499999999999773
        },
        {
          "name": "B3",
          "midi": 59,
          "time": 75.2249999999993,
          "velocity": 0.4251968503937008,
          "duration": 0.06499999999999773
        },
        {
          "name": "D4",
          "midi": 62,
          "time": 75.2999999999993,
          "velocity": 0.5196850393700787,
          "duration": 0.06499999999999773
        },
        {
          "name": "B3",
          "midi": 59,
          "time": 75.3749999999993,
          "velocity": 0.4094488188976378,
          "duration": 0.06499999999999773
        },
        {
          "name": "G3",
          "midi": 55,
          "time": 75.4499999999993,
          "velocity": 0.4094488188976378,
          "duration": 0.06499999999999773
        },
        {
          "name": "B2",
          "midi": 47,
          "time": 75.52499999999931,
          "velocity": 0.4015748031496063,
          "duration": 0.06499999999999773
        },
        {
          "name": "F#2",
          "midi": 42,
          "time": 75.62499999999932,
          "velocity": 0.5984251968503937,
          "duration": 1.1700000000000301
        },
        {
          "name": "F#1",
          "midi": 30,
          "time": 75.62499999999932,
          "velocity": 0.5748031496062992,
          "duration": 1.1750000000000256
        },
        {
          "name": "C3",
          "midi": 48,
          "time": 75.67499999999932,
          "velocity": 0.3700787401574803,
          "duration": 0.06499999999999773
        },
        {
          "name": "A3",
          "midi": 57,
          "time": 75.74999999999932,
          "velocity": 0.36220472440944884,
          "duration": 0.06499999999999773
        },
        {
          "name": "C4",
          "midi": 60,
          "time": 75.82499999999932,
          "velocity": 0.33858267716535434,
          "duration": 0.06499999999999773
        },
        {
          "name": "D4",
          "midi": 62,
          "time": 75.89999999999932,
          "velocity": 0.5196850393700787,
          "duration": 0.06499999999999773
        },
        {
          "name": "C4",
          "midi": 60,
          "time": 75.97499999999933,
          "velocity": 0.4094488188976378,
          "duration": 0.06499999999999773
        },
        {
          "name": "A4",
          "midi": 69,
          "time": 76.04999999999933,
          "velocity": 0.3858267716535433,
          "duration": 0.06499999999999773
        },
        {
          "name": "C5",
          "midi": 72,
          "time": 76.12499999999933,
          "velocity": 0.44881889763779526,
          "duration": 0.06499999999999773
        },
        {
          "name": "D5",
          "midi": 74,
          "time": 76.19999999999933,
          "velocity": 0.5433070866141733,
          "duration": 0.06499999999999773
        },
        {
          "name": "C5",
          "midi": 72,
          "time": 76.27499999999934,
          "velocity": 0.3700787401574803,
          "duration": 0.06499999999999773
        },
        {
          "name": "A5",
          "midi": 81,
          "time": 76.34999999999934,
          "velocity": 0.4094488188976378,
          "duration": 0.06499999999999773
        },
        {
          "name": "C6",
          "midi": 84,
          "time": 76.42499999999934,
          "velocity": 0.3937007874015748,
          "duration": 0.06499999999999773
        },
        {
          "name": "D6",
          "midi": 86,
          "time": 76.49999999999935,
          "velocity": 0.5275590551181102,
          "duration": 0.06499999999999773
        },
        {
          "name": "C6",
          "midi": 84,
          "time": 76.57499999999935,
          "velocity": 0.36220472440944884,
          "duration": 0.06499999999999773
        },
        {
          "name": "A6",
          "midi": 93,
          "time": 76.64999999999935,
          "velocity": 0.3779527559055118,
          "duration": 0.06499999999999773
        },
        {
          "name": "C7",
          "midi": 96,
          "time": 76.72499999999935,
          "velocity": 0.4645669291338583,
          "duration": 0.06499999999999773
        },
        {
          "name": "D#7",
          "midi": 99,
          "time": 76.79999999999934,
          "velocity": 0.5590551181102362,
          "duration": 0.06499999999999773
        },
        {
          "name": "F2",
          "midi": 41,
          "time": 76.80999999999935,
          "velocity": 0.6456692913385826,
          "duration": 1.1200000000000472
        },
        {
          "name": "F1",
          "midi": 29,
          "time": 76.81249999999935,
          "velocity": 0.5748031496062992,
          "duration": 1.172500000000042
        },
        {
          "name": "C7",
          "midi": 96,
          "time": 76.87499999999935,
          "velocity": 0.5118110236220472,
          "duration": 0.06499999999999773
        },
        {
          "name": "A6",
          "midi": 93,
          "time": 76.94999999999935,
          "velocity": 0.48031496062992124,
          "duration": 0.06499999999999773
        },
        {
          "name": "C6",
          "midi": 84,
          "time": 77.02499999999935,
          "velocity": 0.44881889763779526,
          "duration": 0.06499999999999773
        },
        {
          "name": "D#6",
          "midi": 87,
          "time": 77.09999999999935,
          "velocity": 0.5590551181102362,
          "duration": 0.06499999999999773
        },
        {
          "name": "C6",
          "midi": 84,
          "time": 77.17499999999936,
          "velocity": 0.4881889763779528,
          "duration": 0.06499999999999773
        },
        {
          "name": "A5",
          "midi": 81,
          "time": 77.24999999999936,
          "velocity": 0.47244094488188976,
          "duration": 0.06499999999999773
        },
        {
          "name": "C5",
          "midi": 72,
          "time": 77.32499999999936,
          "velocity": 0.41732283464566927,
          "duration": 0.06500000000001194
        },
        {
          "name": "D#5",
          "midi": 75,
          "time": 77.39999999999938,
          "velocity": 0.5669291338582677,
          "duration": 0.06499999999999773
        },
        {
          "name": "B4",
          "midi": 71,
          "time": 77.47499999999938,
          "velocity": 0.5118110236220472,
          "duration": 0.06499999999999773
        },
        {
          "name": "A4",
          "midi": 69,
          "time": 77.54999999999939,
          "velocity": 0.4645669291338583,
          "duration": 0.06499999999999773
        },
        {
          "name": "B3",
          "midi": 59,
          "time": 77.62499999999939,
          "velocity": 0.4566929133858268,
          "duration": 0.06499999999999773
        },
        {
          "name": "D#4",
          "midi": 63,
          "time": 77.69999999999939,
          "velocity": 0.5984251968503937,
          "duration": 0.06499999999999773
        },
        {
          "name": "B3",
          "midi": 59,
          "time": 77.7749999999994,
          "velocity": 0.3858267716535433,
          "duration": 0.06499999999999773
        },
        {
          "name": "A3",
          "midi": 57,
          "time": 77.8499999999994,
          "velocity": 0.5118110236220472,
          "duration": 0.06499999999999773
        },
        {
          "name": "B2",
          "midi": 47,
          "time": 77.9249999999994,
          "velocity": 0.4409448818897638,
          "duration": 0.06499999999998352
        },
        {
          "name": "E2",
          "midi": 40,
          "time": 78.01999999999938,
          "velocity": 0.7559055118110236,
          "duration": 2.167500000000075
        },
        {
          "name": "E1",
          "midi": 28,
          "time": 78.02249999999938,
          "velocity": 0.5984251968503937,
          "duration": 0.7575000000000216
        },
        {
          "name": "B2",
          "midi": 47,
          "time": 78.07499999999938,
          "velocity": 0.4251968503937008,
          "duration": 0.06499999999999773
        },
        {
          "name": "G#3",
          "midi": 56,
          "time": 78.14999999999938,
          "velocity": 0.4881889763779528,
          "duration": 0.06499999999999773
        },
        {
          "name": "B3",
          "midi": 59,
          "time": 78.22499999999938,
          "velocity": 0.48031496062992124,
          "duration": 0.06499999999999773
        },
        {
          "name": "E4",
          "midi": 64,
          "time": 78.29999999999939,
          "velocity": 0.6220472440944882,
          "duration": 0.06499999999999773
        },
        {
          "name": "B3",
          "midi": 59,
          "time": 78.37499999999939,
          "velocity": 0.5196850393700787,
          "duration": 0.06499999999999773
        },
        {
          "name": "G#4",
          "midi": 68,
          "time": 78.44999999999939,
          "velocity": 0.44881889763779526,
          "duration": 0.06499999999999773
        },
        {
          "name": "B4",
          "midi": 71,
          "time": 78.5249999999994,
          "velocity": 0.4881889763779528,
          "duration": 0.06499999999999773
        },
        {
          "name": "E5",
          "midi": 76,
          "time": 78.5999999999994,
          "velocity": 0.6141732283464567,
          "duration": 0.06499999999999773
        },
        {
          "name": "B4",
          "midi": 71,
          "time": 78.6749999999994,
          "velocity": 0.44881889763779526,
          "duration": 0.06499999999999773
        },
        {
          "name": "G#5",
          "midi": 80,
          "time": 78.7499999999994,
          "velocity": 0.4881889763779528,
          "duration": 0.06499999999999773
        },
        {
          "name": "B5",
          "midi": 83,
          "time": 78.8249999999994,
          "velocity": 0.49606299212598426,
          "duration": 0.06499999999999773
        },
        {
          "name": "E6",
          "midi": 88,
          "time": 78.89999999999941,
          "velocity": 0.5984251968503937,
          "duration": 0.06499999999999773
        },
        {
          "name": "B5",
          "midi": 83,
          "time": 78.97499999999941,
          "velocity": 0.4094488188976378,
          "duration": 0.06499999999999773
        },
        {
          "name": "G#6",
          "midi": 92,
          "time": 79.04999999999941,
          "velocity": 0.5118110236220472,
          "duration": 0.06499999999999773
        },
        {
          "name": "B6",
          "midi": 95,
          "time": 79.12499999999942,
          "velocity": 0.47244094488188976,
          "duration": 0.06499999999999773
        },
        {
          "name": "E7",
          "midi": 100,
          "time": 79.19999999999942,
          "velocity": 0.6062992125984252,
          "duration": 0.06499999999999773
        },
        {
          "name": "E3",
          "midi": 52,
          "time": 79.21249999999942,
          "velocity": 0.6614173228346457,
          "duration": 1.1125000000000398
        },
        {
          "name": "B6",
          "midi": 95,
          "time": 79.27499999999942,
          "velocity": 0.5196850393700787,
          "duration": 0.06499999999999773
        },
        {
          "name": "G#6",
          "midi": 92,
          "time": 79.34999999999943,
          "velocity": 0.5118110236220472,
          "duration": 0.06499999999999773
        },
        {
          "name": "B5",
          "midi": 83,
          "time": 79.42499999999943,
          "velocity": 0.4645669291338583,
          "duration": 0.06499999999999773
        },
        {
          "name": "E6",
          "midi": 88,
          "time": 79.49999999999943,
          "velocity": 0.5905511811023622,
          "duration": 0.06499999999999773
        },
        {
          "name": "B5",
          "midi": 83,
          "time": 79.57499999999943,
          "velocity": 0.4645669291338583,
          "duration": 0.06499999999999773
        },
        {
          "name": "G#5",
          "midi": 80,
          "time": 79.64999999999944,
          "velocity": 0.5275590551181102,
          "duration": 0.06499999999999773
        },
        {
          "name": "B4",
          "midi": 71,
          "time": 79.72499999999944,
          "velocity": 0.44881889763779526,
          "duration": 0.06499999999999773
        },
        {
          "name": "E5",
          "midi": 76,
          "time": 79.79999999999944,
          "velocity": 0.6220472440944882,
          "duration": 0.06499999999999773
        },
        {
          "name": "B4",
          "midi": 71,
          "time": 79.87499999999945,
          "velocity": 0.4330708661417323,
          "duration": 0.06499999999999773
        },
        {
          "name": "G#4",
          "midi": 68,
          "time": 79.94999999999945,
          "velocity": 0.41732283464566927,
          "duration": 0.06499999999999773
        },
        {
          "name": "B3",
          "midi": 59,
          "time": 80.02499999999945,
          "velocity": 0.4094488188976378,
          "duration": 0.06499999999999773
        },
        {
          "name": "E4",
          "midi": 64,
          "time": 80.09999999999945,
          "velocity": 0.6062992125984252,
          "duration": 0.06499999999999773
        },
        {
          "name": "B3",
          "midi": 59,
          "time": 80.17499999999946,
          "velocity": 0.5039370078740157,
          "duration": 0.06499999999999773
        },
        {
          "name": "G#3",
          "midi": 56,
          "time": 80.24999999999946,
          "velocity": 0.4566929133858268,
          "duration": 0.06499999999999773
        },
        {
          "name": "B2",
          "midi": 47,
          "time": 80.32499999999946,
          "velocity": 0.3937007874015748,
          "duration": 0.06499999999999773
        },
        {
          "name": "D2",
          "midi": 38,
          "time": 80.41999999999946,
          "velocity": 0.6377952755905512,
          "duration": 1.1750000000000256
        },
        {
          "name": "D3",
          "midi": 50,
          "time": 80.47499999999947,
          "velocity": 0.3858267716535433,
          "duration": 0.06499999999999773
        },
        {
          "name": "A3",
          "midi": 57,
          "time": 80.54999999999947,
          "velocity": 0.5196850393700787,
          "duration": 0.06499999999999773
        },
        {
          "name": "C4",
          "midi": 60,
          "time": 80.62499999999947,
          "velocity": 0.4566929133858268,
          "duration": 0.06499999999999773
        },
        {
          "name": "F4",
          "midi": 65,
          "time": 80.69999999999948,
          "velocity": 0.5433070866141733,
          "duration": 0.06499999999999773
        },
        {
          "name": "D4",
          "midi": 62,
          "time": 80.77499999999948,
          "velocity": 0.4409448818897638,
          "duration": 0.06499999999999773
        },
        {
          "name": "A4",
          "midi": 69,
          "time": 80.84999999999948,
          "velocity": 0.4881889763779528,
          "duration": 0.06499999999999773
        },
        {
          "name": "C5",
          "midi": 72,
          "time": 80.92499999999949,
          "velocity": 0.5275590551181102,
          "duration": 0.06499999999999773
        },
        {
          "name": "F5",
          "midi": 77,
          "time": 80.99999999999949,
          "velocity": 0.5433070866141733,
          "duration": 0.06499999999999773
        },
        {
          "name": "D5",
          "midi": 74,
          "time": 81.07499999999949,
          "velocity": 0.4094488188976378,
          "duration": 0.06499999999999773
        },
        {
          "name": "A5",
          "midi": 81,
          "time": 81.1499999999995,
          "velocity": 0.4251968503937008,
          "duration": 0.06499999999999773
        },
        {
          "name": "C6",
          "midi": 84,
          "time": 81.2249999999995,
          "velocity": 0.41732283464566927,
          "duration": 0.06499999999999773
        },
        {
          "name": "F6",
          "midi": 89,
          "time": 81.2999999999995,
          "velocity": 0.5354330708661418,
          "duration": 0.06499999999999773
        },
        {
          "name": "D6",
          "midi": 86,
          "time": 81.3749999999995,
          "velocity": 0.3937007874015748,
          "duration": 0.06499999999999773
        },
        {
          "name": "A6",
          "midi": 93,
          "time": 81.4499999999995,
          "velocity": 0.3858267716535433,
          "duration": 0.06499999999999773
        },
        {
          "name": "C7",
          "midi": 96,
          "time": 81.5249999999995,
          "velocity": 0.33070866141732286,
          "duration": 0.06499999999999773
        },
        {
          "name": "F7",
          "midi": 101,
          "time": 81.59999999999948,
          "velocity": 0.5511811023622047,
          "duration": 0.06499999999999773
        },
        {
          "name": "G1",
          "midi": 31,
          "time": 81.61499999999948,
          "velocity": 0.5826771653543307,
          "duration": 1.1550000000000296
        },
        {
          "name": "G2",
          "midi": 43,
          "time": 81.61749999999948,
          "velocity": 0.6692913385826772,
          "duration": 1.1825000000000188
        },
        {
          "name": "B6",
          "midi": 95,
          "time": 81.67499999999949,
          "velocity": 0.33858267716535434,
          "duration": 0.06499999999999773
        },
        {
          "name": "G6",
          "midi": 91,
          "time": 81.74999999999949,
          "velocity": 0.3779527559055118,
          "duration": 0.06499999999999773
        },
        {
          "name": "D6",
          "midi": 86,
          "time": 81.82499999999949,
          "velocity": 0.3937007874015748,
          "duration": 0.06499999999999773
        },
        {
          "name": "F6",
          "midi": 89,
          "time": 81.8999999999995,
          "velocity": 0.5669291338582677,
          "duration": 0.06499999999999773
        },
        {
          "name": "B5",
          "midi": 83,
          "time": 81.9749999999995,
          "velocity": 0.36220472440944884,
          "duration": 0.06499999999999773
        },
        {
          "name": "G5",
          "midi": 79,
          "time": 82.0499999999995,
          "velocity": 0.33070866141732286,
          "duration": 0.06499999999999773
        },
        {
          "name": "D5",
          "midi": 74,
          "time": 82.1249999999995,
          "velocity": 0.3858267716535433,
          "duration": 0.06499999999999773
        },
        {
          "name": "F5",
          "midi": 77,
          "time": 82.1999999999995,
          "velocity": 0.5118110236220472,
          "duration": 0.06499999999999773
        },
        {
          "name": "B4",
          "midi": 71,
          "time": 82.27499999999951,
          "velocity": 0.3858267716535433,
          "duration": 0.06499999999999773
        },
        {
          "name": "G4",
          "midi": 67,
          "time": 82.34999999999951,
          "velocity": 0.33858267716535434,
          "duration": 0.06499999999999773
        },
        {
          "name": "D4",
          "midi": 62,
          "time": 82.42499999999951,
          "velocity": 0.30708661417322836,
          "duration": 0.06499999999999773
        },
        {
          "name": "F4",
          "midi": 65,
          "time": 82.49999999999952,
          "velocity": 0.49606299212598426,
          "duration": 0.06499999999999773
        },
        {
          "name": "B3",
          "midi": 59,
          "time": 82.57499999999952,
          "velocity": 0.31496062992125984,
          "duration": 0.06499999999999773
        },
        {
          "name": "G3",
          "midi": 55,
          "time": 82.64999999999952,
          "velocity": 0.4251968503937008,
          "duration": 0.06499999999999773
        },
        {
          "name": "D3",
          "midi": 50,
          "time": 82.72499999999953,
          "velocity": 0.2992125984251969,
          "duration": 0.06499999999998352
        },
        {
          "name": "C2",
          "midi": 36,
          "time": 82.8099999999995,
          "velocity": 0.6220472440944882,
          "duration": 2.2875000000000654
        },
        {
          "name": "C3",
          "midi": 48,
          "time": 82.8749999999995,
          "velocity": 0.3779527559055118,
          "duration": 0.06499999999999773
        },
        {
          "name": "G3",
          "midi": 55,
          "time": 82.9499999999995,
          "velocity": 0.4330708661417323,
          "duration": 0.06499999999999773
        },
        {
          "name": "C4",
          "midi": 60,
          "time": 83.02499999999951,
          "velocity": 0.3464566929133858,
          "duration": 0.06499999999999773
        },
        {
          "name": "E4",
          "midi": 64,
          "time": 83.09999999999951,
          "velocity": 0.5196850393700787,
          "duration": 0.06499999999999773
        },
        {
          "name": "C4",
          "midi": 60,
          "time": 83.17499999999951,
          "velocity": 0.3937007874015748,
          "duration": 0.06499999999999773
        },
        {
          "name": "G4",
          "midi": 67,
          "time": 83.24999999999952,
          "velocity": 0.4330708661417323,
          "duration": 0.06499999999999773
        },
        {
          "name": "C5",
          "midi": 72,
          "time": 83.32499999999952,
          "velocity": 0.3858267716535433,
          "duration": 0.06499999999999773
        },
        {
          "name": "E5",
          "midi": 76,
          "time": 83.39999999999952,
          "velocity": 0.5275590551181102,
          "duration": 0.06499999999999773
        },
        {
          "name": "C5",
          "midi": 72,
          "time": 83.47499999999953,
          "velocity": 0.3464566929133858,
          "duration": 0.06499999999999773
        },
        {
          "name": "A#5",
          "midi": 82,
          "time": 83.54999999999953,
          "velocity": 0.3700787401574803,
          "duration": 0.06499999999999773
        },
        {
          "name": "C6",
          "midi": 84,
          "time": 83.62499999999953,
          "velocity": 0.48031496062992124,
          "duration": 0.06499999999999773
        },
        {
          "name": "G6",
          "midi": 91,
          "time": 83.69999999999953,
          "velocity": 0.5039370078740157,
          "duration": 0.06499999999999773
        },
        {
          "name": "C6",
          "midi": 84,
          "time": 83.77499999999954,
          "velocity": 0.4881889763779528,
          "duration": 0.06499999999999773
        },
        {
          "name": "A#5",
          "midi": 82,
          "time": 83.84999999999954,
          "velocity": 0.4094488188976378,
          "duration": 0.06499999999999773
        },
        {
          "name": "E5",
          "midi": 76,
          "time": 83.92499999999953,
          "velocity": 0.33858267716535434,
          "duration": 0.06500000000001194
        },
        {
          "name": "C3",
          "midi": 48,
          "time": 83.99499999999954,
          "velocity": 0.6299212598425197,
          "duration": 1.1675000000000324
        },
        {
          "name": "F#6",
          "midi": 90,
          "time": 83.99999999999953,
          "velocity": 0.5118110236220472,
          "duration": 0.06499999999999773
        },
        {
          "name": "C6",
          "midi": 84,
          "time": 84.07499999999953,
          "velocity": 0.41732283464566927,
          "duration": 0.06499999999999773
        },
        {
          "name": "A5",
          "midi": 81,
          "time": 84.14999999999954,
          "velocity": 0.3543307086614173,
          "duration": 0.06499999999999773
        },
        {
          "name": "D#5",
          "midi": 75,
          "time": 84.22499999999954,
          "velocity": 0.3543307086614173,
          "duration": 0.06499999999999773
        },
        {
          "name": "F#5",
          "midi": 78,
          "time": 84.29999999999954,
          "velocity": 0.5354330708661418,
          "duration": 0.06499999999999773
        },
        {
          "name": "C5",
          "midi": 72,
          "time": 84.37499999999955,
          "velocity": 0.44881889763779526,
          "duration": 0.06499999999999773
        },
        {
          "name": "A4",
          "midi": 69,
          "time": 84.44999999999955,
          "velocity": 0.4094488188976378,
          "duration": 0.06499999999999773
        },
        {
          "name": "D#4",
          "midi": 63,
          "time": 84.52499999999955,
          "velocity": 0.3228346456692913,
          "duration": 0.06499999999999773
        },
        {
          "name": "F5",
          "midi": 77,
          "time": 84.59999999999955,
          "velocity": 0.5354330708661418,
          "duration": 0.06499999999999773
        },
        {
          "name": "B4",
          "midi": 71,
          "time": 84.67499999999956,
          "velocity": 0.4015748031496063,
          "duration": 0.06499999999999773
        },
        {
          "name": "G#4",
          "midi": 68,
          "time": 84.74999999999956,
          "velocity": 0.3228346456692913,
          "duration": 0.06499999999999773
        },
        {
          "name": "D4",
          "midi": 62,
          "time": 84.82499999999956,
          "velocity": 0.4330708661417323,
          "duration": 0.06499999999999773
        },
        {
          "name": "F4",
          "midi": 65,
          "time": 84.89999999999957,
          "velocity": 0.5354330708661418,
          "duration": 0.06499999999999773
        },
        {
          "name": "B3",
          "midi": 59,
          "time": 84.97499999999957,
          "velocity": 0.3858267716535433,
          "duration": 0.06499999999999773
        },
        {
          "name": "G#3",
          "midi": 56,
          "time": 85.04999999999957,
          "velocity": 0.2992125984251969,
          "duration": 0.06499999999999773
        },
        {
          "name": "D3",
          "midi": 50,
          "time": 85.12499999999957,
          "velocity": 0.41732283464566927,
          "duration": 0.06499999999999773
        },
        {
          "name": "C2",
          "midi": 36,
          "time": 85.23249999999956,
          "velocity": 0.6456692913385826,
          "duration": 1.1775000000000517
        },
        {
          "name": "C3",
          "midi": 48,
          "time": 85.27499999999957,
          "velocity": 0.3779527559055118,
          "duration": 0.06499999999999773
        },
        {
          "name": "G3",
          "midi": 55,
          "time": 85.34999999999957,
          "velocity": 0.4645669291338583,
          "duration": 0.06499999999999773
        },
        {
          "name": "C4",
          "midi": 60,
          "time": 85.42499999999957,
          "velocity": 0.3858267716535433,
          "duration": 0.06499999999999773
        },
        {
          "name": "E4",
          "midi": 64,
          "time": 85.49999999999957,
          "velocity": 0.5511811023622047,
          "duration": 0.06499999999999773
        },
        {
          "name": "C4",
          "midi": 60,
          "time": 85.57499999999958,
          "velocity": 0.3543307086614173,
          "duration": 0.06499999999999773
        },
        {
          "name": "G4",
          "midi": 67,
          "time": 85.64999999999958,
          "velocity": 0.4330708661417323,
          "duration": 0.06499999999999773
        },
        {
          "name": "C5",
          "midi": 72,
          "time": 85.72499999999958,
          "velocity": 0.3543307086614173,
          "duration": 0.06499999999999773
        },
        {
          "name": "E5",
          "midi": 76,
          "time": 85.79999999999959,
          "velocity": 0.5669291338582677,
          "duration": 0.06499999999999773
        },
        {
          "name": "C5",
          "midi": 72,
          "time": 85.87499999999959,
          "velocity": 0.4409448818897638,
          "duration": 0.06499999999999773
        },
        {
          "name": "G5",
          "midi": 79,
          "time": 85.94999999999959,
          "velocity": 0.41732283464566927,
          "duration": 0.06499999999999773
        },
        {
          "name": "C6",
          "midi": 84,
          "time": 86.0249999999996,
          "velocity": 0.4645669291338583,
          "duration": 0.06499999999999773
        },
        {
          "name": "E6",
          "midi": 88,
          "time": 86.0999999999996,
          "velocity": 0.5669291338582677,
          "duration": 0.06499999999999773
        },
        {
          "name": "C6",
          "midi": 84,
          "time": 86.1749999999996,
          "velocity": 0.44881889763779526,
          "duration": 0.06499999999999773
        },
        {
          "name": "G5",
          "midi": 79,
          "time": 86.2499999999996,
          "velocity": 0.3937007874015748,
          "duration": 0.06499999999999773
        },
        {
          "name": "C5",
          "midi": 72,
          "time": 86.3249999999996,
          "velocity": 0.48031496062992124,
          "duration": 0.06499999999999773
        },
        {
          "name": "D#6",
          "midi": 87,
          "time": 86.39999999999961,
          "velocity": 0.5905511811023622,
          "duration": 0.06499999999999773
        },
        {
          "name": "G1",
          "midi": 31,
          "time": 86.41499999999961,
          "velocity": 0.5984251968503937,
          "duration": 1.080000000000041
        },
        {
          "name": "G2",
          "midi": 43,
          "time": 86.4174999999996,
          "velocity": 0.7007874015748031,
          "duration": 1.0975000000000392
        },
        {
          "name": "A5",
          "midi": 81,
          "time": 86.47499999999961,
          "velocity": 0.4645669291338583,
          "duration": 0.06499999999999773
        },
        {
          "name": "F#5",
          "midi": 78,
          "time": 86.54999999999961,
          "velocity": 0.4881889763779528,
          "duration": 0.06499999999999773
        },
        {
          "name": "C5",
          "midi": 72,
          "time": 86.62499999999962,
          "velocity": 0.48031496062992124,
          "duration": 0.06499999999999773
        },
        {
          "name": "D#5",
          "midi": 75,
          "time": 86.69999999999962,
          "velocity": 0.5826771653543307,
          "duration": 0.06499999999999773
        },
        {
          "name": "A4",
          "midi": 69,
          "time": 86.77499999999962,
          "velocity": 0.44881889763779526,
          "duration": 0.06499999999999773
        },
        {
          "name": "F#4",
          "midi": 66,
          "time": 86.84999999999962,
          "velocity": 0.5118110236220472,
          "duration": 0.06499999999999773
        },
        {
          "name": "C4",
          "midi": 60,
          "time": 86.92499999999963,
          "velocity": 0.4251968503937008,
          "duration": 0.06499999999999773
        },
        {
          "name": "D5",
          "midi": 74,
          "time": 86.99999999999963,
          "velocity": 0.6141732283464567,
          "duration": 0.06499999999999773
        },
        {
          "name": "G#4",
          "midi": 68,
          "time": 87.07499999999963,
          "velocity": 0.3858267716535433,
          "duration": 0.06499999999999773
        },
        {
          "name": "F4",
          "midi": 65,
          "time": 87.14999999999964,
          "velocity": 0.5196850393700787,
          "duration": 0.06499999999999773
        },
        {
          "name": "B3",
          "midi": 59,
          "time": 87.22499999999964,
          "velocity": 0.4881889763779528,
          "duration": 0.06499999999999773
        },
        {
          "name": "D4",
          "midi": 62,
          "time": 87.29999999999964,
          "velocity": 0.6220472440944882,
          "duration": 0.06499999999999773
        },
        {
          "name": "G#3",
          "midi": 56,
          "time": 87.37499999999964,
          "velocity": 0.4881889763779528,
          "duration": 0.06499999999999773
        },
        {
          "name": "F3",
          "midi": 53,
          "time": 87.44999999999965,
          "velocity": 0.44881889763779526,
          "duration": 0.06499999999999773
        },
        {
          "name": "B2",
          "midi": 47,
          "time": 87.52499999999965,
          "velocity": 0.4645669291338583,
          "duration": 0.06499999999999773
        },
        {
          "name": "G1",
          "midi": 31,
          "time": 87.62249999999965,
          "velocity": 0.7559055118110236,
          "duration": 2.3325000000000955
        },
        {
          "name": "G2",
          "midi": 43,
          "time": 87.62249999999965,
          "velocity": 0.7322834645669292,
          "duration": 2.350000000000094
        },
        {
          "name": "A#2",
          "midi": 46,
          "time": 87.67499999999964,
          "velocity": 0.41732283464566927,
          "duration": 0.06499999999999773
        },
        {
          "name": "E3",
          "midi": 52,
          "time": 87.74999999999964,
          "velocity": 0.4409448818897638,
          "duration": 0.06499999999999773
        },
        {
          "name": "G3",
          "midi": 55,
          "time": 87.82499999999965,
          "velocity": 0.49606299212598426,
          "duration": 0.06499999999999773
        },
        {
          "name": "C#4",
          "midi": 61,
          "time": 87.89999999999965,
          "velocity": 0.6062992125984252,
          "duration": 0.06499999999999773
        },
        {
          "name": "A#3",
          "midi": 58,
          "time": 87.97499999999965,
          "velocity": 0.49606299212598426,
          "duration": 0.06499999999999773
        },
        {
          "name": "E4",
          "midi": 64,
          "time": 88.04999999999966,
          "velocity": 0.47244094488188976,
          "duration": 0.06499999999999773
        },
        {
          "name": "G4",
          "midi": 67,
          "time": 88.12499999999966,
          "velocity": 0.4566929133858268,
          "duration": 0.06499999999999773
        },
        {
          "name": "C#5",
          "midi": 73,
          "time": 88.19999999999966,
          "velocity": 0.5826771653543307,
          "duration": 0.06499999999999773
        },
        {
          "name": "A#4",
          "midi": 70,
          "time": 88.27499999999966,
          "velocity": 0.4251968503937008,
          "duration": 0.06499999999999773
        },
        {
          "name": "E5",
          "midi": 76,
          "time": 88.34999999999967,
          "velocity": 0.36220472440944884,
          "duration": 0.06499999999999773
        },
        {
          "name": "G5",
          "midi": 79,
          "time": 88.42499999999967,
          "velocity": 0.3779527559055118,
          "duration": 0.06499999999999773
        },
        {
          "name": "C#6",
          "midi": 85,
          "time": 88.49999999999967,
          "velocity": 0.5905511811023622,
          "duration": 0.06499999999999773
        },
        {
          "name": "A#5",
          "midi": 82,
          "time": 88.57499999999968,
          "velocity": 0.5196850393700787,
          "duration": 0.06499999999999773
        },
        {
          "name": "E6",
          "midi": 88,
          "time": 88.64999999999968,
          "velocity": 0.36220472440944884,
          "duration": 0.06499999999999773
        },
        {
          "name": "G6",
          "midi": 91,
          "time": 88.72499999999968,
          "velocity": 0.44881889763779526,
          "duration": 0.06500000000001194
        },
        {
          "name": "C#7",
          "midi": 97,
          "time": 88.7999999999997,
          "velocity": 0.5984251968503937,
          "duration": 0.06499999999999773
        },
        {
          "name": "F#6",
          "midi": 90,
          "time": 88.8749999999997,
          "velocity": 0.41732283464566927,
          "duration": 0.06499999999999773
        },
        {
          "name": "D#6",
          "midi": 87,
          "time": 88.9499999999997,
          "velocity": 0.36220472440944884,
          "duration": 0.06499999999999773
        },
        {
          "name": "A5",
          "midi": 81,
          "time": 89.02499999999971,
          "velocity": 0.4094488188976378,
          "duration": 0.06499999999999773
        },
        {
          "name": "C#6",
          "midi": 85,
          "time": 89.09999999999971,
          "velocity": 0.6062992125984252,
          "duration": 0.06499999999999773
        },
        {
          "name": "F#5",
          "midi": 78,
          "time": 89.17499999999971,
          "velocity": 0.3937007874015748,
          "duration": 0.06499999999999773
        },
        {
          "name": "D#5",
          "midi": 75,
          "time": 89.24999999999972,
          "velocity": 0.4094488188976378,
          "duration": 0.06499999999999773
        },
        {
          "name": "A4",
          "midi": 69,
          "time": 89.32499999999972,
          "velocity": 0.4330708661417323,
          "duration": 0.06499999999999773
        },
        {
          "name": "C#5",
          "midi": 73,
          "time": 89.39999999999972,
          "velocity": 0.5905511811023622,
          "duration": 0.06499999999999773
        },
        {
          "name": "F#4",
          "midi": 66,
          "time": 89.47499999999972,
          "velocity": 0.4409448818897638,
          "duration": 0.06499999999999773
        },
        {
          "name": "D#4",
          "midi": 63,
          "time": 89.54999999999973,
          "velocity": 0.33070866141732286,
          "duration": 0.06499999999999773
        },
        {
          "name": "A3",
          "midi": 57,
          "time": 89.62499999999973,
          "velocity": 0.4015748031496063,
          "duration": 0.06499999999999773
        },
        {
          "name": "C5",
          "midi": 72,
          "time": 89.69999999999973,
          "velocity": 0.5826771653543307,
          "duration": 0.06499999999999773
        },
        {
          "name": "F#4",
          "midi": 66,
          "time": 89.77499999999974,
          "velocity": 0.4409448818897638,
          "duration": 0.06499999999999773
        },
        {
          "name": "D#4",
          "midi": 63,
          "time": 89.84999999999974,
          "velocity": 0.33858267716535434,
          "duration": 0.06499999999999773
        },
        {
          "name": "A3",
          "midi": 57,
          "time": 89.92499999999974,
          "velocity": 0.3779527559055118,
          "duration": 0.06499999999999773
        },
        {
          "name": "G1",
          "midi": 31,
          "time": 90.01999999999974,
          "velocity": 0.7007874015748031,
          "duration": 2.207500000000067
        },
        {
          "name": "G2",
          "midi": 43,
          "time": 90.01999999999974,
          "velocity": 0.6692913385826772,
          "duration": 2.2125000000000625
        },
        {
          "name": "G#3",
          "midi": 56,
          "time": 90.07499999999975,
          "velocity": 0.4409448818897638,
          "duration": 0.06499999999999773
        },
        {
          "name": "D4",
          "midi": 62,
          "time": 90.14999999999975,
          "velocity": 0.47244094488188976,
          "duration": 0.06499999999999773
        },
        {
          "name": "F4",
          "midi": 65,
          "time": 90.22499999999975,
          "velocity": 0.5275590551181102,
          "duration": 0.06499999999999773
        },
        {
          "name": "C5",
          "midi": 72,
          "time": 90.29999999999976,
          "velocity": 0.6141732283464567,
          "duration": 0.06499999999999773
        },
        {
          "name": "G#4",
          "midi": 68,
          "time": 90.37499999999976,
          "velocity": 0.5275590551181102,
          "duration": 0.06499999999999773
        },
        {
          "name": "D5",
          "midi": 74,
          "time": 90.44999999999976,
          "velocity": 0.4251968503937008,
          "duration": 0.06499999999999773
        },
        {
          "name": "F5",
          "midi": 77,
          "time": 90.52499999999976,
          "velocity": 0.36220472440944884,
          "duration": 0.06499999999999773
        },
        {
          "name": "C6",
          "midi": 84,
          "time": 90.59999999999977,
          "velocity": 0.5984251968503937,
          "duration": 0.06499999999999773
        },
        {
          "name": "G#5",
          "midi": 80,
          "time": 90.67499999999977,
          "velocity": 0.49606299212598426,
          "duration": 0.06499999999999773
        },
        {
          "name": "D6",
          "midi": 86,
          "time": 90.74999999999977,
          "velocity": 0.5669291338582677,
          "duration": 0.06499999999999773
        },
        {
          "name": "F6",
          "midi": 89,
          "time": 90.82499999999978,
          "velocity": 0.5826771653543307,
          "duration": 0.06499999999999773
        },
        {
          "name": "C7",
          "midi": 96,
          "time": 90.89999999999978,
          "velocity": 0.6456692913385826,
          "duration": 0.06499999999999773
        },
        {
          "name": "F6",
          "midi": 89,
          "time": 90.97499999999978,
          "velocity": 0.48031496062992124,
          "duration": 0.06499999999999773
        },
        {
          "name": "D6",
          "midi": 86,
          "time": 91.04999999999978,
          "velocity": 0.5433070866141733,
          "duration": 0.06499999999999773
        },
        {
          "name": "G#5",
          "midi": 80,
          "time": 91.12499999999979,
          "velocity": 0.4645669291338583,
          "duration": 0.06499999999999773
        },
        {
          "name": "B6",
          "midi": 95,
          "time": 91.19999999999978,
          "velocity": 0.6377952755905512,
          "duration": 0.06499999999999773
        },
        {
          "name": "F6",
          "midi": 89,
          "time": 91.27499999999978,
          "velocity": 0.48031496062992124,
          "duration": 0.06499999999999773
        },
        {
          "name": "D6",
          "midi": 86,
          "time": 91.34999999999978,
          "velocity": 0.4881889763779528,
          "duration": 0.06499999999999773
        },
        {
          "name": "G5",
          "midi": 79,
          "time": 91.42499999999978,
          "velocity": 0.48031496062992124,
          "duration": 0.06499999999999773
        },
        {
          "name": "B5",
          "midi": 83,
          "time": 91.49999999999979,
          "velocity": 0.6614173228346457,
          "duration": 0.06499999999999773
        },
        {
          "name": "F5",
          "midi": 77,
          "time": 91.57499999999979,
          "velocity": 0.47244094488188976,
          "duration": 0.06499999999999773
        },
        {
          "name": "D5",
          "midi": 74,
          "time": 91.64999999999979,
          "velocity": 0.5118110236220472,
          "duration": 0.06499999999999773
        },
        {
          "name": "G4",
          "midi": 67,
          "time": 91.7249999999998,
          "velocity": 0.44881889763779526,
          "duration": 0.06499999999999773
        },
        {
          "name": "B4",
          "midi": 71,
          "time": 91.7999999999998,
          "velocity": 0.6614173228346457,
          "duration": 0.06499999999999773
        },
        {
          "name": "F4",
          "midi": 65,
          "time": 91.8749999999998,
          "velocity": 0.5590551181102362,
          "duration": 0.06499999999999773
        },
        {
          "name": "D4",
          "midi": 62,
          "time": 91.9499999999998,
          "velocity": 0.4645669291338583,
          "duration": 0.06499999999999773
        },
        {
          "name": "G3",
          "midi": 55,
          "time": 92.0249999999998,
          "velocity": 0.5275590551181102,
          "duration": 0.06499999999999773
        },
        {
          "name": "B3",
          "midi": 59,
          "time": 92.09999999999981,
          "velocity": 0.6692913385826772,
          "duration": 0.06499999999999773
        },
        {
          "name": "F3",
          "midi": 53,
          "time": 92.17499999999981,
          "velocity": 0.5039370078740157,
          "duration": 0.06499999999998352
        },
        {
          "name": "D3",
          "midi": 50,
          "time": 92.2499999999998,
          "velocity": 0.3937007874015748,
          "duration": 0.06499999999999773
        },
        {
          "name": "G2",
          "midi": 43,
          "time": 92.3249999999998,
          "velocity": 0.5275590551181102,
          "duration": 0.06499999999999773
        },
        {
          "name": "C2",
          "midi": 36,
          "time": 92.41499999999981,
          "velocity": 0.7559055118110236,
          "duration": 2.332499999999939
        },
        {
          "name": "C1",
          "midi": 24,
          "time": 92.4199999999998,
          "velocity": 0.7559055118110236,
          "duration": 2.30499999999995
        },
        {
          "name": "G2",
          "midi": 43,
          "time": 92.47499999999981,
          "velocity": 0.6220472440944882,
          "duration": 0.08249999999999602
        },
        {
          "name": "E3",
          "midi": 52,
          "time": 92.54999999999981,
          "velocity": 0.6062992125984252,
          "duration": 0.08499999999999375
        },
        {
          "name": "G3",
          "midi": 55,
          "time": 92.61749999999981,
          "velocity": 0.6062992125984252,
          "duration": 0.09499999999999886
        },
        {
          "name": "C4",
          "midi": 60,
          "time": 92.6974999999998,
          "velocity": 0.6929133858267716,
          "duration": 0.060000000000002274
        },
        {
          "name": "G3",
          "midi": 55,
          "time": 92.77249999999981,
          "velocity": 0.6220472440944882,
          "duration": 0.09000000000000341
        },
        {
          "name": "E4",
          "midi": 64,
          "time": 92.84999999999981,
          "velocity": 0.6062992125984252,
          "duration": 0.07750000000000057
        },
        {
          "name": "G4",
          "midi": 67,
          "time": 92.94249999999981,
          "velocity": 0.5984251968503937,
          "duration": 0.05750000000000455
        },
        {
          "name": "C5",
          "midi": 72,
          "time": 93.00749999999981,
          "velocity": 0.7165354330708661,
          "duration": 0.0625
        },
        {
          "name": "G4",
          "midi": 67,
          "time": 93.0749999999998,
          "velocity": 0.5905511811023622,
          "duration": 0.07750000000000057
        },
        {
          "name": "E5",
          "midi": 76,
          "time": 93.14749999999981,
          "velocity": 0.6220472440944882,
          "duration": 0.07500000000000284
        },
        {
          "name": "G5",
          "midi": 79,
          "time": 93.2124999999998,
          "velocity": 0.6062992125984252,
          "duration": 0.07750000000000057
        },
        {
          "name": "C6",
          "midi": 84,
          "time": 93.2924999999998,
          "velocity": 0.7322834645669292,
          "duration": 0.0625
        },
        {
          "name": "G5",
          "midi": 79,
          "time": 93.3549999999998,
          "velocity": 0.6062992125984252,
          "duration": 0.09749999999999659
        },
        {
          "name": "E6",
          "midi": 88,
          "time": 93.4374999999998,
          "velocity": 0.5905511811023622,
          "duration": 0.0799999999999983
        },
        {
          "name": "G6",
          "midi": 91,
          "time": 93.5124999999998,
          "velocity": 0.5826771653543307,
          "duration": 0.09749999999999659
        },
        {
          "name": "C7",
          "midi": 96,
          "time": 93.5974999999998,
          "velocity": 0.7086614173228346,
          "duration": 0.0799999999999983
        },
        {
          "name": "G6",
          "midi": 91,
          "time": 93.6699999999998,
          "velocity": 0.6141732283464567,
          "duration": 0.09499999999999886
        },
        {
          "name": "E6",
          "midi": 88,
          "time": 93.7549999999998,
          "velocity": 0.6377952755905512,
          "duration": 0.07500000000000284
        },
        {
          "name": "G5",
          "midi": 79,
          "time": 93.83749999999979,
          "velocity": 0.6377952755905512,
          "duration": 0.0899999999999892
        },
        {
          "name": "C6",
          "midi": 84,
          "time": 93.92249999999979,
          "velocity": 0.7401574803149606,
          "duration": 0.07499999999998863
        },
        {
          "name": "G5",
          "midi": 79,
          "time": 93.99249999999978,
          "velocity": 0.6377952755905512,
          "duration": 0.09749999999999659
        },
        {
          "name": "E5",
          "midi": 76,
          "time": 94.07999999999977,
          "velocity": 0.6220472440944882,
          "duration": 0.0625
        },
        {
          "name": "G4",
          "midi": 67,
          "time": 94.15749999999977,
          "velocity": 0.6299212598425197,
          "duration": 0.10000000000000853
        },
        {
          "name": "C5",
          "midi": 72,
          "time": 94.24499999999978,
          "velocity": 0.7322834645669292,
          "duration": 0.09749999999999659
        },
        {
          "name": "G4",
          "midi": 67,
          "time": 94.32749999999977,
          "velocity": 0.6771653543307087,
          "duration": 0.09999999999999432
        },
        {
          "name": "E4",
          "midi": 64,
          "time": 94.40999999999977,
          "velocity": 0.6614173228346457,
          "duration": 0.08499999999999375
        },
        {
          "name": "G3",
          "midi": 55,
          "time": 94.50249999999976,
          "velocity": 0.6062992125984252,
          "duration": 0.10500000000000398
        },
        {
          "name": "C4",
          "midi": 60,
          "time": 94.58999999999976,
          "velocity": 0.7322834645669292,
          "duration": 0.11749999999999261
        },
        {
          "name": "G3",
          "midi": 55,
          "time": 94.68999999999976,
          "velocity": 0.6141732283464567,
          "duration": 0.11249999999999716
        },
        {
          "name": "E3",
          "midi": 52,
          "time": 94.78999999999975,
          "velocity": 0.6456692913385826,
          "duration": 0.10000000000000853
        },
        {
          "name": "G2",
          "midi": 43,
          "time": 94.89249999999976,
          "velocity": 0.7007874015748031,
          "duration": 0.08249999999999602
        },
        {
          "name": "C1",
          "midi": 24,
          "time": 95.00999999999975,
          "velocity": 0.8740157480314961,
          "duration": 2.7775000000000034
        },
        {
          "name": "C2",
          "midi": 36,
          "time": 95.00999999999975,
          "velocity": 0.8110236220472441,
          "duration": 2.782499999999999
        }
      ],
      "controlChanges": {
        "7": [
          {
            "number": 7,
            "time": 0.3075,
            "value": 1
          }
        ],
        "64": [
          {
            "number": 64,
            "time": 1.2,
            "value": 1
          },
          {
            "number": 64,
            "time": 3.5449999999999937,
            "value": 0
          },
          {
            "number": 64,
            "time": 3.6149999999999936,
            "value": 1
          },
          {
            "number": 64,
            "time": 4.749999999999993,
            "value": 0
          },
          {
            "number": 64,
            "time": 4.794999999999993,
            "value": 1
          },
          {
            "number": 64,
            "time": 5.962499999999997,
            "value": 0
          },
          {
            "number": 64,
            "time": 6.014999999999997,
            "value": 1
          },
          {
            "number": 64,
            "time": 6.612499999999998,
            "value": 0
          },
          {
            "number": 64,
            "time": 6.899999999999998,
            "value": 1
          },
          {
            "number": 64,
            "time": 7.164999999999998,
            "value": 0
          },
          {
            "number": 64,
            "time": 7.2075,
            "value": 1
          },
          {
            "number": 64,
            "time": 8.374999999999998,
            "value": 0
          },
          {
            "number": 64,
            "time": 8.427499999999998,
            "value": 1
          },
          {
            "number": 64,
            "time": 9.544999999999987,
            "value": 0
          },
          {
            "number": 64,
            "time": 9.597499999999988,
            "value": 1
          },
          {
            "number": 64,
            "time": 10.759999999999977,
            "value": 0
          },
          {
            "number": 64,
            "time": 10.814999999999976,
            "value": 1
          },
          {
            "number": 64,
            "time": 13.157499999999956,
            "value": 0
          },
          {
            "number": 64,
            "time": 13.207499999999957,
            "value": 1
          },
          {
            "number": 64,
            "time": 15.567499999999935,
            "value": 0
          },
          {
            "number": 64,
            "time": 15.614999999999936,
            "value": 1
          },
          {
            "number": 64,
            "time": 16.73749999999996,
            "value": 0
          },
          {
            "number": 64,
            "time": 16.802499999999963,
            "value": 1
          },
          {
            "number": 64,
            "time": 17.9575,
            "value": 0
          },
          {
            "number": 64,
            "time": 18.007499999999997,
            "value": 1
          },
          {
            "number": 64,
            "time": 19.137500000000035,
            "value": 0
          },
          {
            "number": 64,
            "time": 19.195000000000032,
            "value": 1
          },
          {
            "number": 64,
            "time": 20.370000000000072,
            "value": 0
          },
          {
            "number": 64,
            "time": 20.412500000000072,
            "value": 1
          },
          {
            "number": 64,
            "time": 21.575000000000113,
            "value": 0
          },
          {
            "number": 64,
            "time": 21.612500000000114,
            "value": 1
          },
          {
            "number": 64,
            "time": 22.775000000000155,
            "value": 0
          },
          {
            "number": 64,
            "time": 22.817500000000155,
            "value": 1
          },
          {
            "number": 64,
            "time": 23.987500000000196,
            "value": 0
          },
          {
            "number": 64,
            "time": 24.0250000000002,
            "value": 1
          },
          {
            "number": 64,
            "time": 25.170000000000236,
            "value": 0
          },
          {
            "number": 64,
            "time": 25.217500000000236,
            "value": 1
          },
          {
            "number": 64,
            "time": 26.380000000000276,
            "value": 0
          },
          {
            "number": 64,
            "time": 26.425000000000278,
            "value": 1
          },
          {
            "number": 64,
            "time": 27.580000000000314,
            "value": 0
          },
          {
            "number": 64,
            "time": 27.625000000000316,
            "value": 1
          },
          {
            "number": 64,
            "time": 28.722500000000355,
            "value": 0
          },
          {
            "number": 64,
            "time": 28.777500000000355,
            "value": 1
          },
          {
            "number": 64,
            "time": 29.965000000000394,
            "value": 0
          },
          {
            "number": 64,
            "time": 30.010000000000392,
            "value": 1
          },
          {
            "number": 64,
            "time": 31.147500000000434,
            "value": 0
          },
          {
            "number": 64,
            "time": 31.190000000000435,
            "value": 1
          },
          {
            "number": 64,
            "time": 32.045000000000464,
            "value": 0
          },
          {
            "number": 64,
            "time": 32.09500000000047,
            "value": 1
          },
          {
            "number": 64,
            "time": 32.36500000000046,
            "value": 0
          },
          {
            "number": 64,
            "time": 32.39500000000046,
            "value": 1
          },
          {
            "number": 64,
            "time": 33.5550000000004,
            "value": 0
          },
          {
            "number": 64,
            "time": 33.5950000000004,
            "value": 1
          },
          {
            "number": 64,
            "time": 34.76750000000033,
            "value": 0
          },
          {
            "number": 64,
            "time": 34.805000000000334,
            "value": 1
          },
          {
            "number": 64,
            "time": 35.95000000000028,
            "value": 0
          },
          {
            "number": 64,
            "time": 35.99000000000028,
            "value": 1
          },
          {
            "number": 64,
            "time": 37.16750000000022,
            "value": 0
          },
          {
            "number": 64,
            "time": 37.20500000000022,
            "value": 1
          },
          {
            "number": 64,
            "time": 38.35750000000015,
            "value": 0
          },
          {
            "number": 64,
            "time": 38.40000000000015,
            "value": 1
          },
          {
            "number": 64,
            "time": 39.57250000000008,
            "value": 0
          },
          {
            "number": 64,
            "time": 39.610000000000085,
            "value": 1
          },
          {
            "number": 64,
            "time": 40.745000000000026,
            "value": 0
          },
          {
            "number": 64,
            "time": 40.80250000000002,
            "value": 1
          },
          {
            "number": 64,
            "time": 41.99249999999996,
            "value": 0
          },
          {
            "number": 64,
            "time": 42.03749999999995,
            "value": 1
          },
          {
            "number": 64,
            "time": 42.042499999999954,
            "value": 0.9921259842519685
          },
          {
            "number": 64,
            "time": 44.367499999999836,
            "value": 0
          },
          {
            "number": 64,
            "time": 44.414999999999836,
            "value": 1
          },
          {
            "number": 64,
            "time": 45.56249999999978,
            "value": 0
          },
          {
            "number": 64,
            "time": 45.60499999999979,
            "value": 1
          },
          {
            "number": 64,
            "time": 46.46499999999975,
            "value": 0
          },
          {
            "number": 64,
            "time": 46.50249999999974,
            "value": 1
          },
          {
            "number": 64,
            "time": 46.76999999999974,
            "value": 0
          },
          {
            "number": 64,
            "time": 46.79999999999974,
            "value": 1
          },
          {
            "number": 64,
            "time": 47.987499999999685,
            "value": 0
          },
          {
            "number": 64,
            "time": 48.02999999999968,
            "value": 1
          },
          {
            "number": 64,
            "time": 48.84249999999963,
            "value": 0
          },
          {
            "number": 64,
            "time": 48.87999999999963,
            "value": 1
          },
          {
            "number": 64,
            "time": 49.14499999999962,
            "value": 0
          },
          {
            "number": 64,
            "time": 49.18249999999962,
            "value": 1
          },
          {
            "number": 64,
            "time": 50.33999999999956,
            "value": 0
          },
          {
            "number": 64,
            "time": 50.39249999999956,
            "value": 1
          },
          {
            "number": 64,
            "time": 50.932499999999536,
            "value": 0
          },
          {
            "number": 64,
            "time": 50.98999999999953,
            "value": 1
          },
          {
            "number": 64,
            "time": 51.54249999999951,
            "value": 0
          },
          {
            "number": 64,
            "time": 51.5849999999995,
            "value": 1
          },
          {
            "number": 64,
            "time": 52.14249999999948,
            "value": 0
          },
          {
            "number": 64,
            "time": 52.202499999999475,
            "value": 1
          },
          {
            "number": 64,
            "time": 52.749999999999446,
            "value": 0
          },
          {
            "number": 64,
            "time": 52.80249999999944,
            "value": 1
          },
          {
            "number": 64,
            "time": 53.339999999999414,
            "value": 0
          },
          {
            "number": 64,
            "time": 53.38249999999941,
            "value": 1
          },
          {
            "number": 64,
            "time": 53.93249999999939,
            "value": 0
          },
          {
            "number": 64,
            "time": 53.98749999999939,
            "value": 1
          },
          {
            "number": 64,
            "time": 54.81999999999935,
            "value": 0
          },
          {
            "number": 64,
            "time": 54.87749999999935,
            "value": 1
          },
          {
            "number": 64,
            "time": 56.05249999999932,
            "value": 0
          },
          {
            "number": 64,
            "time": 56.094999999999324,
            "value": 1
          },
          {
            "number": 64,
            "time": 58.43249999999922,
            "value": 0
          },
          {
            "number": 64,
            "time": 58.477499999999225,
            "value": 1
          },
          {
            "number": 64,
            "time": 58.74999999999922,
            "value": 0
          },
          {
            "number": 64,
            "time": 58.80499999999922,
            "value": 1
          },
          {
            "number": 64,
            "time": 61.1774999999991,
            "value": 0
          },
          {
            "number": 64,
            "time": 61.2224999999991,
            "value": 1
          },
          {
            "number": 64,
            "time": 62.344999999999054,
            "value": 0
          },
          {
            "number": 64,
            "time": 62.39249999999905,
            "value": 1
          },
          {
            "number": 64,
            "time": 63.55499999999899,
            "value": 0
          },
          {
            "number": 64,
            "time": 63.60249999999899,
            "value": 1
          },
          {
            "number": 64,
            "time": 64.19499999999897,
            "value": 0
          },
          {
            "number": 64,
            "time": 64.48499999999896,
            "value": 1
          },
          {
            "number": 64,
            "time": 64.77249999999897,
            "value": 0
          },
          {
            "number": 64,
            "time": 64.80249999999896,
            "value": 1
          },
          {
            "number": 64,
            "time": 65.95249999999902,
            "value": 0
          },
          {
            "number": 64,
            "time": 65.99999999999902,
            "value": 1
          },
          {
            "number": 64,
            "time": 67.14249999999906,
            "value": 0
          },
          {
            "number": 64,
            "time": 67.18249999999907,
            "value": 1
          },
          {
            "number": 64,
            "time": 68.3474999999991,
            "value": 0
          },
          {
            "number": 64,
            "time": 68.3949999999991,
            "value": 1
          },
          {
            "number": 64,
            "time": 69.55249999999913,
            "value": 0
          },
          {
            "number": 64,
            "time": 69.58999999999912,
            "value": 1
          },
          {
            "number": 64,
            "time": 70.78249999999917,
            "value": 0
          },
          {
            "number": 64,
            "time": 70.81999999999917,
            "value": 1
          },
          {
            "number": 64,
            "time": 71.9274999999992,
            "value": 0
          },
          {
            "number": 64,
            "time": 71.9674999999992,
            "value": 1
          },
          {
            "number": 64,
            "time": 72.54749999999922,
            "value": 0
          },
          {
            "number": 64,
            "time": 72.58999999999922,
            "value": 1
          },
          {
            "number": 64,
            "time": 72.84749999999923,
            "value": 0
          },
          {
            "number": 64,
            "time": 72.88749999999924,
            "value": 1
          },
          {
            "number": 64,
            "time": 73.16749999999924,
            "value": 0
          },
          {
            "number": 64,
            "time": 73.22999999999922,
            "value": 1
          },
          {
            "number": 64,
            "time": 74.34499999999926,
            "value": 0
          },
          {
            "number": 64,
            "time": 74.37999999999926,
            "value": 1
          },
          {
            "number": 64,
            "time": 75.55749999999931,
            "value": 0
          },
          {
            "number": 64,
            "time": 75.59999999999931,
            "value": 1
          },
          {
            "number": 64,
            "time": 76.72749999999935,
            "value": 0
          },
          {
            "number": 64,
            "time": 76.76749999999936,
            "value": 1
          },
          {
            "number": 64,
            "time": 77.34999999999937,
            "value": 0
          },
          {
            "number": 64,
            "time": 77.37999999999937,
            "value": 1
          },
          {
            "number": 64,
            "time": 77.95249999999939,
            "value": 0
          },
          {
            "number": 64,
            "time": 77.99499999999938,
            "value": 1
          },
          {
            "number": 64,
            "time": 80.34749999999946,
            "value": 0
          },
          {
            "number": 64,
            "time": 80.38999999999946,
            "value": 1
          },
          {
            "number": 64,
            "time": 81.5224999999995,
            "value": 0
          },
          {
            "number": 64,
            "time": 81.5699999999995,
            "value": 1
          },
          {
            "number": 64,
            "time": 82.74749999999952,
            "value": 0
          },
          {
            "number": 64,
            "time": 82.7949999999995,
            "value": 1
          },
          {
            "number": 64,
            "time": 83.91749999999954,
            "value": 0
          },
          {
            "number": 64,
            "time": 83.96499999999953,
            "value": 1
          },
          {
            "number": 64,
            "time": 84.52499999999955,
            "value": 0
          },
          {
            "number": 64,
            "time": 84.56999999999955,
            "value": 1
          },
          {
            "number": 64,
            "time": 85.15999999999957,
            "value": 0
          },
          {
            "number": 64,
            "time": 85.19749999999956,
            "value": 1
          },
          {
            "number": 64,
            "time": 86.3474999999996,
            "value": 0
          },
          {
            "number": 64,
            "time": 86.3899999999996,
            "value": 1
          },
          {
            "number": 64,
            "time": 86.92499999999963,
            "value": 0
          },
          {
            "number": 64,
            "time": 86.96999999999963,
            "value": 1
          },
          {
            "number": 64,
            "time": 87.55499999999965,
            "value": 0
          },
          {
            "number": 64,
            "time": 87.59749999999964,
            "value": 1
          },
          {
            "number": 64,
            "time": 88.76499999999969,
            "value": 0
          },
          {
            "number": 64,
            "time": 88.8049999999997,
            "value": 1
          },
          {
            "number": 64,
            "time": 89.94999999999975,
            "value": 0
          },
          {
            "number": 64,
            "time": 89.99249999999974,
            "value": 1
          },
          {
            "number": 64,
            "time": 91.15249999999979,
            "value": 0
          },
          {
            "number": 64,
            "time": 91.19249999999978,
            "value": 1
          },
          {
            "number": 64,
            "time": 92.3624999999998,
            "value": 0
          },
          {
            "number": 64,
            "time": 92.4049999999998,
            "value": 1
          },
          {
            "number": 64,
            "time": 97.83499999999975,
            "value": 0
          }
        ],
        "91": [
          {
            "number": 91,
            "time": 0.2975,
            "value": 0.5039370078740157
          }
        ],
        "93": [
          {
            "number": 93,
            "time": 0.2975,
            "value": 0.15748031496062992
          }
        ]
      },
      "id": 1,
      "name": "Etude No. 1",
      "instrumentNumber": 0,
      "instrument": "acoustic grand piano",
      "instrumentFamily": "piano",
      "channelNumber": 0,
      "isPercussion": false
    },
    {
      "startTime": 0,
      "duration": 0,
      "length": 0,
      "notes": [],
      "controlChanges": {},
      "id": 2,
      "name": "In C Major"
    },
    {
      "startTime": 0,
      "duration": 0,
      "length": 0,
      "notes": [],
      "controlChanges": {},
      "id": 3,
      "name": "Op. 10, No. 1"
    },
    {
      "startTime": 0,
      "duration": 0,
      "length": 0,
      "notes": [],
      "controlChanges": {},
      "id": 4,
      "name": "Chopin, Frederic"
    },
    {
      "startTime": 0,
      "duration": 0,
      "length": 0,
      "notes": [],
      "controlChanges": {},
      "id": 5,
      "name": "Sequenced by Anousone Kitisa"
    }
  ]
}