{
  "header": {
    "PPQ": 96,
    "timeSignature": [
      3,
      4
    ],
    "bpm": 120,
    "name": ""
  },
  "startTime": 0.015625,
  "duration": 187.01562500000009,
  "tracks": [
    {
      "startTime": 0.015625,
      "duration": 187.01562500000009,
      "length": 323,
      "notes": [
        {
          "name": "G#2",
          "midi": 44,
          "time": 0.015625,
          "velocity": 0.2992125984251969,
          "duration": 0.75
        },
        {
          "name": "G#2",
          "midi": 44,
          "time": 1.03125,
          "velocity": 0.2283464566929134,
          "duration": 0.15625
        },
        {
          "name": "G#2",
          "midi": 44,
          "time": 1.4895833333333333,
          "velocity": 0.3779527559055118,
          "duration": 0.6510416666666667
        },
        {
          "name": "G#2",
          "midi": 44,
          "time": 2.5,
          "velocity": 0.15748031496062992,
          "duration": 0.11458333333333348
        },
        {
          "name": "G#2",
          "midi": 44,
          "time": 2.9895833333333335,
          "velocity": 0.2755905511811024,
          "duration": 0.7395833333333335
        },
        {
          "name": "G#2",
          "midi": 44,
          "time": 3.963541666666667,
          "velocity": 0.25984251968503935,
          "duration": 0.18229166666666696
        },
        {
          "name": "G#2",
          "midi": 44,
          "time": 4.468750000000001,
          "velocity": 0.4566929133858268,
          "duration": 0.713541666666667
        },
        {
          "name": "G#2",
          "midi": 44,
          "time": 5.468750000000001,
          "velocity": 0.3228346456692913,
          "duration": 0.13541666666666696
        },
        {
          "name": "G#2",
          "midi": 44,
          "time": 5.989583333333335,
          "velocity": 0.3937007874015748,
          "duration": 0.739583333333333
        },
        {
          "name": "G#2",
          "midi": 44,
          "time": 7.015625000000001,
          "velocity": 0.4094488188976378,
          "duration": 0.171875
        },
        {
          "name": "G#2",
          "midi": 44,
          "time": 7.520833333333334,
          "velocity": 0.3464566929133858,
          "duration": 0.6666666666666661
        },
        {
          "name": "G#2",
          "midi": 44,
          "time": 8.458333333333334,
          "velocity": 0.3700787401574803,
          "duration": 0.171875
        },
        {
          "name": "D#2",
          "midi": 39,
          "time": 8.864583333333334,
          "velocity": 0.2125984251968504,
          "duration": 0.16666666666666607
        },
        {
          "name": "G#2",
          "midi": 44,
          "time": 9,
          "velocity": 0.1968503937007874,
          "duration": 0.6875
        },
        {
          "name": "G#2",
          "midi": 44,
          "time": 9.96875,
          "velocity": 0.23622047244094488,
          "duration": 0.1875
        },
        {
          "name": "G#2",
          "midi": 44,
          "time": 10.473958333333334,
          "velocity": 0.3858267716535433,
          "duration": 0.65625
        },
        {
          "name": "G#2",
          "midi": 44,
          "time": 11.494791666666668,
          "velocity": 0.31496062992125984,
          "duration": 0.21354166666666607
        },
        {
          "name": "G#2",
          "midi": 44,
          "time": 12.005208333333334,
          "velocity": 0.4330708661417323,
          "duration": 0.7083333333333339
        },
        {
          "name": "G#2",
          "midi": 44,
          "time": 13.000000000000002,
          "velocity": 0.41732283464566927,
          "duration": 0.16666666666666607
        },
        {
          "name": "G#2",
          "midi": 44,
          "time": 13.484375000000002,
          "velocity": 0.2992125984251969,
          "duration": 0.65625
        },
        {
          "name": "G#2",
          "midi": 44,
          "time": 14.463541666666668,
          "velocity": 0.23622047244094488,
          "duration": 0.234375
        },
        {
          "name": "G#2",
          "midi": 44,
          "time": 14.979166666666668,
          "velocity": 0.2677165354330709,
          "duration": 0.7604166666666661
        },
        {
          "name": "G#2",
          "midi": 44,
          "time": 15.953125,
          "velocity": 0.3228346456692913,
          "duration": 0.26041666666666785
        },
        {
          "name": "G#2",
          "midi": 44,
          "time": 16.463541666666668,
          "velocity": 0.3700787401574803,
          "duration": 0.7916666666666679
        },
        {
          "name": "G#2",
          "midi": 44,
          "time": 17.479166666666668,
          "velocity": 0.4094488188976378,
          "duration": 0.28645833333333215
        },
        {
          "name": "G#3",
          "midi": 56,
          "time": 17.875,
          "velocity": 0.3700787401574803,
          "duration": 1.203125
        },
        {
          "name": "G#2",
          "midi": 44,
          "time": 18.015625,
          "velocity": 0.2755905511811024,
          "duration": 0.6875
        },
        {
          "name": "G#2",
          "midi": 44,
          "time": 18.96875,
          "velocity": 0.3700787401574803,
          "duration": 0.30208333333333215
        },
        {
          "name": "G#2",
          "midi": 44,
          "time": 19.484375,
          "velocity": 0.4251968503937008,
          "duration": 0.6458333333333321
        },
        {
          "name": "G#2",
          "midi": 44,
          "time": 20.427083333333332,
          "velocity": 0.18110236220472442,
          "duration": 0.390625
        },
        {
          "name": "G#3",
          "midi": 56,
          "time": 20.828125,
          "velocity": 0.2204724409448819,
          "duration": 2.5104166666666714
        },
        {
          "name": "G#2",
          "midi": 44,
          "time": 20.947916666666668,
          "velocity": 0.5275590551181102,
          "duration": 0.7760416666666679
        },
        {
          "name": "G#2",
          "midi": 44,
          "time": 21.958333333333336,
          "velocity": 0.10236220472440945,
          "duration": 0.21354166666666785
        },
        {
          "name": "G#2",
          "midi": 44,
          "time": 22.46354166666667,
          "velocity": 0.1968503937007874,
          "duration": 0.6927083333333321
        },
        {
          "name": "G#2",
          "midi": 44,
          "time": 23.45833333333334,
          "velocity": 0.1889763779527559,
          "duration": 0.3125
        },
        {
          "name": "D#3",
          "midi": 51,
          "time": 23.859375000000007,
          "velocity": 0.31496062992125984,
          "duration": 2.9062499999999964
        },
        {
          "name": "G#2",
          "midi": 44,
          "time": 23.98958333333334,
          "velocity": 0.3543307086614173,
          "duration": 0.703125
        },
        {
          "name": "G#2",
          "midi": 44,
          "time": 24.937500000000007,
          "velocity": 0.2992125984251969,
          "duration": 0.265625
        },
        {
          "name": "G#2",
          "midi": 44,
          "time": 25.48958333333334,
          "velocity": 0.12598425196850394,
          "duration": 0.6614583333333321
        },
        {
          "name": "G#2",
          "midi": 44,
          "time": 26.45833333333334,
          "velocity": 0.15748031496062992,
          "duration": 0.23958333333333215
        },
        {
          "name": "D#3",
          "midi": 51,
          "time": 26.833333333333336,
          "velocity": 0.25196850393700787,
          "duration": 2.067708333333332
        },
        {
          "name": "G#2",
          "midi": 44,
          "time": 26.973958333333336,
          "velocity": 0.44881889763779526,
          "duration": 0.7760416666666679
        },
        {
          "name": "G#2",
          "midi": 44,
          "time": 27.989583333333336,
          "velocity": 0.3700787401574803,
          "duration": 0.234375
        },
        {
          "name": "G#2",
          "midi": 44,
          "time": 28.510416666666668,
          "velocity": 0.3464566929133858,
          "duration": 0.671875
        },
        {
          "name": "C3",
          "midi": 48,
          "time": 28.994791666666668,
          "velocity": 0.36220472440944884,
          "duration": 2.3958333333333357
        },
        {
          "name": "G#2",
          "midi": 44,
          "time": 29.489583333333336,
          "velocity": 0.3464566929133858,
          "duration": 0.25
        },
        {
          "name": "G#2",
          "midi": 44,
          "time": 29.994791666666668,
          "velocity": 0.4330708661417323,
          "duration": 0.765625
        },
        {
          "name": "G#2",
          "midi": 44,
          "time": 31.005208333333336,
          "velocity": 0.3779527559055118,
          "duration": 0.21354166666666785
        },
        {
          "name": "G#2",
          "midi": 44,
          "time": 31.49479166666667,
          "velocity": 0.31496062992125984,
          "duration": 0.3854166666666643
        },
        {
          "name": "C3",
          "midi": 48,
          "time": 31.531250000000004,
          "velocity": 0.4015748031496063,
          "duration": 0.8281249999999964
        },
        {
          "name": "G#2",
          "midi": 44,
          "time": 32.036458333333336,
          "velocity": 0.3858267716535433,
          "duration": 0.2760416666666643
        },
        {
          "name": "G#2",
          "midi": 44,
          "time": 32.552083333333336,
          "velocity": 0.13385826771653545,
          "duration": 0.28125
        },
        {
          "name": "D#3",
          "midi": 51,
          "time": 32.848958333333336,
          "velocity": 0.13385826771653545,
          "duration": 0.2239583333333357
        },
        {
          "name": "G#2",
          "midi": 44,
          "time": 33.020833333333336,
          "velocity": 0.2755905511811024,
          "duration": 0.7291666666666714
        },
        {
          "name": "C3",
          "midi": 48,
          "time": 33.036458333333336,
          "velocity": 0.15748031496062992,
          "duration": 4.640625000000014
        },
        {
          "name": "G#2",
          "midi": 44,
          "time": 33.98958333333334,
          "velocity": 0.09448818897637795,
          "duration": 0.1666666666666643
        },
        {
          "name": "G#2",
          "midi": 44,
          "time": 34.45833333333334,
          "velocity": 0.36220472440944884,
          "duration": 0.6145833333333357
        },
        {
          "name": "G#2",
          "midi": 44,
          "time": 35.437500000000014,
          "velocity": 0.28346456692913385,
          "duration": 0.2083333333333357
        },
        {
          "name": "D#2",
          "midi": 39,
          "time": 35.822916666666686,
          "velocity": 0.1889763779527559,
          "duration": 0.1510416666666643
        },
        {
          "name": "G#2",
          "midi": 44,
          "time": 35.963541666666686,
          "velocity": 0.5118110236220472,
          "duration": 0.6770833333333286
        },
        {
          "name": "G#2",
          "midi": 44,
          "time": 36.984375000000014,
          "velocity": 0.4566929133858268,
          "duration": 0.1875
        },
        {
          "name": "G#2",
          "midi": 44,
          "time": 37.47395833333335,
          "velocity": 0.4094488188976378,
          "duration": 0.8229166666666643
        },
        {
          "name": "G#2",
          "midi": 44,
          "time": 38.484375000000014,
          "velocity": 0.36220472440944884,
          "duration": 0.359375
        },
        {
          "name": "G#2",
          "midi": 44,
          "time": 39.015625000000014,
          "velocity": 0.3228346456692913,
          "duration": 0.796875
        },
        {
          "name": "G#2",
          "midi": 44,
          "time": 39.984375000000014,
          "velocity": 0.36220472440944884,
          "duration": 0.3697916666666643
        },
        {
          "name": "C3",
          "midi": 48,
          "time": 40.375000000000014,
          "velocity": 0.3543307086614173,
          "duration": 1.4635416666666714
        },
        {
          "name": "G#2",
          "midi": 44,
          "time": 40.50520833333335,
          "velocity": 0.25196850393700787,
          "duration": 0.6770833333333357
        },
        {
          "name": "G#2",
          "midi": 44,
          "time": 41.42187500000002,
          "velocity": 0.2125984251968504,
          "duration": 0.2760416666666643
        },
        {
          "name": "D3",
          "midi": 50,
          "time": 41.81770833333335,
          "velocity": 0.3543307086614173,
          "duration": 0.1510416666666714
        },
        {
          "name": "G#2",
          "midi": 44,
          "time": 41.932291666666686,
          "velocity": 0.2755905511811024,
          "duration": 0.28125
        },
        {
          "name": "D#3",
          "midi": 51,
          "time": 41.947916666666686,
          "velocity": 0.3858267716535433,
          "duration": 5.645833333333329
        },
        {
          "name": "G#2",
          "midi": 44,
          "time": 42.947916666666686,
          "velocity": 0.25984251968503935,
          "duration": 0.2760416666666643
        },
        {
          "name": "G#2",
          "midi": 44,
          "time": 43.45833333333335,
          "velocity": 0.25984251968503935,
          "duration": 0.7135416666666643
        },
        {
          "name": "G#2",
          "midi": 44,
          "time": 44.45833333333335,
          "velocity": 0.2992125984251969,
          "duration": 0.2760416666666643
        },
        {
          "name": "G#2",
          "midi": 44,
          "time": 45.000000000000014,
          "velocity": 0.41732283464566927,
          "duration": 0.78125
        },
        {
          "name": "G#2",
          "midi": 44,
          "time": 45.98958333333335,
          "velocity": 0.33858267716535434,
          "duration": 0.2239583333333357
        },
        {
          "name": "G#2",
          "midi": 44,
          "time": 46.479166666666686,
          "velocity": 0.33070866141732286,
          "duration": 0.71875
        },
        {
          "name": "G#2",
          "midi": 44,
          "time": 47.47395833333335,
          "velocity": 0.36220472440944884,
          "duration": 0.4166666666666643
        },
        {
          "name": "G#3",
          "midi": 56,
          "time": 47.88020833333335,
          "velocity": 0.11811023622047244,
          "duration": 0.1666666666666643
        },
        {
          "name": "D#3",
          "midi": 51,
          "time": 48.01041666666668,
          "velocity": 0.18110236220472442,
          "duration": 5.833333333333343
        },
        {
          "name": "G#2",
          "midi": 44,
          "time": 48.046875000000014,
          "velocity": 0.2755905511811024,
          "duration": 0.6510416666666643
        },
        {
          "name": "G#2",
          "midi": 44,
          "time": 48.98958333333334,
          "velocity": 0.18110236220472442,
          "duration": 0.2395833333333357
        },
        {
          "name": "G#2",
          "midi": 44,
          "time": 49.49479166666668,
          "velocity": 0.3858267716535433,
          "duration": 0.71875
        },
        {
          "name": "G#2",
          "midi": 44,
          "time": 50.500000000000014,
          "velocity": 0.29133858267716534,
          "duration": 0.265625
        },
        {
          "name": "G#2",
          "midi": 44,
          "time": 51.031250000000014,
          "velocity": 0.3464566929133858,
          "duration": 0.6770833333333357
        },
        {
          "name": "G#2",
          "midi": 44,
          "time": 52.057291666666686,
          "velocity": 0.31496062992125984,
          "duration": 0.2552083333333357
        },
        {
          "name": "G#2",
          "midi": 44,
          "time": 52.55208333333336,
          "velocity": 0.33858267716535434,
          "duration": 0.6979166666666643
        },
        {
          "name": "G#2",
          "midi": 44,
          "time": 53.479166666666686,
          "velocity": 0.3464566929133858,
          "duration": 0.3177083333333357
        },
        {
          "name": "D3",
          "midi": 50,
          "time": 53.83333333333336,
          "velocity": 0.33070866141732286,
          "duration": 0.1822916666666643
        },
        {
          "name": "D#3",
          "midi": 51,
          "time": 53.98437500000002,
          "velocity": 0.5118110236220472,
          "duration": 2.0260416666666643
        },
        {
          "name": "G#2",
          "midi": 44,
          "time": 53.994791666666686,
          "velocity": 0.33858267716535434,
          "duration": 0.734375
        },
        {
          "name": "G#2",
          "midi": 44,
          "time": 55.00520833333335,
          "velocity": 0.2992125984251969,
          "duration": 0.234375
        },
        {
          "name": "G#2",
          "midi": 44,
          "time": 55.494791666666686,
          "velocity": 0.2992125984251969,
          "duration": 0.6875
        },
        {
          "name": "C3",
          "midi": 48,
          "time": 56.00000000000002,
          "velocity": 0.3779527559055118,
          "duration": 1.0260416666666643
        },
        {
          "name": "G#2",
          "midi": 44,
          "time": 56.479166666666686,
          "velocity": 0.2992125984251969,
          "duration": 0.2604166666666643
        },
        {
          "name": "D#3",
          "midi": 51,
          "time": 56.97395833333335,
          "velocity": 0.2992125984251969,
          "duration": 2.5104166666666643
        },
        {
          "name": "G#2",
          "midi": 44,
          "time": 56.97395833333335,
          "velocity": 0.3543307086614173,
          "duration": 0.78125
        },
        {
          "name": "G#2",
          "midi": 44,
          "time": 58.00520833333335,
          "velocity": 0.30708661417322836,
          "duration": 0.2552083333333357
        },
        {
          "name": "G#2",
          "midi": 44,
          "time": 58.50520833333335,
          "velocity": 0.3464566929133858,
          "duration": 0.71875
        },
        {
          "name": "G#3",
          "midi": 56,
          "time": 59.447916666666686,
          "velocity": 0.18110236220472442,
          "duration": 0.53125
        },
        {
          "name": "G#2",
          "midi": 44,
          "time": 59.45833333333335,
          "velocity": 0.2992125984251969,
          "duration": 0.3385416666666643
        },
        {
          "name": "D#3",
          "midi": 51,
          "time": 59.937500000000014,
          "velocity": 0.33070866141732286,
          "duration": 2.984375
        },
        {
          "name": "G#2",
          "midi": 44,
          "time": 59.95833333333335,
          "velocity": 0.2677165354330709,
          "duration": 0.7916666666666714
        },
        {
          "name": "G#2",
          "midi": 44,
          "time": 60.979166666666686,
          "velocity": 0.33858267716535434,
          "duration": 0.28125
        },
        {
          "name": "G#2",
          "midi": 44,
          "time": 61.50520833333335,
          "velocity": 0.23622047244094488,
          "duration": 0.703125
        },
        {
          "name": "G#2",
          "midi": 44,
          "time": 62.463541666666686,
          "velocity": 0.2755905511811024,
          "duration": 0.390625
        },
        {
          "name": "D3",
          "midi": 50,
          "time": 62.88020833333335,
          "velocity": 0.3228346456692913,
          "duration": 0.1770833333333357
        },
        {
          "name": "G#2",
          "midi": 44,
          "time": 63.00520833333335,
          "velocity": 0.28346456692913385,
          "duration": 0.8229166666666714
        },
        {
          "name": "D#3",
          "midi": 51,
          "time": 63.02083333333335,
          "velocity": 0.4251968503937008,
          "duration": 1.3593750000000213
        },
        {
          "name": "G#2",
          "midi": 44,
          "time": 64.01562500000003,
          "velocity": 0.2755905511811024,
          "duration": 0.3072916666666714
        },
        {
          "name": "C#3",
          "midi": 49,
          "time": 64.3385416666667,
          "velocity": 0.11023622047244094,
          "duration": 0.1770833333333428
        },
        {
          "name": "D#3",
          "midi": 51,
          "time": 64.4791666666667,
          "velocity": 0.4566929133858268,
          "duration": 1.4270833333333428
        },
        {
          "name": "G#2",
          "midi": 44,
          "time": 64.48958333333337,
          "velocity": 0.2755905511811024,
          "duration": 0.7708333333333428
        },
        {
          "name": "G#2",
          "midi": 44,
          "time": 65.47916666666671,
          "velocity": 0.25984251968503935,
          "duration": 0.2552083333333286
        },
        {
          "name": "C#3",
          "midi": 49,
          "time": 65.88020833333337,
          "velocity": 0.14173228346456693,
          "duration": 0.1510416666666714
        },
        {
          "name": "G#2",
          "midi": 44,
          "time": 65.94791666666671,
          "velocity": 0.2677165354330709,
          "duration": 0.7760416666666572
        },
        {
          "name": "D#3",
          "midi": 51,
          "time": 65.99479166666671,
          "velocity": 0.48031496062992124,
          "duration": 4.088541666666671
        },
        {
          "name": "G#2",
          "midi": 44,
          "time": 67.00520833333337,
          "velocity": 0.29133858267716534,
          "duration": 0.2447916666666714
        },
        {
          "name": "G#2",
          "midi": 44,
          "time": 67.51041666666671,
          "velocity": 0.28346456692913385,
          "duration": 0.734375
        },
        {
          "name": "G#2",
          "midi": 44,
          "time": 68.47916666666671,
          "velocity": 0.29133858267716534,
          "duration": 0.296875
        },
        {
          "name": "G#2",
          "midi": 44,
          "time": 68.98958333333339,
          "velocity": 0.31496062992125984,
          "duration": 0.7916666666666714
        },
        {
          "name": "G#2",
          "midi": 44,
          "time": 69.98958333333339,
          "velocity": 0.15748031496062992,
          "duration": 0.2135416666666714
        },
        {
          "name": "G#2",
          "midi": 44,
          "time": 70.50000000000006,
          "velocity": 0.2204724409448819,
          "duration": 0.6614583333333286
        },
        {
          "name": "D#2",
          "midi": 39,
          "time": 70.95312500000006,
          "velocity": 0.3779527559055118,
          "duration": 0.5833333333333286
        },
        {
          "name": "G#2",
          "midi": 44,
          "time": 71.46354166666671,
          "velocity": 0.18110236220472442,
          "duration": 0.3489583333333428
        },
        {
          "name": "G#2",
          "midi": 44,
          "time": 72.00000000000006,
          "velocity": 0.29133858267716534,
          "duration": 0.7083333333333286
        },
        {
          "name": "D#3",
          "midi": 51,
          "time": 72.50520833333339,
          "velocity": 0.28346456692913385,
          "duration": 1.1145833333333286
        },
        {
          "name": "G#2",
          "midi": 44,
          "time": 72.98958333333339,
          "velocity": 0.11023622047244094,
          "duration": 0.21875
        },
        {
          "name": "G#2",
          "midi": 44,
          "time": 73.48958333333339,
          "velocity": 0.10236220472440945,
          "duration": 0.6666666666666572
        },
        {
          "name": "D#3",
          "midi": 51,
          "time": 73.96875000000004,
          "velocity": 0.33070866141732286,
          "duration": 1.1197916666666572
        },
        {
          "name": "G#2",
          "midi": 44,
          "time": 74.47395833333337,
          "velocity": 0.12598425196850394,
          "duration": 0.234375
        },
        {
          "name": "G#2",
          "midi": 44,
          "time": 74.9791666666667,
          "velocity": 0.1732283464566929,
          "duration": 0.796875
        },
        {
          "name": "G#3",
          "midi": 56,
          "time": 75.4791666666667,
          "velocity": 0.2440944881889764,
          "duration": 1.0677083333333286
        },
        {
          "name": "D#3",
          "midi": 51,
          "time": 75.48437500000003,
          "velocity": 0.29133858267716534,
          "duration": 1.0625
        },
        {
          "name": "G#2",
          "midi": 44,
          "time": 76.0104166666667,
          "velocity": 0.2125984251968504,
          "duration": 0.171875
        },
        {
          "name": "G#2",
          "midi": 44,
          "time": 76.48437500000003,
          "velocity": 0.16535433070866143,
          "duration": 0.640625
        },
        {
          "name": "G#3",
          "midi": 56,
          "time": 76.98437500000003,
          "velocity": 0.14173228346456693,
          "duration": 1.0104166666666572
        },
        {
          "name": "D#3",
          "midi": 51,
          "time": 77.00000000000003,
          "velocity": 0.28346456692913385,
          "duration": 0.9895833333333286
        },
        {
          "name": "G#2",
          "midi": 44,
          "time": 77.4635416666667,
          "velocity": 0.14960629921259844,
          "duration": 0.1458333333333286
        },
        {
          "name": "G#2",
          "midi": 44,
          "time": 77.95833333333336,
          "velocity": 0.13385826771653545,
          "duration": 0.7604166666666572
        },
        {
          "name": "G#3",
          "midi": 56,
          "time": 78.47916666666669,
          "velocity": 0.09448818897637795,
          "duration": 1.0572916666666714
        },
        {
          "name": "D#3",
          "midi": 51,
          "time": 78.49479166666669,
          "velocity": 0.07086614173228346,
          "duration": 1.03125
        },
        {
          "name": "G#2",
          "midi": 44,
          "time": 78.98437500000001,
          "velocity": 0.23622047244094488,
          "duration": 0.1979166666666714
        },
        {
          "name": "G#2",
          "midi": 44,
          "time": 79.46354166666669,
          "velocity": 0.13385826771653545,
          "duration": 0.640625
        },
        {
          "name": "D#3",
          "midi": 51,
          "time": 79.95833333333336,
          "velocity": 0.33858267716535434,
          "duration": 1.0208333333333144
        },
        {
          "name": "G#3",
          "midi": 56,
          "time": 79.96354166666669,
          "velocity": 0.09448818897637795,
          "duration": 1.0416666666666572
        },
        {
          "name": "G#2",
          "midi": 44,
          "time": 80.46354166666669,
          "velocity": 0.1968503937007874,
          "duration": 0.1770833333333286
        },
        {
          "name": "G#2",
          "midi": 44,
          "time": 80.95833333333334,
          "velocity": 0.1732283464566929,
          "duration": 0.6979166666666572
        },
        {
          "name": "D#3",
          "midi": 51,
          "time": 81.47916666666667,
          "velocity": 0.16535433070866143,
          "duration": 1.0260416666666714
        },
        {
          "name": "G#3",
          "midi": 56,
          "time": 81.484375,
          "velocity": 0.10236220472440945,
          "duration": 1.0312500000000142
        },
        {
          "name": "G#2",
          "midi": 44,
          "time": 82.015625,
          "velocity": 0.16535433070866143,
          "duration": 0.1979166666666714
        },
        {
          "name": "G#2",
          "midi": 44,
          "time": 82.48958333333334,
          "velocity": 0.1889763779527559,
          "duration": 0.6770833333333428
        },
        {
          "name": "G#3",
          "midi": 56,
          "time": 82.98437500000001,
          "velocity": 0.10236220472440945,
          "duration": 1.03125
        },
        {
          "name": "D#3",
          "midi": 51,
          "time": 82.99479166666669,
          "velocity": 0.11811023622047244,
          "duration": 0.984375
        },
        {
          "name": "G#2",
          "midi": 44,
          "time": 83.47916666666669,
          "velocity": 0.1732283464566929,
          "duration": 0.234375
        },
        {
          "name": "G#2",
          "midi": 44,
          "time": 83.96354166666669,
          "velocity": 0.4015748031496063,
          "duration": 1.1510416666666714
        },
        {
          "name": "G#3",
          "midi": 56,
          "time": 84.44791666666669,
          "velocity": 0.4330708661417323,
          "duration": 0.140625
        },
        {
          "name": "D#3",
          "midi": 51,
          "time": 84.45833333333336,
          "velocity": 0.4566929133858268,
          "duration": 0.0989583333333286
        },
        {
          "name": "G#3",
          "midi": 56,
          "time": 84.97395833333336,
          "velocity": 0.30708661417322836,
          "duration": 2.968749999999986
        },
        {
          "name": "D#3",
          "midi": 51,
          "time": 84.97916666666669,
          "velocity": 0.31496062992125984,
          "duration": 2.9427083333333286
        },
        {
          "name": "G#2",
          "midi": 44,
          "time": 85.50000000000003,
          "velocity": 0.33858267716535434,
          "duration": 0.8489583333333286
        },
        {
          "name": "G#2",
          "midi": 44,
          "time": 86.53645833333336,
          "velocity": 0.28346456692913385,
          "duration": 0.3177083333333286
        },
        {
          "name": "G#2",
          "midi": 44,
          "time": 87.03125000000001,
          "velocity": 0.49606299212598426,
          "duration": 0.8020833333333286
        },
        {
          "name": "G#2",
          "midi": 44,
          "time": 88.02604166666667,
          "velocity": 0.25984251968503935,
          "duration": 0.2083333333333286
        },
        {
          "name": "G#2",
          "midi": 44,
          "time": 88.484375,
          "velocity": 0.2440944881889764,
          "duration": 0.75
        },
        {
          "name": "G#2",
          "midi": 44,
          "time": 89.47395833333333,
          "velocity": 0.1968503937007874,
          "duration": 0.2552083333333286
        },
        {
          "name": "G#2",
          "midi": 44,
          "time": 89.97916666666666,
          "velocity": 0.2125984251968504,
          "duration": 0.421875
        },
        {
          "name": "G#2",
          "midi": 44,
          "time": 90.95312499999999,
          "velocity": 0.2677165354330709,
          "duration": 0.1875
        },
        {
          "name": "G#2",
          "midi": 44,
          "time": 91.45833333333331,
          "velocity": 0.31496062992125984,
          "duration": 0.828125
        },
        {
          "name": "G#2",
          "midi": 44,
          "time": 92.50520833333331,
          "velocity": 0.3858267716535433,
          "duration": 0.2604166666666714
        },
        {
          "name": "G#2",
          "midi": 44,
          "time": 92.97916666666666,
          "velocity": 0.6456692913385826,
          "duration": 0.8020833333333428
        },
        {
          "name": "G#1",
          "midi": 32,
          "time": 93.55208333333333,
          "velocity": 0.6692913385826772,
          "duration": 5.197916666666671
        },
        {
          "name": "G#2",
          "midi": 44,
          "time": 94.01041666666667,
          "velocity": 0.6062992125984252,
          "duration": 0.2135416666666714
        },
        {
          "name": "G#2",
          "midi": 44,
          "time": 94.50520833333334,
          "velocity": 0.6692913385826772,
          "duration": 0.75
        },
        {
          "name": "G#2",
          "midi": 44,
          "time": 95.48437500000001,
          "velocity": 0.3937007874015748,
          "duration": 0.2083333333333286
        },
        {
          "name": "G#2",
          "midi": 44,
          "time": 95.95833333333334,
          "velocity": 0.48031496062992124,
          "duration": 0.7239583333333286
        },
        {
          "name": "G#2",
          "midi": 44,
          "time": 96.96354166666667,
          "velocity": 0.4094488188976378,
          "duration": 0.203125
        },
        {
          "name": "G#2",
          "midi": 44,
          "time": 97.4375,
          "velocity": 0.49606299212598426,
          "duration": 0.7760416666666714
        },
        {
          "name": "G#2",
          "midi": 44,
          "time": 98.46354166666667,
          "velocity": 0.4566929133858268,
          "duration": 0.25
        },
        {
          "name": "G#2",
          "midi": 44,
          "time": 98.921875,
          "velocity": 0.6299212598425197,
          "duration": 0.734375
        },
        {
          "name": "G#1",
          "midi": 32,
          "time": 98.921875,
          "velocity": 0.5669291338582677,
          "duration": 5.750000000000014
        },
        {
          "name": "G#2",
          "midi": 44,
          "time": 99.91666666666667,
          "velocity": 0.3543307086614173,
          "duration": 0.1822916666666714
        },
        {
          "name": "G#2",
          "midi": 44,
          "time": 100.41145833333334,
          "velocity": 0.4409448818897638,
          "duration": 0.703125
        },
        {
          "name": "G#2",
          "midi": 44,
          "time": 101.52604166666667,
          "velocity": 0.2677165354330709,
          "duration": 0.1666666666666714
        },
        {
          "name": "G#2",
          "midi": 44,
          "time": 102.00000000000001,
          "velocity": 0.29133858267716534,
          "duration": 0.7395833333333286
        },
        {
          "name": "G#2",
          "midi": 44,
          "time": 102.95312500000001,
          "velocity": 0.3858267716535433,
          "duration": 0.2291666666666714
        },
        {
          "name": "G#2",
          "midi": 44,
          "time": 103.43750000000001,
          "velocity": 0.4645669291338583,
          "duration": 0.765625
        },
        {
          "name": "G#2",
          "midi": 44,
          "time": 104.45312500000001,
          "velocity": 0.5039370078740157,
          "duration": 0.234375
        },
        {
          "name": "G#1",
          "midi": 32,
          "time": 104.93750000000001,
          "velocity": 0.4566929133858268,
          "duration": 5.901041666666643
        },
        {
          "name": "G#2",
          "midi": 44,
          "time": 104.94270833333334,
          "velocity": 0.5433070866141733,
          "duration": 0.8177083333333286
        },
        {
          "name": "G#2",
          "midi": 44,
          "time": 105.96875,
          "velocity": 0.4015748031496063,
          "duration": 0.1979166666666714
        },
        {
          "name": "G#2",
          "midi": 44,
          "time": 106.453125,
          "velocity": 0.29133858267716534,
          "duration": 0.75
        },
        {
          "name": "G#2",
          "midi": 44,
          "time": 107.45833333333333,
          "velocity": 0.41732283464566927,
          "duration": 0.1822916666666714
        },
        {
          "name": "G#2",
          "midi": 44,
          "time": 107.9375,
          "velocity": 0.3858267716535433,
          "duration": 0.8177083333333286
        },
        {
          "name": "G#2",
          "midi": 44,
          "time": 108.97395833333333,
          "velocity": 0.4251968503937008,
          "duration": 0.1666666666666714
        },
        {
          "name": "G#2",
          "midi": 44,
          "time": 109.44791666666667,
          "velocity": 0.4645669291338583,
          "duration": 0.7395833333333286
        },
        {
          "name": "G#2",
          "midi": 44,
          "time": 110.421875,
          "velocity": 0.3937007874015748,
          "duration": 0.28125
        },
        {
          "name": "D#2",
          "midi": 39,
          "time": 110.81770833333333,
          "velocity": 0.29133858267716534,
          "duration": 0.09375
        },
        {
          "name": "G#2",
          "midi": 44,
          "time": 110.95833333333333,
          "velocity": 0.6692913385826772,
          "duration": 5.046875
        },
        {
          "name": "G#1",
          "midi": 32,
          "time": 110.97916666666666,
          "velocity": 0.7165354330708661,
          "duration": 0.9375
        },
        {
          "name": "G#1",
          "midi": 32,
          "time": 112.04166666666666,
          "velocity": 0.30708661417322836,
          "duration": 0.3020833333333286
        },
        {
          "name": "G#1",
          "midi": 32,
          "time": 112.54687499999999,
          "velocity": 0.3700787401574803,
          "duration": 0.8125
        },
        {
          "name": "G#1",
          "midi": 32,
          "time": 113.52083333333331,
          "velocity": 0.3228346456692913,
          "duration": 0.2291666666666714
        },
        {
          "name": "G#1",
          "midi": 32,
          "time": 113.97395833333331,
          "velocity": 0.25196850393700787,
          "duration": 0.7447916666666714
        },
        {
          "name": "G#1",
          "midi": 32,
          "time": 114.92708333333331,
          "velocity": 0.2440944881889764,
          "duration": 0.2760416666666714
        },
        {
          "name": "G#1",
          "midi": 32,
          "time": 115.43229166666666,
          "velocity": 0.3228346456692913,
          "duration": 7.40625
        },
        {
          "name": "D#2",
          "midi": 39,
          "time": 115.94270833333333,
          "velocity": 0.25984251968503935,
          "duration": 0.65625
        },
        {
          "name": "G#2",
          "midi": 44,
          "time": 117,
          "velocity": 0.2440944881889764,
          "duration": 0.9114583333333286
        },
        {
          "name": "G#2",
          "midi": 44,
          "time": 118.02083333333333,
          "velocity": 0.3464566929133858,
          "duration": 0.2083333333333286
        },
        {
          "name": "G#2",
          "midi": 44,
          "time": 118.49999999999999,
          "velocity": 0.3228346456692913,
          "duration": 0.7291666666666714
        },
        {
          "name": "G#2",
          "midi": 44,
          "time": 119.46354166666666,
          "velocity": 0.4094488188976378,
          "duration": 0.2135416666666714
        },
        {
          "name": "G#2",
          "midi": 44,
          "time": 119.94270833333333,
          "velocity": 0.2125984251968504,
          "duration": 0.8645833333333286
        },
        {
          "name": "G#2",
          "midi": 44,
          "time": 120.98437499999999,
          "velocity": 0.41732283464566927,
          "duration": 0.2135416666666714
        },
        {
          "name": "G#2",
          "midi": 44,
          "time": 121.48437499999999,
          "velocity": 0.6850393700787402,
          "duration": 1.3385416666666714
        },
        {
          "name": "D#2",
          "midi": 39,
          "time": 122.83854166666666,
          "velocity": 0.14960629921259844,
          "duration": 0.1822916666666714
        },
        {
          "name": "G#2",
          "midi": 44,
          "time": 123.00520833333333,
          "velocity": 0.4645669291338583,
          "duration": 0.8854166666666714
        },
        {
          "name": "G#1",
          "midi": 32,
          "time": 123.02083333333333,
          "velocity": 0.33070866141732286,
          "duration": 4.994791666666671
        },
        {
          "name": "G#2",
          "midi": 44,
          "time": 124.00520833333333,
          "velocity": 0.3228346456692913,
          "duration": 0.2395833333333286
        },
        {
          "name": "G#2",
          "midi": 44,
          "time": 124.46354166666666,
          "velocity": 0.3858267716535433,
          "duration": 0.90625
        },
        {
          "name": "G#2",
          "midi": 44,
          "time": 125.51041666666666,
          "velocity": 0.25196850393700787,
          "duration": 0.2552083333333286
        },
        {
          "name": "G#2",
          "midi": 44,
          "time": 125.99479166666666,
          "velocity": 0.3464566929133858,
          "duration": 0.8697916666666714
        },
        {
          "name": "G#2",
          "midi": 44,
          "time": 127.01041666666666,
          "velocity": 0.30708661417322836,
          "duration": 0.2552083333333286
        },
        {
          "name": "G#2",
          "midi": 44,
          "time": 127.51562499999999,
          "velocity": 0.25196850393700787,
          "duration": 1.1458333333333286
        },
        {
          "name": "G#1",
          "midi": 32,
          "time": 128.46354166666666,
          "velocity": 0.2047244094488189,
          "duration": 2.640625
        },
        {
          "name": "G#2",
          "midi": 44,
          "time": 128.99479166666666,
          "velocity": 0.5196850393700787,
          "duration": 0.796875
        },
        {
          "name": "G#2",
          "midi": 44,
          "time": 130.01041666666666,
          "velocity": 0.4094488188976378,
          "duration": 0.2447916666666572
        },
        {
          "name": "G#2",
          "midi": 44,
          "time": 130.49479166666666,
          "velocity": 0.41732283464566927,
          "duration": 1.1197916666666572
        },
        {
          "name": "G#1",
          "midi": 32,
          "time": 131.50520833333331,
          "velocity": 0.4094488188976378,
          "duration": 3.166666666666657
        },
        {
          "name": "G#2",
          "midi": 44,
          "time": 131.96874999999997,
          "velocity": 0.49606299212598426,
          "duration": 0.796875
        },
        {
          "name": "G#2",
          "midi": 44,
          "time": 132.98437499999997,
          "velocity": 0.3779527559055118,
          "duration": 0.21875
        },
        {
          "name": "G#2",
          "midi": 44,
          "time": 133.47395833333331,
          "velocity": 0.4409448818897638,
          "duration": 0.828125
        },
        {
          "name": "G#2",
          "midi": 44,
          "time": 134.50520833333331,
          "velocity": 0.5039370078740157,
          "duration": 0.6041666666666572
        },
        {
          "name": "G#1",
          "midi": 32,
          "time": 134.97916666666663,
          "velocity": 0.5118110236220472,
          "duration": 1.3854166666666856
        },
        {
          "name": "G#2",
          "midi": 44,
          "time": 135.51041666666663,
          "velocity": 0.30708661417322836,
          "duration": 0.6302083333333428
        },
        {
          "name": "G#2",
          "midi": 44,
          "time": 136.49999999999997,
          "velocity": 0.4251968503937008,
          "duration": 0.8645833333333428
        },
        {
          "name": "G#1",
          "midi": 32,
          "time": 136.49999999999997,
          "velocity": 0.49606299212598426,
          "duration": 0.8333333333333428
        },
        {
          "name": "G#2",
          "midi": 44,
          "time": 137.53645833333331,
          "velocity": 0.28346456692913385,
          "duration": 0.1666666666666572
        },
        {
          "name": "G#1",
          "midi": 32,
          "time": 137.54687499999997,
          "velocity": 0.3464566929133858,
          "duration": 0.1458333333333428
        },
        {
          "name": "G#2",
          "midi": 44,
          "time": 137.97916666666663,
          "velocity": 0.33070866141732286,
          "duration": 0.8489583333333428
        },
        {
          "name": "G#1",
          "midi": 32,
          "time": 137.99999999999997,
          "velocity": 0.31496062992125984,
          "duration": 0.828125
        },
        {
          "name": "G#2",
          "midi": 44,
          "time": 139.02604166666663,
          "velocity": 0.3937007874015748,
          "duration": 0.15625
        },
        {
          "name": "G#1",
          "midi": 32,
          "time": 139.04166666666663,
          "velocity": 0.4094488188976378,
          "duration": 0.11979166666665719
        },
        {
          "name": "G#2",
          "midi": 44,
          "time": 139.49999999999997,
          "velocity": 0.4251968503937008,
          "duration": 0.640625
        },
        {
          "name": "G#1",
          "midi": 32,
          "time": 139.50520833333331,
          "velocity": 0.44881889763779526,
          "duration": 0.625
        },
        {
          "name": "G#1",
          "midi": 32,
          "time": 140.44791666666663,
          "velocity": 0.48031496062992124,
          "duration": 0.1666666666666572
        },
        {
          "name": "G#2",
          "midi": 44,
          "time": 140.44791666666663,
          "velocity": 0.5433070866141733,
          "duration": 0.171875
        },
        {
          "name": "G#1",
          "midi": 32,
          "time": 140.9427083333333,
          "velocity": 0.5511811023622047,
          "duration": 11.875000000000028
        },
        {
          "name": "G#2",
          "midi": 44,
          "time": 140.9427083333333,
          "velocity": 0.6456692913385826,
          "duration": 1.0052083333333428
        },
        {
          "name": "D#2",
          "midi": 39,
          "time": 141.9583333333333,
          "velocity": 0.4645669291338583,
          "duration": 0.4635416666666572
        },
        {
          "name": "G#2",
          "midi": 44,
          "time": 142.4270833333333,
          "velocity": 0.23622047244094488,
          "duration": 0.8645833333333428
        },
        {
          "name": "G#2",
          "midi": 44,
          "time": 143.4895833333333,
          "velocity": 0.3700787401574803,
          "duration": 0.2552083333333428
        },
        {
          "name": "G#2",
          "midi": 44,
          "time": 143.9895833333333,
          "velocity": 0.44881889763779526,
          "duration": 0.7916666666666572
        },
        {
          "name": "G#2",
          "midi": 44,
          "time": 144.9583333333333,
          "velocity": 0.4409448818897638,
          "duration": 0.375
        },
        {
          "name": "D#2",
          "midi": 39,
          "time": 145.3489583333333,
          "velocity": 0.2204724409448819,
          "duration": 0.1354166666666572
        },
        {
          "name": "G#2",
          "midi": 44,
          "time": 145.4739583333333,
          "velocity": 0.4330708661417323,
          "duration": 0.7760416666666572
        },
        {
          "name": "G#2",
          "midi": 44,
          "time": 146.49999999999994,
          "velocity": 0.3228346456692913,
          "duration": 0.2135416666666572
        },
        {
          "name": "G#2",
          "midi": 44,
          "time": 146.99999999999994,
          "velocity": 0.3543307086614173,
          "duration": 0.8020833333333428
        },
        {
          "name": "G#2",
          "midi": 44,
          "time": 148.01041666666663,
          "velocity": 0.3700787401574803,
          "duration": 0.2291666666666572
        },
        {
          "name": "G#2",
          "midi": 44,
          "time": 148.48437499999994,
          "velocity": 0.4881889763779528,
          "duration": 0.7395833333333428
        },
        {
          "name": "G#2",
          "midi": 44,
          "time": 149.45312499999994,
          "velocity": 0.2755905511811024,
          "duration": 0.171875
        },
        {
          "name": "G#2",
          "midi": 44,
          "time": 149.9583333333333,
          "velocity": 0.36220472440944884,
          "duration": 0.6614583333333428
        },
        {
          "name": "G#2",
          "midi": 44,
          "time": 150.93749999999997,
          "velocity": 0.5511811023622047,
          "duration": 0.3020833333333428
        },
        {
          "name": "D#2",
          "midi": 39,
          "time": 151.32812499999997,
          "velocity": 0.14173228346456693,
          "duration": 0.09895833333334281
        },
        {
          "name": "G#2",
          "midi": 44,
          "time": 151.43749999999997,
          "velocity": 0.5669291338582677,
          "duration": 0.953125
        },
        {
          "name": "G#2",
          "midi": 44,
          "time": 152.48437499999997,
          "velocity": 0.4881889763779528,
          "duration": 0.3020833333333428
        },
        {
          "name": "G#2",
          "midi": 44,
          "time": 153.02083333333331,
          "velocity": 0.5590551181102362,
          "duration": 0.734375
        },
        {
          "name": "G#1",
          "midi": 32,
          "time": 153.02604166666666,
          "velocity": 0.25984251968503935,
          "duration": 3.067708333333343
        },
        {
          "name": "G#2",
          "midi": 44,
          "time": 153.99479166666666,
          "velocity": 0.4251968503937008,
          "duration": 0.234375
        },
        {
          "name": "G#2",
          "midi": 44,
          "time": 154.49479166666666,
          "velocity": 0.5039370078740157,
          "duration": 0.78125
        },
        {
          "name": "G#2",
          "midi": 44,
          "time": 155.484375,
          "velocity": 0.5196850393700787,
          "duration": 0.3802083333333428
        },
        {
          "name": "F#2",
          "midi": 42,
          "time": 155.86458333333334,
          "velocity": 0.2047244094488189,
          "duration": 0.10416666666665719
        },
        {
          "name": "G#2",
          "midi": 44,
          "time": 155.97916666666666,
          "velocity": 0.6062992125984252,
          "duration": 0.828125
        },
        {
          "name": "G#1",
          "midi": 32,
          "time": 156.15104166666666,
          "velocity": 0.25984251968503935,
          "duration": 8.744791666666686
        },
        {
          "name": "G#2",
          "midi": 44,
          "time": 157.02083333333331,
          "velocity": 0.4645669291338583,
          "duration": 0.2447916666666572
        },
        {
          "name": "G#2",
          "midi": 44,
          "time": 157.50520833333331,
          "velocity": 0.5433070866141733,
          "duration": 0.8333333333333428
        },
        {
          "name": "G#2",
          "midi": 44,
          "time": 158.50520833333331,
          "velocity": 0.5669291338582677,
          "duration": 0.296875
        },
        {
          "name": "F2",
          "midi": 41,
          "time": 158.84895833333331,
          "velocity": 0.49606299212598426,
          "duration": 0.1666666666666572
        },
        {
          "name": "G#2",
          "midi": 44,
          "time": 158.99999999999997,
          "velocity": 0.6299212598425197,
          "duration": 0.6875
        },
        {
          "name": "G#2",
          "midi": 44,
          "time": 159.98958333333331,
          "velocity": 0.5196850393700787,
          "duration": 0.3020833333333428
        },
        {
          "name": "D#2",
          "midi": 39,
          "time": 160.33854166666666,
          "velocity": 0.15748031496062992,
          "duration": 0.11458333333334281
        },
        {
          "name": "G#2",
          "midi": 44,
          "time": 160.453125,
          "velocity": 0.5590551181102362,
          "duration": 0.7708333333333428
        },
        {
          "name": "G#2",
          "midi": 44,
          "time": 161.47916666666669,
          "velocity": 0.4251968503937008,
          "duration": 0.2916666666666572
        },
        {
          "name": "G2",
          "midi": 43,
          "time": 161.83854166666669,
          "velocity": 0.31496062992125984,
          "duration": 0.1354166666666572
        },
        {
          "name": "G#2",
          "midi": 44,
          "time": 161.97395833333334,
          "velocity": 0.5984251968503937,
          "duration": 0.84375
        },
        {
          "name": "G#2",
          "midi": 44,
          "time": 163.00520833333334,
          "velocity": 0.48031496062992124,
          "duration": 0.2083333333333428
        },
        {
          "name": "G2",
          "midi": 43,
          "time": 163.36458333333334,
          "velocity": 0.4094488188976378,
          "duration": 0.11979166666665719
        },
        {
          "name": "G#2",
          "midi": 44,
          "time": 163.46875,
          "velocity": 0.3228346456692913,
          "duration": 0.7552083333333428
        },
        {
          "name": "G#2",
          "midi": 44,
          "time": 164.421875,
          "velocity": 0.5511811023622047,
          "duration": 0.3177083333333428
        },
        {
          "name": "G#1",
          "midi": 32,
          "time": 164.97395833333334,
          "velocity": 0.36220472440944884,
          "duration": 0.75
        },
        {
          "name": "G2",
          "midi": 43,
          "time": 164.97395833333334,
          "velocity": 0.3779527559055118,
          "duration": 2.8593749999999716
        },
        {
          "name": "G#1",
          "midi": 32,
          "time": 165.96354166666669,
          "velocity": 0.2677165354330709,
          "duration": 0.2760416666666572
        },
        {
          "name": "G#1",
          "midi": 32,
          "time": 166.50520833333334,
          "velocity": 0.3228346456692913,
          "duration": 0.7447916666666572
        },
        {
          "name": "G#1",
          "midi": 32,
          "time": 167.453125,
          "velocity": 0.23622047244094488,
          "duration": 0.3229166666666572
        },
        {
          "name": "G#2",
          "midi": 44,
          "time": 167.95833333333331,
          "velocity": 0.47244094488188976,
          "duration": 1.3645833333333428
        },
        {
          "name": "G#1",
          "midi": 32,
          "time": 167.96874999999997,
          "velocity": 0.4015748031496063,
          "duration": 0.75
        },
        {
          "name": "G#1",
          "midi": 32,
          "time": 168.98958333333331,
          "velocity": 0.3228346456692913,
          "duration": 0.2708333333333428
        },
        {
          "name": "D#2",
          "midi": 39,
          "time": 169.33854166666666,
          "velocity": 0.2047244094488189,
          "duration": 0.1458333333333428
        },
        {
          "name": "G#2",
          "midi": 44,
          "time": 169.46875,
          "velocity": 0.6220472440944882,
          "duration": 1.2239583333333144
        },
        {
          "name": "G#1",
          "midi": 32,
          "time": 169.47395833333334,
          "velocity": 0.3700787401574803,
          "duration": 0.734375
        },
        {
          "name": "G#1",
          "midi": 32,
          "time": 170.5,
          "velocity": 0.3858267716535433,
          "duration": 0.1822916666666572
        },
        {
          "name": "D#2",
          "midi": 39,
          "time": 170.89062499999997,
          "velocity": 0.09448818897637795,
          "duration": 0.06770833333334281
        },
        {
          "name": "G#1",
          "midi": 32,
          "time": 171.02604166666666,
          "velocity": 0.29133858267716534,
          "duration": 0.3802083333333428
        },
        {
          "name": "G#1",
          "midi": 32,
          "time": 171.60416666666666,
          "velocity": 0.13385826771653545,
          "duration": 0.140625
        },
        {
          "name": "G#1",
          "midi": 32,
          "time": 171.97916666666666,
          "velocity": 0.31496062992125984,
          "duration": 0.234375
        },
        {
          "name": "G#1",
          "midi": 32,
          "time": 172.47395833333331,
          "velocity": 0.31496062992125984,
          "duration": 0.671875
        },
        {
          "name": "G#1",
          "midi": 32,
          "time": 173.44791666666666,
          "velocity": 0.30708661417322836,
          "duration": 0.3125
        },
        {
          "name": "G#1",
          "midi": 32,
          "time": 173.96875,
          "velocity": 0.36220472440944884,
          "duration": 0.390625
        },
        {
          "name": "G#1",
          "midi": 32,
          "time": 174.95833333333334,
          "velocity": 0.36220472440944884,
          "duration": 0.234375
        },
        {
          "name": "G#1",
          "midi": 32,
          "time": 175.47395833333334,
          "velocity": 0.3858267716535433,
          "duration": 0.6302083333333428
        },
        {
          "name": "G#1",
          "midi": 32,
          "time": 176.42708333333334,
          "velocity": 0.2283464566929134,
          "duration": 0.3385416666666572
        },
        {
          "name": "G#1",
          "midi": 32,
          "time": 176.97395833333334,
          "velocity": 0.33070866141732286,
          "duration": 0.8385416666666572
        },
        {
          "name": "G#1",
          "midi": 32,
          "time": 178.05208333333334,
          "velocity": 0.3543307086614173,
          "duration": 0.2864583333333428
        },
        {
          "name": "G#1",
          "midi": 32,
          "time": 178.54687500000003,
          "velocity": 0.33858267716535434,
          "duration": 0.6927083333333428
        },
        {
          "name": "G#1",
          "midi": 32,
          "time": 179.4791666666667,
          "velocity": 0.2755905511811024,
          "duration": 0.2604166666666572
        },
        {
          "name": "G#1",
          "midi": 32,
          "time": 179.9635416666667,
          "velocity": 0.3700787401574803,
          "duration": 0.7864583333333428
        },
        {
          "name": "G#1",
          "midi": 32,
          "time": 180.98437500000006,
          "velocity": 0.1968503937007874,
          "duration": 0.2395833333333428
        },
        {
          "name": "G#1",
          "midi": 32,
          "time": 181.47916666666674,
          "velocity": 0.33070866141732286,
          "duration": 0.578125
        },
        {
          "name": "G#1",
          "midi": 32,
          "time": 182.47916666666674,
          "velocity": 0.2677165354330709,
          "duration": 0.2239583333333428
        },
        {
          "name": "G#1",
          "midi": 32,
          "time": 182.97395833333343,
          "velocity": 0.25196850393700787,
          "duration": 0.8177083333333428
        },
        {
          "name": "G#1",
          "midi": 32,
          "time": 183.97916666666677,
          "velocity": 0.2677165354330709,
          "duration": 0.2760416666666572
        },
        {
          "name": "G#1",
          "midi": 32,
          "time": 184.48437500000009,
          "velocity": 0.2755905511811024,
          "duration": 0.8541666666666572
        },
        {
          "name": "G#1",
          "midi": 32,
          "time": 185.47916666666674,
          "velocity": 0.1889763779527559,
          "duration": 0.3177083333333428
        },
        {
          "name": "G#1",
          "midi": 32,
          "time": 186.00520833333343,
          "velocity": 0.2440944881889764,
          "duration": 1.0104166666666572
        }
      ],
      "controlChanges": {},
      "id": 0,
      "name": "52 1-Grand Piano",
      "channelNumber": 0,
      "isPercussion": false
    },
    {
      "startTime": 2.9427083333333335,
      "duration": 182.59895833333334,
      "length": 202,
      "notes": [
        {
          "name": "C4",
          "midi": 60,
          "time": 2.9427083333333335,
          "velocity": 0.31496062992125984,
          "duration": 2.4895833333333335
        },
        {
          "name": "G#3",
          "midi": 56,
          "time": 2.947916666666667,
          "velocity": 0.2047244094488189,
          "duration": 11.260416666666668
        },
        {
          "name": "A#3",
          "midi": 58,
          "time": 2.947916666666667,
          "velocity": 0.23622047244094488,
          "duration": 11.307291666666668
        },
        {
          "name": "D#4",
          "midi": 63,
          "time": 2.947916666666667,
          "velocity": 0.3543307086614173,
          "duration": 2.223958333333333
        },
        {
          "name": "F4",
          "midi": 65,
          "time": 2.9531250000000004,
          "velocity": 0.41732283464566927,
          "duration": 2.8437499999999996
        },
        {
          "name": "D#4",
          "midi": 63,
          "time": 5.479166666666667,
          "velocity": 0.4566929133858268,
          "duration": 0.30208333333333304
        },
        {
          "name": "C4",
          "midi": 60,
          "time": 6,
          "velocity": 0.48031496062992124,
          "duration": 3
        },
        {
          "name": "D#4",
          "midi": 63,
          "time": 8.791666666666666,
          "velocity": 0.1889763779527559,
          "duration": 0.22916666666666607
        },
        {
          "name": "C4",
          "midi": 60,
          "time": 9.010416666666666,
          "velocity": 0.47244094488188976,
          "duration": 5.192708333333334
        },
        {
          "name": "G#4",
          "midi": 68,
          "time": 14.96875,
          "velocity": 0.2992125984251969,
          "duration": 2.583333333333332
        },
        {
          "name": "D#4",
          "midi": 63,
          "time": 14.979166666666666,
          "velocity": 0.29133858267716534,
          "duration": 2.536458333333334
        },
        {
          "name": "C4",
          "midi": 60,
          "time": 14.984375,
          "velocity": 0.30708661417322836,
          "duration": 2.630208333333332
        },
        {
          "name": "F4",
          "midi": 65,
          "time": 14.989583333333334,
          "velocity": 0.4409448818897638,
          "duration": 2.5989583333333304
        },
        {
          "name": "A#4",
          "midi": 70,
          "time": 17.911458333333332,
          "velocity": 0.23622047244094488,
          "duration": 2.4739583333333286
        },
        {
          "name": "D#4",
          "midi": 63,
          "time": 17.916666666666664,
          "velocity": 0.2283464566929134,
          "duration": 2.7395833333333286
        },
        {
          "name": "C4",
          "midi": 60,
          "time": 17.921874999999996,
          "velocity": 0.3464566929133858,
          "duration": 3.7395833333333286
        },
        {
          "name": "G#4",
          "midi": 68,
          "time": 17.921874999999996,
          "velocity": 0.2755905511811024,
          "duration": 1.7552083333333321
        },
        {
          "name": "F4",
          "midi": 65,
          "time": 17.937499999999996,
          "velocity": 0.3937007874015748,
          "duration": 1.9166666666666643
        },
        {
          "name": "G#4",
          "midi": 68,
          "time": 20.171874999999993,
          "velocity": 0.5433070866141733,
          "duration": 0.27604166666666785
        },
        {
          "name": "F4",
          "midi": 65,
          "time": 20.39583333333333,
          "velocity": 0.3464566929133858,
          "duration": 4.510416666666661
        },
        {
          "name": "D#4",
          "midi": 63,
          "time": 21.020833333333325,
          "velocity": 0.4094488188976378,
          "duration": 3.817708333333332
        },
        {
          "name": "D#4",
          "midi": 63,
          "time": 25.47395833333332,
          "velocity": 0.2125984251968504,
          "duration": 0.8020833333333321
        },
        {
          "name": "A#4",
          "midi": 70,
          "time": 25.48437499999999,
          "velocity": 0.2125984251968504,
          "duration": 1.0104166666666607
        },
        {
          "name": "C4",
          "midi": 60,
          "time": 25.48958333333332,
          "velocity": 0.36220472440944884,
          "duration": 0.859375
        },
        {
          "name": "F4",
          "midi": 65,
          "time": 25.50520833333332,
          "velocity": 0.5511811023622047,
          "duration": 0.8489583333333321
        },
        {
          "name": "D#4",
          "midi": 63,
          "time": 26.406249999999986,
          "velocity": 0.2283464566929134,
          "duration": 0.2447916666666643
        },
        {
          "name": "G#4",
          "midi": 68,
          "time": 26.411458333333318,
          "velocity": 0.30708661417322836,
          "duration": 0.515625
        },
        {
          "name": "C4",
          "midi": 60,
          "time": 26.411458333333318,
          "velocity": 0.18110236220472442,
          "duration": 0.203125
        },
        {
          "name": "D#4",
          "midi": 63,
          "time": 26.968749999999986,
          "velocity": 0.14173228346456693,
          "duration": 2.2760416666666643
        },
        {
          "name": "F4",
          "midi": 65,
          "time": 26.979166666666654,
          "velocity": 0.3858267716535433,
          "duration": 1.5572916666666643
        },
        {
          "name": "C4",
          "midi": 60,
          "time": 26.984374999999986,
          "velocity": 0.2440944881889764,
          "duration": 2.3437499999999964
        },
        {
          "name": "D#4",
          "midi": 63,
          "time": 29.661458333333314,
          "velocity": 0.023622047244094488,
          "duration": 0.26041666666666785
        },
        {
          "name": "G#3",
          "midi": 56,
          "time": 29.999999999999982,
          "velocity": 0.12598425196850394,
          "duration": 2.6093750000000036
        },
        {
          "name": "A#3",
          "midi": 58,
          "time": 32.77083333333332,
          "velocity": 0.11023622047244094,
          "duration": 0.265625
        },
        {
          "name": "C4",
          "midi": 60,
          "time": 33.00520833333332,
          "velocity": 0.2047244094488189,
          "duration": 3.9375
        },
        {
          "name": "G#4",
          "midi": 68,
          "time": 38.937499999999986,
          "velocity": 0.25984251968503935,
          "duration": 12.125
        },
        {
          "name": "D#5",
          "midi": 75,
          "time": 38.94791666666665,
          "velocity": 0.3464566929133858,
          "duration": 3.34375
        },
        {
          "name": "G5",
          "midi": 79,
          "time": 38.958333333333314,
          "velocity": 0.4251968503937008,
          "duration": 3.4322916666666714
        },
        {
          "name": "C5",
          "midi": 72,
          "time": 38.958333333333314,
          "velocity": 0.4566929133858268,
          "duration": 12.104166666666671
        },
        {
          "name": "A#5",
          "midi": 82,
          "time": 44.94270833333332,
          "velocity": 0.6535433070866141,
          "duration": 1.9739583333333357
        },
        {
          "name": "G#5",
          "midi": 80,
          "time": 47.97916666666666,
          "velocity": 0.3464566929133858,
          "duration": 0.7916666666666643
        },
        {
          "name": "A#5",
          "midi": 82,
          "time": 48.81770833333332,
          "velocity": 0.09448818897637795,
          "duration": 0.09375
        },
        {
          "name": "G#5",
          "midi": 80,
          "time": 48.921874999999986,
          "velocity": 0.3228346456692913,
          "duration": 0.125
        },
        {
          "name": "A#5",
          "midi": 82,
          "time": 49.03645833333332,
          "velocity": 0.41732283464566927,
          "duration": 0.1666666666666643
        },
        {
          "name": "G#5",
          "midi": 80,
          "time": 49.11458333333332,
          "velocity": 0.12598425196850394,
          "duration": 1.7552083333333286
        },
        {
          "name": "G5",
          "midi": 79,
          "time": 50.874999999999986,
          "velocity": 0.3228346456692913,
          "duration": 0.296875
        },
        {
          "name": "F5",
          "midi": 77,
          "time": 51.109374999999986,
          "velocity": 0.1732283464566929,
          "duration": 2.7708333333333357
        },
        {
          "name": "D#5",
          "midi": 75,
          "time": 53.781249999999986,
          "velocity": 0.16535433070866143,
          "duration": 0.2500000000000071
        },
        {
          "name": "C5",
          "midi": 72,
          "time": 54.02604166666666,
          "velocity": 0.23622047244094488,
          "duration": 2.546875
        },
        {
          "name": "G#4",
          "midi": 68,
          "time": 56.70833333333332,
          "velocity": 0.11023622047244094,
          "duration": 0.203125
        },
        {
          "name": "A#4",
          "midi": 70,
          "time": 56.97395833333332,
          "velocity": 0.18110236220472442,
          "duration": 2.640625000000007
        },
        {
          "name": "D#4",
          "midi": 63,
          "time": 56.97395833333332,
          "velocity": 0.2677165354330709,
          "duration": 2.5989583333333357
        },
        {
          "name": "G4",
          "midi": 67,
          "time": 56.97916666666666,
          "velocity": 0.5039370078740157,
          "duration": 2.718750000000007
        },
        {
          "name": "D#5",
          "midi": 75,
          "time": 59.60937499999999,
          "velocity": 0.09448818897637795,
          "duration": 0.3385416666666714
        },
        {
          "name": "D#4",
          "midi": 63,
          "time": 59.869791666666664,
          "velocity": 0.11023622047244094,
          "duration": 1.3697916666666643
        },
        {
          "name": "A#4",
          "midi": 70,
          "time": 59.885416666666664,
          "velocity": 0.11811023622047244,
          "duration": 1.4010416666666643
        },
        {
          "name": "G4",
          "midi": 67,
          "time": 59.90625,
          "velocity": 0.36220472440944884,
          "duration": 1.390624999999993
        },
        {
          "name": "D#4",
          "midi": 63,
          "time": 61.50520833333333,
          "velocity": 0.1968503937007874,
          "duration": 1.0729166666666714
        },
        {
          "name": "G#4",
          "midi": 68,
          "time": 61.510416666666664,
          "velocity": 0.2283464566929134,
          "duration": 1.125000000000007
        },
        {
          "name": "C5",
          "midi": 72,
          "time": 61.515625,
          "velocity": 0.30708661417322836,
          "duration": 1.1041666666666714
        },
        {
          "name": "A#4",
          "midi": 70,
          "time": 62.598958333333336,
          "velocity": 0.2047244094488189,
          "duration": 0.1979166666666643
        },
        {
          "name": "G4",
          "midi": 67,
          "time": 62.677083333333336,
          "velocity": 0.11023622047244094,
          "duration": 0.3281249999999929
        },
        {
          "name": "D#4",
          "midi": 63,
          "time": 62.869791666666664,
          "velocity": 0.2283464566929134,
          "duration": 5.765624999999993
        },
        {
          "name": "C5",
          "midi": 72,
          "time": 62.88020833333333,
          "velocity": 0.6062992125984252,
          "duration": 5.453125
        },
        {
          "name": "G#4",
          "midi": 68,
          "time": 62.89062499999999,
          "velocity": 0.6220472440944882,
          "duration": 5.723958333333336
        },
        {
          "name": "G#4",
          "midi": 68,
          "time": 68.94791666666666,
          "velocity": 0.11811023622047244,
          "duration": 7.020833333333314
        },
        {
          "name": "C5",
          "midi": 72,
          "time": 68.95312499999999,
          "velocity": 0.36220472440944884,
          "duration": 2.6614583333333286
        },
        {
          "name": "F5",
          "midi": 77,
          "time": 68.95312499999999,
          "velocity": 0.3543307086614173,
          "duration": 2.822916666666657
        },
        {
          "name": "D#5",
          "midi": 75,
          "time": 68.95833333333331,
          "velocity": 0.3858267716535433,
          "duration": 2.2864583333333286
        },
        {
          "name": "D#5",
          "midi": 75,
          "time": 71.57291666666664,
          "velocity": 0.16535433070866143,
          "duration": 0.265625
        },
        {
          "name": "C5",
          "midi": 72,
          "time": 71.85416666666664,
          "velocity": 0.3937007874015748,
          "duration": 1.65625
        },
        {
          "name": "A#5",
          "midi": 82,
          "time": 73.46874999999997,
          "velocity": 0.5905511811023622,
          "duration": 1.078125
        },
        {
          "name": "G#5",
          "midi": 80,
          "time": 74.71874999999997,
          "velocity": 0.5826771653543307,
          "duration": 0.1145833333333286
        },
        {
          "name": "C6",
          "midi": 84,
          "time": 74.95312499999997,
          "velocity": 0.6929133858267716,
          "duration": 4.90625
        },
        {
          "name": "C5",
          "midi": 72,
          "time": 81.01041666666664,
          "velocity": 0.1889763779527559,
          "duration": 2.734375
        },
        {
          "name": "A#4",
          "midi": 70,
          "time": 83.67708333333331,
          "velocity": 0.11811023622047244,
          "duration": 0.1510416666666572
        },
        {
          "name": "G4",
          "midi": 67,
          "time": 83.91666666666664,
          "velocity": 0.2677165354330709,
          "duration": 1.354166666666643
        },
        {
          "name": "A#4",
          "midi": 70,
          "time": 83.92187499999997,
          "velocity": 0.2755905511811024,
          "duration": 1.3229166666666572
        },
        {
          "name": "D#4",
          "midi": 63,
          "time": 83.9427083333333,
          "velocity": 0.5590551181102362,
          "duration": 1.3229166666666572
        },
        {
          "name": "G#4",
          "midi": 68,
          "time": 85.21354166666663,
          "velocity": 0.31496062992125984,
          "duration": 0.2031249999999858
        },
        {
          "name": "D#4",
          "midi": 63,
          "time": 85.46874999999994,
          "velocity": 0.5275590551181102,
          "duration": 1.1614583333333428
        },
        {
          "name": "A#4",
          "midi": 70,
          "time": 85.47916666666661,
          "velocity": 0.7165354330708661,
          "duration": 1.2083333333333286
        },
        {
          "name": "G4",
          "midi": 67,
          "time": 85.49479166666661,
          "velocity": 0.47244094488188976,
          "duration": 1.1770833333333286
        },
        {
          "name": "G#4",
          "midi": 68,
          "time": 86.66666666666661,
          "velocity": 0.07874015748031496,
          "duration": 0.11979166666665719
        },
        {
          "name": "G#4",
          "midi": 68,
          "time": 86.88020833333327,
          "velocity": 0.29133858267716534,
          "duration": 3.53125
        },
        {
          "name": "C5",
          "midi": 72,
          "time": 86.89583333333327,
          "velocity": 0.6535433070866141,
          "duration": 2.1041666666666714
        },
        {
          "name": "D#4",
          "midi": 63,
          "time": 86.89583333333327,
          "velocity": 0.7559055118110236,
          "duration": 4.765625
        },
        {
          "name": "G#3",
          "midi": 56,
          "time": 89.92187499999994,
          "velocity": 0.2677165354330709,
          "duration": 2.9739583333333286
        },
        {
          "name": "A#3",
          "midi": 58,
          "time": 92.82812499999994,
          "velocity": 0.09448818897637795,
          "duration": 0.2135416666666572
        },
        {
          "name": "F#3",
          "midi": 54,
          "time": 93.01562499999994,
          "velocity": 0.14173228346456693,
          "duration": 2.5833333333333286
        },
        {
          "name": "G#3",
          "midi": 56,
          "time": 93.02083333333327,
          "velocity": 0.2283464566929134,
          "duration": 2.645833333333343
        },
        {
          "name": "C4",
          "midi": 60,
          "time": 93.0416666666666,
          "velocity": 0.2755905511811024,
          "duration": 2.593750000000014
        },
        {
          "name": "A#3",
          "midi": 58,
          "time": 95.62499999999994,
          "velocity": 0.2047244094488189,
          "duration": 0.296875
        },
        {
          "name": "F#3",
          "midi": 54,
          "time": 95.94791666666661,
          "velocity": 0.41732283464566927,
          "duration": 1.1979166666666714
        },
        {
          "name": "C4",
          "midi": 60,
          "time": 95.96354166666661,
          "velocity": 0.8031496062992126,
          "duration": 1.1197916666666714
        },
        {
          "name": "G#3",
          "midi": 56,
          "time": 95.96874999999994,
          "velocity": 0.5354330708661418,
          "duration": 1.1406250000000142
        },
        {
          "name": "G3",
          "midi": 55,
          "time": 96.05729166666661,
          "velocity": 0.14960629921259844,
          "duration": 0.3125
        },
        {
          "name": "A#3",
          "midi": 58,
          "time": 97.05208333333329,
          "velocity": 0.1968503937007874,
          "duration": 0.34375
        },
        {
          "name": "F#3",
          "midi": 54,
          "time": 97.41145833333329,
          "velocity": 0.2677165354330709,
          "duration": 1.2135416666666714
        },
        {
          "name": "C4",
          "midi": 60,
          "time": 97.42187499999996,
          "velocity": 0.5196850393700787,
          "duration": 0.9635416666666714
        },
        {
          "name": "G#3",
          "midi": 56,
          "time": 97.43229166666663,
          "velocity": 0.5354330708661418,
          "duration": 0.7864583333333286
        },
        {
          "name": "G#3",
          "midi": 56,
          "time": 98.56249999999996,
          "velocity": 0.1968503937007874,
          "duration": 0.140625
        },
        {
          "name": "C4",
          "midi": 60,
          "time": 98.57291666666663,
          "velocity": 0.2992125984251969,
          "duration": 0.1614583333333286
        },
        {
          "name": "A#3",
          "midi": 58,
          "time": 99.08333333333329,
          "velocity": 0.16535433070866143,
          "duration": 1.34375
        },
        {
          "name": "G#3",
          "midi": 56,
          "time": 99.09895833333329,
          "velocity": 0.07086614173228346,
          "duration": 3.8958333333333286
        },
        {
          "name": "C#4",
          "midi": 61,
          "time": 99.27083333333329,
          "velocity": 0.10236220472440945,
          "duration": 2.3958333333333286
        },
        {
          "name": "A#3",
          "midi": 58,
          "time": 100.60416666666661,
          "velocity": 0.05511811023622047,
          "duration": 2.4375
        },
        {
          "name": "A#3",
          "midi": 58,
          "time": 103.42708333333329,
          "velocity": 0.2125984251968504,
          "duration": 0.9479166666666856
        },
        {
          "name": "G#3",
          "midi": 56,
          "time": 103.43749999999996,
          "velocity": 0.2755905511811024,
          "duration": 1.0520833333333428
        },
        {
          "name": "C#4",
          "midi": 61,
          "time": 103.44791666666663,
          "velocity": 0.2125984251968504,
          "duration": 0.8854166666666714
        },
        {
          "name": "A#3",
          "midi": 58,
          "time": 104.62499999999997,
          "velocity": 0.41732283464566927,
          "duration": 0.1666666666666572
        },
        {
          "name": "C#4",
          "midi": 61,
          "time": 104.6614583333333,
          "velocity": 0.12598425196850394,
          "duration": 0.1666666666666572
        },
        {
          "name": "A#3",
          "midi": 58,
          "time": 104.91145833333329,
          "velocity": 0.09448818897637795,
          "duration": 2.656249999999986
        },
        {
          "name": "G#3",
          "midi": 56,
          "time": 104.91145833333329,
          "velocity": 0.23622047244094488,
          "duration": 2.5677083333333286
        },
        {
          "name": "D#4",
          "midi": 63,
          "time": 104.92708333333329,
          "velocity": 0.2204724409448819,
          "duration": 2.588541666666657
        },
        {
          "name": "A#3",
          "midi": 58,
          "time": 107.95833333333327,
          "velocity": 0.14173228346456693,
          "duration": 1.2135416666666714
        },
        {
          "name": "G#3",
          "midi": 56,
          "time": 107.96874999999994,
          "velocity": 0.2992125984251969,
          "duration": 1.2239583333333286
        },
        {
          "name": "F4",
          "midi": 65,
          "time": 107.97395833333327,
          "velocity": 0.4330708661417323,
          "duration": 1.15625
        },
        {
          "name": "D#4",
          "midi": 63,
          "time": 109.0885416666666,
          "velocity": 0.16535433070866143,
          "duration": 0.1458333333333428
        },
        {
          "name": "A#3",
          "midi": 58,
          "time": 109.30208333333327,
          "velocity": 0.25196850393700787,
          "duration": 1.5052083333333428
        },
        {
          "name": "G#3",
          "midi": 56,
          "time": 109.31770833333327,
          "velocity": 0.2283464566929134,
          "duration": 1.4010416666666714
        },
        {
          "name": "D#4",
          "midi": 63,
          "time": 109.32812499999994,
          "velocity": 0.10236220472440945,
          "duration": 1.0677083333333286
        },
        {
          "name": "A#3",
          "midi": 58,
          "time": 110.94270833333329,
          "velocity": 0.1889763779527559,
          "duration": 3.15625
        },
        {
          "name": "G#3",
          "midi": 56,
          "time": 110.94791666666661,
          "velocity": 0.16535433070866143,
          "duration": 2.8072916666666714
        },
        {
          "name": "C#4",
          "midi": 61,
          "time": 111.00520833333329,
          "velocity": 0.007874015748031496,
          "duration": 1.4947916666666714
        },
        {
          "name": "C4",
          "midi": 60,
          "time": 113.97916666666661,
          "velocity": 0.2125984251968504,
          "duration": 2.7916666666666714
        },
        {
          "name": "A#3",
          "midi": 58,
          "time": 116.73437499999996,
          "velocity": 0.13385826771653545,
          "duration": 0.11979166666665719
        },
        {
          "name": "A#3",
          "midi": 58,
          "time": 116.99999999999994,
          "velocity": 0.4566929133858268,
          "duration": 5.3125
        },
        {
          "name": "G3",
          "midi": 55,
          "time": 117.00520833333327,
          "velocity": 0.5118110236220472,
          "duration": 5.588541666666671
        },
        {
          "name": "D#3",
          "midi": 51,
          "time": 117.01562499999994,
          "velocity": 0.11023622047244094,
          "duration": 5.640625
        },
        {
          "name": "D#3",
          "midi": 51,
          "time": 122.95833333333327,
          "velocity": 0.2992125984251969,
          "duration": 5.541666666666643
        },
        {
          "name": "A#3",
          "midi": 58,
          "time": 122.96874999999994,
          "velocity": 0.6614173228346457,
          "duration": 1.484375
        },
        {
          "name": "G3",
          "midi": 55,
          "time": 122.97916666666661,
          "velocity": 0.4645669291338583,
          "duration": 1.4791666666666572
        },
        {
          "name": "C4",
          "midi": 60,
          "time": 124.48958333333327,
          "velocity": 0.4015748031496063,
          "duration": 2.7604166666666714
        },
        {
          "name": "G#3",
          "midi": 56,
          "time": 124.4947916666666,
          "velocity": 0.4566929133858268,
          "duration": 0.125
        },
        {
          "name": "G3",
          "midi": 55,
          "time": 124.53124999999993,
          "velocity": 0.6299212598425197,
          "duration": 0.1197916666666714
        },
        {
          "name": "G#3",
          "midi": 56,
          "time": 125.11458333333327,
          "velocity": 0.047244094488188976,
          "duration": 2.15625
        },
        {
          "name": "G#3",
          "midi": 56,
          "time": 127.4791666666666,
          "velocity": 0.3543307086614173,
          "duration": 0.7291666666666572
        },
        {
          "name": "C4",
          "midi": 60,
          "time": 127.48437499999993,
          "velocity": 0.6062992125984252,
          "duration": 0.7864583333333286
        },
        {
          "name": "G4",
          "midi": 67,
          "time": 128.99999999999991,
          "velocity": 0.4566929133858268,
          "duration": 2.578125
        },
        {
          "name": "D#4",
          "midi": 63,
          "time": 128.99999999999991,
          "velocity": 0.36220472440944884,
          "duration": 2.510416666666657
        },
        {
          "name": "G#3",
          "midi": 56,
          "time": 128.99999999999991,
          "velocity": 0.2440944881889764,
          "duration": 2.609375
        },
        {
          "name": "C4",
          "midi": 60,
          "time": 129.01041666666657,
          "velocity": 0.4330708661417323,
          "duration": 2.640625
        },
        {
          "name": "A#4",
          "midi": 70,
          "time": 132.11458333333323,
          "velocity": 0.09448818897637795,
          "duration": 1.6041666666666856
        },
        {
          "name": "G4",
          "midi": 67,
          "time": 132.13020833333323,
          "velocity": 0.49606299212598426,
          "duration": 1.4270833333333428
        },
        {
          "name": "G#3",
          "midi": 56,
          "time": 132.13541666666657,
          "velocity": 0.1732283464566929,
          "duration": 2.5416666666666856
        },
        {
          "name": "C4",
          "midi": 60,
          "time": 132.13541666666657,
          "velocity": 0.25196850393700787,
          "duration": 2.505208333333343
        },
        {
          "name": "G#4",
          "midi": 68,
          "time": 133.52604166666657,
          "velocity": 0.4015748031496063,
          "duration": 1.1614583333333428
        },
        {
          "name": "F#4",
          "midi": 66,
          "time": 134.66145833333326,
          "velocity": 0.28346456692913385,
          "duration": 0.19270833333331439
        },
        {
          "name": "F#4",
          "midi": 66,
          "time": 134.96354166666657,
          "velocity": 0.30708661417322836,
          "duration": 2.817708333333343
        },
        {
          "name": "A#4",
          "midi": 70,
          "time": 134.96874999999991,
          "velocity": 0.6692913385826772,
          "duration": 2.8333333333333144
        },
        {
          "name": "G#3",
          "midi": 56,
          "time": 134.98437499999991,
          "velocity": 0.3779527559055118,
          "duration": 2.786458333333343
        },
        {
          "name": "C4",
          "midi": 60,
          "time": 134.98958333333326,
          "velocity": 0.4094488188976378,
          "duration": 2.744791666666657
        },
        {
          "name": "G#4",
          "midi": 68,
          "time": 137.79166666666657,
          "velocity": 0.12598425196850394,
          "duration": 0.3697916666666572
        },
        {
          "name": "G#3",
          "midi": 56,
          "time": 138.07291666666657,
          "velocity": 0.4330708661417323,
          "duration": 1.0416666666666856
        },
        {
          "name": "C4",
          "midi": 60,
          "time": 138.08333333333323,
          "velocity": 0.44881889763779526,
          "duration": 1.0052083333333428
        },
        {
          "name": "A#4",
          "midi": 70,
          "time": 138.10416666666657,
          "velocity": 0.4409448818897638,
          "duration": 1
        },
        {
          "name": "F#4",
          "midi": 66,
          "time": 138.11979166666657,
          "velocity": 0.47244094488188976,
          "duration": 0.9895833333333428
        },
        {
          "name": "G#4",
          "midi": 68,
          "time": 139.05208333333323,
          "velocity": 0.5039370078740157,
          "duration": 0.40104166666671404
        },
        {
          "name": "G#3",
          "midi": 56,
          "time": 139.3854166666666,
          "velocity": 0.5275590551181102,
          "duration": 1.2135416666666856
        },
        {
          "name": "C4",
          "midi": 60,
          "time": 139.39062499999994,
          "velocity": 0.5826771653543307,
          "duration": 1.2447916666666856
        },
        {
          "name": "A#4",
          "midi": 70,
          "time": 139.4010416666666,
          "velocity": 0.4645669291338583,
          "duration": 1.2604166666666856
        },
        {
          "name": "F#4",
          "midi": 66,
          "time": 139.4322916666666,
          "velocity": 0.49606299212598426,
          "duration": 1.2187500000000284
        },
        {
          "name": "G#4",
          "midi": 68,
          "time": 140.59374999999994,
          "velocity": 0.5511811023622047,
          "duration": 0.18229166666668561
        },
        {
          "name": "C5",
          "midi": 72,
          "time": 140.96354166666663,
          "velocity": 0.2047244094488189,
          "duration": 1.4791666666666572
        },
        {
          "name": "G#3",
          "midi": 56,
          "time": 140.9739583333333,
          "velocity": 0.4409448818897638,
          "duration": 1.1666666666666572
        },
        {
          "name": "C4",
          "midi": 60,
          "time": 141.1614583333333,
          "velocity": 0.007874015748031496,
          "duration": 1.125
        },
        {
          "name": "A#4",
          "midi": 70,
          "time": 143.5364583333333,
          "velocity": 0.2204724409448819,
          "duration": 0.421875
        },
        {
          "name": "G#3",
          "midi": 56,
          "time": 143.93749999999994,
          "velocity": 0.2204724409448819,
          "duration": 2.9010416666666856
        },
        {
          "name": "C4",
          "midi": 60,
          "time": 143.93749999999994,
          "velocity": 0.3228346456692913,
          "duration": 2.864583333333343
        },
        {
          "name": "G#3",
          "midi": 56,
          "time": 147.0364583333333,
          "velocity": 0.1889763779527559,
          "duration": 7.302083333333343
        },
        {
          "name": "C4",
          "midi": 60,
          "time": 147.0364583333333,
          "velocity": 0.4251968503937008,
          "duration": 2.989583333333343
        },
        {
          "name": "G#4",
          "midi": 68,
          "time": 147.0364583333333,
          "velocity": 0.7165354330708661,
          "duration": 0.671875
        },
        {
          "name": "D#4",
          "midi": 63,
          "time": 152.82812499999997,
          "velocity": 0.11023622047244094,
          "duration": 0.2552083333333144
        },
        {
          "name": "C4",
          "midi": 60,
          "time": 153.04166666666663,
          "velocity": 0.23622047244094488,
          "duration": 2.583333333333343
        },
        {
          "name": "G#3",
          "midi": 56,
          "time": 155.95833333333331,
          "velocity": 0.10236220472440945,
          "duration": 2.557291666666657
        },
        {
          "name": "A#3",
          "midi": 58,
          "time": 155.99479166666666,
          "velocity": 0.2047244094488189,
          "duration": 2.416666666666657
        },
        {
          "name": "D#4",
          "midi": 63,
          "time": 156.00520833333331,
          "velocity": 0.14173228346456693,
          "duration": 1.9375
        },
        {
          "name": "A#3",
          "midi": 58,
          "time": 158.67708333333331,
          "velocity": 0.1732283464566929,
          "duration": 0.1354166666666572
        },
        {
          "name": "G#3",
          "midi": 56,
          "time": 158.97395833333331,
          "velocity": 0.23622047244094488,
          "duration": 2.5312500000000284
        },
        {
          "name": "A#3",
          "midi": 58,
          "time": 158.98958333333331,
          "velocity": 0.33858267716535434,
          "duration": 2.3229166666666856
        },
        {
          "name": "F3",
          "midi": 53,
          "time": 159.00520833333331,
          "velocity": 0.09448818897637795,
          "duration": 2.4479166666666856
        },
        {
          "name": "C4",
          "midi": 60,
          "time": 159.01041666666666,
          "velocity": 0.28346456692913385,
          "duration": 2.661458333333343
        },
        {
          "name": "A#3",
          "midi": 58,
          "time": 161.68229166666666,
          "velocity": 0.09448818897637795,
          "duration": 0.11458333333334281
        },
        {
          "name": "A#3",
          "midi": 58,
          "time": 161.93229166666666,
          "velocity": 0.1732283464566929,
          "duration": 2.4062500000000284
        },
        {
          "name": "D#3",
          "midi": 51,
          "time": 161.9375,
          "velocity": 0.11811023622047244,
          "duration": 2.6718750000000284
        },
        {
          "name": "G#3",
          "midi": 56,
          "time": 161.94270833333334,
          "velocity": 0.2440944881889764,
          "duration": 2.614583333333343
        },
        {
          "name": "C4",
          "midi": 60,
          "time": 162.02083333333334,
          "velocity": 0.2440944881889764,
          "duration": 2.661458333333343
        },
        {
          "name": "A#3",
          "midi": 58,
          "time": 164.68750000000003,
          "velocity": 0.09448818897637795,
          "duration": 0.1875
        },
        {
          "name": "G#3",
          "midi": 56,
          "time": 164.94270833333337,
          "velocity": 0.2125984251968504,
          "duration": 5.760416666666629
        },
        {
          "name": "A#3",
          "midi": 58,
          "time": 164.94270833333337,
          "velocity": 0.09448818897637795,
          "duration": 4.203124999999972
        },
        {
          "name": "D#3",
          "midi": 51,
          "time": 164.98437500000003,
          "velocity": 0.07086614173228346,
          "duration": 5.692708333333314
        },
        {
          "name": "D#4",
          "midi": 63,
          "time": 164.98437500000003,
          "velocity": 0.11023622047244094,
          "duration": 4.072916666666657
        },
        {
          "name": "A#3",
          "midi": 58,
          "time": 169.50520833333334,
          "velocity": 0.2755905511811024,
          "duration": 1.1875
        },
        {
          "name": "C4",
          "midi": 60,
          "time": 170.85416666666666,
          "velocity": 0.05511811023622047,
          "duration": 0.2760416666666572
        },
        {
          "name": "D#4",
          "midi": 63,
          "time": 171.015625,
          "velocity": 0.23622047244094488,
          "duration": 2.8125
        },
        {
          "name": "G#3",
          "midi": 56,
          "time": 171.02604166666666,
          "velocity": 0.12598425196850394,
          "duration": 5.640625000000028
        },
        {
          "name": "D#3",
          "midi": 51,
          "time": 171.08333333333331,
          "velocity": 0.03937007874015748,
          "duration": 3.5937500000000284
        },
        {
          "name": "F4",
          "midi": 65,
          "time": 173.80729166666666,
          "velocity": 0.2204724409448819,
          "duration": 0.2395833333333428
        },
        {
          "name": "D#4",
          "midi": 63,
          "time": 174.00520833333334,
          "velocity": 0.2204724409448819,
          "duration": 2.9375
        },
        {
          "name": "C4",
          "midi": 60,
          "time": 176.97395833333334,
          "velocity": 0.23622047244094488,
          "duration": 5.666666666666657
        },
        {
          "name": "G#3",
          "midi": 56,
          "time": 177,
          "velocity": 0.11023622047244094,
          "duration": 5.598958333333343
        }
      ],
      "controlChanges": {},
      "id": 0,
      "name": "8 2-Grand Piano",
      "channelNumber": 0,
      "isPercussion": false
    }
  ]
}