{
  "header": {
    "PPQ": 960,
    "timeSignature": [
      6,
      8
    ],
    "bpm": 105.000105000105,
    "name": "Westworld Main Theme"
  },
  "startTime": 0,
  "duration": 105.14275199999999,
  "tracks": [
    {
      "startTime": 0,
      "duration": 0,
      "length": 0,
      "notes": [],
      "controlChanges": {},
      "id": 0,
      "name": "Westworld Main Theme"
    },
    {
      "startTime": 0,
      "duration": 105.14275199999999,
      "length": 582,
      "notes": [
        {
          "name": "A1",
          "midi": 33,
          "time": 0,
          "velocity": 0.5511811023622047,
          "duration": 1.7142840000000001
        },
        {
          "name": "A2",
          "midi": 45,
          "time": 0,
          "velocity": 0.5669291338582677,
          "duration": 0.285714
        },
        {
          "name": "A2",
          "midi": 45,
          "time": 0.285714,
          "velocity": 0.6062992125984252,
          "duration": 0.285714
        },
        {
          "name": "A2",
          "midi": 45,
          "time": 0.571428,
          "velocity": 0.5748031496062992,
          "duration": 0.285714
        },
        {
          "name": "A2",
          "midi": 45,
          "time": 0.8571420000000001,
          "velocity": 0.5826771653543307,
          "duration": 0.285714
        },
        {
          "name": "A2",
          "midi": 45,
          "time": 1.142856,
          "velocity": 0.6220472440944882,
          "duration": 0.285714
        },
        {
          "name": "A2",
          "midi": 45,
          "time": 1.4285700000000001,
          "velocity": 0.6062992125984252,
          "duration": 0.285714
        },
        {
          "name": "A1",
          "midi": 33,
          "time": 1.7142840000000001,
          "velocity": 0.5669291338582677,
          "duration": 1.4285700000000001
        },
        {
          "name": "A2",
          "midi": 45,
          "time": 1.7142840000000001,
          "velocity": 0.6220472440944882,
          "duration": 0.285714
        },
        {
          "name": "A2",
          "midi": 45,
          "time": 1.9999980000000002,
          "velocity": 0.5826771653543307,
          "duration": 0.285714
        },
        {
          "name": "A2",
          "midi": 45,
          "time": 2.285712,
          "velocity": 0.6220472440944882,
          "duration": 0.285714
        },
        {
          "name": "A2",
          "midi": 45,
          "time": 2.571426,
          "velocity": 0.6141732283464567,
          "duration": 0.285714
        },
        {
          "name": "A2",
          "midi": 45,
          "time": 2.8571400000000002,
          "velocity": 0.5669291338582677,
          "duration": 0.285714
        },
        {
          "name": "G1",
          "midi": 31,
          "time": 3.1428540000000003,
          "velocity": 0.5826771653543307,
          "duration": 0.285714
        },
        {
          "name": "G2",
          "midi": 43,
          "time": 3.1428540000000003,
          "velocity": 0.5984251968503937,
          "duration": 0.285714
        },
        {
          "name": "F1",
          "midi": 29,
          "time": 3.4285680000000003,
          "velocity": 0.5748031496062992,
          "duration": 1.714284000000001
        },
        {
          "name": "F2",
          "midi": 41,
          "time": 3.4285680000000003,
          "velocity": 0.5748031496062992,
          "duration": 0.285714
        },
        {
          "name": "F2",
          "midi": 41,
          "time": 3.7142820000000003,
          "velocity": 0.6299212598425197,
          "duration": 0.285714
        },
        {
          "name": "F2",
          "midi": 41,
          "time": 3.9999960000000003,
          "velocity": 0.5748031496062992,
          "duration": 0.2857139999999996
        },
        {
          "name": "F2",
          "midi": 41,
          "time": 4.28571,
          "velocity": 0.6377952755905512,
          "duration": 0.28571400000000047
        },
        {
          "name": "F2",
          "midi": 41,
          "time": 4.571424,
          "velocity": 0.6062992125984252,
          "duration": 0.28571400000000047
        },
        {
          "name": "F2",
          "midi": 41,
          "time": 4.857138000000001,
          "velocity": 0.5905511811023622,
          "duration": 0.28571400000000047
        },
        {
          "name": "F1",
          "midi": 29,
          "time": 5.142852000000001,
          "velocity": 0.6141732283464567,
          "duration": 1.7142840000000028
        },
        {
          "name": "F2",
          "midi": 41,
          "time": 5.142852000000001,
          "velocity": 0.5590551181102362,
          "duration": 0.28571400000000047
        },
        {
          "name": "F2",
          "midi": 41,
          "time": 5.428566000000002,
          "velocity": 0.5905511811023622,
          "duration": 0.28571400000000047
        },
        {
          "name": "F2",
          "midi": 41,
          "time": 5.714280000000002,
          "velocity": 0.5905511811023622,
          "duration": 0.28571400000000047
        },
        {
          "name": "F2",
          "midi": 41,
          "time": 5.999994000000003,
          "velocity": 0.5905511811023622,
          "duration": 0.28571400000000047
        },
        {
          "name": "F2",
          "midi": 41,
          "time": 6.285708000000003,
          "velocity": 0.5905511811023622,
          "duration": 0.28571400000000047
        },
        {
          "name": "F2",
          "midi": 41,
          "time": 6.571422000000004,
          "velocity": 0.5748031496062992,
          "duration": 0.28571400000000047
        },
        {
          "name": "A3",
          "midi": 57,
          "time": 6.857136000000004,
          "velocity": 0.5669291338582677,
          "duration": 0.8571420000000014
        },
        {
          "name": "A1",
          "midi": 33,
          "time": 6.857136000000004,
          "velocity": 0.6771653543307087,
          "duration": 1.7142840000000028
        },
        {
          "name": "A2",
          "midi": 45,
          "time": 6.857136000000004,
          "velocity": 0.6141732283464567,
          "duration": 0.28571400000000047
        },
        {
          "name": "A2",
          "midi": 45,
          "time": 7.142850000000005,
          "velocity": 0.6299212598425197,
          "duration": 0.28571400000000047
        },
        {
          "name": "A2",
          "midi": 45,
          "time": 7.428564000000005,
          "velocity": 0.6299212598425197,
          "duration": 0.28571400000000047
        },
        {
          "name": "C4",
          "midi": 60,
          "time": 7.7142780000000055,
          "velocity": 0.6299212598425197,
          "duration": 0.8571420000000014
        },
        {
          "name": "A2",
          "midi": 45,
          "time": 7.7142780000000055,
          "velocity": 0.6062992125984252,
          "duration": 0.28571400000000047
        },
        {
          "name": "A2",
          "midi": 45,
          "time": 7.999992000000006,
          "velocity": 0.6141732283464567,
          "duration": 0.28571400000000047
        },
        {
          "name": "A2",
          "midi": 45,
          "time": 8.285706000000006,
          "velocity": 0.5905511811023622,
          "duration": 0.28571400000000047
        },
        {
          "name": "D4",
          "midi": 62,
          "time": 8.571420000000007,
          "velocity": 0.6062992125984252,
          "duration": 0.8571420000000014
        },
        {
          "name": "A1",
          "midi": 33,
          "time": 8.571420000000007,
          "velocity": 0.5826771653543307,
          "duration": 1.4285700000000023
        },
        {
          "name": "A2",
          "midi": 45,
          "time": 8.571420000000007,
          "velocity": 0.6141732283464567,
          "duration": 0.28571400000000047
        },
        {
          "name": "A2",
          "midi": 45,
          "time": 8.857134000000007,
          "velocity": 0.5905511811023622,
          "duration": 0.28571400000000047
        },
        {
          "name": "A2",
          "midi": 45,
          "time": 9.142848000000008,
          "velocity": 0.5905511811023622,
          "duration": 0.28571400000000047
        },
        {
          "name": "E4",
          "midi": 64,
          "time": 9.428562000000008,
          "velocity": 0.5984251968503937,
          "duration": 2.571426000000004
        },
        {
          "name": "A2",
          "midi": 45,
          "time": 9.428562000000008,
          "velocity": 0.5590551181102362,
          "duration": 0.28571400000000047
        },
        {
          "name": "A2",
          "midi": 45,
          "time": 9.714276000000009,
          "velocity": 0.5433070866141733,
          "duration": 0.28571400000000047
        },
        {
          "name": "G1",
          "midi": 31,
          "time": 9.99999000000001,
          "velocity": 0.5984251968503937,
          "duration": 0.28571400000000047
        },
        {
          "name": "G2",
          "midi": 43,
          "time": 9.99999000000001,
          "velocity": 0.5511811023622047,
          "duration": 0.28571400000000047
        },
        {
          "name": "F1",
          "midi": 29,
          "time": 10.28570400000001,
          "velocity": 0.5748031496062992,
          "duration": 1.7142840000000028
        },
        {
          "name": "F2",
          "midi": 41,
          "time": 10.28570400000001,
          "velocity": 0.5984251968503937,
          "duration": 0.28571400000000047
        },
        {
          "name": "F2",
          "midi": 41,
          "time": 10.57141800000001,
          "velocity": 0.5826771653543307,
          "duration": 0.28571400000000047
        },
        {
          "name": "F2",
          "midi": 41,
          "time": 10.85713200000001,
          "velocity": 0.5748031496062992,
          "duration": 0.28571400000000047
        },
        {
          "name": "F2",
          "midi": 41,
          "time": 11.142846000000011,
          "velocity": 0.5905511811023622,
          "duration": 0.28571400000000047
        },
        {
          "name": "F2",
          "midi": 41,
          "time": 11.428560000000012,
          "velocity": 0.6141732283464567,
          "duration": 0.28571400000000047
        },
        {
          "name": "F2",
          "midi": 41,
          "time": 11.714274000000012,
          "velocity": 0.5905511811023622,
          "duration": 0.28571400000000047
        },
        {
          "name": "F1",
          "midi": 29,
          "time": 11.999988000000013,
          "velocity": 0.6141732283464567,
          "duration": 1.7142840000000028
        },
        {
          "name": "F2",
          "midi": 41,
          "time": 11.999988000000013,
          "velocity": 0.6299212598425197,
          "duration": 0.28571400000000047
        },
        {
          "name": "F2",
          "midi": 41,
          "time": 12.285702000000013,
          "velocity": 0.5905511811023622,
          "duration": 0.28571400000000047
        },
        {
          "name": "F2",
          "midi": 41,
          "time": 12.571416000000013,
          "velocity": 0.6141732283464567,
          "duration": 0.28571400000000047
        },
        {
          "name": "F2",
          "midi": 41,
          "time": 12.857130000000014,
          "velocity": 0.5905511811023622,
          "duration": 0.28571400000000047
        },
        {
          "name": "F2",
          "midi": 41,
          "time": 13.142844000000014,
          "velocity": 0.6062992125984252,
          "duration": 0.28571400000000047
        },
        {
          "name": "F2",
          "midi": 41,
          "time": 13.428558000000015,
          "velocity": 0.5669291338582677,
          "duration": 0.28571400000000047
        },
        {
          "name": "A1",
          "midi": 33,
          "time": 13.714272000000015,
          "velocity": 0.6299212598425197,
          "duration": 1.7142840000000028
        },
        {
          "name": "A2",
          "midi": 45,
          "time": 13.714272000000015,
          "velocity": 0.6692913385826772,
          "duration": 0.28571400000000047
        },
        {
          "name": "A2",
          "midi": 45,
          "time": 13.999986000000016,
          "velocity": 0.5984251968503937,
          "duration": 0.28571400000000047
        },
        {
          "name": "A2",
          "midi": 45,
          "time": 14.285700000000016,
          "velocity": 0.5905511811023622,
          "duration": 0.28571400000000047
        },
        {
          "name": "E4",
          "midi": 64,
          "time": 14.571414000000017,
          "velocity": 0.5433070866141733,
          "duration": 0.8571420000000014
        },
        {
          "name": "A2",
          "midi": 45,
          "time": 14.571414000000017,
          "velocity": 0.6062992125984252,
          "duration": 0.28571400000000047
        },
        {
          "name": "A2",
          "midi": 45,
          "time": 14.857128000000017,
          "velocity": 0.5748031496062992,
          "duration": 0.28571400000000047
        },
        {
          "name": "A2",
          "midi": 45,
          "time": 15.142842000000018,
          "velocity": 0.5511811023622047,
          "duration": 0.28571400000000047
        },
        {
          "name": "D4",
          "midi": 62,
          "time": 15.428556000000018,
          "velocity": 0.5433070866141733,
          "duration": 0.8571419999999996
        },
        {
          "name": "A1",
          "midi": 33,
          "time": 15.428556000000018,
          "velocity": 0.5984251968503937,
          "duration": 1.428569999999997
        },
        {
          "name": "A2",
          "midi": 45,
          "time": 15.428556000000018,
          "velocity": 0.5984251968503937,
          "duration": 0.28571400000000047
        },
        {
          "name": "A2",
          "midi": 45,
          "time": 15.714270000000019,
          "velocity": 0.6220472440944882,
          "duration": 0.28571400000000047
        },
        {
          "name": "A2",
          "midi": 45,
          "time": 15.999984000000019,
          "velocity": 0.6377952755905512,
          "duration": 0.2857139999999987
        },
        {
          "name": "C4",
          "midi": 60,
          "time": 16.285698000000018,
          "velocity": 0.5748031496062992,
          "duration": 0.8571419999999961
        },
        {
          "name": "A2",
          "midi": 45,
          "time": 16.285698000000018,
          "velocity": 0.5984251968503937,
          "duration": 0.2857139999999987
        },
        {
          "name": "A2",
          "midi": 45,
          "time": 16.571412000000016,
          "velocity": 0.5984251968503937,
          "duration": 0.2857139999999987
        },
        {
          "name": "G1",
          "midi": 31,
          "time": 16.857126000000015,
          "velocity": 0.6141732283464567,
          "duration": 0.2857139999999987
        },
        {
          "name": "G2",
          "midi": 43,
          "time": 16.857126000000015,
          "velocity": 0.5905511811023622,
          "duration": 0.2857139999999987
        },
        {
          "name": "A3",
          "midi": 57,
          "time": 17.142840000000014,
          "velocity": 0.5511811023622047,
          "duration": 1.7142839999999921
        },
        {
          "name": "F1",
          "midi": 29,
          "time": 17.142840000000014,
          "velocity": 0.5669291338582677,
          "duration": 1.7142839999999921
        },
        {
          "name": "F2",
          "midi": 41,
          "time": 17.142840000000014,
          "velocity": 0.5511811023622047,
          "duration": 0.2857139999999987
        },
        {
          "name": "F2",
          "midi": 41,
          "time": 17.428554000000013,
          "velocity": 0.6062992125984252,
          "duration": 0.2857139999999987
        },
        {
          "name": "F2",
          "midi": 41,
          "time": 17.71426800000001,
          "velocity": 0.6062992125984252,
          "duration": 0.2857139999999987
        },
        {
          "name": "F2",
          "midi": 41,
          "time": 17.99998200000001,
          "velocity": 0.6062992125984252,
          "duration": 0.2857139999999987
        },
        {
          "name": "F2",
          "midi": 41,
          "time": 18.28569600000001,
          "velocity": 0.5905511811023622,
          "duration": 0.2857139999999987
        },
        {
          "name": "F2",
          "midi": 41,
          "time": 18.571410000000007,
          "velocity": 0.6299212598425197,
          "duration": 0.2857139999999987
        },
        {
          "name": "F1",
          "midi": 29,
          "time": 18.857124000000006,
          "velocity": 0.6062992125984252,
          "duration": 1.7142839999999921
        },
        {
          "name": "F2",
          "midi": 41,
          "time": 18.857124000000006,
          "velocity": 0.5748031496062992,
          "duration": 0.2857139999999987
        },
        {
          "name": "F2",
          "midi": 41,
          "time": 19.142838000000005,
          "velocity": 0.5984251968503937,
          "duration": 0.2857139999999987
        },
        {
          "name": "F2",
          "midi": 41,
          "time": 19.428552000000003,
          "velocity": 0.5748031496062992,
          "duration": 0.2857139999999987
        },
        {
          "name": "F2",
          "midi": 41,
          "time": 19.714266000000002,
          "velocity": 0.5984251968503937,
          "duration": 0.2857139999999987
        },
        {
          "name": "F2",
          "midi": 41,
          "time": 19.99998,
          "velocity": 0.5905511811023622,
          "duration": 0.2857139999999987
        },
        {
          "name": "F2",
          "midi": 41,
          "time": 20.285694,
          "velocity": 0.6141732283464567,
          "duration": 0.2857139999999987
        },
        {
          "name": "A3",
          "midi": 57,
          "time": 20.571407999999998,
          "velocity": 0.5905511811023622,
          "duration": 0.8571419999999961
        },
        {
          "name": "A1",
          "midi": 33,
          "time": 20.571407999999998,
          "velocity": 0.6535433070866141,
          "duration": 1.7142839999999921
        },
        {
          "name": "A2",
          "midi": 45,
          "time": 20.571407999999998,
          "velocity": 0.6377952755905512,
          "duration": 0.2857139999999987
        },
        {
          "name": "A2",
          "midi": 45,
          "time": 20.857121999999997,
          "velocity": 0.6062992125984252,
          "duration": 0.2857139999999987
        },
        {
          "name": "A2",
          "midi": 45,
          "time": 21.142835999999996,
          "velocity": 0.5433070866141733,
          "duration": 0.2857139999999987
        },
        {
          "name": "C4",
          "midi": 60,
          "time": 21.428549999999994,
          "velocity": 0.6692913385826772,
          "duration": 0.8571419999999961
        },
        {
          "name": "A2",
          "midi": 45,
          "time": 21.428549999999994,
          "velocity": 0.5748031496062992,
          "duration": 0.2857139999999987
        },
        {
          "name": "A2",
          "midi": 45,
          "time": 21.714263999999993,
          "velocity": 0.6377952755905512,
          "duration": 0.2857139999999987
        },
        {
          "name": "A2",
          "midi": 45,
          "time": 21.99997799999999,
          "velocity": 0.5826771653543307,
          "duration": 0.2857139999999987
        },
        {
          "name": "D4",
          "midi": 62,
          "time": 22.28569199999999,
          "velocity": 0.6220472440944882,
          "duration": 0.8571419999999961
        },
        {
          "name": "A1",
          "midi": 33,
          "time": 22.28569199999999,
          "velocity": 0.5905511811023622,
          "duration": 1.4285699999999935
        },
        {
          "name": "A2",
          "midi": 45,
          "time": 22.28569199999999,
          "velocity": 0.6299212598425197,
          "duration": 0.2857139999999987
        },
        {
          "name": "A2",
          "midi": 45,
          "time": 22.57140599999999,
          "velocity": 0.5826771653543307,
          "duration": 0.2857139999999987
        },
        {
          "name": "A2",
          "midi": 45,
          "time": 22.857119999999988,
          "velocity": 0.5905511811023622,
          "duration": 0.2857139999999987
        },
        {
          "name": "E4",
          "midi": 64,
          "time": 23.142833999999986,
          "velocity": 0.6299212598425197,
          "duration": 2.571425999999988
        },
        {
          "name": "A2",
          "midi": 45,
          "time": 23.142833999999986,
          "velocity": 0.6062992125984252,
          "duration": 0.2857139999999987
        },
        {
          "name": "A2",
          "midi": 45,
          "time": 23.428547999999985,
          "velocity": 0.5826771653543307,
          "duration": 0.2857139999999987
        },
        {
          "name": "G1",
          "midi": 31,
          "time": 23.714261999999984,
          "velocity": 0.5590551181102362,
          "duration": 0.2857139999999987
        },
        {
          "name": "G2",
          "midi": 43,
          "time": 23.714261999999984,
          "velocity": 0.5590551181102362,
          "duration": 0.2857139999999987
        },
        {
          "name": "E1",
          "midi": 28,
          "time": 23.999975999999982,
          "velocity": 0.5826771653543307,
          "duration": 1.7142839999999921
        },
        {
          "name": "E2",
          "midi": 40,
          "time": 23.999975999999982,
          "velocity": 0.5826771653543307,
          "duration": 0.2857139999999987
        },
        {
          "name": "E2",
          "midi": 40,
          "time": 24.28568999999998,
          "velocity": 0.5984251968503937,
          "duration": 0.2857139999999987
        },
        {
          "name": "E2",
          "midi": 40,
          "time": 24.57140399999998,
          "velocity": 0.6062992125984252,
          "duration": 0.2857139999999987
        },
        {
          "name": "E2",
          "midi": 40,
          "time": 24.85711799999998,
          "velocity": 0.6062992125984252,
          "duration": 0.2857139999999987
        },
        {
          "name": "E2",
          "midi": 40,
          "time": 25.142831999999977,
          "velocity": 0.5354330708661418,
          "duration": 0.2857139999999987
        },
        {
          "name": "E2",
          "midi": 40,
          "time": 25.428545999999976,
          "velocity": 0.5905511811023622,
          "duration": 0.2857139999999987
        },
        {
          "name": "E1",
          "midi": 28,
          "time": 25.714259999999975,
          "velocity": 0.5905511811023622,
          "duration": 1.7142839999999921
        },
        {
          "name": "E2",
          "midi": 40,
          "time": 25.714259999999975,
          "velocity": 0.5984251968503937,
          "duration": 0.2857139999999987
        },
        {
          "name": "E2",
          "midi": 40,
          "time": 25.999973999999973,
          "velocity": 0.6299212598425197,
          "duration": 0.2857139999999987
        },
        {
          "name": "E2",
          "midi": 40,
          "time": 26.285687999999972,
          "velocity": 0.5748031496062992,
          "duration": 0.2857139999999987
        },
        {
          "name": "E2",
          "midi": 40,
          "time": 26.57140199999997,
          "velocity": 0.6062992125984252,
          "duration": 0.2857139999999987
        },
        {
          "name": "E2",
          "midi": 40,
          "time": 26.85711599999997,
          "velocity": 0.6062992125984252,
          "duration": 0.2857139999999987
        },
        {
          "name": "E2",
          "midi": 40,
          "time": 27.142829999999968,
          "velocity": 0.5511811023622047,
          "duration": 0.2857139999999987
        },
        {
          "name": "A#1",
          "midi": 34,
          "time": 27.428543999999967,
          "velocity": 0.6220472440944882,
          "duration": 1.7142839999999921
        },
        {
          "name": "A#2",
          "midi": 46,
          "time": 27.428543999999967,
          "velocity": 0.6141732283464567,
          "duration": 0.2857139999999987
        },
        {
          "name": "A#2",
          "midi": 46,
          "time": 27.714257999999965,
          "velocity": 0.6141732283464567,
          "duration": 0.2857139999999987
        },
        {
          "name": "A#2",
          "midi": 46,
          "time": 27.999971999999964,
          "velocity": 0.5984251968503937,
          "duration": 0.2857139999999987
        },
        {
          "name": "F4",
          "midi": 65,
          "time": 28.285685999999963,
          "velocity": 0.5669291338582677,
          "duration": 0.8571419999999961
        },
        {
          "name": "A#2",
          "midi": 46,
          "time": 28.285685999999963,
          "velocity": 0.5826771653543307,
          "duration": 0.2857139999999987
        },
        {
          "name": "A#2",
          "midi": 46,
          "time": 28.57139999999996,
          "velocity": 0.6141732283464567,
          "duration": 0.2857139999999987
        },
        {
          "name": "A#2",
          "midi": 46,
          "time": 28.85711399999996,
          "velocity": 0.6062992125984252,
          "duration": 0.2857139999999987
        },
        {
          "name": "E4",
          "midi": 64,
          "time": 29.14282799999996,
          "velocity": 0.5826771653543307,
          "duration": 0.8571419999999961
        },
        {
          "name": "A#1",
          "midi": 34,
          "time": 29.14282799999996,
          "velocity": 0.5590551181102362,
          "duration": 1.7142839999999921
        },
        {
          "name": "A#2",
          "midi": 46,
          "time": 29.14282799999996,
          "velocity": 0.6062992125984252,
          "duration": 0.2857139999999987
        },
        {
          "name": "A#2",
          "midi": 46,
          "time": 29.428541999999958,
          "velocity": 0.5511811023622047,
          "duration": 0.2857139999999987
        },
        {
          "name": "A#2",
          "midi": 46,
          "time": 29.714255999999956,
          "velocity": 0.5826771653543307,
          "duration": 0.2857139999999987
        },
        {
          "name": "D4",
          "midi": 62,
          "time": 29.999969999999955,
          "velocity": 0.5354330708661418,
          "duration": 0.8571419999999961
        },
        {
          "name": "A#2",
          "midi": 46,
          "time": 29.999969999999955,
          "velocity": 0.5905511811023622,
          "duration": 0.2857139999999987
        },
        {
          "name": "A#2",
          "midi": 46,
          "time": 30.285683999999954,
          "velocity": 0.6220472440944882,
          "duration": 0.2857139999999987
        },
        {
          "name": "A#2",
          "midi": 46,
          "time": 30.571397999999952,
          "velocity": 0.5984251968503937,
          "duration": 0.2857139999999987
        },
        {
          "name": "E4",
          "midi": 64,
          "time": 30.85711199999995,
          "velocity": 0.6062992125984252,
          "duration": 1.7142839999999921
        },
        {
          "name": "A1",
          "midi": 33,
          "time": 30.85711199999995,
          "velocity": 0.5826771653543307,
          "duration": 1.7142839999999921
        },
        {
          "name": "A2",
          "midi": 45,
          "time": 30.85711199999995,
          "velocity": 0.5984251968503937,
          "duration": 0.2857139999999987
        },
        {
          "name": "A2",
          "midi": 45,
          "time": 31.14282599999995,
          "velocity": 0.6377952755905512,
          "duration": 0.2857139999999987
        },
        {
          "name": "A2",
          "midi": 45,
          "time": 31.42853999999995,
          "velocity": 0.5905511811023622,
          "duration": 0.2857139999999987
        },
        {
          "name": "A2",
          "midi": 45,
          "time": 31.714253999999947,
          "velocity": 0.6220472440944882,
          "duration": 0.2857139999999987
        },
        {
          "name": "A2",
          "midi": 45,
          "time": 31.999967999999946,
          "velocity": 0.5748031496062992,
          "duration": 0.2857139999999987
        },
        {
          "name": "A2",
          "midi": 45,
          "time": 32.285681999999944,
          "velocity": 0.6141732283464567,
          "duration": 0.2857139999999987
        },
        {
          "name": "A1",
          "midi": 33,
          "time": 32.57139599999994,
          "velocity": 0.6299212598425197,
          "duration": 1.7142839999999921
        },
        {
          "name": "A2",
          "midi": 45,
          "time": 32.57139599999994,
          "velocity": 0.5905511811023622,
          "duration": 0.2857139999999987
        },
        {
          "name": "A2",
          "midi": 45,
          "time": 32.85710999999994,
          "velocity": 0.6062992125984252,
          "duration": 0.2857139999999987
        },
        {
          "name": "A2",
          "midi": 45,
          "time": 33.14282399999994,
          "velocity": 0.6141732283464567,
          "duration": 0.2857139999999987
        },
        {
          "name": "A2",
          "midi": 45,
          "time": 33.42853799999994,
          "velocity": 0.5905511811023622,
          "duration": 0.2857139999999987
        },
        {
          "name": "A2",
          "midi": 45,
          "time": 33.71425199999994,
          "velocity": 0.6299212598425197,
          "duration": 0.2857139999999987
        },
        {
          "name": "A2",
          "midi": 45,
          "time": 33.99996599999994,
          "velocity": 0.5984251968503937,
          "duration": 0.2857139999999987
        },
        {
          "name": "E4",
          "midi": 64,
          "time": 34.285679999999935,
          "velocity": 0.7480314960629921,
          "duration": 0.5714279999999974
        },
        {
          "name": "E5",
          "midi": 76,
          "time": 34.285679999999935,
          "velocity": 0.7480314960629921,
          "duration": 0.5714279999999974
        },
        {
          "name": "F2",
          "midi": 41,
          "time": 34.285679999999935,
          "velocity": 0.6299212598425197,
          "duration": 0.2857139999999987
        },
        {
          "name": "D3",
          "midi": 50,
          "time": 34.571393999999934,
          "velocity": 0.6771653543307087,
          "duration": 0.2857139999999987
        },
        {
          "name": "F4",
          "midi": 65,
          "time": 34.85710799999993,
          "velocity": 0.6614173228346457,
          "duration": 0.2857139999999987
        },
        {
          "name": "F5",
          "midi": 77,
          "time": 34.85710799999993,
          "velocity": 0.6614173228346457,
          "duration": 0.2857139999999987
        },
        {
          "name": "A3",
          "midi": 57,
          "time": 34.85710799999993,
          "velocity": 0.6614173228346457,
          "duration": 0.2857139999999987
        },
        {
          "name": "E4",
          "midi": 64,
          "time": 35.14282199999993,
          "velocity": 0.5748031496062992,
          "duration": 0.5714279999999974
        },
        {
          "name": "E5",
          "midi": 76,
          "time": 35.14282199999993,
          "velocity": 0.5748031496062992,
          "duration": 0.5714279999999974
        },
        {
          "name": "D3",
          "midi": 50,
          "time": 35.14282199999993,
          "velocity": 0.5433070866141733,
          "duration": 0.2857139999999987
        },
        {
          "name": "A3",
          "midi": 57,
          "time": 35.42853599999993,
          "velocity": 0.6535433070866141,
          "duration": 0.2857139999999987
        },
        {
          "name": "F4",
          "midi": 65,
          "time": 35.71424999999993,
          "velocity": 0.6692913385826772,
          "duration": 0.2857139999999987
        },
        {
          "name": "F5",
          "midi": 77,
          "time": 35.71424999999993,
          "velocity": 0.6692913385826772,
          "duration": 0.2857139999999987
        },
        {
          "name": "D3",
          "midi": 50,
          "time": 35.71424999999993,
          "velocity": 0.5669291338582677,
          "duration": 0.2857139999999987
        },
        {
          "name": "E4",
          "midi": 64,
          "time": 35.99996399999993,
          "velocity": 0.5984251968503937,
          "duration": 0.2857139999999987
        },
        {
          "name": "E5",
          "midi": 76,
          "time": 35.99996399999993,
          "velocity": 0.5984251968503937,
          "duration": 0.2857139999999987
        },
        {
          "name": "F2",
          "midi": 41,
          "time": 35.99996399999993,
          "velocity": 0.5354330708661418,
          "duration": 0.2857139999999987
        },
        {
          "name": "D4",
          "midi": 62,
          "time": 36.285677999999926,
          "velocity": 0.5748031496062992,
          "duration": 0.2857139999999987
        },
        {
          "name": "D5",
          "midi": 74,
          "time": 36.285677999999926,
          "velocity": 0.5748031496062992,
          "duration": 0.2857139999999987
        },
        {
          "name": "D3",
          "midi": 50,
          "time": 36.285677999999926,
          "velocity": 0.6456692913385826,
          "duration": 0.2857139999999987
        },
        {
          "name": "C4",
          "midi": 60,
          "time": 36.571391999999925,
          "velocity": 0.5118110236220472,
          "duration": 1.1428559999999948
        },
        {
          "name": "C5",
          "midi": 72,
          "time": 36.571391999999925,
          "velocity": 0.5118110236220472,
          "duration": 1.1428559999999948
        },
        {
          "name": "A3",
          "midi": 57,
          "time": 36.571391999999925,
          "velocity": 0.6692913385826772,
          "duration": 0.2857139999999987
        },
        {
          "name": "D3",
          "midi": 50,
          "time": 36.85710599999992,
          "velocity": 0.5590551181102362,
          "duration": 0.2857139999999987
        },
        {
          "name": "A3",
          "midi": 57,
          "time": 37.14281999999992,
          "velocity": 0.6614173228346457,
          "duration": 0.2857139999999987
        },
        {
          "name": "D3",
          "midi": 50,
          "time": 37.42853399999992,
          "velocity": 0.5511811023622047,
          "duration": 0.2857139999999987
        },
        {
          "name": "D4",
          "midi": 62,
          "time": 37.71424799999992,
          "velocity": 0.6535433070866141,
          "duration": 1.7142839999999921
        },
        {
          "name": "D5",
          "midi": 74,
          "time": 37.71424799999992,
          "velocity": 0.6535433070866141,
          "duration": 1.7142839999999921
        },
        {
          "name": "A2",
          "midi": 45,
          "time": 37.71424799999992,
          "velocity": 0.6062992125984252,
          "duration": 0.2857139999999987
        },
        {
          "name": "D3",
          "midi": 50,
          "time": 37.99996199999992,
          "velocity": 0.6614173228346457,
          "duration": 0.14285699999999935
        },
        {
          "name": "E3",
          "midi": 52,
          "time": 38.14281899999992,
          "velocity": 0.6062992125984252,
          "duration": 0.14285699999999935
        },
        {
          "name": "F3",
          "midi": 53,
          "time": 38.28567599999992,
          "velocity": 0.6220472440944882,
          "duration": 0.2857139999999987
        },
        {
          "name": "A2",
          "midi": 45,
          "time": 38.571389999999916,
          "velocity": 0.5511811023622047,
          "duration": 0.2857139999999987
        },
        {
          "name": "D3",
          "midi": 50,
          "time": 38.857103999999914,
          "velocity": 0.6299212598425197,
          "duration": 0.14285699999999935
        },
        {
          "name": "E3",
          "midi": 52,
          "time": 38.999960999999914,
          "velocity": 0.6377952755905512,
          "duration": 0.14285699999999935
        },
        {
          "name": "F3",
          "midi": 53,
          "time": 39.14281799999991,
          "velocity": 0.6220472440944882,
          "duration": 0.2857139999999987
        },
        {
          "name": "A2",
          "midi": 45,
          "time": 39.42853199999991,
          "velocity": 0.5275590551181102,
          "duration": 0.2857139999999987
        },
        {
          "name": "D3",
          "midi": 50,
          "time": 39.71424599999991,
          "velocity": 0.6141732283464567,
          "duration": 0.14285699999999935
        },
        {
          "name": "E3",
          "midi": 52,
          "time": 39.85710299999991,
          "velocity": 0.6062992125984252,
          "duration": 0.14285699999999935
        },
        {
          "name": "F3",
          "midi": 53,
          "time": 39.99995999999991,
          "velocity": 0.5984251968503937,
          "duration": 0.2857139999999987
        },
        {
          "name": "A2",
          "midi": 45,
          "time": 40.28567399999991,
          "velocity": 0.5511811023622047,
          "duration": 0.2857139999999987
        },
        {
          "name": "D3",
          "midi": 50,
          "time": 40.57138799999991,
          "velocity": 0.6062992125984252,
          "duration": 0.14285699999999935
        },
        {
          "name": "E3",
          "midi": 52,
          "time": 40.714244999999906,
          "velocity": 0.6456692913385826,
          "duration": 0.14285699999999935
        },
        {
          "name": "F3",
          "midi": 53,
          "time": 40.857101999999905,
          "velocity": 0.6220472440944882,
          "duration": 0.2857139999999987
        },
        {
          "name": "D4",
          "midi": 62,
          "time": 41.142815999999904,
          "velocity": 0.6141732283464567,
          "duration": 0.5714279999999974
        },
        {
          "name": "D5",
          "midi": 74,
          "time": 41.142815999999904,
          "velocity": 0.6141732283464567,
          "duration": 0.5714279999999974
        },
        {
          "name": "G2",
          "midi": 43,
          "time": 41.142815999999904,
          "velocity": 0.5275590551181102,
          "duration": 0.2857139999999987
        },
        {
          "name": "D3",
          "midi": 50,
          "time": 41.4285299999999,
          "velocity": 0.6377952755905512,
          "duration": 0.2857139999999987
        },
        {
          "name": "E4",
          "midi": 64,
          "time": 41.7142439999999,
          "velocity": 0.6141732283464567,
          "duration": 0.2857139999999987
        },
        {
          "name": "E5",
          "midi": 76,
          "time": 41.7142439999999,
          "velocity": 0.6141732283464567,
          "duration": 0.2857139999999987
        },
        {
          "name": "G3",
          "midi": 55,
          "time": 41.7142439999999,
          "velocity": 0.6456692913385826,
          "duration": 0.2857139999999987
        },
        {
          "name": "D4",
          "midi": 62,
          "time": 41.9999579999999,
          "velocity": 0.6062992125984252,
          "duration": 0.5714279999999974
        },
        {
          "name": "D5",
          "midi": 74,
          "time": 41.9999579999999,
          "velocity": 0.6062992125984252,
          "duration": 0.5714279999999974
        },
        {
          "name": "D3",
          "midi": 50,
          "time": 41.9999579999999,
          "velocity": 0.5905511811023622,
          "duration": 0.2857139999999987
        },
        {
          "name": "G3",
          "midi": 55,
          "time": 42.2856719999999,
          "velocity": 0.6141732283464567,
          "duration": 0.2857139999999987
        },
        {
          "name": "E4",
          "midi": 64,
          "time": 42.5713859999999,
          "velocity": 0.6535433070866141,
          "duration": 0.2857139999999987
        },
        {
          "name": "E5",
          "midi": 76,
          "time": 42.5713859999999,
          "velocity": 0.6535433070866141,
          "duration": 0.2857139999999987
        },
        {
          "name": "D3",
          "midi": 50,
          "time": 42.5713859999999,
          "velocity": 0.5590551181102362,
          "duration": 0.2857139999999987
        },
        {
          "name": "D4",
          "midi": 62,
          "time": 42.857099999999896,
          "velocity": 0.5669291338582677,
          "duration": 0.2857139999999987
        },
        {
          "name": "D5",
          "midi": 74,
          "time": 42.857099999999896,
          "velocity": 0.5669291338582677,
          "duration": 0.2857139999999987
        },
        {
          "name": "G2",
          "midi": 43,
          "time": 42.857099999999896,
          "velocity": 0.5590551181102362,
          "duration": 0.2857139999999987
        },
        {
          "name": "C4",
          "midi": 60,
          "time": 43.142813999999895,
          "velocity": 0.5433070866141733,
          "duration": 0.2857139999999987
        },
        {
          "name": "C5",
          "midi": 72,
          "time": 43.142813999999895,
          "velocity": 0.5433070866141733,
          "duration": 0.2857139999999987
        },
        {
          "name": "D3",
          "midi": 50,
          "time": 43.142813999999895,
          "velocity": 0.6771653543307087,
          "duration": 0.2857139999999987
        },
        {
          "name": "G3",
          "midi": 55,
          "time": 43.42852799999989,
          "velocity": 0.4881889763779528,
          "duration": 0.2857139999999987
        },
        {
          "name": "G4",
          "midi": 67,
          "time": 43.42852799999989,
          "velocity": 0.4881889763779528,
          "duration": 1.1428559999999948
        },
        {
          "name": "G3",
          "midi": 55,
          "time": 43.42852799999989,
          "velocity": 0.6299212598425197,
          "duration": 0.8571419999999961
        },
        {
          "name": "D3",
          "midi": 50,
          "time": 43.71424199999989,
          "velocity": 0.5590551181102362,
          "duration": 0.2857139999999987
        },
        {
          "name": "G3",
          "midi": 55,
          "time": 43.99995599999989,
          "velocity": 0.6535433070866141,
          "duration": 0.5714279999999974
        },
        {
          "name": "D3",
          "midi": 50,
          "time": 44.28566999999989,
          "velocity": 0.5669291338582677,
          "duration": 0.2857139999999987
        },
        {
          "name": "A3",
          "midi": 57,
          "time": 44.57138399999989,
          "velocity": 0.6535433070866141,
          "duration": 1.7142839999999921
        },
        {
          "name": "A4",
          "midi": 69,
          "time": 44.57138399999989,
          "velocity": 0.6535433070866141,
          "duration": 1.7142839999999921
        },
        {
          "name": "A2",
          "midi": 45,
          "time": 44.57138399999989,
          "velocity": 0.5590551181102362,
          "duration": 0.2857139999999987
        },
        {
          "name": "B2",
          "midi": 47,
          "time": 44.85709799999989,
          "velocity": 0.6141732283464567,
          "duration": 0.14285699999999935
        },
        {
          "name": "C3",
          "midi": 48,
          "time": 44.999954999999886,
          "velocity": 0.6299212598425197,
          "duration": 0.14285699999999935
        },
        {
          "name": "E3",
          "midi": 52,
          "time": 45.142811999999886,
          "velocity": 0.6692913385826772,
          "duration": 0.2857139999999987
        },
        {
          "name": "A2",
          "midi": 45,
          "time": 45.428525999999884,
          "velocity": 0.5590551181102362,
          "duration": 0.2857139999999987
        },
        {
          "name": "B2",
          "midi": 47,
          "time": 45.71423999999988,
          "velocity": 0.6141732283464567,
          "duration": 0.14285699999999935
        },
        {
          "name": "C3",
          "midi": 48,
          "time": 45.85709699999988,
          "velocity": 0.6377952755905512,
          "duration": 0.14285699999999935
        },
        {
          "name": "E3",
          "midi": 52,
          "time": 45.99995399999988,
          "velocity": 0.6377952755905512,
          "duration": 0.2857139999999987
        },
        {
          "name": "A2",
          "midi": 45,
          "time": 46.28566799999988,
          "velocity": 0.5275590551181102,
          "duration": 0.2857139999999987
        },
        {
          "name": "B2",
          "midi": 47,
          "time": 46.57138199999988,
          "velocity": 0.5905511811023622,
          "duration": 0.14285699999999935
        },
        {
          "name": "C3",
          "midi": 48,
          "time": 46.71423899999988,
          "velocity": 0.6377952755905512,
          "duration": 0.14285699999999935
        },
        {
          "name": "E3",
          "midi": 52,
          "time": 46.85709599999988,
          "velocity": 0.6535433070866141,
          "duration": 0.2857139999999987
        },
        {
          "name": "A2",
          "midi": 45,
          "time": 47.142809999999876,
          "velocity": 0.5511811023622047,
          "duration": 0.2857139999999987
        },
        {
          "name": "B2",
          "midi": 47,
          "time": 47.428523999999875,
          "velocity": 0.6535433070866141,
          "duration": 0.14285699999999935
        },
        {
          "name": "C3",
          "midi": 48,
          "time": 47.571380999999874,
          "velocity": 0.5905511811023622,
          "duration": 0.14285699999999935
        },
        {
          "name": "E3",
          "midi": 52,
          "time": 47.714237999999874,
          "velocity": 0.6141732283464567,
          "duration": 0.2857139999999987
        },
        {
          "name": "F4",
          "midi": 65,
          "time": 47.99995199999987,
          "velocity": 0.7244094488188977,
          "duration": 0.5714279999999974
        },
        {
          "name": "F5",
          "midi": 77,
          "time": 47.99995199999987,
          "velocity": 0.7244094488188977,
          "duration": 0.5714279999999974
        },
        {
          "name": "F2",
          "midi": 41,
          "time": 47.99995199999987,
          "velocity": 0.5275590551181102,
          "duration": 0.2857139999999987
        },
        {
          "name": "D3",
          "midi": 50,
          "time": 48.28566599999987,
          "velocity": 0.6614173228346457,
          "duration": 0.2857139999999987
        },
        {
          "name": "G4",
          "midi": 67,
          "time": 48.57137999999987,
          "velocity": 0.6535433070866141,
          "duration": 0.2857139999999987
        },
        {
          "name": "G5",
          "midi": 79,
          "time": 48.57137999999987,
          "velocity": 0.6535433070866141,
          "duration": 0.2857139999999987
        },
        {
          "name": "A3",
          "midi": 57,
          "time": 48.57137999999987,
          "velocity": 0.6614173228346457,
          "duration": 0.2857139999999987
        },
        {
          "name": "F4",
          "midi": 65,
          "time": 48.85709399999987,
          "velocity": 0.5748031496062992,
          "duration": 0.5714279999999974
        },
        {
          "name": "F5",
          "midi": 77,
          "time": 48.85709399999987,
          "velocity": 0.5748031496062992,
          "duration": 0.5714279999999974
        },
        {
          "name": "D3",
          "midi": 50,
          "time": 48.85709399999987,
          "velocity": 0.5748031496062992,
          "duration": 0.2857139999999987
        },
        {
          "name": "A3",
          "midi": 57,
          "time": 49.14280799999987,
          "velocity": 0.6456692913385826,
          "duration": 0.2857139999999987
        },
        {
          "name": "G4",
          "midi": 67,
          "time": 49.428521999999866,
          "velocity": 0.6299212598425197,
          "duration": 0.2857139999999987
        },
        {
          "name": "G5",
          "midi": 79,
          "time": 49.428521999999866,
          "velocity": 0.6299212598425197,
          "duration": 0.2857139999999987
        },
        {
          "name": "D3",
          "midi": 50,
          "time": 49.428521999999866,
          "velocity": 0.5748031496062992,
          "duration": 0.2857139999999987
        },
        {
          "name": "F4",
          "midi": 65,
          "time": 49.714235999999865,
          "velocity": 0.5984251968503937,
          "duration": 0.2857139999999987
        },
        {
          "name": "F5",
          "midi": 77,
          "time": 49.714235999999865,
          "velocity": 0.5984251968503937,
          "duration": 0.2857139999999987
        },
        {
          "name": "F2",
          "midi": 41,
          "time": 49.714235999999865,
          "velocity": 0.5275590551181102,
          "duration": 0.2857139999999987
        },
        {
          "name": "E4",
          "midi": 64,
          "time": 49.99994999999986,
          "velocity": 0.5590551181102362,
          "duration": 0.2857139999999987
        },
        {
          "name": "E5",
          "midi": 76,
          "time": 49.99994999999986,
          "velocity": 0.5590551181102362,
          "duration": 0.2857139999999987
        },
        {
          "name": "D3",
          "midi": 50,
          "time": 49.99994999999986,
          "velocity": 0.6850393700787402,
          "duration": 0.2857139999999987
        },
        {
          "name": "D4",
          "midi": 62,
          "time": 50.28566399999986,
          "velocity": 0.5826771653543307,
          "duration": 0.8571419999999961
        },
        {
          "name": "D5",
          "midi": 74,
          "time": 50.28566399999986,
          "velocity": 0.5826771653543307,
          "duration": 0.8571419999999961
        },
        {
          "name": "A3",
          "midi": 57,
          "time": 50.28566399999986,
          "velocity": 0.6220472440944882,
          "duration": 0.2857139999999987
        },
        {
          "name": "D3",
          "midi": 50,
          "time": 50.57137799999986,
          "velocity": 0.5748031496062992,
          "duration": 0.2857139999999987
        },
        {
          "name": "A3",
          "midi": 57,
          "time": 50.85709199999986,
          "velocity": 0.6299212598425197,
          "duration": 0.2857139999999987
        },
        {
          "name": "F4",
          "midi": 65,
          "time": 51.14280599999986,
          "velocity": 0.6692913385826772,
          "duration": 0.2857139999999987
        },
        {
          "name": "F5",
          "midi": 77,
          "time": 51.14280599999986,
          "velocity": 0.6692913385826772,
          "duration": 0.2857139999999987
        },
        {
          "name": "D3",
          "midi": 50,
          "time": 51.14280599999986,
          "velocity": 0.5590551181102362,
          "duration": 0.2857139999999987
        },
        {
          "name": "E4",
          "midi": 64,
          "time": 51.42851999999986,
          "velocity": 0.5511811023622047,
          "duration": 1.7142839999999921
        },
        {
          "name": "E5",
          "midi": 76,
          "time": 51.42851999999986,
          "velocity": 0.5511811023622047,
          "duration": 1.7142839999999921
        },
        {
          "name": "A2",
          "midi": 45,
          "time": 51.42851999999986,
          "velocity": 0.5748031496062992,
          "duration": 0.2857139999999987
        },
        {
          "name": "D3",
          "midi": 50,
          "time": 51.714233999999855,
          "velocity": 0.6299212598425197,
          "duration": 0.14285699999999935
        },
        {
          "name": "E3",
          "midi": 52,
          "time": 51.857090999999855,
          "velocity": 0.5984251968503937,
          "duration": 0.14285699999999935
        },
        {
          "name": "F3",
          "midi": 53,
          "time": 51.999947999999854,
          "velocity": 0.6692913385826772,
          "duration": 0.2857139999999987
        },
        {
          "name": "A2",
          "midi": 45,
          "time": 52.28566199999985,
          "velocity": 0.5748031496062992,
          "duration": 0.2857139999999987
        },
        {
          "name": "D3",
          "midi": 50,
          "time": 52.57137599999985,
          "velocity": 0.6220472440944882,
          "duration": 0.14285699999999935
        },
        {
          "name": "E3",
          "midi": 52,
          "time": 52.71423299999985,
          "velocity": 0.6220472440944882,
          "duration": 0.14285699999999935
        },
        {
          "name": "F3",
          "midi": 53,
          "time": 52.85708999999985,
          "velocity": 0.6456692913385826,
          "duration": 0.2857139999999987
        },
        {
          "name": "A2",
          "midi": 45,
          "time": 53.14280399999985,
          "velocity": 0.5354330708661418,
          "duration": 0.2857139999999987
        },
        {
          "name": "D3",
          "midi": 50,
          "time": 53.42851799999985,
          "velocity": 0.6535433070866141,
          "duration": 0.14285699999999935
        },
        {
          "name": "E3",
          "midi": 52,
          "time": 53.57137499999985,
          "velocity": 0.6141732283464567,
          "duration": 0.14285699999999935
        },
        {
          "name": "F3",
          "midi": 53,
          "time": 53.714231999999846,
          "velocity": 0.6220472440944882,
          "duration": 0.2857139999999987
        },
        {
          "name": "A2",
          "midi": 45,
          "time": 53.999945999999845,
          "velocity": 0.5669291338582677,
          "duration": 0.2857139999999987
        },
        {
          "name": "D3",
          "midi": 50,
          "time": 54.285659999999844,
          "velocity": 0.6456692913385826,
          "duration": 0.14285699999999935
        },
        {
          "name": "E3",
          "midi": 52,
          "time": 54.42851699999984,
          "velocity": 0.6141732283464567,
          "duration": 0.14285699999999935
        },
        {
          "name": "F3",
          "midi": 53,
          "time": 54.57137399999984,
          "velocity": 0.6220472440944882,
          "duration": 0.2857139999999987
        },
        {
          "name": "A#2",
          "midi": 46,
          "time": 54.85708799999984,
          "velocity": 0.5826771653543307,
          "duration": 0.14285699999999935
        },
        {
          "name": "E3",
          "midi": 52,
          "time": 54.99994499999984,
          "velocity": 0.6456692913385826,
          "duration": 0.14285699999999935
        },
        {
          "name": "A#3",
          "midi": 58,
          "time": 55.14280199999984,
          "velocity": 0.5275590551181102,
          "duration": 0.14285699999999935
        },
        {
          "name": "C4",
          "midi": 60,
          "time": 55.28565899999984,
          "velocity": 0.6456692913385826,
          "duration": 0.14285699999999935
        },
        {
          "name": "D4",
          "midi": 62,
          "time": 55.42851599999984,
          "velocity": 0.6535433070866141,
          "duration": 0.2857139999999987
        },
        {
          "name": "A2",
          "midi": 45,
          "time": 55.71422999999984,
          "velocity": 0.5590551181102362,
          "duration": 0.14285699999999935
        },
        {
          "name": "E3",
          "midi": 52,
          "time": 55.85708699999984,
          "velocity": 0.6299212598425197,
          "duration": 0.14285699999999935
        },
        {
          "name": "A3",
          "midi": 57,
          "time": 55.999943999999836,
          "velocity": 0.5354330708661418,
          "duration": 0.14285699999999935
        },
        {
          "name": "A#3",
          "midi": 58,
          "time": 56.142800999999835,
          "velocity": 0.5905511811023622,
          "duration": 0.14285699999999935
        },
        {
          "name": "C4",
          "midi": 60,
          "time": 56.285657999999835,
          "velocity": 0.6456692913385826,
          "duration": 0.2857139999999987
        },
        {
          "name": "G#2",
          "midi": 44,
          "time": 56.57137199999983,
          "velocity": 0.5354330708661418,
          "duration": 0.14285699999999935
        },
        {
          "name": "D3",
          "midi": 50,
          "time": 56.71422899999983,
          "velocity": 0.6535433070866141,
          "duration": 0.14285699999999935
        },
        {
          "name": "G#3",
          "midi": 56,
          "time": 56.85708599999983,
          "velocity": 0.5433070866141733,
          "duration": 0.14285699999999935
        },
        {
          "name": "A#3",
          "midi": 58,
          "time": 56.99994299999983,
          "velocity": 0.5984251968503937,
          "duration": 0.14285699999999935
        },
        {
          "name": "C4",
          "midi": 60,
          "time": 57.14279999999983,
          "velocity": 0.6299212598425197,
          "duration": 0.2857139999999987
        },
        {
          "name": "G2",
          "midi": 43,
          "time": 57.42851399999983,
          "velocity": 0.5118110236220472,
          "duration": 0.14285699999999935
        },
        {
          "name": "D3",
          "midi": 50,
          "time": 57.57137099999983,
          "velocity": 0.6062992125984252,
          "duration": 0.14285699999999935
        },
        {
          "name": "G3",
          "midi": 55,
          "time": 57.71422799999983,
          "velocity": 0.5275590551181102,
          "duration": 0.14285699999999935
        },
        {
          "name": "A3",
          "midi": 57,
          "time": 57.85708499999983,
          "velocity": 0.5984251968503937,
          "duration": 0.14285699999999935
        },
        {
          "name": "A#3",
          "midi": 58,
          "time": 57.99994199999983,
          "velocity": 0.6220472440944882,
          "duration": 0.2857139999999987
        },
        {
          "name": "C4",
          "midi": 60,
          "time": 58.285655999999825,
          "velocity": 0.6377952755905512,
          "duration": 0.14285699999999935
        },
        {
          "name": "A1",
          "midi": 33,
          "time": 58.285655999999825,
          "velocity": 0.5354330708661418,
          "duration": 0.8571419999999961
        },
        {
          "name": "A2",
          "midi": 45,
          "time": 58.285655999999825,
          "velocity": 0.5354330708661418,
          "duration": 0.8571419999999961
        },
        {
          "name": "E4",
          "midi": 64,
          "time": 58.428512999999825,
          "velocity": 0.6614173228346457,
          "duration": 0.14285699999999935
        },
        {
          "name": "F4",
          "midi": 65,
          "time": 58.571369999999824,
          "velocity": 0.6614173228346457,
          "duration": 0.14285699999999935
        },
        {
          "name": "G#4",
          "midi": 68,
          "time": 58.71422699999982,
          "velocity": 0.6850393700787402,
          "duration": 0.14285699999999935
        },
        {
          "name": "A4",
          "midi": 69,
          "time": 58.85708399999982,
          "velocity": 0.6456692913385826,
          "duration": 0.2857139999999987
        },
        {
          "name": "C4",
          "midi": 60,
          "time": 59.14279799999982,
          "velocity": 0.4409448818897638,
          "duration": 0.14285699999999935
        },
        {
          "name": "A1",
          "midi": 33,
          "time": 59.14279799999982,
          "velocity": 0.5748031496062992,
          "duration": 0.8571419999999961
        },
        {
          "name": "A2",
          "midi": 45,
          "time": 59.14279799999982,
          "velocity": 0.5748031496062992,
          "duration": 0.8571419999999961
        },
        {
          "name": "E4",
          "midi": 64,
          "time": 59.28565499999982,
          "velocity": 0.6220472440944882,
          "duration": 0.14285699999999935
        },
        {
          "name": "F4",
          "midi": 65,
          "time": 59.42851199999982,
          "velocity": 0.6456692913385826,
          "duration": 0.14285699999999935
        },
        {
          "name": "G#4",
          "midi": 68,
          "time": 59.57136899999982,
          "velocity": 0.6692913385826772,
          "duration": 0.14285699999999935
        },
        {
          "name": "A4",
          "midi": 69,
          "time": 59.71422599999982,
          "velocity": 0.6220472440944882,
          "duration": 0.2857139999999987
        },
        {
          "name": "C4",
          "midi": 60,
          "time": 59.99993999999982,
          "velocity": 0.4409448818897638,
          "duration": 0.14285699999999935
        },
        {
          "name": "A1",
          "midi": 33,
          "time": 59.99993999999982,
          "velocity": 0.5748031496062992,
          "duration": 0.8571419999999961
        },
        {
          "name": "A2",
          "midi": 45,
          "time": 59.99993999999982,
          "velocity": 0.5748031496062992,
          "duration": 0.8571419999999961
        },
        {
          "name": "E4",
          "midi": 64,
          "time": 60.14279699999982,
          "velocity": 0.6456692913385826,
          "duration": 0.14285699999999935
        },
        {
          "name": "F4",
          "midi": 65,
          "time": 60.285653999999816,
          "velocity": 0.5826771653543307,
          "duration": 0.14285699999999935
        },
        {
          "name": "G#4",
          "midi": 68,
          "time": 60.428510999999816,
          "velocity": 0.6535433070866141,
          "duration": 0.14285699999999935
        },
        {
          "name": "A4",
          "midi": 69,
          "time": 60.571367999999815,
          "velocity": 0.6377952755905512,
          "duration": 0.2857139999999987
        },
        {
          "name": "C4",
          "midi": 60,
          "time": 60.857081999999814,
          "velocity": 0.48031496062992124,
          "duration": 0.14285699999999935
        },
        {
          "name": "A1",
          "midi": 33,
          "time": 60.857081999999814,
          "velocity": 0.5984251968503937,
          "duration": 0.5714279999999974
        },
        {
          "name": "A2",
          "midi": 45,
          "time": 60.857081999999814,
          "velocity": 0.5984251968503937,
          "duration": 0.5714279999999974
        },
        {
          "name": "E4",
          "midi": 64,
          "time": 60.99993899999981,
          "velocity": 0.6614173228346457,
          "duration": 0.14285699999999935
        },
        {
          "name": "F4",
          "midi": 65,
          "time": 61.14279599999981,
          "velocity": 0.6220472440944882,
          "duration": 0.14285699999999935
        },
        {
          "name": "G#4",
          "midi": 68,
          "time": 61.28565299999981,
          "velocity": 0.6614173228346457,
          "duration": 0.14285699999999935
        },
        {
          "name": "A4",
          "midi": 69,
          "time": 61.42850999999981,
          "velocity": 0.6141732283464567,
          "duration": 0.2857139999999987
        },
        {
          "name": "G1",
          "midi": 31,
          "time": 61.42850999999981,
          "velocity": 0.5669291338582677,
          "duration": 0.2857139999999987
        },
        {
          "name": "G2",
          "midi": 43,
          "time": 61.42850999999981,
          "velocity": 0.5669291338582677,
          "duration": 0.2857139999999987
        },
        {
          "name": "C4",
          "midi": 60,
          "time": 61.71422399999981,
          "velocity": 0.4645669291338583,
          "duration": 0.14285699999999935
        },
        {
          "name": "F1",
          "midi": 29,
          "time": 61.71422399999981,
          "velocity": 0.6299212598425197,
          "duration": 0.8571419999999961
        },
        {
          "name": "F2",
          "midi": 41,
          "time": 61.71422399999981,
          "velocity": 0.6299212598425197,
          "duration": 0.8571419999999961
        },
        {
          "name": "F4",
          "midi": 65,
          "time": 61.85708099999981,
          "velocity": 0.6614173228346457,
          "duration": 0.14285699999999935
        },
        {
          "name": "G#4",
          "midi": 68,
          "time": 61.99993799999981,
          "velocity": 0.6771653543307087,
          "duration": 0.14285699999999935
        },
        {
          "name": "A4",
          "midi": 69,
          "time": 62.14279499999981,
          "velocity": 0.6929133858267716,
          "duration": 0.42857099999999804
        },
        {
          "name": "C4",
          "midi": 60,
          "time": 62.571365999999806,
          "velocity": 0.4881889763779528,
          "duration": 0.14285699999999935
        },
        {
          "name": "F1",
          "midi": 29,
          "time": 62.571365999999806,
          "velocity": 0.5984251968503937,
          "duration": 0.8571419999999961
        },
        {
          "name": "F2",
          "midi": 41,
          "time": 62.571365999999806,
          "velocity": 0.5984251968503937,
          "duration": 0.8571419999999961
        },
        {
          "name": "F4",
          "midi": 65,
          "time": 62.714222999999805,
          "velocity": 0.6929133858267716,
          "duration": 0.14285699999999935
        },
        {
          "name": "G#4",
          "midi": 68,
          "time": 62.857079999999804,
          "velocity": 0.6614173228346457,
          "duration": 0.14285699999999935
        },
        {
          "name": "A4",
          "midi": 69,
          "time": 62.999936999999804,
          "velocity": 0.6456692913385826,
          "duration": 0.42857099999999804
        },
        {
          "name": "C4",
          "midi": 60,
          "time": 63.4285079999998,
          "velocity": 0.48031496062992124,
          "duration": 0.14285699999999935
        },
        {
          "name": "F1",
          "midi": 29,
          "time": 63.4285079999998,
          "velocity": 0.6220472440944882,
          "duration": 0.8571420000000032
        },
        {
          "name": "F2",
          "midi": 41,
          "time": 63.4285079999998,
          "velocity": 0.6220472440944882,
          "duration": 0.8571420000000032
        },
        {
          "name": "F4",
          "midi": 65,
          "time": 63.5713649999998,
          "velocity": 0.6692913385826772,
          "duration": 0.14285699999999935
        },
        {
          "name": "G#4",
          "midi": 68,
          "time": 63.7142219999998,
          "velocity": 0.6850393700787402,
          "duration": 0.14285699999999935
        },
        {
          "name": "A4",
          "midi": 69,
          "time": 63.8570789999998,
          "velocity": 0.6456692913385826,
          "duration": 0.42857100000000514
        },
        {
          "name": "C4",
          "midi": 60,
          "time": 64.2856499999998,
          "velocity": 0.5039370078740157,
          "duration": 0.14285700000000645
        },
        {
          "name": "F1",
          "midi": 29,
          "time": 64.2856499999998,
          "velocity": 0.5984251968503937,
          "duration": 0.8571420000000245
        },
        {
          "name": "F2",
          "midi": 41,
          "time": 64.2856499999998,
          "velocity": 0.5984251968503937,
          "duration": 0.8571420000000245
        },
        {
          "name": "F4",
          "midi": 65,
          "time": 64.42850699999981,
          "velocity": 0.5984251968503937,
          "duration": 0.14285700000000645
        },
        {
          "name": "G#4",
          "midi": 68,
          "time": 64.57136399999982,
          "velocity": 0.6614173228346457,
          "duration": 0.14285700000000645
        },
        {
          "name": "A4",
          "midi": 69,
          "time": 64.71422099999982,
          "velocity": 0.6377952755905512,
          "duration": 0.42857100000000514
        },
        {
          "name": "C4",
          "midi": 60,
          "time": 65.14279199999983,
          "velocity": 0.49606299212598426,
          "duration": 0.14285700000000645
        },
        {
          "name": "A1",
          "midi": 33,
          "time": 65.14279199999983,
          "velocity": 0.6299212598425197,
          "duration": 0.8571420000000245
        },
        {
          "name": "A2",
          "midi": 45,
          "time": 65.14279199999983,
          "velocity": 0.6299212598425197,
          "duration": 0.8571420000000245
        },
        {
          "name": "E4",
          "midi": 64,
          "time": 65.28564899999984,
          "velocity": 0.6771653543307087,
          "duration": 0.14285700000000645
        },
        {
          "name": "F4",
          "midi": 65,
          "time": 65.42850599999984,
          "velocity": 0.6377952755905512,
          "duration": 0.14285700000000645
        },
        {
          "name": "G#4",
          "midi": 68,
          "time": 65.57136299999985,
          "velocity": 0.6141732283464567,
          "duration": 0.14285700000000645
        },
        {
          "name": "A4",
          "midi": 69,
          "time": 65.71421999999986,
          "velocity": 0.6614173228346457,
          "duration": 0.2857139999999987
        },
        {
          "name": "C4",
          "midi": 60,
          "time": 65.99993399999985,
          "velocity": 0.49606299212598426,
          "duration": 0.14285700000000645
        },
        {
          "name": "A1",
          "midi": 33,
          "time": 65.99993399999985,
          "velocity": 0.6062992125984252,
          "duration": 0.8571420000000245
        },
        {
          "name": "A2",
          "midi": 45,
          "time": 65.99993399999985,
          "velocity": 0.6062992125984252,
          "duration": 0.8571420000000245
        },
        {
          "name": "E4",
          "midi": 64,
          "time": 66.14279099999986,
          "velocity": 0.6535433070866141,
          "duration": 0.14285700000000645
        },
        {
          "name": "F4",
          "midi": 65,
          "time": 66.28564799999987,
          "velocity": 0.6299212598425197,
          "duration": 0.14285700000000645
        },
        {
          "name": "G#4",
          "midi": 68,
          "time": 66.42850499999987,
          "velocity": 0.6535433070866141,
          "duration": 0.14285700000000645
        },
        {
          "name": "A4",
          "midi": 69,
          "time": 66.57136199999988,
          "velocity": 0.5905511811023622,
          "duration": 0.2857139999999987
        },
        {
          "name": "C4",
          "midi": 60,
          "time": 66.85707599999988,
          "velocity": 0.44881889763779526,
          "duration": 0.14285700000000645
        },
        {
          "name": "A1",
          "midi": 33,
          "time": 66.85707599999988,
          "velocity": 0.6062992125984252,
          "duration": 0.8571420000000245
        },
        {
          "name": "A2",
          "midi": 45,
          "time": 66.85707599999988,
          "velocity": 0.6062992125984252,
          "duration": 0.8571420000000245
        },
        {
          "name": "E4",
          "midi": 64,
          "time": 66.99993299999988,
          "velocity": 0.6692913385826772,
          "duration": 0.14285700000000645
        },
        {
          "name": "F4",
          "midi": 65,
          "time": 67.14278999999989,
          "velocity": 0.6771653543307087,
          "duration": 0.14285700000000645
        },
        {
          "name": "G#4",
          "midi": 68,
          "time": 67.2856469999999,
          "velocity": 0.6220472440944882,
          "duration": 0.14285700000000645
        },
        {
          "name": "A4",
          "midi": 69,
          "time": 67.4285039999999,
          "velocity": 0.6299212598425197,
          "duration": 0.2857139999999987
        },
        {
          "name": "C4",
          "midi": 60,
          "time": 67.7142179999999,
          "velocity": 0.47244094488188976,
          "duration": 0.14285700000000645
        },
        {
          "name": "A1",
          "midi": 33,
          "time": 67.7142179999999,
          "velocity": 0.6141732283464567,
          "duration": 0.5714280000000258
        },
        {
          "name": "A2",
          "midi": 45,
          "time": 67.7142179999999,
          "velocity": 0.6141732283464567,
          "duration": 0.5714280000000258
        },
        {
          "name": "E4",
          "midi": 64,
          "time": 67.85707499999991,
          "velocity": 0.6377952755905512,
          "duration": 0.14285700000000645
        },
        {
          "name": "F4",
          "midi": 65,
          "time": 67.99993199999992,
          "velocity": 0.6614173228346457,
          "duration": 0.14285700000000645
        },
        {
          "name": "G#4",
          "midi": 68,
          "time": 68.14278899999992,
          "velocity": 0.6614173228346457,
          "duration": 0.14285700000000645
        },
        {
          "name": "A4",
          "midi": 69,
          "time": 68.28564599999993,
          "velocity": 0.6220472440944882,
          "duration": 0.2857139999999987
        },
        {
          "name": "G1",
          "midi": 31,
          "time": 68.28564599999993,
          "velocity": 0.6299212598425197,
          "duration": 0.2857139999999987
        },
        {
          "name": "G2",
          "midi": 43,
          "time": 68.28564599999993,
          "velocity": 0.6299212598425197,
          "duration": 0.2857139999999987
        },
        {
          "name": "E4",
          "midi": 64,
          "time": 68.57135999999993,
          "velocity": 0.7244094488188977,
          "duration": 0.5714279999999974
        },
        {
          "name": "E5",
          "midi": 76,
          "time": 68.57135999999993,
          "velocity": 0.7244094488188977,
          "duration": 0.5714279999999974
        },
        {
          "name": "D2",
          "midi": 38,
          "time": 68.57135999999993,
          "velocity": 0.5826771653543307,
          "duration": 0.2857139999999987
        },
        {
          "name": "A2",
          "midi": 45,
          "time": 68.85707399999993,
          "velocity": 0.6535433070866141,
          "duration": 0.2857139999999987
        },
        {
          "name": "F4",
          "midi": 65,
          "time": 69.14278799999992,
          "velocity": 0.6850393700787402,
          "duration": 0.2857139999999987
        },
        {
          "name": "F5",
          "midi": 77,
          "time": 69.14278799999992,
          "velocity": 0.6850393700787402,
          "duration": 0.2857139999999987
        },
        {
          "name": "D3",
          "midi": 50,
          "time": 69.14278799999992,
          "velocity": 0.6220472440944882,
          "duration": 0.2857139999999987
        },
        {
          "name": "E4",
          "midi": 64,
          "time": 69.42850199999992,
          "velocity": 0.5826771653543307,
          "duration": 0.5714279999999974
        },
        {
          "name": "E5",
          "midi": 76,
          "time": 69.42850199999992,
          "velocity": 0.5826771653543307,
          "duration": 0.5714279999999974
        },
        {
          "name": "A2",
          "midi": 45,
          "time": 69.42850199999992,
          "velocity": 0.5590551181102362,
          "duration": 0.2857139999999987
        },
        {
          "name": "D3",
          "midi": 50,
          "time": 69.71421599999992,
          "velocity": 0.6614173228346457,
          "duration": 0.2857139999999987
        },
        {
          "name": "F4",
          "midi": 65,
          "time": 69.99992999999992,
          "velocity": 0.6535433070866141,
          "duration": 0.2857139999999987
        },
        {
          "name": "F5",
          "midi": 77,
          "time": 69.99992999999992,
          "velocity": 0.6535433070866141,
          "duration": 0.2857139999999987
        },
        {
          "name": "A2",
          "midi": 45,
          "time": 69.99992999999992,
          "velocity": 0.5590551181102362,
          "duration": 0.2857139999999987
        },
        {
          "name": "E4",
          "midi": 64,
          "time": 70.28564399999992,
          "velocity": 0.6141732283464567,
          "duration": 0.2857139999999987
        },
        {
          "name": "E5",
          "midi": 76,
          "time": 70.28564399999992,
          "velocity": 0.6141732283464567,
          "duration": 0.2857139999999987
        },
        {
          "name": "D2",
          "midi": 38,
          "time": 70.28564399999992,
          "velocity": 0.5590551181102362,
          "duration": 0.2857139999999987
        },
        {
          "name": "D4",
          "midi": 62,
          "time": 70.57135799999992,
          "velocity": 0.5511811023622047,
          "duration": 0.2857139999999987
        },
        {
          "name": "D5",
          "midi": 74,
          "time": 70.57135799999992,
          "velocity": 0.5511811023622047,
          "duration": 0.2857139999999987
        },
        {
          "name": "A2",
          "midi": 45,
          "time": 70.57135799999992,
          "velocity": 0.6456692913385826,
          "duration": 0.2857139999999987
        },
        {
          "name": "C4",
          "midi": 60,
          "time": 70.85707199999992,
          "velocity": 0.5590551181102362,
          "duration": 1.1428559999999948
        },
        {
          "name": "C5",
          "midi": 72,
          "time": 70.85707199999992,
          "velocity": 0.5590551181102362,
          "duration": 1.1428559999999948
        },
        {
          "name": "D3",
          "midi": 50,
          "time": 70.85707199999992,
          "velocity": 0.6535433070866141,
          "duration": 0.2857139999999987
        },
        {
          "name": "A2",
          "midi": 45,
          "time": 71.14278599999992,
          "velocity": 0.5354330708661418,
          "duration": 0.2857139999999987
        },
        {
          "name": "D3",
          "midi": 50,
          "time": 71.42849999999991,
          "velocity": 0.6614173228346457,
          "duration": 0.2857139999999987
        },
        {
          "name": "A2",
          "midi": 45,
          "time": 71.71421399999991,
          "velocity": 0.5196850393700787,
          "duration": 0.2857139999999987
        },
        {
          "name": "D4",
          "midi": 62,
          "time": 71.99992799999991,
          "velocity": 0.6692913385826772,
          "duration": 0.5714279999999974
        },
        {
          "name": "D5",
          "midi": 74,
          "time": 71.99992799999991,
          "velocity": 0.6692913385826772,
          "duration": 0.5714279999999974
        },
        {
          "name": "C2",
          "midi": 36,
          "time": 71.99992799999991,
          "velocity": 0.5826771653543307,
          "duration": 0.2857139999999987
        },
        {
          "name": "G2",
          "midi": 43,
          "time": 72.28564199999991,
          "velocity": 0.6062992125984252,
          "duration": 0.2857139999999987
        },
        {
          "name": "E4",
          "midi": 64,
          "time": 72.57135599999991,
          "velocity": 0.6299212598425197,
          "duration": 0.2857139999999987
        },
        {
          "name": "E5",
          "midi": 76,
          "time": 72.57135599999991,
          "velocity": 0.6299212598425197,
          "duration": 0.2857139999999987
        },
        {
          "name": "C3",
          "midi": 48,
          "time": 72.57135599999991,
          "velocity": 0.6456692913385826,
          "duration": 0.2857139999999987
        },
        {
          "name": "D4",
          "midi": 62,
          "time": 72.85706999999991,
          "velocity": 0.5511811023622047,
          "duration": 0.5714279999999974
        },
        {
          "name": "D5",
          "midi": 74,
          "time": 72.85706999999991,
          "velocity": 0.5511811023622047,
          "duration": 0.5714279999999974
        },
        {
          "name": "G2",
          "midi": 43,
          "time": 72.85706999999991,
          "velocity": 0.5748031496062992,
          "duration": 0.2857139999999987
        },
        {
          "name": "C3",
          "midi": 48,
          "time": 73.1427839999999,
          "velocity": 0.6614173228346457,
          "duration": 0.2857139999999987
        },
        {
          "name": "E4",
          "midi": 64,
          "time": 73.4284979999999,
          "velocity": 0.6062992125984252,
          "duration": 0.2857139999999987
        },
        {
          "name": "E5",
          "midi": 76,
          "time": 73.4284979999999,
          "velocity": 0.6062992125984252,
          "duration": 0.2857139999999987
        },
        {
          "name": "G2",
          "midi": 43,
          "time": 73.4284979999999,
          "velocity": 0.5748031496062992,
          "duration": 0.2857139999999987
        },
        {
          "name": "D4",
          "midi": 62,
          "time": 73.7142119999999,
          "velocity": 0.5511811023622047,
          "duration": 0.2857139999999987
        },
        {
          "name": "D5",
          "midi": 74,
          "time": 73.7142119999999,
          "velocity": 0.5511811023622047,
          "duration": 0.2857139999999987
        },
        {
          "name": "C2",
          "midi": 36,
          "time": 73.7142119999999,
          "velocity": 0.5748031496062992,
          "duration": 0.2857139999999987
        },
        {
          "name": "C4",
          "midi": 60,
          "time": 73.9999259999999,
          "velocity": 0.5669291338582677,
          "duration": 0.2857139999999987
        },
        {
          "name": "C5",
          "midi": 72,
          "time": 73.9999259999999,
          "velocity": 0.5669291338582677,
          "duration": 0.2857139999999987
        },
        {
          "name": "G2",
          "midi": 43,
          "time": 73.9999259999999,
          "velocity": 0.6614173228346457,
          "duration": 0.2857139999999987
        },
        {
          "name": "G3",
          "midi": 55,
          "time": 74.2856399999999,
          "velocity": 0.48031496062992124,
          "duration": 1.1428559999999948
        },
        {
          "name": "G4",
          "midi": 67,
          "time": 74.2856399999999,
          "velocity": 0.48031496062992124,
          "duration": 1.1428559999999948
        },
        {
          "name": "C3",
          "midi": 48,
          "time": 74.2856399999999,
          "velocity": 0.6220472440944882,
          "duration": 0.2857139999999987
        },
        {
          "name": "G2",
          "midi": 43,
          "time": 74.5713539999999,
          "velocity": 0.5905511811023622,
          "duration": 0.2857139999999987
        },
        {
          "name": "C3",
          "midi": 48,
          "time": 74.8570679999999,
          "velocity": 0.6141732283464567,
          "duration": 0.2857139999999987
        },
        {
          "name": "G2",
          "midi": 43,
          "time": 75.1427819999999,
          "velocity": 0.5826771653543307,
          "duration": 0.2857139999999987
        },
        {
          "name": "D4",
          "midi": 62,
          "time": 75.4284959999999,
          "velocity": 0.7480314960629921,
          "duration": 0.5714279999999974
        },
        {
          "name": "D5",
          "midi": 74,
          "time": 75.4284959999999,
          "velocity": 0.7480314960629921,
          "duration": 0.5714279999999974
        },
        {
          "name": "E2",
          "midi": 40,
          "time": 75.4284959999999,
          "velocity": 0.5433070866141733,
          "duration": 0.2857139999999987
        },
        {
          "name": "B2",
          "midi": 47,
          "time": 75.7142099999999,
          "velocity": 0.6692913385826772,
          "duration": 0.2857139999999987
        },
        {
          "name": "E4",
          "midi": 64,
          "time": 75.9999239999999,
          "velocity": 0.6377952755905512,
          "duration": 0.2857139999999987
        },
        {
          "name": "E5",
          "midi": 76,
          "time": 75.9999239999999,
          "velocity": 0.6377952755905512,
          "duration": 0.2857139999999987
        },
        {
          "name": "E3",
          "midi": 52,
          "time": 75.9999239999999,
          "velocity": 0.6614173228346457,
          "duration": 0.2857139999999987
        },
        {
          "name": "D4",
          "midi": 62,
          "time": 76.28563799999989,
          "velocity": 0.5748031496062992,
          "duration": 0.5714279999999974
        },
        {
          "name": "D5",
          "midi": 74,
          "time": 76.28563799999989,
          "velocity": 0.5748031496062992,
          "duration": 0.5714279999999974
        },
        {
          "name": "B2",
          "midi": 47,
          "time": 76.28563799999989,
          "velocity": 0.5433070866141733,
          "duration": 0.2857139999999987
        },
        {
          "name": "E3",
          "midi": 52,
          "time": 76.57135199999989,
          "velocity": 0.6141732283464567,
          "duration": 0.2857139999999987
        },
        {
          "name": "E4",
          "midi": 64,
          "time": 76.85706599999989,
          "velocity": 0.6614173228346457,
          "duration": 0.2857139999999987
        },
        {
          "name": "E5",
          "midi": 76,
          "time": 76.85706599999989,
          "velocity": 0.6614173228346457,
          "duration": 0.2857139999999987
        },
        {
          "name": "B2",
          "midi": 47,
          "time": 76.85706599999989,
          "velocity": 0.5669291338582677,
          "duration": 0.2857139999999987
        },
        {
          "name": "D4",
          "midi": 62,
          "time": 77.14277999999989,
          "velocity": 0.5433070866141733,
          "duration": 0.2857139999999987
        },
        {
          "name": "D5",
          "midi": 74,
          "time": 77.14277999999989,
          "velocity": 0.5433070866141733,
          "duration": 0.2857139999999987
        },
        {
          "name": "E2",
          "midi": 40,
          "time": 77.14277999999989,
          "velocity": 0.5433070866141733,
          "duration": 0.2857139999999987
        },
        {
          "name": "E4",
          "midi": 64,
          "time": 77.42849399999989,
          "velocity": 0.6062992125984252,
          "duration": 0.2857139999999987
        },
        {
          "name": "E5",
          "midi": 76,
          "time": 77.42849399999989,
          "velocity": 0.6062992125984252,
          "duration": 0.2857139999999987
        },
        {
          "name": "B2",
          "midi": 47,
          "time": 77.42849399999989,
          "velocity": 0.6377952755905512,
          "duration": 0.2857139999999987
        },
        {
          "name": "G4",
          "midi": 67,
          "time": 77.71420799999989,
          "velocity": 0.6220472440944882,
          "duration": 0.8571419999999961
        },
        {
          "name": "G5",
          "midi": 79,
          "time": 77.71420799999989,
          "velocity": 0.6220472440944882,
          "duration": 0.8571419999999961
        },
        {
          "name": "E3",
          "midi": 52,
          "time": 77.71420799999989,
          "velocity": 0.6299212598425197,
          "duration": 0.2857139999999987
        },
        {
          "name": "B2",
          "midi": 47,
          "time": 77.99992199999988,
          "velocity": 0.6141732283464567,
          "duration": 0.2857139999999987
        },
        {
          "name": "E3",
          "midi": 52,
          "time": 78.28563599999988,
          "velocity": 0.5984251968503937,
          "duration": 0.2857139999999987
        },
        {
          "name": "F4",
          "midi": 65,
          "time": 78.57134999999988,
          "velocity": 0.5511811023622047,
          "duration": 0.2857139999999987
        },
        {
          "name": "F5",
          "midi": 77,
          "time": 78.57134999999988,
          "velocity": 0.5511811023622047,
          "duration": 0.2857139999999987
        },
        {
          "name": "B2",
          "midi": 47,
          "time": 78.57134999999988,
          "velocity": 0.5511811023622047,
          "duration": 0.2857139999999987
        },
        {
          "name": "E4",
          "midi": 64,
          "time": 78.85706399999988,
          "velocity": 0.5669291338582677,
          "duration": 2.571425999999988
        },
        {
          "name": "E5",
          "midi": 76,
          "time": 78.85706399999988,
          "velocity": 0.5669291338582677,
          "duration": 2.571425999999988
        },
        {
          "name": "A#2",
          "midi": 46,
          "time": 78.85706399999988,
          "velocity": 0.5905511811023622,
          "duration": 0.2857139999999987
        },
        {
          "name": "F3",
          "midi": 53,
          "time": 79.14277799999988,
          "velocity": 0.6850393700787402,
          "duration": 0.2857139999999987
        },
        {
          "name": "A#3",
          "midi": 58,
          "time": 79.42849199999988,
          "velocity": 0.6220472440944882,
          "duration": 0.2857139999999987
        },
        {
          "name": "F3",
          "midi": 53,
          "time": 79.71420599999988,
          "velocity": 0.5669291338582677,
          "duration": 0.2857139999999987
        },
        {
          "name": "A#3",
          "midi": 58,
          "time": 79.99991999999988,
          "velocity": 0.6299212598425197,
          "duration": 0.2857139999999987
        },
        {
          "name": "F3",
          "midi": 53,
          "time": 80.28563399999987,
          "velocity": 0.5590551181102362,
          "duration": 0.2857139999999987
        },
        {
          "name": "A2",
          "midi": 45,
          "time": 80.57134799999987,
          "velocity": 0.5275590551181102,
          "duration": 0.2857139999999987
        },
        {
          "name": "E3",
          "midi": 52,
          "time": 80.85706199999987,
          "velocity": 0.6456692913385826,
          "duration": 0.2857139999999987
        },
        {
          "name": "A3",
          "midi": 57,
          "time": 81.14277599999987,
          "velocity": 0.6220472440944882,
          "duration": 0.2857139999999987
        },
        {
          "name": "E3",
          "midi": 52,
          "time": 81.42848999999987,
          "velocity": 0.5433070866141733,
          "duration": 0.2857139999999987
        },
        {
          "name": "A3",
          "midi": 57,
          "time": 81.71420399999987,
          "velocity": 0.6141732283464567,
          "duration": 0.2857139999999987
        },
        {
          "name": "E3",
          "midi": 52,
          "time": 81.99991799999987,
          "velocity": 0.5433070866141733,
          "duration": 0.2857139999999987
        },
        {
          "name": "E4",
          "midi": 64,
          "time": 82.28563199999986,
          "velocity": 0.5511811023622047,
          "duration": 0.5714279999999974
        },
        {
          "name": "E5",
          "midi": 76,
          "time": 82.28563199999986,
          "velocity": 0.5511811023622047,
          "duration": 0.5714279999999974
        },
        {
          "name": "F2",
          "midi": 41,
          "time": 82.28563199999986,
          "velocity": 0.5275590551181102,
          "duration": 0.2857139999999987
        },
        {
          "name": "D3",
          "midi": 50,
          "time": 82.57134599999986,
          "velocity": 0.6692913385826772,
          "duration": 0.2857139999999987
        },
        {
          "name": "F4",
          "midi": 65,
          "time": 82.85705999999986,
          "velocity": 0.6220472440944882,
          "duration": 0.2857139999999987
        },
        {
          "name": "F5",
          "midi": 77,
          "time": 82.85705999999986,
          "velocity": 0.6220472440944882,
          "duration": 0.2857139999999987
        },
        {
          "name": "A3",
          "midi": 57,
          "time": 82.85705999999986,
          "velocity": 0.6614173228346457,
          "duration": 0.2857139999999987
        },
        {
          "name": "E4",
          "midi": 64,
          "time": 83.14277399999986,
          "velocity": 0.5590551181102362,
          "duration": 0.5714279999999974
        },
        {
          "name": "E5",
          "midi": 76,
          "time": 83.14277399999986,
          "velocity": 0.5590551181102362,
          "duration": 0.5714279999999974
        },
        {
          "name": "D3",
          "midi": 50,
          "time": 83.14277399999986,
          "velocity": 0.5275590551181102,
          "duration": 0.2857139999999987
        },
        {
          "name": "A3",
          "midi": 57,
          "time": 83.42848799999986,
          "velocity": 0.6771653543307087,
          "duration": 0.2857139999999987
        },
        {
          "name": "F4",
          "midi": 65,
          "time": 83.71420199999986,
          "velocity": 0.6220472440944882,
          "duration": 0.2857139999999987
        },
        {
          "name": "F5",
          "midi": 77,
          "time": 83.71420199999986,
          "velocity": 0.6220472440944882,
          "duration": 0.2857139999999987
        },
        {
          "name": "D3",
          "midi": 50,
          "time": 83.71420199999986,
          "velocity": 0.5196850393700787,
          "duration": 0.2857139999999987
        },
        {
          "name": "E4",
          "midi": 64,
          "time": 83.99991599999986,
          "velocity": 0.5984251968503937,
          "duration": 0.2857139999999987
        },
        {
          "name": "E5",
          "midi": 76,
          "time": 83.99991599999986,
          "velocity": 0.5984251968503937,
          "duration": 0.2857139999999987
        },
        {
          "name": "F2",
          "midi": 41,
          "time": 83.99991599999986,
          "velocity": 0.5433070866141733,
          "duration": 0.2857139999999987
        },
        {
          "name": "F4",
          "midi": 65,
          "time": 84.28562999999986,
          "velocity": 0.6141732283464567,
          "duration": 0.2857139999999987
        },
        {
          "name": "F5",
          "midi": 77,
          "time": 84.28562999999986,
          "velocity": 0.6141732283464567,
          "duration": 0.2857139999999987
        },
        {
          "name": "D3",
          "midi": 50,
          "time": 84.28562999999986,
          "velocity": 0.6377952755905512,
          "duration": 0.2857139999999987
        },
        {
          "name": "A4",
          "midi": 69,
          "time": 84.57134399999985,
          "velocity": 0.6535433070866141,
          "duration": 1.1428559999999948
        },
        {
          "name": "A5",
          "midi": 81,
          "time": 84.57134399999985,
          "velocity": 0.6535433070866141,
          "duration": 1.1428559999999948
        },
        {
          "name": "A3",
          "midi": 57,
          "time": 84.57134399999985,
          "velocity": 0.6692913385826772,
          "duration": 0.2857139999999987
        },
        {
          "name": "D3",
          "midi": 50,
          "time": 84.85705799999985,
          "velocity": 0.5748031496062992,
          "duration": 0.2857139999999987
        },
        {
          "name": "A3",
          "midi": 57,
          "time": 85.14277199999985,
          "velocity": 0.6456692913385826,
          "duration": 0.2857139999999987
        },
        {
          "name": "D3",
          "midi": 50,
          "time": 85.42848599999985,
          "velocity": 0.5433070866141733,
          "duration": 0.2857139999999987
        },
        {
          "name": "C5",
          "midi": 72,
          "time": 85.71419999999985,
          "velocity": 0.6377952755905512,
          "duration": 0.5714279999999974
        },
        {
          "name": "C6",
          "midi": 84,
          "time": 85.71419999999985,
          "velocity": 0.6377952755905512,
          "duration": 0.5714279999999974
        },
        {
          "name": "A2",
          "midi": 45,
          "time": 85.71419999999985,
          "velocity": 0.5433070866141733,
          "duration": 0.2857139999999987
        },
        {
          "name": "E3",
          "midi": 52,
          "time": 85.99991399999985,
          "velocity": 0.6614173228346457,
          "duration": 0.2857139999999987
        },
        {
          "name": "B4",
          "midi": 71,
          "time": 86.28562799999985,
          "velocity": 0.6141732283464567,
          "duration": 0.5714279999999974
        },
        {
          "name": "B5",
          "midi": 83,
          "time": 86.28562799999985,
          "velocity": 0.6141732283464567,
          "duration": 0.5714279999999974
        },
        {
          "name": "A3",
          "midi": 57,
          "time": 86.28562799999985,
          "velocity": 0.6220472440944882,
          "duration": 0.2857139999999987
        },
        {
          "name": "E3",
          "midi": 52,
          "time": 86.57134199999985,
          "velocity": 0.5826771653543307,
          "duration": 0.2857139999999987
        },
        {
          "name": "C5",
          "midi": 72,
          "time": 86.85705599999984,
          "velocity": 0.6614173228346457,
          "duration": 0.2857139999999987
        },
        {
          "name": "C6",
          "midi": 84,
          "time": 86.85705599999984,
          "velocity": 0.6614173228346457,
          "duration": 0.2857139999999987
        },
        {
          "name": "A3",
          "midi": 57,
          "time": 86.85705599999984,
          "velocity": 0.6692913385826772,
          "duration": 0.2857139999999987
        },
        {
          "name": "B4",
          "midi": 71,
          "time": 87.14276999999984,
          "velocity": 0.5511811023622047,
          "duration": 0.2857139999999987
        },
        {
          "name": "B5",
          "midi": 83,
          "time": 87.14276999999984,
          "velocity": 0.5511811023622047,
          "duration": 0.2857139999999987
        },
        {
          "name": "E3",
          "midi": 52,
          "time": 87.14276999999984,
          "velocity": 0.5984251968503937,
          "duration": 0.2857139999999987
        },
        {
          "name": "A4",
          "midi": 69,
          "time": 87.42848399999984,
          "velocity": 0.5905511811023622,
          "duration": 0.2857139999999987
        },
        {
          "name": "A5",
          "midi": 81,
          "time": 87.42848399999984,
          "velocity": 0.5905511811023622,
          "duration": 0.2857139999999987
        },
        {
          "name": "A2",
          "midi": 45,
          "time": 87.42848399999984,
          "velocity": 0.5354330708661418,
          "duration": 0.2857139999999987
        },
        {
          "name": "E4",
          "midi": 64,
          "time": 87.71419799999984,
          "velocity": 0.5196850393700787,
          "duration": 0.5714279999999974
        },
        {
          "name": "E5",
          "midi": 76,
          "time": 87.71419799999984,
          "velocity": 0.5196850393700787,
          "duration": 0.5714279999999974
        },
        {
          "name": "E3",
          "midi": 52,
          "time": 87.71419799999984,
          "velocity": 0.6456692913385826,
          "duration": 0.2857139999999987
        },
        {
          "name": "A3",
          "midi": 57,
          "time": 87.99991199999984,
          "velocity": 0.6771653543307087,
          "duration": 0.2857139999999987
        },
        {
          "name": "E3",
          "midi": 52,
          "time": 88.28562599999984,
          "velocity": 0.5511811023622047,
          "duration": 0.2857139999999987
        },
        {
          "name": "A3",
          "midi": 57,
          "time": 88.57133999999984,
          "velocity": 0.6220472440944882,
          "duration": 0.2857139999999987
        },
        {
          "name": "E3",
          "midi": 52,
          "time": 88.85705399999983,
          "velocity": 0.5748031496062992,
          "duration": 0.2857139999999987
        },
        {
          "name": "A#3",
          "midi": 58,
          "time": 89.14276799999983,
          "velocity": 0.6299212598425197,
          "duration": 0.14285700000000645
        },
        {
          "name": "E4",
          "midi": 64,
          "time": 89.28562499999984,
          "velocity": 0.7165354330708661,
          "duration": 0.14285700000000645
        },
        {
          "name": "A#4",
          "midi": 70,
          "time": 89.42848199999985,
          "velocity": 0.5354330708661418,
          "duration": 0.14285700000000645
        },
        {
          "name": "C5",
          "midi": 72,
          "time": 89.57133899999985,
          "velocity": 0.6377952755905512,
          "duration": 0.14285700000000645
        },
        {
          "name": "D5",
          "midi": 74,
          "time": 89.71419599999986,
          "velocity": 0.6456692913385826,
          "duration": 0.2857139999999987
        },
        {
          "name": "A3",
          "midi": 57,
          "time": 89.99990999999986,
          "velocity": 0.5669291338582677,
          "duration": 0.14285700000000645
        },
        {
          "name": "E4",
          "midi": 64,
          "time": 90.14276699999986,
          "velocity": 0.7244094488188977,
          "duration": 0.14285700000000645
        },
        {
          "name": "A4",
          "midi": 69,
          "time": 90.28562399999987,
          "velocity": 0.5118110236220472,
          "duration": 0.14285700000000645
        },
        {
          "name": "A#4",
          "midi": 70,
          "time": 90.42848099999988,
          "velocity": 0.6062992125984252,
          "duration": 0.14285700000000645
        },
        {
          "name": "C5",
          "midi": 72,
          "time": 90.57133799999988,
          "velocity": 0.6220472440944882,
          "duration": 0.2857139999999987
        },
        {
          "name": "G#3",
          "midi": 56,
          "time": 90.85705199999988,
          "velocity": 0.5354330708661418,
          "duration": 0.14285700000000645
        },
        {
          "name": "D4",
          "midi": 62,
          "time": 90.99990899999989,
          "velocity": 0.6614173228346457,
          "duration": 0.14285700000000645
        },
        {
          "name": "G#4",
          "midi": 68,
          "time": 91.1427659999999,
          "velocity": 0.5118110236220472,
          "duration": 0.14285700000000645
        },
        {
          "name": "A#4",
          "midi": 70,
          "time": 91.2856229999999,
          "velocity": 0.6535433070866141,
          "duration": 0.14285700000000645
        },
        {
          "name": "C5",
          "midi": 72,
          "time": 91.42847999999991,
          "velocity": 0.6771653543307087,
          "duration": 0.2857139999999987
        },
        {
          "name": "G3",
          "midi": 55,
          "time": 91.7141939999999,
          "velocity": 0.5275590551181102,
          "duration": 0.14285700000000645
        },
        {
          "name": "D4",
          "midi": 62,
          "time": 91.85705099999991,
          "velocity": 0.7086614173228346,
          "duration": 0.14285700000000645
        },
        {
          "name": "G4",
          "midi": 67,
          "time": 91.99990799999992,
          "velocity": 0.5433070866141733,
          "duration": 0.14285700000000645
        },
        {
          "name": "A4",
          "midi": 69,
          "time": 92.14276499999993,
          "velocity": 0.6535433070866141,
          "duration": 0.14285700000000645
        },
        {
          "name": "A#4",
          "midi": 70,
          "time": 92.28562199999993,
          "velocity": 0.6535433070866141,
          "duration": 0.2857139999999987
        },
        {
          "name": "A1",
          "midi": 33,
          "time": 92.57133599999993,
          "velocity": 0.5118110236220472,
          "duration": 3.4285680000000127
        },
        {
          "name": "A2",
          "midi": 45,
          "time": 92.57133599999993,
          "velocity": 0.5118110236220472,
          "duration": 3.4285680000000127
        },
        {
          "name": "A7",
          "midi": 105,
          "time": 94.28561999999994,
          "velocity": 0.7795275590551181,
          "duration": 0.14285700000000645
        },
        {
          "name": "A6",
          "midi": 93,
          "time": 94.42847699999994,
          "velocity": 0.4881889763779528,
          "duration": 0.42857100000000514
        },
        {
          "name": "B6",
          "midi": 95,
          "time": 94.42847699999994,
          "velocity": 0.4881889763779528,
          "duration": 0.42857100000000514
        },
        {
          "name": "A1",
          "midi": 33,
          "time": 95.99990399999994,
          "velocity": 0.5905511811023622,
          "duration": 3.4285680000000127
        },
        {
          "name": "A2",
          "midi": 45,
          "time": 95.99990399999994,
          "velocity": 0.5905511811023622,
          "duration": 3.4285680000000127
        },
        {
          "name": "A7",
          "midi": 105,
          "time": 97.71418799999995,
          "velocity": 0.5669291338582677,
          "duration": 0.14285700000000645
        },
        {
          "name": "A6",
          "midi": 93,
          "time": 97.85704499999996,
          "velocity": 0.44881889763779526,
          "duration": 0.42857100000000514
        },
        {
          "name": "B6",
          "midi": 95,
          "time": 97.85704499999996,
          "velocity": 0.44881889763779526,
          "duration": 0.42857100000000514
        },
        {
          "name": "A1",
          "midi": 33,
          "time": 99.42847199999996,
          "velocity": 0.6141732283464567,
          "duration": 3.4285680000000127
        },
        {
          "name": "A2",
          "midi": 45,
          "time": 99.42847199999996,
          "velocity": 0.6141732283464567,
          "duration": 3.4285680000000127
        },
        {
          "name": "A7",
          "midi": 105,
          "time": 101.14275599999996,
          "velocity": 0.5039370078740157,
          "duration": 0.14285700000000645
        },
        {
          "name": "A6",
          "midi": 93,
          "time": 101.28561299999997,
          "velocity": 0.4251968503937008,
          "duration": 0.42857100000000514
        },
        {
          "name": "B6",
          "midi": 95,
          "time": 101.28561299999997,
          "velocity": 0.4251968503937008,
          "duration": 0.42857100000000514
        },
        {
          "name": "A1",
          "midi": 33,
          "time": 102.85703999999997,
          "velocity": 0.5826771653543307,
          "duration": 3.4285680000000127
        },
        {
          "name": "A2",
          "midi": 45,
          "time": 102.85703999999997,
          "velocity": 0.5826771653543307,
          "duration": 3.4285680000000127
        },
        {
          "name": "A7",
          "midi": 105,
          "time": 104.57132399999998,
          "velocity": 0.5511811023622047,
          "duration": 0.14285700000000645
        },
        {
          "name": "A6",
          "midi": 93,
          "time": 104.71418099999998,
          "velocity": 0.4330708661417323,
          "duration": 0.42857100000000514
        },
        {
          "name": "B6",
          "midi": 95,
          "time": 104.71418099999998,
          "velocity": 0.4330708661417323,
          "duration": 0.42857100000000514
        }
      ],
      "controlChanges": {
        "7": [
          {
            "number": 7,
            "time": 0,
            "value": 0.7874015748031497
          },
          {
            "number": 7,
            "time": 0,
            "value": 0.7874015748031497
          }
        ],
        "10": [
          {
            "number": 10,
            "time": 0,
            "value": 0.4015748031496063
          },
          {
            "number": 10,
            "time": 0,
            "value": 0.4015748031496063
          }
        ],
        "64": [
          {
            "number": 64,
            "time": 0,
            "value": 0
          },
          {
            "number": 64,
            "time": 0,
            "value": 0
          }
        ],
        "91": [
          {
            "number": 91,
            "time": 0,
            "value": 0.3779527559055118
          },
          {
            "number": 91,
            "time": 0,
            "value": 0.3779527559055118
          }
        ],
        "121": [
          {
            "number": 121,
            "time": 0,
            "value": 0
          },
          {
            "number": 121,
            "time": 0,
            "value": 0
          }
        ]
      },
      "id": 1,
      "name": "Piano",
      "instrumentNumber": 0,
      "instrument": "acoustic grand piano",
      "instrumentFamily": "piano",
      "channelNumber": 0,
      "isPercussion": false
    }
  ]
}